<svg width="34" height="31" viewBox="0 0 34 31" fill="none" xmlns="http://www.w3.org/2000/svg">
<path d="M30.3914 21.2183H29.5977V13.9999C29.5977 7.0544 23.942 1.39875 16.9965 1.39875C10.051 1.39875 4.39534 7.04613 4.39534 13.9999V21.2183H3.60156V13.9999C3.60983 6.61617 9.61275 0.60498 16.9965 0.60498C24.3803 0.60498 30.3914 6.61617 30.3914 13.9999V21.2183Z" fill="#253E66"/>
<path d="M32.0242 22.3344H29.6016V14.3223H32.0242C33.1157 14.3223 34.0004 15.207 34.0004 16.2984V20.35C34.0004 21.4414 33.1157 22.3262 32.0242 22.3262V22.3344ZM30.3953 21.5407H32.0242C32.6774 21.5407 33.2149 21.0115 33.2149 20.35V16.2984C33.2149 15.6452 32.6857 15.1078 32.0242 15.1078H30.3953V21.5407Z" fill="#253E66"/>
<path d="M4.39883 22.3345H1.97617C0.884728 22.3345 0 21.4497 0 20.3583V16.3067C0 15.2153 0.884728 14.3306 1.97617 14.3306H4.39883V22.3427V22.3345ZM1.97617 15.1161C1.32296 15.1161 0.785506 15.6453 0.785506 16.3067V20.3583C0.785506 21.0115 1.31469 21.549 1.97617 21.549H3.60506V15.1161H1.97617Z" fill="#253E66"/>
<path d="M24.9437 28.8334H19.1641V28.0396H24.9437C27.5152 28.0396 29.5989 25.9477 29.5989 23.3845V21.9375H30.3927V23.3845C30.3927 26.3859 27.9452 28.8334 24.9437 28.8334Z" fill="#253E66"/>
<path d="M17.0007 31C15.5868 31 14.4375 29.8507 14.4375 28.4368C14.4375 27.0229 15.5868 25.8735 17.0007 25.8735C18.4146 25.8735 19.564 27.0229 19.564 28.4368C19.564 29.8507 18.4146 31 17.0007 31ZM17.0007 26.6673C16.025 26.6673 15.2313 27.4611 15.2313 28.4368C15.2313 29.4124 16.025 30.2062 17.0007 30.2062C17.9764 30.2062 18.7702 29.4124 18.7702 28.4368C18.7702 27.4611 17.9764 26.6673 17.0007 26.6673Z" fill="#253E66"/>
<path d="M8.42188 18.0928V17.638L9.00894 17.0675C10.4146 15.728 11.0513 15.0087 11.0595 14.1818C11.0595 13.6196 10.7867 13.1069 9.96808 13.1069C9.4637 13.1069 9.05028 13.3632 8.79396 13.57L8.55417 13.0408C8.93452 12.7183 9.48024 12.4785 10.1169 12.4785C11.3076 12.4785 11.8037 13.2971 11.8037 14.0826C11.8037 15.0996 11.0678 15.9265 9.90193 17.0427L9.4637 17.4479V17.4644H11.9442V18.0845H8.42188V18.0928Z" fill="#253E66"/>
<path d="M15.0867 18.0932V16.5883H12.5234V16.0922L14.9874 12.5698H15.7978V16.0012H16.5667V16.5883H15.7978V18.0932H15.0949H15.0867ZM15.0867 16.0012V14.1574C15.0867 13.868 15.0949 13.5786 15.1115 13.2892H15.0867C14.913 13.6117 14.7807 13.8514 14.6319 14.1078L13.2841 15.9847V16.0012H15.0949H15.0867Z" fill="#253E66"/>
<path d="M20.5403 18.0929L19.8127 16.8278C19.515 16.3482 19.3248 16.034 19.1512 15.695H19.1346C18.9693 16.0258 18.8122 16.3317 18.5145 16.8361L17.8282 18.0929H16.9766L18.7295 15.1989L17.051 12.3711H17.9109L18.6633 13.7106C18.8783 14.0827 19.0354 14.3721 19.1925 14.678H19.2173C19.3827 14.339 19.5233 14.0744 19.7382 13.7106L20.5155 12.3711H21.3671L19.6225 15.1576L21.4085 18.0929H20.5485H20.5403Z" fill="#253E66"/>
<path d="M25.567 12.5698V13.0659L23.1608 18.0932H22.3919L24.7897 13.2148V13.1982H22.0859V12.5781H25.567V12.5698Z" fill="#253E66"/>
</svg>
