<svg width="28" height="25" viewBox="0 0 28 25" fill="none" xmlns="http://www.w3.org/2000/svg">
<path d="M9.19743 23.0891C9.28525 23.1775 9.40411 23.2272 9.52802 23.2272C9.65193 23.2272 9.7708 23.1775 9.85861 23.0891L13.9266 18.9735C15.1701 19.3795 16.4938 19.4676 17.7792 19.23C19.0646 18.9923 20.2719 18.4362 21.2931 17.6113L27.1694 24.1251C27.2108 24.171 27.2608 24.2082 27.3165 24.2345C27.3722 24.2609 27.4324 24.2759 27.4938 24.2787C27.5552 24.2815 27.6166 24.272 27.6743 24.2508C27.7321 24.2296 27.7852 24.1971 27.8306 24.1552C27.8759 24.1132 27.9127 24.0627 27.9387 24.0063C27.9648 23.95 27.9796 23.8891 27.9824 23.827C27.9851 23.7648 27.9758 23.7028 27.9548 23.6443C27.9339 23.5859 27.9018 23.5322 27.8603 23.4862L21.9923 16.9825C23.3818 15.5734 24.2042 13.6922 24.2999 11.7041C24.3957 9.71596 23.7579 7.76277 22.5105 6.22359L27.0644 1.61547V3.78951C27.0644 3.91503 27.1137 4.0354 27.2014 4.12416C27.2892 4.21292 27.4081 4.26278 27.5322 4.26278C27.6563 4.26278 27.7753 4.21292 27.863 4.12416C27.9507 4.0354 28 3.91503 28 3.78951V0.47327C27.9994 0.379934 27.9718 0.288817 27.9205 0.211224C27.8693 0.133631 27.7966 0.0729784 27.7116 0.0367913C27.6553 0.0129575 27.5949 0.00046054 27.5339 0L24.2593 0C24.1353 0 24.0163 0.0498623 23.9285 0.138618C23.8408 0.227373 23.7915 0.347751 23.7915 0.47327C23.7915 0.598789 23.8408 0.719168 23.9285 0.807923C24.0163 0.896679 24.1353 0.946541 24.2593 0.946541H26.4082L21.8749 5.53041C21.0454 4.71796 20.0508 4.09817 18.9605 3.71415C17.8701 3.33014 16.7101 3.19114 15.5613 3.30682C14.4124 3.4225 13.3022 3.79009 12.3081 4.384C11.3139 4.97792 10.4596 5.78388 9.80466 6.7458C9.1497 7.70772 8.7098 8.80249 8.51559 9.95391C8.32137 11.1053 8.3775 12.2857 8.68008 13.413C8.98265 14.5402 9.52439 15.5872 10.2676 16.4811C11.0108 17.3749 11.9376 18.0942 12.9836 18.5888L9.52885 22.0848L6.20637 18.7209C6.16299 18.6769 6.11147 18.642 6.05474 18.6182C5.99801 18.5944 5.93719 18.5822 5.87578 18.5822C5.81436 18.5822 5.75354 18.5944 5.69682 18.6182C5.64009 18.642 5.58856 18.6769 5.54518 18.7209L0.148224 24.1811C0.102403 24.2245 0.0656727 24.2767 0.0402197 24.3347C0.0147668 24.3928 0.00111096 24.4554 6.50076e-05 24.5188C-0.000980941 24.5823 0.0106043 24.6453 0.0341314 24.7042C0.0576584 24.763 0.0926463 24.8165 0.137013 24.8614C0.18138 24.9063 0.234218 24.9417 0.292384 24.9655C0.35055 24.9893 0.412854 25.001 0.47559 24.9999C0.538325 24.9989 0.600208 24.9851 0.657558 24.9593C0.714907 24.9336 0.76655 24.8964 0.809413 24.85L5.87578 19.7252L9.19743 23.0891ZM9.33876 11.3133C9.33876 9.90915 9.75032 8.53649 10.5214 7.36893C11.2925 6.20138 12.3884 5.29137 13.6707 4.75397C14.953 4.21657 16.364 4.07592 17.7252 4.34981C19.0865 4.62369 20.337 5.2998 21.3184 6.29266C22.2999 7.28551 22.9683 8.55051 23.2392 9.9277C23.5101 11.3049 23.3712 12.7324 22.8402 14.0298C22.3092 15.3271 21.4098 16.436 20.2559 17.2163C19.1019 17.9965 17.7452 18.4131 16.3573 18.4132C14.4965 18.4115 12.7125 17.6629 11.3967 16.3318C10.0808 15.0007 9.34072 13.1959 9.33876 11.3133ZM18.7607 12.6955L14.496 8.38508L10.8347 12.0901C10.7461 12.174 10.6287 12.2198 10.5073 12.2177C10.386 12.2157 10.2702 12.166 10.1843 12.0792C10.0985 11.9923 10.0494 11.8752 10.0474 11.7524C10.0454 11.6296 10.0906 11.5109 10.1735 11.4212L14.1654 7.38084C14.2534 7.29261 14.3722 7.2431 14.496 7.2431C14.6199 7.2431 14.7387 7.29261 14.8266 7.38084L19.0872 11.6913L21.4517 9.29901C21.5404 9.21513 21.6578 9.16938 21.7791 9.17143C21.9005 9.17348 22.0163 9.22316 22.1021 9.30998C22.1879 9.3968 22.237 9.51397 22.239 9.63674C22.2411 9.75951 22.1958 9.87827 22.1129 9.96794L19.4169 12.6955C19.3291 12.784 19.2102 12.8336 19.0863 12.8336C18.9624 12.8336 18.8436 12.784 18.7557 12.6955" fill="#253E66"/>
</svg>
