<svg width="27" height="26" viewBox="0 0 27 26" fill="none" xmlns="http://www.w3.org/2000/svg">
<path d="M9.50194 15.9393C9.23455 16.4329 8.86934 16.7941 8.47153 17.0529C8.16501 17.7873 8.11284 18.624 8.06067 19.4366L7.78024 19.4246L7.49981 19.4065C7.53894 18.7504 7.57807 18.0702 7.75416 17.4261C6.84113 17.7933 5.97376 17.7632 5.91507 17.7632C5.75855 17.7632 5.63464 17.6368 5.64116 17.4923C5.64769 17.3479 5.77812 17.2395 5.93464 17.2395C5.96724 17.2395 8.11284 17.2937 8.99325 15.6986C9.06499 15.5721 9.23455 15.518 9.37803 15.5842C9.5215 15.6504 9.57368 15.8129 9.50194 15.9393ZM6.63897 8.27665C6.68462 8.27665 6.73679 8.26462 6.78244 8.24054C8.88891 7.08482 8.01502 5.11046 8.0085 5.08638C7.9498 4.95395 7.78024 4.89376 7.63677 4.94793C7.49329 5.00211 7.42808 5.15861 7.48677 5.29104C7.51286 5.35725 8.17154 6.86812 6.49549 7.78908C6.35854 7.86132 6.31289 8.02384 6.39767 8.15025C6.44332 8.23452 6.54114 8.27665 6.63897 8.27665ZM11.4193 19.2259C11.2758 19.2801 11.2106 19.4366 11.2693 19.569C11.2954 19.6352 11.9541 21.1461 10.278 22.0671C10.1411 22.1393 10.0954 22.3018 10.1802 22.4282C10.2324 22.5125 10.3302 22.5546 10.4215 22.5546C10.4671 22.5546 10.5193 22.5426 10.565 22.5185C12.6714 21.3628 11.7975 19.3884 11.791 19.3644C11.7323 19.2319 11.5693 19.1717 11.4193 19.2259ZM8.86935 11.3345C8.92804 11.2021 8.86282 11.0516 8.71283 10.9914C8.56935 10.9372 8.39979 10.9974 8.3411 11.1359C8.31501 11.2021 7.6172 12.7009 5.72594 12.2555C5.57595 12.2194 5.41943 12.3036 5.3803 12.4481C5.34117 12.5865 5.43247 12.731 5.58899 12.7671C5.88246 12.8393 6.15637 12.8694 6.41071 12.8694C8.17806 12.8694 8.86282 11.3586 8.86935 11.3405V11.3345ZM26.4059 12.7972C26.4059 13.5797 25.7146 14.2178 24.8668 14.2178C24.1168 14.2178 23.4842 13.7182 23.3538 13.0621H13.8649V15.8791H16.5257C16.6692 15.8791 16.7996 15.9273 16.9104 16.0176L19.3821 18.1123H21.5538C21.6908 17.4562 22.3168 16.9566 23.0668 16.9566C23.9146 16.9566 24.6059 17.5947 24.6059 18.3772C24.6059 19.1597 23.9146 19.7978 23.0668 19.7978C22.3168 19.7978 21.6842 19.2981 21.5538 18.642H19.3821C19.2387 18.642 19.1082 18.5939 18.9974 18.5036L16.5257 16.4088H13.8649V19.8218H16.5061C16.6626 19.8218 16.7996 19.876 16.9104 19.9783L18.0517 21.0317C18.2995 20.8752 18.5995 20.7849 18.9191 20.7849C19.7669 20.7849 20.4582 21.423 20.4582 22.2055C20.4582 22.988 19.7669 23.6261 18.9191 23.6261C18.0713 23.6261 17.38 22.988 17.38 22.2055C17.38 21.9106 17.4778 21.6337 17.6474 21.4049L16.5061 20.3515H13.8649V22.7954C13.8649 24.3665 12.4823 25.6426 10.7802 25.6426C9.07804 25.6426 7.82589 24.4808 7.70198 23.0061C7.70198 23.0061 7.68894 23.0061 7.68242 23.0061C7.66937 23.0061 7.64981 23.0001 7.63025 22.9941C7.61068 22.9941 7.59112 22.982 7.56503 22.976C6.41071 22.6208 5.61508 21.6276 5.57595 20.508V20.3816H5.56291C5.56291 20.3816 5.51073 20.3816 5.48465 20.3816H5.42595C5.39334 20.3816 5.35421 20.3816 5.32161 20.3816H5.30204C5.25639 20.3816 5.21074 20.3816 5.16509 20.3756C5.11944 20.3756 5.08031 20.3696 5.03466 20.3636C5.02814 20.3636 5.02161 20.3636 5.00857 20.3636C4.97596 20.3636 4.93683 20.3576 4.90423 20.3515C4.89118 20.3515 4.88466 20.3515 4.87162 20.3515C4.83901 20.3515 4.8064 20.3395 4.78032 20.3335C4.76727 20.3335 4.75423 20.3335 4.74119 20.3275C4.7151 20.3275 4.68249 20.3154 4.65641 20.3094C4.64336 20.3094 4.63032 20.3034 4.61728 20.2974C4.59119 20.2913 4.5651 20.2853 4.5325 20.2733C4.51945 20.2733 4.50641 20.2673 4.48685 20.2612C4.46076 20.2552 4.43467 20.2432 4.40859 20.2372C4.39554 20.2372 4.3825 20.2251 4.36294 20.2251C4.33685 20.2191 4.31076 20.2071 4.28468 20.195C4.27163 20.195 4.25207 20.183 4.23903 20.177C4.21294 20.1649 4.18685 20.1589 4.16729 20.1469C4.15424 20.1469 4.13468 20.1348 4.12164 20.1288C4.09555 20.1168 4.07599 20.1047 4.0499 20.0927C4.03686 20.0867 4.02381 20.0807 4.00425 20.0686C3.98468 20.0566 3.9586 20.0445 3.93251 20.0325C3.91947 20.0265 3.90642 20.0205 3.88686 20.0084C3.8673 19.9964 3.84121 19.9783 3.81512 19.9663C3.80208 19.9603 3.78904 19.9482 3.77599 19.9422C3.74991 19.9242 3.72382 19.9121 3.69773 19.8941C3.69121 19.8941 3.67817 19.882 3.66513 19.876C3.63252 19.8519 3.59339 19.8279 3.56078 19.7978C3.18905 19.5088 2.90862 19.1477 2.73254 18.7383C2.73254 18.7263 2.72602 18.7143 2.7195 18.7022C2.66733 18.5758 2.6282 18.4494 2.59559 18.317C2.56298 18.1906 2.54342 18.0582 2.53689 17.9317C2.53689 17.8655 2.53037 17.7993 2.53037 17.7331C2.53037 17.691 2.53037 17.6488 2.53037 17.6127C2.53037 17.6007 2.53037 17.5886 2.53037 17.5826C2.53037 17.5525 2.53037 17.5164 2.53689 17.4803C2.53689 17.4743 2.53689 17.4683 2.53689 17.4562C2.53689 17.4201 2.54342 17.378 2.54994 17.3358C2.54994 17.3238 2.54994 17.3178 2.54994 17.3057C2.54994 17.2756 2.56298 17.2455 2.5695 17.2094C2.5695 17.2034 2.5695 17.1914 2.5695 17.1853C2.57602 17.1492 2.58907 17.1071 2.59559 17.065C2.60211 17.0288 2.61515 16.9867 2.6282 16.9506C2.6282 16.9506 2.6282 16.9446 2.6282 16.9385C2.66733 16.8182 2.7195 16.6978 2.78471 16.5774C2.76515 16.5714 2.73906 16.5593 2.7195 16.5533C2.69341 16.5473 2.67385 16.5352 2.64776 16.5232C2.61515 16.5112 2.58254 16.4931 2.54994 16.4811C2.53689 16.4751 2.51733 16.469 2.49776 16.457C2.45863 16.4389 2.41951 16.4209 2.38038 16.4028C2.37385 16.4028 2.36733 16.3968 2.35429 16.3908C0.978237 15.6203 0.0652158 14.284 0 12.7852C0 12.731 0 12.6708 0 12.6166C0 12.5625 0 12.5023 0 12.4481C0.0586942 11.0516 0.860848 9.79354 2.10647 9.05917C2.10647 9.05917 2.11951 9.05315 2.12603 9.04714C2.16516 9.02908 2.20429 9.005 2.24342 8.98092C2.25647 8.98092 2.26951 8.96888 2.28255 8.96286C2.31516 8.94481 2.34777 8.93277 2.38038 8.91471C2.39994 8.90869 2.41951 8.89665 2.43907 8.88461C2.46516 8.87257 2.49124 8.86053 2.52385 8.8485C2.54994 8.83646 2.57602 8.82442 2.60211 8.81238C2.62167 8.80636 2.64776 8.79432 2.67385 8.78228C2.70645 8.77024 2.73906 8.7582 2.77167 8.74617C2.78471 8.74617 2.79776 8.74015 2.80428 8.73413C2.62167 8.37898 2.51733 7.98772 2.51733 7.57239C2.51733 6.77783 2.89558 6.0254 3.55426 5.51376C4.12816 5.07434 4.84553 4.85162 5.58247 4.88774C5.56291 3.65979 6.46288 2.5462 7.77372 2.23921C8.08023 0.963102 9.31281 0 10.7867 0C12.4888 0 13.8714 1.27611 13.8714 2.84717V5.29104H16.5126L17.6539 4.23765C17.4843 4.00891 17.3865 3.73202 17.3865 3.43707C17.3865 2.65455 18.0778 2.01649 18.9256 2.01649C19.7734 2.01649 20.4647 2.65455 20.4647 3.43707C20.4647 4.21959 19.7734 4.85764 18.9256 4.85764C18.6061 4.85764 18.3061 4.76735 18.0582 4.61085L16.917 5.66424C16.8061 5.76657 16.6692 5.82074 16.5126 5.82074H13.8714V9.23374H16.5322L19.0039 7.13899C19.1082 7.0487 19.2452 7.00054 19.3886 7.00054H21.5603C21.6973 6.34443 22.3234 5.84482 23.0733 5.84482C23.9211 5.84482 24.6124 6.48288 24.6124 7.2654C24.6124 8.04792 23.9211 8.68597 23.0733 8.68597C22.3234 8.68597 21.6908 8.18636 21.5603 7.53025H19.3886L16.917 9.625C16.8126 9.71529 16.6757 9.76344 16.5322 9.76344H13.8714V12.5805H23.3603C23.4972 11.9244 24.1233 11.4248 24.8733 11.4248C25.7146 11.4007 26.4059 12.0388 26.4059 12.8213V12.7972ZM22.0886 7.22326C22.0886 7.71685 22.5255 8.12015 23.0603 8.12015C23.5951 8.12015 24.032 7.71685 24.032 7.22326C24.032 6.72967 23.5951 6.32637 23.0603 6.32637C22.5255 6.32637 22.0886 6.72967 22.0886 7.22326ZM17.9409 3.40697C17.9409 3.90056 18.3778 4.30386 18.9126 4.30386C19.4473 4.30386 19.8843 3.90056 19.8843 3.40697C19.8843 2.91338 19.4473 2.51008 18.9126 2.51008C18.3778 2.51008 17.9409 2.91338 17.9409 3.40697ZM17.9409 22.1875C17.9409 22.681 18.3778 23.0843 18.9126 23.0843C19.4473 23.0843 19.8843 22.681 19.8843 22.1875C19.8843 21.6939 19.4473 21.2906 18.9126 21.2906C18.3778 21.2906 17.9409 21.6939 17.9409 22.1875ZM22.0886 18.3712C22.0886 18.8648 22.5255 19.268 23.0603 19.268C23.5951 19.268 24.032 18.8648 24.032 18.3712C24.032 17.8776 23.5951 17.4743 23.0603 17.4743C22.5255 17.4743 22.0886 17.8776 22.0886 18.3712ZM13.2975 22.7774V15.4518C13.291 15.3314 13.1214 13.7543 11.2171 13.6219C11.0606 13.6098 10.9432 13.4834 10.9562 13.339C10.9693 13.1945 11.1062 13.0861 11.2628 13.0982C12.2997 13.1704 12.9258 13.5978 13.304 14.0673V7.02462C12.9127 7.65064 12.2671 8.31879 11.2041 8.68597C11.1715 8.69801 11.1389 8.70403 11.1062 8.70403C10.9889 8.70403 10.8845 8.63782 10.8389 8.53549C10.7867 8.39704 10.8584 8.24656 11.0084 8.1984C12.9388 7.53025 13.2779 5.70036 13.304 5.50774V2.82309C13.304 1.54096 12.1758 0.499609 10.7867 0.499609C9.39759 0.499609 8.26936 1.54096 8.26936 2.82309C8.26936 3.1662 8.34762 3.49726 8.50414 3.81027C8.56935 3.9427 8.50414 4.0992 8.36718 4.15939C8.22371 4.21959 8.05415 4.15939 7.98893 4.03299C7.79328 3.65377 7.70198 3.25047 7.70198 2.82309V2.78698C6.6781 3.13008 6.01942 4.10522 6.17593 5.12852C6.18898 5.21279 6.15637 5.29706 6.09115 5.35123C6.02594 5.40541 5.93464 5.4355 5.84333 5.41745C5.15857 5.30308 4.45424 5.47764 3.92599 5.89298C3.39122 6.3023 3.09123 6.91025 3.09123 7.55433C3.09123 8.74617 4.1412 9.72131 5.439 9.72131C5.59551 9.72131 5.71942 9.84169 5.71942 9.98014C5.71942 10.1186 5.58899 10.239 5.439 10.239C4.48685 10.239 3.64556 9.81762 3.11079 9.16752C3.09123 9.17354 3.07166 9.17956 3.0521 9.1916C3.03905 9.1916 3.01949 9.20364 2.99993 9.20966C2.97384 9.2217 2.94123 9.23374 2.91514 9.24578C2.89558 9.25179 2.87602 9.26383 2.85645 9.26985C2.83036 9.28189 2.8108 9.28791 2.78471 9.29995C2.75863 9.31199 2.73906 9.31801 2.71298 9.33005C2.69341 9.33607 2.68037 9.3481 2.6608 9.35412C2.63472 9.36616 2.60211 9.38422 2.57602 9.39626C2.56298 9.39626 2.54994 9.4083 2.54342 9.41432C2.51081 9.43238 2.4782 9.45043 2.44559 9.46849C2.44559 9.46849 2.43255 9.46849 2.43255 9.48053C1.34344 10.1246 0.639115 11.2201 0.586942 12.4481C0.586942 12.4962 0.586942 12.5444 0.586942 12.5986C0.586942 12.6527 0.586942 12.6949 0.586942 12.743C0.639115 14.0492 1.44127 15.223 2.6608 15.837C2.66733 15.837 2.67385 15.843 2.68689 15.849C2.7195 15.8671 2.75211 15.8791 2.79124 15.8972C2.80428 15.8972 2.82384 15.9092 2.83689 15.9153C2.86297 15.9273 2.88906 15.9393 2.92167 15.9514C2.94123 15.9574 2.96732 15.9694 2.98688 15.9754C3.00645 15.9815 3.03253 15.9935 3.05862 15.9995C3.07818 16.0055 3.10427 16.0176 3.12384 16.0236C3.6586 15.3735 4.49989 14.9522 5.45204 14.9522C5.60856 14.9522 5.73247 15.0725 5.73247 15.211C5.73247 15.3494 5.60203 15.4698 5.45204 15.4698C4.60423 15.4698 3.86077 15.8852 3.44991 16.5052C3.44339 16.5172 3.43035 16.5352 3.42383 16.5473C3.40426 16.5834 3.3847 16.6195 3.35861 16.6556C3.35209 16.6737 3.33905 16.6918 3.326 16.7098C3.31948 16.7279 3.30644 16.7519 3.29992 16.77C3.28688 16.7941 3.28035 16.8182 3.26731 16.8422C3.26731 16.8603 3.25427 16.8784 3.24775 16.8964C3.2347 16.9325 3.22166 16.9686 3.20862 17.0048C3.20862 17.0168 3.20209 17.0349 3.19557 17.0469C3.18905 17.077 3.17601 17.1131 3.16949 17.1432V17.1793C3.14992 17.2215 3.1434 17.2696 3.13688 17.3118C3.13688 17.3178 3.13688 17.3298 3.13688 17.3418C3.13688 17.378 3.13036 17.4141 3.12384 17.4502C3.12384 17.4622 3.12384 17.4743 3.12384 17.4863C3.12384 17.5345 3.12384 17.5766 3.12384 17.6248C3.12384 17.7211 3.12384 17.8174 3.1434 17.9137C3.15644 17.9919 3.16949 18.0702 3.18905 18.1424C3.25427 18.3952 3.37166 18.63 3.52817 18.8467C3.52817 18.8467 3.52817 18.8467 3.53469 18.8587C3.55426 18.8888 3.57382 18.9129 3.59991 18.943C3.59991 18.943 3.61295 18.955 3.61295 18.9611C3.63252 18.9851 3.65208 19.0092 3.67817 19.0333C3.67817 19.0393 3.69121 19.0453 3.69773 19.0574C3.7173 19.0754 3.73686 19.0995 3.76295 19.1236C3.78904 19.1477 3.81512 19.1778 3.84773 19.2018C3.84773 19.2018 3.91295 19.256 3.94555 19.2801C3.94555 19.2801 3.9586 19.2921 3.96512 19.2921C3.99121 19.3102 4.01729 19.3282 4.04338 19.3523C4.1412 19.4185 4.23903 19.4787 4.34337 19.5269C4.34989 19.5269 4.36294 19.5329 4.36946 19.5389C4.3825 19.5389 4.39554 19.551 4.40859 19.557C4.85205 19.7616 5.36074 19.8339 5.8629 19.7496C5.8629 19.7496 5.87594 19.7496 5.88246 19.7496H5.92159C5.92159 19.7496 5.93464 19.7496 5.94116 19.7496H5.94768C5.94768 19.7496 5.9542 19.7496 5.96072 19.7496C5.96072 19.7496 5.96724 19.7496 5.97376 19.7496C5.97376 19.7496 5.98681 19.7496 5.99333 19.7496C5.99333 19.7496 5.99333 19.7496 5.99985 19.7496C6.00637 19.7496 6.00637 19.7496 6.01289 19.7496C6.01942 19.7496 6.02594 19.7496 6.03246 19.7616C6.03246 19.7616 6.03246 19.7616 6.03898 19.7616C6.03898 19.7616 6.05202 19.7677 6.05855 19.7737C6.05855 19.7737 6.05855 19.7737 6.06507 19.7737C6.06507 19.7737 6.06507 19.7737 6.06507 19.7797C6.06507 19.7797 6.07159 19.7917 6.07811 19.7978C6.07811 19.7978 6.07811 19.7978 6.07811 19.8038C6.07811 19.8098 6.08463 19.8158 6.09115 19.8279C6.09115 19.8279 6.09115 19.8339 6.09115 19.8399C6.09115 19.8399 6.09115 19.8399 6.09115 19.8459C6.09115 19.8459 6.09115 19.858 6.09115 19.864C6.09115 19.864 6.09115 19.864 6.09115 19.87C6.09115 19.87 6.09115 19.876 6.09115 19.882C6.09115 19.882 6.09115 19.9001 6.09115 19.9121V19.9362C6.09115 19.9362 6.09115 19.9603 6.09115 19.9663C5.94116 20.9414 6.53462 21.8805 7.48025 22.2597C7.48025 22.2597 7.48025 22.2597 7.48677 22.2597C7.51286 22.2717 7.53894 22.2777 7.56503 22.2898C7.57155 22.2898 7.58459 22.2898 7.59764 22.3018C7.61068 22.3018 7.62372 22.3078 7.63677 22.3139C7.74763 21.4471 8.29545 20.6525 9.12369 20.2011C9.26064 20.1288 9.4302 20.171 9.51498 20.2913C9.59976 20.4117 9.54759 20.5743 9.41716 20.6525C8.66065 21.0678 8.18458 21.8383 8.18458 22.6509C8.18458 23.9331 9.31281 24.9744 10.7019 24.9744C12.0714 24.9804 13.1997 23.9391 13.1997 22.663L13.2975 22.7774ZM25.8385 12.7972C25.8385 12.3036 25.4015 11.9003 24.8668 11.9003C24.332 11.9003 23.8951 12.3036 23.8951 12.7972C23.8951 13.2908 24.332 13.6941 24.8668 13.6941C25.4015 13.6941 25.8385 13.2908 25.8385 12.7972Z" fill="#253E66"/>
</svg>
