<svg width="27" height="22" viewBox="0 0 27 22" fill="none" xmlns="http://www.w3.org/2000/svg">
<g clip-path="url(#clip0_26476_6067)">
<path d="M22.4813 16.4171H20.4768V15.833H22.4813C24.3259 15.833 25.8815 14.5664 26.275 12.7463C26.6562 10.6988 25.3097 8.7128 23.2621 8.32544L23.0223 8.2824V7.83354C23.0223 6.21029 22.4813 4.63008 21.4975 3.38189C20.3169 1.85087 18.6199 0.879377 16.7261 0.645727C14.8016 0.405928 12.8893 0.95931 11.3337 2.18905C10.2208 3.04371 9.34767 4.2919 8.87422 5.71839L8.78814 5.97664L8.52374 5.909C8.28394 5.84752 8.10563 5.84752 7.83509 5.84752C7.50921 5.84752 7.25097 5.84752 7.00502 5.909C4.80379 6.36401 3.38344 8.50375 3.8323 10.6804L3.90608 11.0309H2.99607C1.71715 11.0309 0.591938 12.1561 0.591938 13.435C0.591938 14.7139 1.66796 15.8391 2.99607 15.8391H7.34934V16.4233H2.99607C1.34823 16.4233 0.0078125 15.0828 0.0078125 13.435C0.0078125 11.7871 1.37897 10.4467 2.99607 10.4467H3.20513C2.90384 8.07949 4.4902 5.82907 6.88204 5.33717C7.18333 5.26339 7.48461 5.26339 7.84124 5.26339C8.038 5.26339 8.21016 5.26339 8.40692 5.28799C8.93571 3.85534 9.83956 2.59486 10.9771 1.7279C12.6434 0.39363 14.7155 -0.196643 16.7937 0.0554528C18.8474 0.307549 20.6797 1.35897 21.9525 3.01297C23.01 4.35338 23.5942 6.05042 23.6003 7.79665C25.8323 8.34388 27.2711 10.5636 26.8468 12.857C26.398 14.9537 24.6026 16.411 22.4813 16.411V16.4171Z" fill="#253E66"/>
<path d="M7.20884 21.9999L6.79688 21.5879L10.4615 17.9233C9.48385 16.9088 8.92432 15.5868 8.92432 14.2587C8.92432 11.3504 11.2547 8.98926 14.1261 8.98926C16.9975 8.98926 19.3279 11.3872 19.3279 14.3263C19.3279 15.8143 18.7007 17.2531 17.6063 18.2615C16.6225 19.1715 15.3743 19.6203 14.1077 19.522C12.4414 19.3867 11.6666 18.8702 10.9103 18.3045L7.22113 21.9937L7.20884 21.9999ZM11.0579 17.6958L11.1133 17.7388C11.9126 18.3414 12.5459 18.8149 14.1384 18.944C15.2452 19.0301 16.3335 18.6365 17.1943 17.8372C18.1719 16.9334 18.7315 15.6544 18.7315 14.3263C18.7315 11.707 16.6594 9.57338 14.1138 9.57338C11.5683 9.57338 9.5023 11.6762 9.5023 14.2587C9.5023 15.5192 10.068 16.7673 11.0579 17.6958Z" fill="#253E66"/>
<path d="M10.881 14.2529H10.2969C10.2969 12.1501 12.0124 10.4346 14.1152 10.4346V11.0187C12.3321 11.0187 10.881 12.4698 10.881 14.2529Z" fill="#253E66"/>
</g>
<defs>
<clipPath id="clip0_26476_6067">
<rect width="26.9251" height="22" fill="white"/>
</clipPath>
</defs>
</svg>
