<svg width="21" height="27" viewBox="0 0 21 27" fill="none" xmlns="http://www.w3.org/2000/svg">
<g clip-path="url(#clip0_26476_5280)">
<path d="M13.1644 16.6414C12.3451 16.6414 11.5259 16.2724 11.0631 15.8909C10.9443 15.7971 10.9255 15.622 11.0256 15.5032C11.1257 15.3844 11.2945 15.3656 11.4133 15.4657C11.8073 15.7909 12.5578 16.1161 13.2644 16.0911C14.0149 16.0535 14.5277 15.7033 14.634 15.153C14.7278 14.6465 14.6215 14.0461 13.0768 13.4145C12.2826 13.0893 11.3758 12.5827 11.3571 11.5946C11.3445 10.9005 11.8886 10.0937 12.9205 9.96867C13.6584 9.87487 14.5715 10.1438 14.9592 10.4502C15.078 10.544 15.0968 10.7191 15.003 10.8379C14.9092 10.9568 14.7341 10.9755 14.6152 10.8817C14.3901 10.7066 13.6584 10.4377 12.9893 10.5127C12.2764 10.6003 11.9011 11.1319 11.9074 11.5821C11.9074 11.9574 12.0825 12.4014 13.2832 12.9017C14.2901 13.3144 15.4157 13.9585 15.1718 15.2531C15.053 15.8847 14.4964 16.5851 13.2832 16.6414C13.2394 16.6414 13.2019 16.6414 13.1581 16.6414H13.1644Z" fill="#253E66"/>
<path d="M13.1424 18.0982C12.9923 18.0982 12.8672 17.9731 12.8672 17.823V16.4597C12.8672 16.3096 12.9923 16.1846 13.1424 16.1846C13.2924 16.1846 13.4175 16.3096 13.4175 16.4597V17.823C13.4175 17.9731 13.2924 18.0982 13.1424 18.0982Z" fill="#253E66"/>
<path d="M13.1424 10.4251C12.9923 10.4251 12.8672 10.3 12.8672 10.1499V8.79909C12.8672 8.649 12.9923 8.52393 13.1424 8.52393C13.2924 8.52393 13.4175 8.649 13.4175 8.79909V10.1499C13.4175 10.3 13.2924 10.4251 13.1424 10.4251Z" fill="#253E66"/>
<path d="M11.2192 26.5471C11.1316 26.5471 11.0503 26.5283 10.969 26.497C10.9315 26.4783 10.8877 26.4595 10.8565 26.4345C10.7501 26.3657 10.6688 26.2656 10.6188 26.1468C10.5876 26.0718 10.5688 25.978 10.5688 25.8967V24.1144C10.3499 24.0581 10.1435 24.008 9.92466 23.933C9.39309 23.7641 8.9053 23.5703 8.38624 23.3201C8.08606 23.1763 7.84842 23.045 7.59827 22.8949L6.34127 24.1581C6.34127 24.1581 6.27874 24.2144 6.24747 24.2394C6.22245 24.2582 6.17868 24.2832 6.12865 24.302C5.92853 24.3895 5.69089 24.3645 5.50953 24.2394C5.47826 24.2207 5.44699 24.1894 5.41572 24.1644L2.44521 21.2126C2.28886 21.0563 2.22633 20.8437 2.26385 20.6248C2.28886 20.4934 2.3514 20.3809 2.44521 20.2808L3.7022 19.0176C3.48958 18.6611 3.32698 18.3609 3.16438 18.017C2.87046 17.3916 2.63282 16.735 2.46397 16.0658H0.669148C0.581596 16.0658 0.494044 16.0533 0.418999 16.022C0.175104 15.922 0.0125074 15.6843 0.0125074 15.4154L0 11.2192C0 11.1316 0.0187612 11.0503 0.0500298 10.969C0.0625372 10.9315 0.0875521 10.894 0.112567 10.8565C0.187612 10.7439 0.287671 10.6626 0.406492 10.6126C0.481537 10.5813 0.569089 10.5625 0.656641 10.5625H2.43895C2.49524 10.3437 2.54526 10.1373 2.62031 9.9184C2.71412 9.61823 2.82043 9.3243 2.93925 9.03037C3.14562 8.53633 3.38326 8.05479 3.65843 7.59202L2.39518 6.33502C2.33264 6.27248 2.28261 6.20369 2.25134 6.12239C2.18255 5.96605 2.18255 5.77844 2.25134 5.61584C2.28886 5.53454 2.33264 5.46575 2.39518 5.40322L5.42198 2.37016C5.47201 2.33264 5.51578 2.30762 5.55331 2.28886C5.75968 2.20131 5.99732 2.22633 6.17868 2.3514C6.2162 2.37641 6.24121 2.40143 6.27248 2.42644L7.54199 3.68344C7.89845 3.47082 8.19863 3.30822 8.54884 3.14562C9.17421 2.8517 9.83085 2.61406 10.5 2.44521V0.669148C10.5 0.581596 10.5125 0.494044 10.5438 0.418999C10.6438 0.175104 10.8815 0.0125074 11.1504 0.0125074L15.3404 0C15.7031 0 15.997 0.293925 15.997 0.656641V2.65783C16.0033 2.80792 15.8782 2.933 15.7281 2.933C15.578 2.933 15.4529 2.80792 15.4529 2.65783V0.656641C15.4467 0.600357 15.4029 0.556581 15.3404 0.556581L11.1504 0.569089C11.1066 0.569089 11.0691 0.594104 11.0503 0.631626V2.67034C11.0503 2.79541 10.9628 2.90798 10.8377 2.93925L10.7376 2.96426C10.0622 3.12686 9.4056 3.3645 8.77397 3.65843C8.38624 3.83979 8.06105 4.02114 7.6358 4.27755C7.52948 4.34634 7.38565 4.32758 7.29809 4.24002L5.8785 2.83294C5.83472 2.80167 5.7972 2.79541 5.76593 2.80792L5.7159 2.84544L2.78291 5.80345C2.75164 5.85974 2.75164 5.89101 2.75789 5.91602L4.19625 7.36063C4.2838 7.44818 4.30256 7.59202 4.24002 7.69833L4.18374 7.78588C3.90232 8.25491 3.65217 8.7427 3.4458 9.24926C3.33323 9.53067 3.23317 9.80584 3.13937 10.0935C3.05182 10.3749 2.98928 10.6188 2.92049 10.9065C2.88922 11.0316 2.78291 11.1191 2.65158 11.1191H0.656641L0.343955 11.0191L0.575342 11.1691C0.575342 11.1691 0.556581 11.2254 0.556581 11.2317L0.569089 15.4217C0.569089 15.4655 0.594104 15.503 0.631626 15.5155H2.67034C2.79541 15.5155 2.90798 15.603 2.93925 15.7281L2.96426 15.8282C3.12686 16.5036 3.3645 17.1602 3.65843 17.7918C3.83979 18.1733 4.02114 18.5048 4.27755 18.93C4.34634 19.0363 4.32758 19.1802 4.24002 19.2677L2.83294 20.6873C2.79541 20.7749 2.80792 20.8061 2.83294 20.8312L5.80345 23.7829C5.84723 23.8142 5.89101 23.8204 5.91602 23.8079L7.35438 22.3696C7.44193 22.282 7.58577 22.2633 7.69208 22.3258C7.99851 22.5071 8.26742 22.6635 8.62388 22.8386C9.11793 23.0762 9.58696 23.2638 10.0873 23.4202C10.3687 23.5077 10.6126 23.5703 10.9002 23.6391C11.0253 23.6703 11.1129 23.7767 11.1129 23.908V25.9092L11.1629 25.9967H15.4092C15.4592 25.9967 15.4967 25.9655 15.5092 25.9404V23.9017C15.5092 23.7516 15.6593 23.6266 15.7844 23.6266C15.9345 23.6266 16.0596 23.7516 16.0596 23.9017V25.9029C16.0658 25.9905 16.0471 26.0718 16.0158 26.1531C15.9157 26.397 15.6781 26.5596 15.4092 26.5596L11.2192 26.5721V26.5471Z" fill="#253E66"/>
<path d="M10.2588 19.9805C10.215 19.9805 10.1712 19.968 10.1337 19.9492C9.42702 19.5927 8.78289 19.1237 8.22005 18.5609C6.80671 17.1475 6.03125 15.2714 6.03125 13.2702C6.03125 11.269 6.80671 9.39292 8.22005 7.97957C8.27008 7.92955 8.34513 7.89828 8.41392 7.89828C8.48896 7.89828 8.55775 7.92955 8.60778 7.97957L9.02053 8.39232L9.52708 6.14098L7.27574 6.64753L7.7135 7.08529C7.81981 7.19161 7.81981 7.36671 7.7135 7.47928C7.60719 7.59184 7.43208 7.58559 7.31952 7.47928L6.52529 6.68505C6.4565 6.61626 6.42523 6.50995 6.4565 6.40989C6.48777 6.30983 6.56282 6.24104 6.66288 6.21602L9.83351 5.5031C9.92732 5.48434 10.0211 5.50935 10.0899 5.57815C10.1587 5.64694 10.1837 5.74074 10.165 5.83455L9.45204 9.00519C9.42702 9.10524 9.35823 9.18029 9.25817 9.21156C9.15811 9.23657 9.05805 9.21156 8.98301 9.14277L8.41392 8.57368C7.22571 9.85569 6.57532 11.5129 6.57532 13.2702C6.57532 15.1213 7.2945 16.8599 8.60778 18.1669C9.12684 18.6859 9.7272 19.1237 10.3776 19.4489C10.5152 19.5177 10.5652 19.6865 10.4964 19.8179C10.4464 19.9117 10.3526 19.968 10.2525 19.968L10.2588 19.9805Z" fill="#253E66"/>
<path d="M17.131 21.0498C17.056 21.0498 16.9872 21.0186 16.9372 20.9685C16.8684 20.8998 16.8434 20.806 16.8621 20.7121L17.575 17.5415C17.6001 17.4414 17.6689 17.3664 17.7689 17.3351C17.8627 17.3101 17.969 17.3351 18.0441 17.4039L18.6132 17.973C19.8014 16.691 20.4518 15.0338 20.4518 13.2702C20.4518 11.4191 19.7326 9.68058 18.4193 8.37355C17.9002 7.85449 17.2999 7.41673 16.6495 7.09154C16.5119 7.02275 16.4619 6.8539 16.5307 6.72257C16.5995 6.58499 16.7621 6.5287 16.8996 6.60375C17.6063 6.96021 18.2504 7.42924 18.8133 7.99207C20.2266 9.40542 21.0021 11.2815 21.0021 13.2827C21.0021 15.2839 20.2266 17.16 18.8133 18.5734C18.7633 18.6234 18.6882 18.6547 18.6194 18.6547C18.5444 18.6547 18.4756 18.6234 18.4256 18.5734L18.0128 18.1606L17.5063 20.412L19.7576 19.9054L19.3198 19.4677C19.2135 19.3613 19.2135 19.1862 19.3198 19.0737C19.4261 18.9611 19.6013 18.9674 19.7138 19.0737L20.508 19.8679C20.5768 19.9367 20.6081 20.043 20.5768 20.1431C20.5456 20.2431 20.4705 20.3119 20.3705 20.3369L17.1998 21.0498C17.1998 21.0498 17.1623 21.0561 17.1373 21.0561L17.131 21.0498Z" fill="#253E66"/>
</g>
<defs>
<clipPath id="clip0_26476_5280">
<rect width="21" height="26.5471" fill="white"/>
</clipPath>
</defs>
</svg>
