<svg width="121" height="29" viewBox="0 0 121 29" fill="none" xmlns="http://www.w3.org/2000/svg">
<path d="M9.69267 3.08007C10.2054 2.14785 10.9614 1.36991 11.8813 0.827954C12.8012 0.285994 13.8511 0 14.9207 0C15.9902 0 17.0401 0.285994 17.96 0.827954C18.8799 1.36991 19.6359 2.14785 20.1486 3.08007C20.1486 3.08007 20.3633 3.43048 20.4752 3.66748C21.4298 5.69848 20.4661 7.08536 19.4475 9.31707C18.8848 10.4737 18.2042 11.57 17.4162 12.5887C17.2072 12.8722 16.9925 13.1557 16.7745 13.4471C16.1818 14.2352 15.5721 15.0449 15.0354 15.8739C14.1499 17.0735 13.5433 18.4532 13.2592 19.9137C12.9751 21.3741 13.0205 22.879 13.3923 24.3199C13.7093 25.7163 14.4065 26.9994 15.4077 28.0292H6.01932C4.95942 28.0137 3.9218 27.7247 3.00846 27.1904C2.09511 26.6561 1.33747 25.895 0.810007 24.9818C0.282542 24.0687 0.00340433 23.035 3.09429e-05 21.9823C-0.00334245 20.9295 0.269164 19.8941 0.790767 18.9776L9.69267 3.08007Z" fill="#6A4CFF"/>
<path d="M26.559 27.375C25.7125 27.8108 24.7721 28.0361 23.8186 28.0316H18.9417C18.4495 28.0526 17.9601 27.9467 17.5212 27.7243C16.8514 27.3118 16.2758 26.7649 15.8314 26.1184C15.387 25.472 15.0836 24.7405 14.9406 23.9707C14.6177 22.7197 14.5811 21.4127 14.8336 20.1457C15.0862 18.8788 15.6214 17.6842 16.3999 16.6496C16.9058 15.8683 17.4676 15.121 18.0488 14.3488C18.2771 14.0505 18.5055 13.7477 18.7339 13.4416C19.5825 12.3413 20.3148 11.1572 20.9194 9.90803C21.4413 8.77823 21.8003 7.58107 21.9859 6.35181L29.0471 18.9778C29.8225 20.3577 30.0315 21.9817 29.6305 23.5109C29.2294 25.0402 28.2494 26.3566 26.8947 27.1856C26.7866 27.2522 26.6747 27.3153 26.559 27.375Z" fill="#4CC4FF"/>
<path d="M49.6734 22.1325H53.0293L46.99 6.37786H43.4103L37.3242 22.1325H40.5911L41.911 18.5332H48.3545L49.6734 22.1325ZM45.1311 9.77759L47.3234 15.7334H42.9364L45.1311 9.77759ZM57.8057 22.1325V11.1996H54.83V22.1325H57.8057ZM54.4714 7.61732C54.4757 7.9768 54.587 8.32698 54.7912 8.62382C54.9954 8.92065 55.2835 9.15087 55.6191 9.2855C55.9548 9.42013 56.323 9.45316 56.6775 9.38043C57.032 9.3077 57.3569 9.13246 57.6114 8.87676C57.8659 8.62107 58.0385 8.29634 58.1075 7.94344C58.1766 7.59054 58.139 7.22525 57.9995 6.89351C57.86 6.56178 57.6248 6.27843 57.3236 6.07912C57.0223 5.87982 56.6684 5.77346 56.3064 5.77344C56.0639 5.77477 55.8241 5.82372 55.6007 5.91749C55.3774 6.01126 55.1749 6.14798 55.005 6.31979C54.8351 6.4916 54.701 6.6951 54.6107 6.91857C54.5203 7.14203 54.4753 7.38105 54.4783 7.62186L54.4714 7.61732ZM67.7147 11.1554C67.4842 11.1289 67.2525 11.1141 67.0205 11.1112C66.3875 11.0642 65.7545 11.2009 65.1984 11.5047C64.6423 11.8085 64.1872 12.2663 63.8883 12.8224V11.2008H61.0017V22.1336H63.9774V17.1327C63.9774 14.7774 65.2974 14.0437 66.8183 14.0437C67.119 14.0433 67.4189 14.073 67.7136 14.1321L67.7147 11.1554ZM72.7834 22.1325V15.7334C72.7616 15.4545 72.7989 15.1742 72.893 14.9106C72.987 14.647 73.1357 14.4059 73.3293 14.2028C73.523 13.9998 73.7574 13.8394 74.0174 13.7319C74.2774 13.6244 74.5572 13.5722 74.8387 13.5788C75.11 13.5629 75.3814 13.6066 75.6337 13.7068C75.886 13.8071 76.113 13.9613 76.2983 14.1587C76.4837 14.356 76.623 14.5915 76.7062 14.8484C76.7895 15.1053 76.8146 15.3772 76.7799 15.6449V22.1336H79.7327V15.7334C79.7123 15.4564 79.75 15.1783 79.8433 14.9166C79.9367 14.6548 80.0836 14.4152 80.2749 14.2127C80.4663 14.0102 80.6978 13.8493 80.9549 13.7402C81.212 13.6311 81.4891 13.5761 81.7686 13.5788C82.0404 13.5608 82.3129 13.6031 82.5661 13.7026C82.8194 13.8022 83.0472 13.9564 83.2331 14.1542C83.4189 14.352 83.5581 14.5884 83.6405 14.8462C83.723 15.104 83.7467 15.3769 83.7098 15.6449V22.1336H86.5964V15.0439C86.621 14.1644 86.3561 13.3009 85.8419 12.5844C85.3276 11.868 84.5922 11.3376 83.747 11.0738C82.9018 10.81 81.993 10.8272 81.1585 11.1227C80.3241 11.4182 79.6094 11.9759 79.123 12.7112C78.8189 12.1246 78.3486 11.6391 77.7702 11.3145C77.1918 10.9899 76.5304 10.8404 75.8675 10.8844C75.2348 10.8689 74.6083 11.0113 74.0453 11.2985C73.4823 11.5858 73.0009 12.0088 72.6452 12.5287V11.1996H69.8043V22.1325H72.7834ZM91.793 15.4204C91.847 14.8165 92.1324 14.2563 92.5903 13.8553C93.0482 13.4544 93.6436 13.2433 94.2537 13.2658C94.5607 13.2316 94.8716 13.2616 95.1663 13.3538C95.461 13.4461 95.733 13.5986 95.9648 13.8016C96.1966 14.0045 96.383 14.2534 96.5121 14.5322C96.6412 14.811 96.7101 15.1135 96.7144 15.4204H91.793ZM97.0067 18.2644C96.839 18.782 96.5002 19.2281 96.0453 19.5307C95.5905 19.8332 95.0461 19.9744 94.5003 19.9314C93.8025 19.9571 93.1222 19.7113 92.604 19.2465C92.0858 18.7816 91.7706 18.1343 91.7256 17.4423H99.6044C99.6044 17.3981 99.6489 16.9535 99.6489 16.5351C99.6489 13.0197 97.613 10.8651 94.2114 10.8651C92.7138 10.9723 91.315 11.6475 90.3049 12.7508C89.2947 13.8541 88.7505 15.301 88.785 16.7918C88.8195 18.2826 89.43 19.7031 90.4901 20.7592C91.5502 21.8153 92.9788 22.4259 94.4798 22.4648C95.5849 22.5254 96.6786 22.217 97.5869 21.5888C98.4951 20.9606 99.1655 20.0486 99.4914 18.9981L97.0067 18.2644ZM104.16 15.4204C104.214 14.8163 104.5 14.2559 104.958 13.8549C105.416 13.4539 106.012 13.243 106.622 13.2658C106.929 13.2316 107.24 13.2616 107.535 13.3538C107.83 13.4461 108.102 13.5986 108.333 13.8016C108.565 14.0045 108.752 14.2534 108.881 14.5322C109.01 14.811 109.079 15.1135 109.083 15.4204H104.16ZM109.374 18.2644C109.206 18.782 108.868 19.2281 108.413 19.5307C107.958 19.8332 107.414 19.9744 106.868 19.9314C106.17 19.9571 105.49 19.7113 104.971 19.2465C104.453 18.7816 104.138 18.1343 104.093 17.4423H111.972C111.972 17.3981 112.016 16.9535 112.016 16.5351C112.016 13.0197 109.98 10.8651 106.579 10.8651C105.081 10.9723 103.682 11.6475 102.672 12.7508C101.662 13.8541 101.118 15.301 101.152 16.7918C101.187 18.2826 101.797 19.7031 102.858 20.7592C103.918 21.8153 105.346 22.4259 106.847 22.4648C107.952 22.5254 109.046 22.217 109.954 21.5888C110.862 20.9606 111.533 20.0486 111.859 18.9981L109.374 18.2644ZM118.027 7.93144H115.341V9.46687C115.365 9.69646 115.338 9.92847 115.262 10.1465C115.186 10.3645 115.062 10.5632 114.9 10.7285C114.738 10.8938 114.541 11.0217 114.323 11.1031C114.106 11.1845 113.873 11.2175 113.641 11.1996H113.082V13.8214H115.073V18.9097C115.04 19.3694 115.108 19.8308 115.273 20.2617C115.438 20.6925 115.696 21.0824 116.028 21.404C116.36 21.7257 116.76 21.9713 117.198 22.1238C117.636 22.2762 118.102 22.3319 118.564 22.2867C119.135 22.3067 119.705 22.2162 120.242 22.0202V19.5776C119.942 19.6392 119.636 19.6688 119.329 19.6661C118.478 19.6661 118.031 19.3553 118.031 18.3994V13.8226H120.246V11.1996H118.031L118.027 7.93144Z" fill="#0A090B"/>
</svg>
