<svg width="50" height="50" viewBox="0 0 50 50" fill="none" xmlns="http://www.w3.org/2000/svg">
<circle cx="25" cy="25" r="25" fill="#F1FAFE"/>
<g clip-path="url(#clip0_11926_30425)">
<path d="M23.8831 25.6457H20.7778C20.5571 25.6457 20.3463 25.5504 20.2009 25.3849C20.1005 25.2646 20.0403 25.1493 20.0303 25.0289C20.0152 24.8735 20.0955 24.713 20.256 24.5576C20.5219 24.3069 20.6624 23.9709 20.6624 23.6099C20.6624 22.8978 20.0805 22.3112 19.3681 22.3062C18.6557 22.3062 18.0738 22.8928 18.0738 23.6099C18.0738 23.9709 18.2193 24.3069 18.4851 24.5576C18.6507 24.713 18.7259 24.8685 18.7109 25.0289C18.7009 25.1493 18.6457 25.2696 18.5403 25.3849C18.3999 25.5504 18.1892 25.6457 17.9634 25.6457H14.9433C14.5219 25.6457 14.1758 25.2997 14.1758 24.8785V18.8162C14.1758 16.8105 15.8112 15.1758 17.8179 15.1758H23.8831C24.3045 15.1758 24.6507 15.5218 24.6507 15.943V19.0218C24.6507 19.1872 24.731 19.3377 24.8614 19.4229C24.9066 19.453 24.9517 19.468 24.9868 19.4731C25.0721 19.4781 25.1674 19.4029 25.2276 19.3327C25.5286 19.0117 25.94 18.8362 26.3815 18.8362C27.2494 18.8362 27.9617 19.5433 27.9668 20.4107C27.9668 21.2782 27.2544 21.9852 26.3815 21.9852C25.94 21.9852 25.5336 21.8097 25.2276 21.4888C25.1624 21.4186 25.0721 21.3434 24.9868 21.3484C24.9467 21.3484 24.9066 21.3685 24.8614 21.3986C24.731 21.4838 24.6507 21.6342 24.6507 21.7997V24.8835C24.6507 25.3047 24.3045 25.6507 23.8831 25.6507V25.6457ZM19.3731 22.0304C20.241 22.0304 20.9484 22.7424 20.9484 23.6149C20.9484 24.0562 20.7728 24.4623 20.4517 24.7682C20.3815 24.8334 20.3062 24.9236 20.3112 25.0089C20.3112 25.069 20.3514 25.1342 20.4116 25.2044C20.5019 25.3097 20.6323 25.3649 20.7728 25.3649H23.8781C24.144 25.3649 24.3647 25.1493 24.3647 24.8785V21.7947C24.3647 21.5339 24.4902 21.2933 24.7059 21.1579C24.7912 21.1027 24.8765 21.0726 24.9617 21.0626C25.1173 21.0476 25.2778 21.1278 25.4333 21.2882C25.6841 21.554 26.0203 21.6944 26.3815 21.6944C27.0938 21.6944 27.6808 21.1127 27.6858 20.4007C27.6858 19.6887 27.0989 19.107 26.3815 19.107C26.0203 19.107 25.6841 19.2524 25.4333 19.5182C25.2778 19.6837 25.1223 19.7589 24.9617 19.7438C24.8765 19.7388 24.7912 19.7037 24.7059 19.6486C24.4902 19.5132 24.3647 19.2725 24.3647 19.0117V15.943C24.3647 15.6772 24.149 15.4566 23.8781 15.4566H17.8179C15.9668 15.4566 14.4567 16.9659 14.4567 18.8162V24.8785C14.4567 25.1443 14.6724 25.3649 14.9433 25.3649H17.9734C18.1139 25.3649 18.2443 25.3047 18.3346 25.2044C18.3948 25.1342 18.43 25.069 18.435 25.0089C18.44 24.9236 18.3647 24.8284 18.2945 24.7682C17.9734 24.4673 17.7979 24.0562 17.7979 23.6149C17.7979 22.7474 18.5052 22.0354 19.3731 22.0304Z" fill="#253E66" stroke="#253E66" stroke-width="0.2" stroke-miterlimit="10"/>
<path d="M29.5901 28.9602C28.7222 28.9602 28.0149 28.2481 28.0149 27.3756C28.0149 26.9344 28.1905 26.5282 28.5115 26.2223C28.5818 26.1572 28.657 26.0669 28.652 25.9817C28.652 25.9415 28.6319 25.9014 28.6018 25.8563C28.5166 25.7259 28.3661 25.6457 28.2005 25.6457H25.1152C24.6938 25.6457 24.3477 25.2997 24.3477 24.8785V21.7746C24.3477 21.554 24.443 21.3434 24.6085 21.198C24.7289 21.0977 24.8443 21.0375 24.9647 21.0275C25.1202 21.0125 25.2808 21.0927 25.4363 21.2531C25.6871 21.5189 26.0232 21.6593 26.3844 21.6593C27.0968 21.6593 27.6838 21.0776 27.6888 20.3656C27.6888 19.6536 27.1018 19.0719 26.3844 19.0719C26.0232 19.0719 25.6871 19.2173 25.4363 19.4831C25.2808 19.6486 25.1252 19.7238 24.9647 19.7087C24.8443 19.6987 24.7239 19.6435 24.6085 19.5382C24.443 19.3978 24.3477 19.1872 24.3477 18.9616V15.943C24.3477 15.5218 24.6938 15.1758 25.1152 15.1758H31.1804C33.1871 15.1758 34.8226 16.8105 34.8226 18.8162V24.8785C34.8226 25.2997 34.4764 25.6457 34.055 25.6457H30.9747C30.8092 25.6457 30.6587 25.7259 30.5734 25.8563C30.5433 25.9014 30.5283 25.9466 30.5232 25.9817C30.5182 26.0669 30.5935 26.1622 30.6637 26.2223C30.9848 26.5232 31.1604 26.9344 31.1604 27.3756C31.1604 28.2431 30.453 28.9552 29.5851 28.9602H29.5901ZM24.9998 21.3133C24.9998 21.3133 24.9948 21.3133 24.9898 21.3133C24.9296 21.3133 24.8644 21.3534 24.7941 21.4136C24.6888 21.5039 24.6336 21.6342 24.6336 21.7746V24.8785C24.6336 25.1443 24.8493 25.3649 25.1202 25.3649H28.2055C28.4664 25.3649 28.7072 25.4903 28.8426 25.7059C28.8978 25.7911 28.9279 25.8764 28.938 25.9616C28.953 26.117 28.8727 26.2775 28.7122 26.4329C28.4463 26.6837 28.3059 27.0196 28.3059 27.3807C28.3059 28.0927 28.8878 28.6794 29.6002 28.6844C30.3125 28.6844 30.8945 28.0977 30.8945 27.3807C30.8945 27.0196 30.749 26.6837 30.4831 26.4329C30.3176 26.2775 30.2423 26.1221 30.2574 25.9616C30.2624 25.8764 30.2975 25.7911 30.3527 25.7059C30.4881 25.4903 30.7289 25.3649 30.9898 25.3649H34.0701C34.3359 25.3649 34.5567 25.1493 34.5567 24.8785V18.8162C34.5567 16.9659 33.0517 15.4566 31.1955 15.4566H25.1303C24.8644 15.4566 24.6436 15.6722 24.6436 15.943V18.9716C24.6436 19.112 24.7038 19.2424 24.8042 19.3327C24.8744 19.3928 24.9396 19.4279 24.9998 19.4329C25.0851 19.438 25.1804 19.3627 25.2406 19.2925C25.5416 18.9716 25.953 18.7961 26.3945 18.7961C27.2624 18.7961 27.9747 19.5031 27.9798 20.3706C27.9798 21.2381 27.2674 21.9451 26.3945 21.9451C25.953 21.9451 25.5467 21.7696 25.2406 21.4487C25.1804 21.3835 25.0901 21.3083 25.0099 21.3083L24.9998 21.3133Z" fill="#253E66" stroke="#253E66" stroke-width="0.2" stroke-miterlimit="10"/>
<path d="M31.1879 35.8226H25.1227C24.7013 35.8226 24.3551 35.4766 24.3551 35.0554V31.9766C24.3551 31.8111 24.2748 31.6607 24.1444 31.5755C24.0993 31.5454 24.0541 31.5303 24.019 31.5253C23.9337 31.5203 23.8384 31.5955 23.7782 31.6657C23.4772 31.9866 23.0658 32.1621 22.6243 32.1621C21.7565 32.1621 21.0441 31.4551 21.0391 30.5876C21.0391 29.7201 21.7514 29.0131 22.6243 29.0131C23.0658 29.0131 23.4722 29.1886 23.7782 29.5095C23.8434 29.5797 23.9337 29.655 24.019 29.6499C24.0591 29.6499 24.0993 29.6299 24.1444 29.5998C24.2748 29.5146 24.3551 29.3641 24.3551 29.1987V26.1148C24.3551 25.6936 24.7013 25.3477 25.1227 25.3477H28.228C28.4488 25.3477 28.6595 25.4429 28.8049 25.6084C28.9053 25.7287 28.9655 25.8441 28.9755 25.9644C28.9906 26.1199 28.9103 26.2803 28.7498 26.4358C28.4839 26.6865 28.3434 27.0224 28.3434 27.3835C28.3434 28.0955 28.9254 28.6822 29.6377 28.6872C30.3501 28.6872 30.932 28.1005 30.932 27.3835C30.932 27.0224 30.7866 26.6865 30.5207 26.4358C30.3551 26.2803 30.2799 26.1249 30.2949 25.9644C30.3049 25.8441 30.3601 25.7237 30.4655 25.6084C30.606 25.4429 30.8167 25.3477 31.0424 25.3477H34.0725C34.4939 25.3477 34.8401 25.6936 34.8401 26.1148V32.1772C34.8401 34.1829 33.2046 35.8176 31.1979 35.8176L31.1879 35.8226ZM24.0039 31.2495C24.0039 31.2495 24.024 31.2495 24.0391 31.2495C24.1243 31.2545 24.2096 31.2896 24.2949 31.3448C24.5106 31.4802 24.6361 31.7209 24.6361 31.9816V35.0604C24.6361 35.3262 24.8518 35.5468 25.1227 35.5468H31.1879C33.0391 35.5468 34.5491 34.0425 34.5491 32.1872V26.1249C34.5491 25.8591 34.3334 25.6385 34.0625 25.6385H31.0324C30.8919 25.6385 30.7615 25.6987 30.6712 25.7989C30.611 25.8691 30.5759 25.9343 30.5708 25.9945C30.5658 26.0797 30.6411 26.175 30.7113 26.2352C31.0324 26.5361 31.208 26.9472 31.208 27.3885C31.208 28.256 30.5006 28.968 29.6327 28.973C28.7648 28.973 28.0575 28.261 28.0575 27.3885C28.0575 26.9472 28.233 26.5411 28.5541 26.2352C28.6243 26.17 28.6996 26.0797 28.6946 25.9945C28.6946 25.9343 28.6544 25.8691 28.5942 25.7989C28.5039 25.6936 28.3735 25.6385 28.233 25.6385H25.1277C24.8618 25.6385 24.6411 25.8541 24.6411 26.1249V29.2087C24.6411 29.4694 24.5157 29.7101 24.2999 29.8455C24.2146 29.9007 24.1294 29.9308 24.0441 29.9408C23.8886 29.9558 23.728 29.8756 23.5725 29.7151C23.3217 29.4494 22.9856 29.309 22.6243 29.309C21.912 29.309 21.325 29.8906 21.32 30.6027C21.32 31.3147 21.907 31.8964 22.6243 31.8964C22.9856 31.8964 23.3217 31.751 23.5725 31.4852C23.713 31.3348 23.8635 31.2545 24.009 31.2545L24.0039 31.2495Z" fill="#253E66" stroke="#253E66" stroke-width="0.2" stroke-miterlimit="10"/>
<path d="M23.8831 35.8234H17.8179C15.8112 35.8234 14.1758 34.1888 14.1758 32.183V26.1207C14.1758 25.6995 14.5219 25.3535 14.9433 25.3535H18.0236C18.1892 25.3535 18.3397 25.2733 18.4249 25.1429C18.455 25.0978 18.4701 25.0527 18.4751 25.0176C18.4801 24.9323 18.4049 24.8371 18.3346 24.7769C18.0136 24.476 17.838 24.0649 17.838 23.6236C17.838 22.7561 18.5453 22.0441 19.4132 22.0391C20.2811 22.0391 20.9885 22.7511 20.9885 23.6236C20.9885 24.0649 20.8129 24.471 20.4918 24.7769C20.4216 24.8421 20.3463 24.9323 20.3514 25.0176C20.3514 25.0577 20.3714 25.0978 20.4015 25.1429C20.4868 25.2733 20.6373 25.3535 20.8029 25.3535H23.8882C24.3096 25.3535 24.6557 25.6995 24.6557 26.1207V29.2246C24.6557 29.4452 24.5604 29.6558 24.3948 29.8012C24.2744 29.9015 24.1591 29.9617 24.0387 29.9717C23.8831 29.9868 23.7226 29.9065 23.5671 29.7461C23.3162 29.4803 22.9801 29.3399 22.6189 29.3399C21.9066 29.3399 21.3196 29.9216 21.3146 30.6336C21.3146 31.3457 21.9015 31.9273 22.6189 31.9273C22.9801 31.9273 23.3162 31.7819 23.5671 31.5161C23.7226 31.3507 23.8781 31.2755 24.0387 31.2905C24.1591 31.3005 24.2795 31.3557 24.3948 31.461C24.5604 31.6014 24.6557 31.812 24.6557 32.0376V35.0663C24.6557 35.4875 24.3096 35.8335 23.8882 35.8335L23.8831 35.8234ZM14.9433 25.6343C14.6775 25.6343 14.4567 25.85 14.4567 26.1207V32.183C14.4567 34.0333 15.9617 35.5426 17.8179 35.5426H23.8831C24.149 35.5426 24.3698 35.327 24.3698 35.0563V32.0276C24.3698 31.8872 24.3096 31.7568 24.2092 31.6666C24.139 31.6064 24.0738 31.5713 24.0136 31.5663C23.9283 31.5613 23.833 31.6365 23.7728 31.7067C23.4718 32.0276 23.0604 32.2031 22.6189 32.2031C21.751 32.2031 21.0387 31.4961 21.0336 30.6286C21.0336 29.7611 21.746 29.0541 22.6189 29.0541C23.0604 29.0541 23.4668 29.2296 23.7728 29.5505C23.838 29.6207 23.9283 29.6959 24.0136 29.6909C24.0738 29.6909 24.139 29.6508 24.2092 29.5906C24.3146 29.5004 24.3698 29.37 24.3698 29.2296V26.1257C24.3698 25.86 24.154 25.6393 23.8831 25.6393H20.7979C20.537 25.6393 20.2962 25.514 20.1607 25.2984C20.1055 25.2131 20.0754 25.1279 20.0654 25.0426C20.0504 24.8872 20.1306 24.7267 20.2912 24.5713C20.5571 24.3206 20.6975 23.9846 20.6975 23.6236C20.6975 22.9116 20.1156 22.3249 19.4032 22.3199C18.6908 22.3199 18.1089 22.9065 18.1089 23.6236C18.1089 23.9846 18.2544 24.3206 18.5203 24.5713C18.6858 24.7267 18.7611 24.8822 18.746 25.0426C18.741 25.1279 18.7059 25.2131 18.6507 25.2984C18.5152 25.514 18.2744 25.6393 18.0136 25.6393H14.9433V25.6343Z" fill="#253E66" stroke="#253E66" stroke-width="0.2" stroke-miterlimit="10"/>
</g>
<defs>
<clipPath id="clip0_11926_30425">
<rect width="21" height="21" fill="white" transform="translate(14 15)"/>
</clipPath>
</defs>
</svg>
