<svg width="50" height="51" viewBox="0 0 50 51" fill="none" xmlns="http://www.w3.org/2000/svg">
<circle cx="25" cy="25.75" r="25" fill="#F1FAFE"/>
<path d="M21.2988 28.868C21.0314 29.3616 20.6662 29.7228 20.2684 29.9816C19.9619 30.716 19.9097 31.5527 19.8575 32.3653L19.5771 32.3533L19.2967 32.3352C19.3358 31.6791 19.3749 30.9989 19.551 30.3548C18.638 30.722 17.7706 30.6919 17.7119 30.6919C17.5554 30.6919 17.4315 30.5655 17.438 30.421C17.4446 30.2766 17.575 30.1682 17.7315 30.1682C17.7641 30.1682 19.9097 30.2224 20.7901 28.6273C20.8619 28.5009 21.0314 28.4467 21.1749 28.5129C21.3184 28.5791 21.3706 28.7416 21.2988 28.868ZM18.4358 21.2054C18.4815 21.2054 18.5337 21.1933 18.5793 21.1692C20.6858 20.0135 19.8119 18.0392 19.8054 18.0151C19.7467 17.8827 19.5771 17.8225 19.4336 17.8766C19.2902 17.9308 19.225 18.0873 19.2836 18.2198C19.3097 18.286 19.9684 19.7968 18.2924 20.7178C18.1554 20.79 18.1098 20.9526 18.1945 21.079C18.2402 21.1632 18.338 21.2054 18.4358 21.2054ZM23.2162 32.1546C23.0727 32.2088 23.0075 32.3653 23.0662 32.4977C23.0922 32.5639 23.7509 34.0748 22.0749 34.9958C21.9379 35.068 21.8923 35.2305 21.9771 35.3569C22.0292 35.4412 22.1271 35.4833 22.2184 35.4833C22.264 35.4833 22.3162 35.4713 22.3618 35.4472C24.4683 34.2915 23.5944 32.3171 23.5879 32.2931C23.5292 32.1606 23.3662 32.1005 23.2162 32.1546ZM20.6662 24.2632C20.7249 24.1308 20.6597 23.9803 20.5097 23.9201C20.3662 23.8659 20.1967 23.9261 20.138 24.0646C20.1119 24.1308 19.4141 25.6296 17.5228 25.1842C17.3728 25.1481 17.2163 25.2323 17.1772 25.3768C17.138 25.5152 17.2293 25.6597 17.3859 25.6958C17.6793 25.7681 17.9532 25.7982 18.2076 25.7982C19.9749 25.7982 20.6597 24.2873 20.6662 24.2692V24.2632ZM38.2027 25.7259C38.2027 26.5084 37.5115 27.1465 36.6637 27.1465C35.9137 27.1465 35.2811 26.6469 35.1506 25.9908H25.6617V28.8078H28.3226C28.466 28.8078 28.5965 28.856 28.7073 28.9463L31.179 31.041H33.3507C33.4876 30.3849 34.1137 29.8853 34.8637 29.8853C35.7115 29.8853 36.4028 30.5234 36.4028 31.3059C36.4028 32.0884 35.7115 32.7265 34.8637 32.7265C34.1137 32.7265 33.4811 32.2269 33.3507 31.5707H31.179C31.0355 31.5707 30.9051 31.5226 30.7942 31.4323L28.3226 29.3376H25.6617V32.7505H28.303C28.4595 32.7505 28.5965 32.8047 28.7073 32.907L29.8486 33.9604C30.0964 33.8039 30.3964 33.7136 30.716 33.7136C31.5638 33.7136 32.2551 34.3517 32.2551 35.1342C32.2551 35.9167 31.5638 36.5548 30.716 36.5548C29.8682 36.5548 29.1769 35.9167 29.1769 35.1342C29.1769 34.8393 29.2747 34.5624 29.4443 34.3336L28.303 33.2803H25.6617V35.7241C25.6617 37.2952 24.2792 38.5713 22.577 38.5713C20.8749 38.5713 19.6228 37.4095 19.4989 35.9348C19.4989 35.9348 19.4858 35.9348 19.4793 35.9348C19.4662 35.9348 19.4467 35.9288 19.4271 35.9228C19.4076 35.9228 19.388 35.9107 19.3619 35.9047C18.2076 35.5496 17.412 34.5564 17.3728 33.4368V33.3103H17.3598C17.3598 33.3103 17.3076 33.3103 17.2815 33.3103H17.2228C17.1902 33.3103 17.1511 33.3103 17.1185 33.3103H17.0989C17.0533 33.3103 17.0076 33.3103 16.962 33.3043C16.9163 33.3043 16.8772 33.2983 16.8315 33.2923C16.825 33.2923 16.8185 33.2923 16.8054 33.2923C16.7728 33.2923 16.7337 33.2863 16.7011 33.2803C16.6881 33.2803 16.6815 33.2803 16.6685 33.2803C16.6359 33.2803 16.6033 33.2682 16.5772 33.2622C16.5641 33.2622 16.5511 33.2622 16.5381 33.2562C16.512 33.2562 16.4794 33.2441 16.4533 33.2381C16.4402 33.2381 16.4272 33.2321 16.4142 33.2261C16.3881 33.2201 16.362 33.214 16.3294 33.202C16.3163 33.202 16.3033 33.196 16.2837 33.19C16.2576 33.1839 16.2315 33.1719 16.2055 33.1659C16.1924 33.1659 16.1794 33.1538 16.1598 33.1538C16.1337 33.1478 16.1076 33.1358 16.0816 33.1237C16.0685 33.1237 16.0489 33.1117 16.0359 33.1057C16.0098 33.0937 15.9837 33.0876 15.9642 33.0756C15.9511 33.0756 15.9316 33.0636 15.9185 33.0575C15.8924 33.0455 15.8729 33.0335 15.8468 33.0214C15.8337 33.0154 15.8207 33.0094 15.8011 32.9973C15.7816 32.9853 15.7555 32.9733 15.7294 32.9612C15.7163 32.9552 15.7033 32.9492 15.6837 32.9371C15.6642 32.9251 15.6381 32.907 15.612 32.895C15.599 32.889 15.5859 32.877 15.5729 32.8709C15.5468 32.8529 15.5207 32.8408 15.4946 32.8228C15.4881 32.8228 15.475 32.8107 15.462 32.8047C15.4294 32.7806 15.3903 32.7566 15.3577 32.7265C14.9859 32.4375 14.7055 32.0764 14.5294 31.6671C14.5294 31.655 14.5229 31.643 14.5164 31.6309C14.4642 31.5045 14.4251 31.3781 14.3925 31.2457C14.3599 31.1193 14.3403 30.9869 14.3338 30.8605C14.3338 30.7942 14.3272 30.728 14.3272 30.6618C14.3272 30.6197 14.3272 30.5775 14.3272 30.5414C14.3272 30.5294 14.3272 30.5174 14.3272 30.5113C14.3272 30.4812 14.3272 30.4451 14.3338 30.409C14.3338 30.403 14.3338 30.397 14.3338 30.3849C14.3338 30.3488 14.3403 30.3067 14.3468 30.2645C14.3468 30.2525 14.3468 30.2465 14.3468 30.2344C14.3468 30.2043 14.3599 30.1742 14.3664 30.1381C14.3664 30.1321 14.3664 30.1201 14.3664 30.1141C14.3729 30.0779 14.3859 30.0358 14.3925 29.9937C14.399 29.9576 14.412 29.9154 14.4251 29.8793C14.4251 29.8793 14.4251 29.8733 14.4251 29.8673C14.4642 29.7469 14.5164 29.6265 14.5816 29.5061C14.562 29.5001 14.5359 29.488 14.5164 29.482C14.4903 29.476 14.4707 29.464 14.4446 29.4519C14.412 29.4399 14.3794 29.4218 14.3468 29.4098C14.3338 29.4038 14.3142 29.3977 14.2946 29.3857C14.2555 29.3677 14.2164 29.3496 14.1773 29.3315C14.1707 29.3315 14.1642 29.3255 14.1512 29.3195C12.7751 28.549 11.8621 27.2127 11.7969 25.7139C11.7969 25.6597 11.7969 25.5995 11.7969 25.5453C11.7969 25.4912 11.7969 25.431 11.7969 25.3768C11.8556 23.9803 12.6577 22.7222 13.9033 21.9879C13.9033 21.9879 13.9164 21.9819 13.9229 21.9758C13.962 21.9578 14.0012 21.9337 14.0403 21.9096C14.0533 21.9096 14.0664 21.8976 14.0794 21.8916C14.112 21.8735 14.1446 21.8615 14.1773 21.8434C14.1968 21.8374 14.2164 21.8254 14.2359 21.8133C14.262 21.8013 14.2881 21.7892 14.3207 21.7772C14.3468 21.7652 14.3729 21.7531 14.399 21.7411C14.4185 21.7351 14.4446 21.723 14.4707 21.711C14.5033 21.699 14.5359 21.6869 14.5685 21.6749C14.5816 21.6749 14.5946 21.6689 14.6012 21.6628C14.4185 21.3077 14.3142 20.9164 14.3142 20.5011C14.3142 19.7065 14.6925 18.9541 15.3511 18.4425C15.925 18.0031 16.6424 17.7803 17.3793 17.8165C17.3598 16.5885 18.2598 15.4749 19.5706 15.1679C19.8771 13.8918 21.1097 12.9287 22.5836 12.9287C24.2857 12.9287 25.6683 14.2048 25.6683 15.7759V18.2198H28.3095L29.4508 17.1664C29.2812 16.9376 29.1834 16.6607 29.1834 16.3658C29.1834 15.5833 29.8747 14.9452 30.7225 14.9452C31.5703 14.9452 32.2616 15.5833 32.2616 16.3658C32.2616 17.1483 31.5703 17.7864 30.7225 17.7864C30.4029 17.7864 30.1029 17.6961 29.8551 17.5396L28.7138 18.593C28.603 18.6953 28.466 18.7495 28.3095 18.7495H25.6683V22.1624H28.3291L30.8008 20.0677C30.9051 19.9774 31.042 19.9293 31.1855 19.9293H33.3572C33.4942 19.2731 34.1202 18.7735 34.8702 18.7735C35.718 18.7735 36.4093 19.4116 36.4093 20.1941C36.4093 20.9766 35.718 21.6147 34.8702 21.6147C34.1202 21.6147 33.4876 21.1151 33.3572 20.459H31.1855L28.7138 22.5537C28.6095 22.644 28.4725 22.6922 28.3291 22.6922H25.6683V25.5092H35.1572C35.2941 24.8531 35.9202 24.3535 36.6702 24.3535C37.5115 24.3294 38.2027 24.9675 38.2027 25.75V25.7259ZM33.8855 20.152C33.8855 20.6456 34.3224 21.0489 34.8572 21.0489C35.3919 21.0489 35.8289 20.6456 35.8289 20.152C35.8289 19.6584 35.3919 19.2551 34.8572 19.2551C34.3224 19.2551 33.8855 19.6584 33.8855 20.152ZM29.7377 16.3357C29.7377 16.8293 30.1747 17.2326 30.7094 17.2326C31.2442 17.2326 31.6812 16.8293 31.6812 16.3357C31.6812 15.8421 31.2442 15.4388 30.7094 15.4388C30.1747 15.4388 29.7377 15.8421 29.7377 16.3357ZM29.7377 35.1162C29.7377 35.6098 30.1747 36.0131 30.7094 36.0131C31.2442 36.0131 31.6812 35.6098 31.6812 35.1162C31.6812 34.6226 31.2442 34.2193 30.7094 34.2193C30.1747 34.2193 29.7377 34.6226 29.7377 35.1162ZM33.8855 31.2999C33.8855 31.7935 34.3224 32.1968 34.8572 32.1968C35.3919 32.1968 35.8289 31.7935 35.8289 31.2999C35.8289 30.8063 35.3919 30.403 34.8572 30.403C34.3224 30.403 33.8855 30.8063 33.8855 31.2999ZM25.0944 35.7061V28.3805C25.0878 28.2601 24.9183 26.683 23.014 26.5506C22.8575 26.5385 22.7401 26.4121 22.7531 26.2677C22.7662 26.1232 22.9031 26.0149 23.0596 26.0269C24.0966 26.0991 24.7226 26.5265 25.1009 26.996V19.9533C24.7096 20.5793 24.064 21.2475 23.0009 21.6147C22.9683 21.6267 22.9357 21.6327 22.9031 21.6327C22.7857 21.6327 22.6814 21.5665 22.6357 21.4642C22.5836 21.3258 22.6553 21.1753 22.8053 21.1271C24.7357 20.459 25.0748 18.6291 25.1009 18.4364V15.7518C25.1009 14.4697 23.9727 13.4283 22.5836 13.4283C21.1945 13.4283 20.0662 14.4697 20.0662 15.7518C20.0662 16.0949 20.1445 16.426 20.301 16.739C20.3662 16.8714 20.301 17.0279 20.1641 17.0881C20.0206 17.1483 19.851 17.0881 19.7858 16.9617C19.5902 16.5825 19.4989 16.1792 19.4989 15.7518V15.7157C18.475 16.0588 17.8163 17.0339 17.9728 18.0572C17.9859 18.1415 17.9532 18.2258 17.888 18.2799C17.8228 18.3341 17.7315 18.3642 17.6402 18.3462C16.9554 18.2318 16.2511 18.4064 15.7229 18.8217C15.1881 19.231 14.8881 19.839 14.8881 20.483C14.8881 21.6749 15.9381 22.65 17.2359 22.65C17.3924 22.65 17.5163 22.7704 17.5163 22.9089C17.5163 23.0473 17.3859 23.1677 17.2359 23.1677C16.2837 23.1677 15.4424 22.7463 14.9077 22.0962C14.8881 22.1023 14.8685 22.1083 14.849 22.1203C14.8359 22.1203 14.8164 22.1323 14.7968 22.1384C14.7707 22.1504 14.7381 22.1624 14.712 22.1745C14.6925 22.1805 14.6729 22.1925 14.6533 22.1986C14.6272 22.2106 14.6077 22.2166 14.5816 22.2287C14.5555 22.2407 14.5359 22.2467 14.5099 22.2588C14.4903 22.2648 14.4772 22.2768 14.4577 22.2828C14.4316 22.2949 14.399 22.3129 14.3729 22.325C14.3599 22.325 14.3468 22.337 14.3403 22.343C14.3077 22.3611 14.2751 22.3791 14.2425 22.3972C14.2425 22.3972 14.2294 22.3972 14.2294 22.4092C13.1403 23.0533 12.436 24.1488 12.3838 25.3768C12.3838 25.425 12.3838 25.4731 12.3838 25.5273C12.3838 25.5815 12.3838 25.6236 12.3838 25.6717C12.436 26.978 13.2381 28.1517 14.4577 28.7657C14.4642 28.7657 14.4707 28.7717 14.4838 28.7778C14.5164 28.7958 14.549 28.8078 14.5881 28.8259C14.6012 28.8259 14.6207 28.8379 14.6338 28.844C14.6598 28.856 14.6859 28.868 14.7185 28.8801C14.7381 28.8861 14.7642 28.8981 14.7838 28.9042C14.8033 28.9102 14.8294 28.9222 14.8555 28.9282C14.8751 28.9343 14.9011 28.9463 14.9207 28.9523C15.4555 28.3022 16.2968 27.8809 17.2489 27.8809C17.4054 27.8809 17.5293 28.0013 17.5293 28.1397C17.5293 28.2781 17.3989 28.3985 17.2489 28.3985C16.4011 28.3985 15.6576 28.8139 15.2468 29.4339C15.2403 29.4459 15.2272 29.464 15.2207 29.476C15.2011 29.5121 15.1816 29.5482 15.1555 29.5843C15.149 29.6024 15.1359 29.6205 15.1229 29.6385C15.1164 29.6566 15.1033 29.6807 15.0968 29.6987C15.0838 29.7228 15.0772 29.7469 15.0642 29.771C15.0642 29.789 15.0511 29.8071 15.0446 29.8251C15.0316 29.8612 15.0185 29.8974 15.0055 29.9335C15.0055 29.9455 14.999 29.9636 14.9924 29.9756C14.9859 30.0057 14.9729 30.0418 14.9664 30.0719V30.108C14.9468 30.1502 14.9403 30.1983 14.9338 30.2405C14.9338 30.2465 14.9338 30.2585 14.9338 30.2706C14.9338 30.3067 14.9272 30.3428 14.9207 30.3789C14.9207 30.3909 14.9207 30.403 14.9207 30.415C14.9207 30.4632 14.9207 30.5053 14.9207 30.5535C14.9207 30.6498 14.9207 30.7461 14.9403 30.8424C14.9533 30.9207 14.9664 30.9989 14.9859 31.0711C15.0511 31.3239 15.1685 31.5587 15.325 31.7754C15.325 31.7754 15.325 31.7754 15.3316 31.7874C15.3511 31.8175 15.3707 31.8416 15.3968 31.8717C15.3968 31.8717 15.4098 31.8838 15.4098 31.8898C15.4294 31.9139 15.449 31.9379 15.475 31.962C15.475 31.968 15.4881 31.974 15.4946 31.9861C15.5142 32.0041 15.5337 32.0282 15.5598 32.0523C15.5859 32.0764 15.612 32.1065 15.6446 32.1305C15.6446 32.1305 15.7098 32.1847 15.7424 32.2088C15.7424 32.2088 15.7555 32.2208 15.762 32.2208C15.7881 32.2389 15.8142 32.257 15.8403 32.281C15.9381 32.3472 16.0359 32.4074 16.1402 32.4556C16.1468 32.4556 16.1598 32.4616 16.1663 32.4676C16.1794 32.4676 16.1924 32.4797 16.2055 32.4857C16.6489 32.6903 17.1576 32.7626 17.6598 32.6783C17.6598 32.6783 17.6728 32.6783 17.6793 32.6783H17.7185C17.7185 32.6783 17.7315 32.6783 17.738 32.6783H17.7446C17.7446 32.6783 17.7511 32.6783 17.7576 32.6783C17.7576 32.6783 17.7641 32.6783 17.7706 32.6783C17.7706 32.6783 17.7837 32.6783 17.7902 32.6783C17.7902 32.6783 17.7902 32.6783 17.7967 32.6783C17.8032 32.6783 17.8032 32.6783 17.8098 32.6783C17.8163 32.6783 17.8228 32.6783 17.8293 32.6903C17.8293 32.6903 17.8293 32.6903 17.8359 32.6903C17.8359 32.6903 17.8489 32.6964 17.8554 32.7024C17.8554 32.7024 17.8554 32.7024 17.8619 32.7024C17.8619 32.7024 17.8619 32.7024 17.8619 32.7084C17.8619 32.7084 17.8685 32.7204 17.875 32.7265C17.875 32.7265 17.875 32.7265 17.875 32.7325C17.875 32.7385 17.8815 32.7445 17.888 32.7566C17.888 32.7566 17.888 32.7626 17.888 32.7686C17.888 32.7686 17.888 32.7686 17.888 32.7746C17.888 32.7746 17.888 32.7867 17.888 32.7927C17.888 32.7927 17.888 32.7927 17.888 32.7987C17.888 32.7987 17.888 32.8047 17.888 32.8107C17.888 32.8107 17.888 32.8288 17.888 32.8408V32.8649C17.888 32.8649 17.888 32.889 17.888 32.895C17.738 33.8701 18.3315 34.8092 19.2771 35.1884C19.2771 35.1884 19.2771 35.1884 19.2836 35.1884C19.3097 35.2004 19.3358 35.2065 19.3619 35.2185C19.3684 35.2185 19.3815 35.2185 19.3945 35.2305C19.4076 35.2305 19.4206 35.2366 19.4336 35.2426C19.5445 34.3758 20.0923 33.5812 20.9206 33.1298C21.0575 33.0575 21.2271 33.0997 21.3119 33.2201C21.3966 33.3404 21.3445 33.503 21.214 33.5812C20.4575 33.9966 19.9815 34.767 19.9815 35.5797C19.9815 36.8618 21.1097 37.9031 22.4988 37.9031C23.8683 37.9092 24.9965 36.8678 24.9965 35.5917L25.0944 35.7061ZM37.6354 25.7259C37.6354 25.2323 37.1984 24.829 36.6637 24.829C36.1289 24.829 35.6919 25.2323 35.6919 25.7259C35.6919 26.2195 36.1289 26.6228 36.6637 26.6228C37.1984 26.6228 37.6354 26.2195 37.6354 25.7259Z" fill="#253E66"/>
</svg>
