<svg width="50" height="51" viewBox="0 0 50 51" fill="none" xmlns="http://www.w3.org/2000/svg">
<circle cx="25" cy="25.25" r="25" fill="#F1FAFE"/>
<path d="M29.7414 22.2944V20.447C29.7414 19.9367 29.3279 19.5233 28.8177 19.5233H28.6288C28.2382 19.5233 27.8963 19.2752 27.7602 18.9086C27.6987 18.7421 27.6306 18.5785 27.5567 18.4183C27.3931 18.0623 27.4588 17.6448 27.7356 17.368L27.8693 17.2342C28.23 16.8736 28.23 16.2888 27.8693 15.9281L26.5632 14.622C26.2025 14.2614 25.6178 14.2614 25.2571 14.622L25.1234 14.7558C24.8466 15.0326 24.4284 15.0983 24.073 14.9346C23.9129 14.8607 23.7493 14.7927 23.5827 14.7311C23.2168 14.5951 22.9681 14.2532 22.9681 13.8626V13.6737C22.9681 13.1635 22.5546 12.75 22.0444 12.75H20.197C19.6867 12.75 19.2733 13.1635 19.2733 13.6737V13.8626C19.2733 14.2532 19.0252 14.5951 18.6586 14.7311C18.4921 14.7927 18.3285 14.8607 18.1683 14.9346C17.8123 15.0983 17.3948 15.0326 17.118 14.7558L16.9842 14.622C16.6236 14.2614 16.0388 14.2614 15.6781 14.622L14.372 15.9281C14.0114 16.2888 14.0114 16.8736 14.372 17.2342L14.5058 17.368C14.7826 17.6448 14.8483 18.0629 14.6846 18.4183C14.6107 18.5785 14.5427 18.7421 14.4811 18.9086C14.3451 19.2746 14.0032 19.5233 13.6126 19.5233H13.4237C12.9135 19.5233 12.5 19.9367 12.5 20.447V22.2944C12.5 22.8046 12.9135 23.2181 13.4237 23.2181H13.6126C14.0032 23.2181 14.3451 23.4662 14.4811 23.8327C14.5427 23.9993 14.6107 24.1629 14.6846 24.323C14.8483 24.679 14.7826 25.0966 14.5058 25.3734L14.372 25.5071C14.0114 25.8678 14.0114 26.4526 14.372 26.8132L15.6781 28.1193C16.0388 28.48 16.6236 28.48 16.9842 28.1193L17.118 27.9856C17.3948 27.7088 17.8129 27.6431 18.1683 27.8067C18.3285 27.8806 18.4921 27.9487 18.6586 28.0102C19.0246 28.1463 19.2733 28.4882 19.2733 28.8788V29.0677C19.2733 29.5779 19.6867 29.9914 20.197 29.9914H22.0444C22.5546 29.9914 22.9681 29.5779 22.9681 29.0677V28.8788C22.9681 28.4882 23.2162 28.1463 23.5827 28.0102C23.7493 27.9487 23.9129 27.8806 24.073 27.8067C24.429 27.6431 24.8466 27.7088 25.1234 27.9856L25.2571 28.1193C25.6178 28.48 26.2025 28.48 26.5632 28.1193L27.8693 26.8132C28.23 26.4526 28.23 25.8678 27.8693 25.5071L27.7356 25.3734C27.4588 25.0966 27.3931 24.6784 27.5567 24.323C27.6306 24.1629 27.6987 23.9993 27.7602 23.8327C27.8963 23.4668 28.2382 23.2181 28.6288 23.2181H28.8177C29.3279 23.2181 29.7414 22.8046 29.7414 22.2944Z" stroke="#253E66" stroke-width="0.8" stroke-linecap="round" stroke-linejoin="round"/>
<path d="M21.1202 24.8184C23.0246 24.8184 24.5684 23.2746 24.5684 21.3702C24.5684 19.4657 23.0246 17.9219 21.1202 17.9219C19.2157 17.9219 17.6719 19.4657 17.6719 21.3702C17.6719 23.2746 19.2157 24.8184 21.1202 24.8184Z" stroke="#253E66" stroke-width="0.8" stroke-linecap="round" stroke-linejoin="round"/>
<path d="M31.4837 23.0957C31.5258 23.1967 31.551 23.306 31.551 23.4196V23.5836C31.551 23.9286 31.7698 24.2272 32.0895 24.3492C32.2367 24.4039 32.3797 24.4628 32.5185 24.5259C32.834 24.6689 33.2 24.6142 33.4439 24.3702L33.5617 24.2525C33.8772 23.937 34.3904 23.937 34.7059 24.2525L35.8542 25.4008C36.1697 25.7163 36.1697 26.2295 35.8542 26.545L35.7364 26.6627C35.4925 26.9067 35.4378 27.2727 35.5808 27.5882C35.6439 27.727 35.7028 27.87 35.7575 28.0172C35.8794 28.3369 36.1781 28.5556 36.523 28.5556H36.6871C37.1372 28.5556 37.4989 28.9216 37.4989 29.3675V30.9912C37.4989 31.437 37.1372 31.803 36.6871 31.803H36.523C36.1781 31.803 35.8794 32.0217 35.7575 32.3414C35.7028 32.4886 35.6439 32.6317 35.5808 32.7705C35.4378 33.086 35.4925 33.4519 35.7364 33.6959L35.8542 33.8137C36.1697 34.1291 36.1697 34.6423 35.8542 34.9578L34.7059 36.1062C34.3904 36.4216 33.8772 36.4216 33.5617 36.1062L33.4439 35.9884C33.2 35.7444 32.834 35.6897 32.5185 35.8327C32.3797 35.8958 32.2367 35.9547 32.0895 36.0094C31.7698 36.1314 31.551 36.4301 31.551 36.775V36.939C31.551 37.3891 31.1851 37.7509 30.7392 37.7509H29.1155C28.6696 37.7509 28.3037 37.3891 28.3037 36.939V36.775C28.3037 36.4301 28.085 36.1314 27.7653 36.0094C27.618 35.9547 27.475 35.8958 27.3362 35.8327C27.0207 35.6897 26.6548 35.7444 26.4108 35.9884L26.293 36.1062C25.9775 36.4216 25.4644 36.4216 25.1489 36.1062L24.0005 34.9578C23.685 34.6423 23.685 34.1291 24.0005 33.8137L24.1183 33.6959C24.3623 33.4519 24.417 33.086 24.2739 32.7705C24.2108 32.6317 24.1519 32.4886 24.0973 32.3414C23.9753 32.0217 23.6766 31.803 23.3317 31.803H23.1676C23.0541 31.803 22.9447 31.7778 22.8438 31.7357" stroke="#253E66" stroke-width="0.8" stroke-linecap="round" stroke-linejoin="round"/>
<path d="M29.7216 26.543H29.7432C31.6484 26.543 33.1915 28.0861 33.1915 29.9912C33.1915 31.8964 31.6484 33.4395 29.7432 33.4395C27.838 33.4395 26.2949 31.8964 26.2949 29.9912V29.9697" stroke="#253E66" stroke-width="0.8" stroke-linecap="round" stroke-linejoin="round"/>
</svg>
