<svg width="50" height="50" viewBox="0 0 50 50" fill="none" xmlns="http://www.w3.org/2000/svg">
<circle cx="25" cy="25" r="25" fill="#F1FAFE"/>
<g clip-path="url(#clip0_6919_50345)">
<path d="M23.5023 26.9063H18.0689C17.8892 26.9063 17.7503 26.7649 17.7503 26.582C17.7503 26.3991 17.8892 26.2578 18.0689 26.2578H23.5023C23.6821 26.2578 23.821 26.3991 23.821 26.582C23.821 26.7649 23.6739 26.9063 23.5023 26.9063ZM36.4689 19.0993L32.0568 23.5889V29.4337C32.0568 30.4896 31.2153 31.3543 30.1695 31.3543H22.2114L20.757 33.4827C20.5364 33.8069 20.1769 33.9982 19.7929 33.9982C19.4089 33.9982 19.0494 33.8069 18.8288 33.4827L17.3744 31.3543H15.8874C14.8497 31.3543 14 30.4979 14 29.4337V20.2966C14 19.2407 14.8416 18.376 15.8874 18.376H30.1776C30.7005 18.376 31.1744 18.6005 31.5258 18.9663L33.9361 16.5136C34.6142 15.8236 35.7989 15.8236 36.4771 16.5136C36.8202 16.8545 37 17.3201 37 17.8023C37 18.2845 36.8121 18.7501 36.4771 19.091L36.4689 19.0993ZM31.4195 24.2374L28.7069 26.9977C28.5272 27.1806 28.3229 27.322 28.0941 27.4217L26.3947 28.17L25.3815 28.619C25.2998 28.6522 25.2181 28.6688 25.1364 28.6688C24.973 28.6688 24.8178 28.6023 24.7034 28.4859C24.5236 28.303 24.4746 28.0287 24.5726 27.7959L25.7574 25.0356C25.8554 24.8028 25.9943 24.5949 26.1741 24.412L27.1137 23.4559H18.0689C17.8892 23.4559 17.7503 23.3146 17.7503 23.1317C17.7503 22.9487 17.8892 22.8074 18.0689 22.8074H27.751L31.0764 19.4153C30.8476 19.1658 30.5208 19.0162 30.1776 19.0162H15.8874C15.2011 19.0162 14.6455 19.5815 14.6455 20.2799V29.4171C14.6455 30.1155 15.2011 30.6809 15.8874 30.6809H17.546C17.6522 30.6809 17.7503 30.7307 17.8075 30.8222L19.3599 33.0919C19.4579 33.2416 19.6213 33.3247 19.8011 33.3247C19.9808 33.3247 20.1361 33.2416 20.2423 33.0919L21.7947 30.8222C21.8519 30.7307 21.9499 30.6809 22.0561 30.6809H30.1858C30.8721 30.6809 31.4277 30.1155 31.4277 29.4171V24.2208L31.4195 24.2374ZM27.702 26.8896L26.2803 25.443L25.7247 26.74C25.8718 26.8314 26.0107 26.9312 26.125 27.0476C26.2558 27.1806 26.3538 27.322 26.4355 27.4799L27.702 26.8979V26.8896ZM25.1609 28.0619L25.8636 27.746C25.8146 27.6628 25.7492 27.5797 25.6757 27.5132C25.6185 27.455 25.5449 27.3968 25.4714 27.3469L25.1609 28.0702V28.0619ZM35.178 19.4984L34.1812 18.4758L33.5439 17.8273L26.6316 24.8693L28.2657 26.5321L35.178 19.4984ZM36.3545 17.8023C36.3545 17.4864 36.232 17.1954 36.0195 16.9709C35.5783 16.522 34.8185 16.522 34.3854 16.9709L33.9932 17.37L34.6714 18.0684L35.6274 19.0411L36.0195 18.6421C36.2401 18.4176 36.3627 18.1266 36.3627 17.8106L36.3545 17.8023Z" fill="#253E66"/>
</g>
<defs>
<clipPath id="clip0_6919_50345">
<rect width="23" height="18" fill="white" transform="translate(14 16)"/>
</clipPath>
</defs>
</svg>
