<svg width="393" height="80" viewBox="0 0 393 80" fill="none" xmlns="http://www.w3.org/2000/svg">
<rect width="393" height="80" fill="#B082F5"/>
<rect width="393" height="80" fill="url(#paint0_linear_26958_89393)"/>
<path opacity="0.6" d="M375.315 15.5971L376.925 14.5116C377.292 14.2646 377.389 13.7684 377.143 13.4016C376.899 13.0344 376.404 12.937 376.037 13.184L374.427 14.2688L373.349 12.6551C373.105 12.2879 372.609 12.1905 372.243 12.4375C371.877 12.6825 371.779 13.18 372.024 13.5475L373.103 15.162L371.495 16.2457C371.128 16.4927 371.031 16.9889 371.277 17.3557C371.399 17.5397 371.584 17.6549 371.784 17.6943C371.985 17.7339 372.199 17.697 372.383 17.5733L373.99 16.4894L375.068 18.1017C375.191 18.2857 375.376 18.4009 375.576 18.4403C375.777 18.4799 375.991 18.4432 376.174 18.3193C376.541 18.0743 376.639 17.5768 376.393 17.2093L375.315 15.5971Z" fill="#F3C2FF"/>
<path opacity="0.6" d="M299.096 14.2687L299.634 13.1125C299.757 12.8494 299.644 12.537 299.382 12.4138C299.12 12.2898 298.808 12.4026 298.685 12.6657L298.146 13.8214L296.993 13.2781C296.731 13.1541 296.419 13.2669 296.297 13.5301C296.173 13.792 296.287 14.1052 296.549 14.2288L297.703 14.7724L297.165 15.927C297.042 16.1901 297.155 16.5025 297.418 16.6257C297.549 16.6879 297.692 16.6902 297.818 16.6446C297.945 16.5988 298.053 16.5056 298.114 16.3738L298.652 15.2194L299.805 15.762C299.936 15.8241 300.079 15.8265 300.205 15.7808C300.332 15.735 300.44 15.6417 300.501 15.51C300.624 15.2481 300.511 14.9349 300.248 14.8113L299.096 14.2687Z" fill="#F3C2FF"/>
<path opacity="0.6" d="M326.829 66.985L327.312 65.104C327.422 64.6759 327.165 64.2402 326.738 64.1293C326.311 64.0171 325.876 64.2732 325.766 64.7013L325.283 66.5817L323.405 66.0918C322.979 65.9796 322.544 66.2356 322.434 66.6638C322.323 67.0902 322.58 67.5271 323.008 67.6386L324.887 68.1287L324.405 70.0072C324.295 70.4354 324.551 70.8711 324.979 70.982C325.193 71.0382 325.407 71.0016 325.583 70.898C325.76 70.7941 325.895 70.6245 325.95 70.4099L326.432 68.5318L328.309 69.0209C328.522 69.0771 328.737 69.0405 328.913 68.9369C329.089 68.833 329.226 68.663 329.28 68.4488C329.391 68.0224 329.134 67.5855 328.706 67.4741L326.829 66.985Z" fill="#F3C2FF"/>
<circle cx="338.83" cy="14.4933" r="2.50527" transform="rotate(9.13697 338.83 14.4933)" stroke="#F5CCFF" stroke-width="0.8" stroke-dasharray="1.6 1.6"/>
<circle cx="369" cy="66.2152" r="2.50527" transform="rotate(9.13697 369 66.2152)" stroke="#F5CCFF" stroke-width="0.8" stroke-dasharray="1.6 1.6"/>
<defs>
<linearGradient id="paint0_linear_26958_89393" x1="0.0208846" y1="40.0014" x2="393" y2="40.0014" gradientUnits="userSpaceOnUse">
<stop stop-color="#3C7ABD"/>
<stop offset="1" stop-color="#ED0082"/>
</linearGradient>
</defs>
</svg>
