<svg width="74" height="73" viewBox="0 0 74 73" fill="none" xmlns="http://www.w3.org/2000/svg">
<g filter="url(#filter0_d_19639_26137)">
<ellipse cx="36.9997" cy="36.5" rx="27.4333" ry="27.2031" fill="#D64794"/>
</g>
<path d="M42.498 36.5C42.4985 36.722 42.4549 36.9403 42.3717 37.1338C42.2885 37.3273 42.1683 37.4893 42.023 37.6041L33.018 44.8075C32.8662 44.9291 32.6923 44.9955 32.5143 44.9998C32.3364 45.0041 32.1607 44.9462 32.0055 44.8321C31.8519 44.7197 31.7238 44.5558 31.6346 44.3573C31.5455 44.1588 31.4983 43.9328 31.498 43.7026V29.2974C31.4983 29.0672 31.5455 28.8412 31.6346 28.6427C31.7238 28.4442 31.8519 28.2803 32.0055 28.1679C32.1607 28.0538 32.3364 27.9959 32.5143 28.0002C32.6923 28.0045 32.8662 28.0709 33.018 28.1925L42.023 35.3959C42.1683 35.5107 42.2885 35.6727 42.3717 35.8662C42.4549 36.0597 42.4985 36.278 42.498 36.5Z" fill="white"/>
<defs>
<filter id="filter0_d_19639_26137" x="0.566406" y="0.296875" width="72.8672" height="72.4062" filterUnits="userSpaceOnUse" color-interpolation-filters="sRGB">
<feFlood flood-opacity="0" result="BackgroundImageFix"/>
<feColorMatrix in="SourceAlpha" type="matrix" values="0 0 0 0 0 0 0 0 0 0 0 0 0 0 0 0 0 0 127 0" result="hardAlpha"/>
<feOffset/>
<feGaussianBlur stdDeviation="4.5"/>
<feComposite in2="hardAlpha" operator="out"/>
<feColorMatrix type="matrix" values="0 0 0 0 0.839216 0 0 0 0 0.278431 0 0 0 0 0.580392 0 0 0 0.75 0"/>
<feBlend mode="normal" in2="BackgroundImageFix" result="effect1_dropShadow_19639_26137"/>
<feBlend mode="normal" in="SourceGraphic" in2="effect1_dropShadow_19639_26137" result="shape"/>
</filter>
</defs>
</svg>
