<svg width="53" height="53" viewBox="0 0 53 53" fill="none" xmlns="http://www.w3.org/2000/svg">
<path d="M33.022 26.9912H25.9062V26.3882C25.9062 24.8203 26.5093 23.3731 27.5948 22.2876L29.5244 20.3579C30.6099 19.2725 31.2129 17.7046 31.2129 16.1367C31.2129 14.5688 30.2481 14.0864 29.1626 14.0864C28.0772 14.0864 27.1123 15.0513 27.1123 16.1367V17.7046H25.9062V16.1367C25.9062 14.3276 27.3535 12.8804 29.1626 12.8804C30.9717 12.8804 32.419 14.3276 32.419 16.1367C32.419 17.9458 31.6953 19.8755 30.3687 21.2022L28.439 23.1318C27.7153 23.8555 27.2329 24.8203 27.1123 25.7852H32.9014V26.9912H33.022Z" fill="#D64794"/>
<path d="M41.0981 27.4736H39.8921V22.6494H34.4648V20.8403L39.0479 12.8804H41.0981V21.4434H43.7515V22.6494H41.0981V27.4736ZM35.7915 21.564H40.0127V14.207H39.8921L35.7915 21.3228V21.6846V21.564Z" fill="#D64794"/>
<path d="M33.1396 51.834C30.1245 51.834 27.23 50.628 25.0591 48.4571L4.43553 27.8335C2.26463 25.6626 1.05859 22.8887 1.05859 19.7529C1.05859 16.6172 2.26463 13.8433 4.43553 11.6724L9.38037 6.72754L20.8379 18.1851L15.8931 23.1299C14.9282 24.0947 14.9282 25.7832 15.8931 26.8687L25.7827 36.7583C26.7476 37.7232 28.436 37.7232 29.5215 36.7583L34.4663 31.8135L45.9238 43.271L40.979 48.2159C38.8081 50.3867 36.0342 51.5928 32.8985 51.5928L33.1396 51.834ZM9.50098 8.53662L5.40036 12.6372C3.47068 14.5669 2.38523 17.0996 2.38523 19.8735C2.38523 22.6475 3.47068 25.1802 5.40036 27.1099L26.0239 47.7334C30.0039 51.7134 36.396 51.7134 40.376 47.7334L44.4766 43.6328L34.7075 33.8638L30.607 37.9644C29.1597 39.4116 26.627 39.4116 25.1797 37.9644L15.29 28.0747C13.8428 26.6275 13.8428 24.0947 15.29 22.6475L19.3906 18.5469L9.62156 8.77783L9.50098 8.53662Z" fill="#D64794"/>
<path d="M6.91531 10.261L6.0625 11.1138L16.7226 21.7739L17.5754 20.9211L6.91531 10.261Z" fill="#D64794"/>
<path d="M31.8997 35.4655L31.0469 36.3184L41.707 46.9785L42.5598 46.1257L31.8997 35.4655Z" fill="#D64794"/>
<path d="M47.3706 39.5332L46.4058 38.8096C49.3003 34.8296 50.7476 30.2466 50.7476 25.3018C50.7476 12.5176 40.3755 2.26611 27.7119 2.26611C20.1386 2.12006 15.8986 5.83006 14.2041 6.60792L13.4805 5.64307C17.5811 2.62793 22.5259 1.06006 27.7119 1.06006C41.0991 1.06006 51.9536 11.9146 51.9536 25.3018C51.9386 29.1501 51.4086 33.9201 47.3706 39.5332Z" fill="#D64794"/>
</svg>
