<svg width="180" height="48" viewBox="0 0 180 48" fill="none" xmlns="http://www.w3.org/2000/svg">
<path d="M25.287 16.1941H21.6328V37.3013H25.287V16.1941Z" fill="#4398D7"/>
<mask id="mask0_3442_81709" style="mask-type:luminance" maskUnits="userSpaceOnUse" x="0" y="4" width="180" height="40">
<path d="M180 4.12891H0V43.3948H180V4.12891Z" fill="white"/>
</mask>
<g mask="url(#mask0_3442_81709)">
<path d="M36.277 22.1228C35.2985 22.0878 34.3228 22.2459 33.4054 22.588C32.4881 22.9301 31.6471 23.4496 30.9305 24.1167C30.2139 24.7838 29.6357 25.5855 29.2289 26.4761C28.8221 27.3667 28.5948 28.3287 28.5598 29.3071C28.553 29.4952 28.553 29.6834 28.5598 29.8715C28.5598 34.1255 31.4587 37.6249 36.2943 37.6249C41.1299 37.6249 44.0524 34.1538 44.0524 29.8715C44.1224 27.8863 43.401 25.9545 42.0467 24.5012C40.6925 23.0479 38.8164 22.1921 36.8312 22.1221C36.6462 22.1152 36.4609 22.1152 36.2754 22.1221M36.3084 34.2559C33.6163 34.2559 32.2651 32.1455 32.2651 29.8793C32.2651 27.6132 33.6485 25.4658 36.3084 25.4658C36.8602 25.4863 37.4026 25.6152 37.9045 25.8453C38.4065 26.0754 38.8582 26.4021 39.2339 26.8067C39.6095 27.2114 39.9018 27.6861 40.094 28.2037C40.2862 28.7213 40.3746 29.2718 40.3541 29.8235C40.3541 29.8424 40.3541 29.8613 40.3541 29.8793C40.3541 32.1164 38.9935 34.2559 36.3108 34.2559" fill="#D64794"/>
<path d="M58.5284 30.0259C58.5284 32.2912 56.9902 34.1918 54.7249 34.1918C52.3794 34.1918 51.1319 32.4704 51.1319 30.2051C51.1319 30.2051 51.3198 23.0664 51.3198 22.4187C51.3161 19.9057 50.3161 17.4968 48.5392 15.7198C46.7623 13.9429 44.3533 12.943 41.8403 12.9392C41.4119 12.9378 40.984 12.9674 40.5599 13.0281C40.4813 12.8709 40.4192 12.7231 40.3445 12.5564C38.9937 9.76729 36.8089 7.46727 34.0928 5.97498C31.3768 4.4827 28.2638 3.87202 25.1852 4.22756C22.1067 4.5831 19.2149 5.88724 16.9104 7.95933C14.606 10.0314 13.003 12.7689 12.3235 15.7925C11.9525 15.7569 11.5804 15.7396 11.2073 15.7406C3.56556 15.7438 -0.0265769 21.3725 0.000147998 26.8833C0.0268729 32.3942 3.34076 37.784 11.2065 37.784C12.6869 37.8206 14.1597 37.5614 15.5385 37.0215C16.9174 36.4816 18.1747 35.6719 19.2366 34.6398L16.5067 31.8974C15.0755 33.2578 13.1811 34.0239 11.2065 34.0409C5.98181 34.0409 3.95543 30.3867 3.92713 26.8833C3.89884 23.38 6.08949 19.5474 11.2065 19.5474C11.4667 19.5411 11.7271 19.5537 11.9855 19.5851C13.4477 19.7134 14.8356 20.2861 15.9628 21.2263C15.816 20.5196 15.7404 19.7999 15.7372 19.0781C15.7381 18.3252 15.8137 17.5743 15.9628 16.8364C16.4225 14.5844 17.5663 12.5293 19.2378 10.9517C20.9093 9.37416 23.0271 8.35108 25.3018 8.02223C27.5766 7.69339 29.8974 8.07481 31.9472 9.11439C33.9971 10.154 35.676 11.801 36.7547 13.8306C36.8328 13.9805 36.908 14.1377 36.9803 14.3022C37.4776 15.3383 37.8084 16.4463 37.9605 17.5854C37.9888 17.7825 38.0121 17.9795 38.0305 18.1765C38.0739 18.1292 38.1209 18.0853 38.1712 18.0453C39.1502 17.2316 40.3744 16.7707 41.647 16.7365H41.8395C43.175 16.7325 44.4696 17.1969 45.4981 18.0488C46.5265 18.9008 47.2237 20.0863 47.4683 21.3992V30.2373C47.4683 34.8576 50.0716 37.5474 53.6315 37.5474C54.5833 37.558 55.5262 37.3638 56.3962 36.9778C57.2663 36.5918 58.0431 36.0231 58.6739 35.3103L58.9097 37.332H62.1929V22.414H58.5426L58.5284 30.0259Z" fill="#4398D7"/>
<path d="M77.9711 16.1941V24.4395C77.0986 22.8965 74.6501 22.0476 73.0789 22.0476C68.7353 22.0476 65.5039 24.7068 65.5039 29.8387C65.5039 34.7309 68.7872 37.6298 73.1732 37.6298C74.1106 37.6842 75.0459 37.493 75.8868 37.0752C76.7278 36.6574 77.4451 36.0273 77.9679 35.2474L78.2116 37.302H81.6567V16.1941H77.9711ZM73.4121 34.2192C72.8627 34.2248 72.3177 34.1222 71.808 33.9171C71.2983 33.7121 70.834 33.4086 70.4416 33.0241C70.0492 32.6396 69.7364 32.1815 69.5211 31.6761C69.3057 31.1707 69.192 30.6278 69.1864 30.0785C69.1864 29.9983 69.188 29.9184 69.1911 29.8387C69.1278 28.7516 69.4989 27.6838 70.2228 26.8702C70.9468 26.0567 71.9642 25.564 73.0513 25.5006C73.1713 25.4938 73.2916 25.492 73.4121 25.4951C74.5691 25.4951 75.6787 25.9547 76.4968 26.7729C77.3149 27.591 77.7746 28.7006 77.7746 29.8576C77.7746 31.0146 77.3149 32.1242 76.4968 32.9423C75.6787 33.7604 74.5691 34.22 73.4121 34.22" fill="#4398D7"/>
<path d="M83.9414 16.3108H88.2567V24.9571L96.3614 16.3108H102.021L93.4138 24.9366L102.469 37.2914H96.8401L90.3672 28.1311L88.2567 30.2745V37.3071H83.9414V16.3108Z" fill="#253E66"/>
<path d="M114.705 22.0911C115.796 22.5879 116.724 23.383 117.383 24.3847C118.032 25.3471 118.453 26.4442 118.616 27.5933C118.738 28.6155 118.782 29.6456 118.748 30.6745H107.455C107.421 31.315 107.553 31.9533 107.837 32.5283C108.121 33.1032 108.549 33.5955 109.078 33.9577C109.753 34.3612 110.529 34.563 111.315 34.5394C112.126 34.5754 112.924 34.3228 113.566 33.8265C113.913 33.529 114.196 33.1636 114.396 32.7527H118.538C118.352 33.8286 117.824 34.8157 117.032 35.5667C116.278 36.3394 115.367 36.9411 114.36 37.3311C113.353 37.7211 112.275 37.8903 111.197 37.8273C109.207 37.8546 107.272 37.1785 105.733 35.9181C104.15 34.6484 103.368 32.5785 103.387 29.7085C103.387 27.0192 104.1 24.9585 105.526 23.5264C106.254 22.8067 107.122 22.2443 108.077 21.874C109.031 21.5036 110.051 21.3333 111.074 21.3734C112.322 21.3549 113.559 21.5994 114.705 22.0911ZM108.634 25.5944C108.026 26.2574 107.647 27.0971 107.55 27.991H114.538C114.536 27.5307 114.439 27.0758 114.253 26.6546C114.068 26.2334 113.797 25.8548 113.459 25.5425C112.788 24.9766 111.931 24.6793 111.053 24.7078C110.61 24.6804 110.167 24.7451 109.75 24.8977C109.334 25.0503 108.954 25.2875 108.634 25.5944Z" fill="#253E66"/>
<path d="M130.918 22.0904C132.009 22.5873 132.937 23.3824 133.596 24.384C134.248 25.3448 134.672 26.4421 134.834 27.5918C134.959 28.6141 135.002 29.6446 134.965 30.6738H123.663C123.629 31.3142 123.761 31.9525 124.045 32.5275C124.329 33.1024 124.756 33.5947 125.285 33.957C125.963 34.3582 126.741 34.5568 127.528 34.5293C128.339 34.5652 129.137 34.3126 129.779 33.8163C130.127 33.5217 130.411 33.1593 130.614 32.7513H134.755C134.57 33.8261 134.044 34.8127 133.254 35.5652C132.498 36.3364 131.586 36.9371 130.579 37.327C129.572 37.7169 128.493 37.887 127.415 37.8258C125.426 37.8509 123.491 37.175 121.95 35.9166C120.387 34.6469 119.597 32.577 119.582 29.707C119.582 27.0177 120.295 24.957 121.721 23.5249C122.449 22.8053 123.317 22.2429 124.272 21.8725C125.226 21.5022 126.246 21.3318 127.269 21.372C128.521 21.3509 129.764 21.5955 130.914 22.0896M124.844 25.5937C124.242 26.2586 123.867 27.098 123.775 27.9903H130.763C130.759 27.5299 130.661 27.0752 130.474 26.6542C130.288 26.2331 130.017 25.8546 129.679 25.5418C129.005 24.9738 128.145 24.6763 127.264 24.7071C126.821 24.6797 126.377 24.7444 125.961 24.897C125.544 25.0496 125.165 25.2868 124.844 25.5937Z" fill="#253E66"/>
<path d="M150.044 23.4411C151.31 24.7795 151.936 26.7432 151.92 29.3324C151.92 32.0651 151.295 34.1492 150.044 35.5844C149.47 36.2676 148.752 36.8147 147.94 37.1862C147.129 37.5577 146.246 37.7444 145.354 37.7326C144.246 37.7701 143.158 37.4404 142.257 36.7949C141.738 36.3742 141.292 35.8694 140.939 35.3015V43.3975H136.91V21.7818H140.799V24.0778C141.176 23.4718 141.651 22.9328 142.206 22.483C143.136 21.7803 144.276 21.4132 145.442 21.4415C146.307 21.433 147.164 21.6075 147.957 21.9535C148.75 22.2994 149.461 22.8091 150.043 23.449M146.934 26.3667C146.656 25.9125 146.259 25.5435 145.786 25.3003C145.313 25.057 144.782 24.949 144.251 24.988C143.587 24.9543 142.93 25.1386 142.38 25.5128C141.831 25.887 141.419 26.4306 141.207 27.0608C140.891 27.9643 140.745 28.9182 140.775 29.8747C140.775 31.6758 141.258 32.9421 142.224 33.6736C142.817 34.1065 143.535 34.3324 144.268 34.3166C144.779 34.3418 145.288 34.234 145.745 34.0038C146.202 33.7736 146.592 33.4288 146.876 33.0031C147.454 31.9954 147.765 30.8565 147.779 29.6947C147.793 28.533 147.509 27.3871 146.955 26.3659L146.934 26.3667Z" fill="#253E66"/>
<path d="M164.931 22.0886C166.023 22.5854 166.953 23.3804 167.613 24.3822C168.262 25.3443 168.684 26.4411 168.847 27.59C168.974 28.6122 169.019 29.6427 168.983 30.672H157.684C157.648 31.3128 157.778 31.9521 158.062 32.5276C158.347 33.103 158.775 33.5949 159.307 33.9553C159.98 34.3581 160.755 34.5599 161.539 34.5369C162.173 34.5867 162.808 34.4436 163.36 34.1263C163.911 33.809 164.354 33.3324 164.63 32.7589H168.772C168.583 33.8334 168.055 34.8193 167.266 35.5729C166.512 36.3456 165.601 36.9473 164.594 37.3374C163.588 37.7274 162.509 37.8966 161.431 37.8335C159.442 37.861 157.506 37.1848 155.967 35.9243C154.385 34.6546 153.595 32.5847 153.598 29.7146C153.598 27.0254 154.309 24.9647 155.732 23.5326C156.461 22.8086 157.332 22.2422 158.29 21.8686C159.248 21.495 160.272 21.3222 161.299 21.3608C162.547 21.3449 163.784 21.5926 164.93 22.0878M158.861 25.5919C158.256 26.2557 157.878 27.0953 157.782 27.9885H164.771C164.766 27.5286 164.668 27.0744 164.483 26.6535C164.297 26.2326 164.028 25.8538 163.692 25.5401C163.024 24.9775 162.173 24.6803 161.3 24.7053C160.855 24.6769 160.408 24.741 159.989 24.8935C159.569 25.0461 159.186 25.2839 158.863 25.5919" fill="#253E66"/>
<path d="M179.65 21.4248H180.002V25.5805C179.745 25.5522 179.531 25.5333 179.318 25.5239H178.846C177.213 25.5239 176.116 26.0584 175.563 27.1188C175.197 27.9916 175.035 28.9368 175.091 29.8817V37.2923H171.004V21.7777H174.877V24.484C175.302 23.6959 175.848 22.9797 176.495 22.3617C177.339 21.7035 178.391 21.3707 179.459 21.424L179.65 21.4248Z" fill="#253E66"/>
</g>
</svg>
