<svg width="50" height="50" viewBox="0 0 50 50" fill="none" xmlns="http://www.w3.org/2000/svg">
<circle cx="25" cy="25" r="25" fill="#F1FAFE"/>
<g clip-path="url(#clip0_6919_47627)">
<path d="M29.8551 35.1236H18.7226C18.7226 35.1236 18.5117 35.0394 18.5117 34.9131V16.8511C18.5117 16.8511 18.5961 16.6406 18.7226 16.6406H29.8551C29.8551 16.6406 30.0659 16.7248 30.0659 16.8511V34.9552C30.0659 34.9552 29.9816 35.1657 29.8551 35.1657V35.1236ZM18.9334 34.7447H29.6864V17.0195H18.9334V34.7447Z" fill="#2B3D63"/>
<path d="M28.6326 20.3473H26.5663C26.5663 20.3473 26.3555 20.2631 26.3555 20.1368V18.0738C26.3555 18.0738 26.4398 17.8633 26.5663 17.8633H28.6326C28.6326 17.8633 28.8434 17.9475 28.8434 18.0738V20.1368C28.8434 20.1368 28.7591 20.3473 28.6326 20.3473ZM26.735 19.9263H28.4217V18.2422H26.735V19.9263Z" fill="#2B3D63"/>
<path d="M28.6326 24.4723H26.5663C26.5663 24.4723 26.3555 24.3881 26.3555 24.2618V22.1988C26.3555 22.1988 26.4398 21.9883 26.5663 21.9883H28.6326C28.6326 21.9883 28.8434 22.0725 28.8434 22.1988V24.2618C28.8434 24.2618 28.7591 24.4723 28.6326 24.4723ZM26.735 24.0934H28.4217V22.4093H26.735V24.0934Z" fill="#2B3D63"/>
<path d="M28.6326 28.7692H26.5663C26.5663 28.7692 26.3555 28.685 26.3555 28.5587V26.4957C26.3555 26.4957 26.4398 26.2852 26.5663 26.2852H28.6326C28.6326 26.2852 28.8434 26.3694 28.8434 26.4957V28.5587C28.8434 28.5587 28.7591 28.7692 28.6326 28.7692ZM26.735 28.3903H28.4217V26.7062H26.735V28.3903Z" fill="#2B3D63"/>
<path d="M25.3005 20.3473H23.2343C23.2343 20.3473 23.0234 20.2631 23.0234 20.1368V18.0738C23.0234 18.0738 23.1078 17.8633 23.2343 17.8633H25.3005C25.3005 17.8633 25.5114 17.9475 25.5114 18.0738V20.1368C25.5114 20.1368 25.4271 20.3473 25.3005 20.3473ZM23.4451 19.9263H25.1319V18.2422H23.4451V19.9263Z" fill="#2B3D63"/>
<path d="M25.3005 24.4723H23.2343C23.2343 24.4723 23.0234 24.3881 23.0234 24.2618V22.1988C23.0234 22.1988 23.1078 21.9883 23.2343 21.9883H25.3005C25.3005 21.9883 25.5114 22.0725 25.5114 22.1988V24.2618C25.5114 24.2618 25.4271 24.4723 25.3005 24.4723ZM23.4451 24.0934H25.1319V22.4093H23.4451V24.0934Z" fill="#2B3D63"/>
<path d="M25.3005 28.7692H23.2343C23.2343 28.7692 23.0234 28.685 23.0234 28.5587V26.4957C23.0234 26.4957 23.1078 26.2852 23.2343 26.2852H25.3005C25.3005 26.2852 25.5114 26.3694 25.5114 26.4957V28.5587C25.5114 28.5587 25.4271 28.7692 25.3005 28.7692ZM23.4451 28.3903H25.1319V26.7062H23.4451V28.3903Z" fill="#2B3D63"/>
<path d="M22.0115 20.3473H19.9452C19.9452 20.3473 19.7344 20.2631 19.7344 20.1368V18.0738C19.7344 18.0738 19.8187 17.8633 19.9452 17.8633H22.0115C22.0115 17.8633 22.2223 17.9475 22.2223 18.0738V20.1368C22.2223 20.1368 22.138 20.3473 22.0115 20.3473ZM20.1561 19.9263H21.8428V18.2422H20.1561V19.9263Z" fill="#2B3D63"/>
<path d="M22.0115 24.4723H19.9452C19.9452 24.4723 19.7344 24.3881 19.7344 24.2618V22.1988C19.7344 22.1988 19.8187 21.9883 19.9452 21.9883H22.0115C22.0115 21.9883 22.2223 22.0725 22.2223 22.1988V24.2618C22.2223 24.2618 22.138 24.4723 22.0115 24.4723ZM20.1561 24.0934H21.8428V22.4093H20.1561V24.0934Z" fill="#2B3D63"/>
<path d="M22.0115 28.7692H19.9452C19.9452 28.7692 19.7344 28.685 19.7344 28.5587V26.4957C19.7344 26.4957 19.8187 26.2852 19.9452 26.2852H22.0115C22.0115 26.2852 22.2223 26.3694 22.2223 26.4957V28.5587C22.2223 28.5587 22.138 28.7692 22.0115 28.7692ZM20.1561 28.3903H21.8428V26.7062H20.1561V28.3903Z" fill="#2B3D63"/>
<path d="M33.9879 35.1234H29.8554C29.8554 35.1234 29.6445 35.0392 29.6445 34.9129V21.3559C29.6445 21.3559 29.6867 21.1875 29.771 21.1875C29.8554 21.1875 29.9397 21.1875 29.9819 21.2296L32.259 23.5031C32.259 23.5031 32.3012 23.5873 32.3012 23.6294V33.5235H33.1445C33.1445 33.5235 33.3554 33.6077 33.3554 33.734V34.3656H33.9879C33.9879 34.3656 34.1987 34.4498 34.1987 34.5761V34.9971C34.1987 34.9971 34.1144 35.2076 33.9879 35.2076V35.1234ZM30.0662 34.7445H33.8192H33.1867C33.0602 34.7445 32.9759 34.6603 32.9759 34.534V33.9025H32.1325C32.1325 33.9025 31.9216 33.8183 31.9216 33.6919V23.6715L30.024 21.7769V34.7024L30.0662 34.7445Z" fill="#2B3D63"/>
<path d="M18.7225 35.1231H15.0116C15.0116 35.1231 14.8008 35.0389 14.8008 34.9126V34.4915C14.8008 34.4915 14.8851 34.281 15.0116 34.281H15.6442V32.8496C15.6442 32.8496 15.7285 32.639 15.855 32.639H16.9092V21.7766C16.9092 21.7766 16.9092 21.6924 16.9092 21.6503L18.5538 19.1662C18.5538 19.1662 18.6803 19.082 18.7646 19.082C18.849 19.082 18.8911 19.1662 18.8911 19.2504V34.8705C18.8911 34.8705 18.8068 35.081 18.6803 35.081L18.7225 35.1231ZM15.2225 34.7442H18.5538V19.9662L17.2887 21.8608V32.8917C17.2887 32.8917 17.2044 33.1022 17.0779 33.1022H16.0237V34.5337C16.0237 34.5337 15.9393 34.7442 15.8128 34.7442H15.1803H15.2225Z" fill="#2B3D63"/>
<path d="M34.7892 35.1242H14.2108C14.2108 35.1242 14 35.0399 14 34.9136C14 34.7873 14.0843 34.7031 14.2108 34.7031H34.8313C34.8313 34.7031 35.0422 34.7873 35.0422 34.9136C35.0422 35.0399 34.9578 35.1242 34.8313 35.1242H34.7892Z" fill="#2B3D63"/>
<path d="M28.2106 17.0209H22.4335C22.4335 17.0209 22.2227 16.9367 22.2227 16.8104V15.2105C22.2227 15.2105 22.307 15 22.4335 15H28.2106C28.2106 15 28.4215 15.0842 28.4215 15.2105V16.8525C28.4215 16.8525 28.3371 17.063 28.2106 17.063V17.0209ZM22.6443 16.642H28.0419V15.3789H22.6443V16.642Z" fill="#2B3D63"/>
<path d="M24.2889 15.2109C24.2889 15.2109 24.2045 15.4215 24.078 15.4215C23.9515 15.4215 23.8672 15.3372 23.8672 15.2109" fill="#2B3D63"/>
<path d="M25.9334 15.2109C25.9334 15.2109 25.8491 15.4215 25.7226 15.4215C25.5961 15.4215 25.5117 15.3372 25.5117 15.2109" fill="#2B3D63"/>
<path d="M16.9922 22.5781C16.9922 22.5781 17.1187 22.6623 17.203 22.6623L16.9922 22.5781Z" fill="#2B3D63"/>
<path d="M23.2749 15.3364C23.2749 15.3364 23.1906 15.2101 23.1484 15.168L23.2749 15.3364Z" fill="#2B3D63"/>
</g>
<defs>
<clipPath id="clip0_6919_47627">
<rect width="21" height="20.125" fill="white" transform="translate(14 15)"/>
</clipPath>
</defs>
</svg>
