<svg width="53" height="53" viewBox="0 0 53 53" fill="none" xmlns="http://www.w3.org/2000/svg">
<path d="M43.5524 38.442H39.7315V37.2841H43.5524C47.0261 37.2841 49.9207 34.8526 50.7313 31.4947C51.426 27.6738 48.8787 23.8528 45.0577 23.1581H44.5946V22.2318C44.5946 19.2213 43.5525 16.2108 41.6999 13.8951C39.4999 11.0004 36.2579 9.14782 32.6685 8.68467C29.0791 8.22153 25.4897 9.26361 22.4792 11.5794C20.3951 13.2004 18.774 15.5161 17.8477 18.1792V18.6424C17.732 18.6424 17.153 18.5266 17.153 18.5266C16.6898 18.5266 16.3425 18.5266 15.8793 18.5266C15.4162 18.5266 14.7215 18.5266 14.3741 18.5266C10.2058 19.3371 7.54266 23.3896 8.35317 27.558V28.2527C8.46896 28.2527 6.73212 28.2527 6.73212 28.2527C4.30059 28.2527 2.21647 30.3369 2.21647 32.7684C2.21647 35.1999 4.30059 37.2841 6.73212 37.2841H14.9531V38.442H6.73212C3.60587 38.442 1.05859 35.8947 1.05859 32.7684C1.05859 29.6422 3.60587 27.0948 6.73212 27.0948H7.07947C6.50054 22.5791 9.511 18.4108 14.0267 17.4845C14.6056 17.3687 15.1846 17.3687 15.8793 17.3687C16.5741 17.3687 16.574 17.3687 16.9214 17.3687C17.9635 14.7056 19.5845 12.2741 21.7845 10.6531C24.9107 8.10573 28.8475 7.06365 32.7842 7.5268C36.6052 7.98995 40.0789 9.95833 42.5104 13.0846C44.4788 15.6319 45.6367 18.7582 45.6367 22.116C49.805 23.1581 52.5839 27.3264 51.7734 31.6105C50.9629 35.5473 47.605 38.3262 43.5524 38.3262V38.442Z" fill="#D64794"/>
<path d="M27.9241 42.148C26.3031 42.148 24.6821 41.4532 23.8716 40.6427C23.64 40.4111 23.5242 40.0638 23.8716 39.7164C24.1031 39.4848 24.4505 39.3691 24.6821 39.7164C25.3768 40.2954 26.8821 40.9901 28.1557 40.8743C30.1241 40.8743 30.5873 39.6006 30.7031 39.1375C30.9346 38.2112 30.7031 37.0533 27.8084 35.8954C26.3031 35.3165 24.4505 34.2744 24.4505 32.306C24.4505 30.9166 25.4926 29.2956 27.5768 29.064C29.082 28.8324 30.8189 29.4114 31.5136 29.9903C31.7451 30.2219 31.8609 30.5692 31.5136 30.8008C31.282 31.0324 30.9346 31.1482 30.7031 30.8008C30.2399 30.4534 28.8505 29.9903 27.6926 30.1061C26.419 30.2219 25.7242 31.264 25.7242 32.0745C25.7242 32.7692 26.0716 33.5797 28.2715 34.506C30.1241 35.2007 32.4398 36.5902 31.9767 39.1375C31.7451 40.4111 30.5873 41.8006 28.2715 41.9164C28.2715 41.9164 28.1557 41.9164 28.04 41.9164L27.9241 42.148Z" fill="#D64794"/>
<path d="M27.9227 45.0402C27.5753 45.0402 27.3438 44.8086 27.3438 44.4613V41.7982C27.3438 41.4508 27.5753 41.2192 27.9227 41.2192C28.27 41.2192 28.5016 41.4508 28.5016 41.7982V44.4613C28.5016 44.8086 28.27 45.0402 27.9227 45.0402Z" fill="#D64794"/>
<path d="M27.9227 30.2203C27.5753 30.2203 27.3438 29.9888 27.3438 29.6414V27.0941C27.3438 26.7467 27.5753 26.5151 27.9227 26.5151C28.27 26.5151 28.5016 26.7467 28.5016 27.0941V29.6414C28.5016 29.9888 28.27 30.2203 27.9227 30.2203Z" fill="#D64794"/>
</svg>
