<svg width="87" height="44" viewBox="0 0 87 44" fill="none" xmlns="http://www.w3.org/2000/svg">
<g clip-path="url(#clip0_11161_16989)">
<path d="M0 14.6298C0.35 12.8698 0.66 11.1098 1.45 9.4698C3.83 4.5198 7.7 1.4598 13.09 0.389796C16.94 -0.370204 20.71 -0.0302039 24.32 1.5598C26.02 2.3098 27.48 3.4198 28.87 4.6598C29.3 5.0398 29.26 5.3298 28.91 5.7298C27.6 7.2198 26.3 8.7198 25.01 10.2298C24.66 10.6398 24.38 10.6298 24 10.2898C22.94 9.3498 21.8 8.5298 20.5 7.9398C14.47 5.1798 7.96 9.3498 7.9 15.9898C7.88 18.9998 8.64 21.6698 10.92 23.7598C12.63 25.3298 14.68 25.9198 16.98 25.8898C19.85 25.8498 22.1 24.4898 24.14 22.6698C24.64 22.2198 24.94 22.2598 25.37 22.7098C26.62 24.0298 27.89 25.3298 29.18 26.6098C29.52 26.9498 29.47 27.1598 29.16 27.4898C25.79 31.0698 21.7 32.9298 16.73 32.9298C12.8 32.9298 9.25 31.9498 6.16 29.5098C2.68 26.7698 0.74 23.1398 0.13 18.7698C0.1 18.5398 0.04 18.2998 0 18.0698C0 16.9198 0 15.7698 0 14.6298Z" fill="#94745A"/>
<path d="M44.3973 0.120022C48.8673 0.150022 52.6473 1.35002 55.9973 3.87002C56.4373 4.20002 56.5873 4.46002 56.2273 4.97002C55.1773 6.43002 54.1573 7.90002 53.1773 9.40002C52.7773 10.02 52.4673 9.97002 51.9273 9.60002C50.2173 8.43002 48.4073 7.49002 46.3473 7.08002C44.9873 6.81002 43.6373 6.77002 42.3273 7.29002C41.5473 7.60002 40.9773 8.09002 40.8973 9.00002C40.8173 10.01 41.0673 10.83 42.0473 11.34C43.5073 12.09 45.0773 12.5 46.6573 12.9C49.1673 13.54 51.6373 14.26 53.8273 15.72C56.1573 17.27 57.2873 19.47 57.4173 22.23C57.5273 24.57 57.0573 26.75 55.6373 28.66C54.0073 30.85 51.7273 32.02 49.1073 32.47C42.8973 33.55 37.3673 32.01 32.5073 28C32.0673 27.64 32.0573 27.4 32.4373 26.97C33.6473 25.58 34.8273 24.17 35.9673 22.73C36.3573 22.24 36.6273 22.28 37.0673 22.63C38.8373 24.05 40.7573 25.21 42.9973 25.72C44.3773 26.03 45.7673 26.24 47.1873 25.95C47.6573 25.85 48.1173 25.73 48.5473 25.52C49.3973 25.11 49.8973 24.45 49.9273 23.5C49.9573 22.54 49.4573 21.86 48.6373 21.43C47.1273 20.63 45.4773 20.22 43.8273 19.78C41.4673 19.15 39.1073 18.53 37.0073 17.21C34.8573 15.85 33.7273 13.89 33.4273 11.38C33.0273 7.99002 33.9373 5.08002 36.5673 2.82002C38.2673 1.36002 40.2773 0.590022 42.4773 0.270022C43.2073 0.160022 43.9473 0.100022 44.3973 0.120022Z" fill="#7CA3D5"/>
<path d="M73.6375 32.4296C69.9075 32.4296 66.1775 32.4296 62.4475 32.4296C61.4875 32.4296 61.4375 32.3796 61.4375 31.4096C61.4375 21.4396 61.4375 11.4596 61.4375 1.48957C61.4375 0.59957 61.4775 0.55957 62.3775 0.55957C69.8375 0.55957 77.3075 0.55957 84.7675 0.55957C85.6675 0.55957 85.7075 0.58957 85.7075 1.47957C85.7075 3.12957 85.6775 4.77957 85.7275 6.42957C85.7475 7.16957 85.4675 7.35957 84.7675 7.35957C79.8875 7.33957 75.0075 7.34957 70.1275 7.34957C69.4142 7.34957 69.0575 7.70624 69.0575 8.41957C69.0575 13.7496 69.0575 19.0896 69.0575 24.4196C69.0575 25.1662 69.4242 25.5396 70.1575 25.5396C75.0875 25.5396 80.0075 25.5396 84.9375 25.5396C85.8875 25.5396 85.8875 25.5396 85.8875 26.4796C85.8875 28.1096 85.8875 29.7296 85.8875 31.3596C85.8875 32.0729 85.5208 32.4296 84.7875 32.4296C81.0775 32.4296 77.3775 32.4296 73.6675 32.4296H73.6375Z" fill="#FAA21A"/>
<path d="M78.4472 19.7997C77.0172 19.7997 75.5772 19.7797 74.1472 19.7997C73.5472 19.8097 73.2872 19.6297 73.2972 18.9897C73.3272 17.2497 73.3272 15.4997 73.2972 13.7597C73.2872 13.1397 73.5272 12.9097 74.1372 12.9097C77.0472 12.9197 79.9672 12.9197 82.8772 12.9097C83.4472 12.9097 83.6972 13.1097 83.6872 13.7097C83.6672 15.4997 83.6672 17.2897 83.6872 19.0797C83.6872 19.6097 83.4772 19.7997 82.9572 19.7897C81.4572 19.7697 79.9472 19.7897 78.4472 19.7897V19.7997Z" fill="#FAA21A"/>
<path d="M5.04577 39.7703C5.04577 40.6503 5.02577 41.5303 5.04577 42.4003C5.06577 42.8603 4.86577 42.9503 4.45577 42.9603C4.00577 42.9703 3.88577 42.8203 3.89577 42.3903C3.91577 41.0503 3.89577 39.7103 3.91577 38.3703C3.91577 38.1403 3.76577 37.7603 4.10577 37.7003C4.49577 37.6303 4.95577 37.5103 5.27577 37.9703C5.89577 38.8503 6.54577 39.7003 7.19577 40.5703C7.24577 40.6403 7.31577 40.7103 7.51577 40.9203C7.51577 39.9203 7.53577 39.0803 7.51577 38.2403C7.49577 37.8003 7.63577 37.6503 8.07577 37.6603C8.49577 37.6603 8.67577 37.7703 8.66577 38.2203C8.63577 39.5603 8.66577 40.9003 8.64577 42.2403C8.64577 42.4803 8.84577 42.8903 8.39577 42.9403C8.01577 42.9803 7.61577 43.0803 7.30577 42.6403C6.63577 41.6603 5.90577 40.7103 5.20577 39.7503C5.15577 39.7603 5.10577 39.7803 5.04577 39.7903V39.7703Z" fill="black"/>
<path d="M35.9441 39.5502C35.9441 40.6402 35.9241 41.5202 35.9541 42.4002C35.9741 42.8402 35.8341 42.9802 35.3941 42.9702C34.9941 42.9602 34.7941 42.9002 34.8041 42.4202C34.8341 41.0802 34.8041 39.7402 34.8241 38.4002C34.8241 38.1502 34.6341 37.7402 35.0541 37.6902C35.4541 37.6402 35.9041 37.5202 36.2241 37.9802C36.8841 38.9202 37.5741 39.8302 38.4341 40.7502C38.4341 39.9202 38.4641 39.0802 38.4241 38.2502C38.4041 37.7502 38.5941 37.6502 39.0441 37.6502C39.4441 37.6502 39.5841 37.7802 39.5741 38.1802C39.5541 39.5202 39.5741 40.8602 39.5541 42.2002C39.5541 42.4502 39.7341 42.8502 39.3341 42.9202C38.9341 42.9902 38.5041 43.0602 38.1941 42.5902C37.6141 41.7202 36.9641 40.8802 36.3441 40.0302C36.2641 39.9202 36.1741 39.8102 35.9441 39.5402V39.5502Z" fill="black"/>
<path d="M59.4944 40.0102C60.3344 40.0102 60.7544 40.4202 60.7544 41.2402C60.7544 42.2702 60.2444 42.7902 58.9644 43.0302C57.7544 43.2602 56.4244 42.6002 55.9144 41.5002C55.3844 40.3602 55.6944 38.9302 56.6244 38.1702C57.6044 37.3802 59.1344 37.3402 60.0844 38.1002C60.2944 38.2702 60.7444 38.4702 60.4844 38.7702C60.2744 39.0202 59.9144 39.4102 59.4044 38.9202C58.8144 38.3402 57.8444 38.4702 57.2744 39.0602C56.7044 39.6602 56.6544 40.7002 57.1644 41.3702C57.6444 42.0102 58.6044 42.2002 59.2944 41.8202C59.5344 41.6802 59.6444 41.5102 59.6044 41.2402C59.5544 40.9102 59.2944 41.0102 59.1044 40.9902C58.9644 40.9802 58.8144 40.9702 58.6744 40.9902C58.2744 41.0402 58.2044 40.8302 58.1944 40.4802C58.1944 40.1002 58.3344 39.9602 58.6944 39.9802C58.9544 40.0002 59.2244 39.9802 59.4844 39.9802L59.4944 40.0102Z" fill="black"/>
<path d="M70.9043 37.5703C72.5143 37.6103 73.6643 38.7803 73.6343 40.3503C73.6043 41.9003 72.3443 43.1103 70.8143 43.0703C69.2243 43.0203 68.0643 41.8303 68.0943 40.2603C68.1143 38.6803 69.3143 37.5303 70.9143 37.5703H70.9043ZM72.4543 40.3203C72.4543 39.3303 71.8343 38.6203 70.9143 38.6003C69.9443 38.5803 69.2743 39.2503 69.2543 40.2703C69.2243 41.2603 69.9143 42.0303 70.8343 42.0403C71.7743 42.0503 72.4443 41.3303 72.4543 40.3103V40.3203Z" fill="black"/>
<path d="M66.6672 42.85C65.7272 43.13 65.1972 42.81 64.9072 42.01C64.8172 41.77 64.6472 41.55 64.5372 41.32C64.3872 41 64.0972 41.08 63.8472 41.09C63.5072 41.09 63.5972 41.38 63.5872 41.57C63.5772 41.81 63.5672 42.05 63.5872 42.29C63.6372 42.74 63.5572 42.98 62.9972 42.98C62.4472 42.98 62.4372 42.71 62.4472 42.32C62.4572 40.98 62.4772 39.64 62.4472 38.31C62.4272 37.75 62.6272 37.62 63.1472 37.65C63.7872 37.69 64.4372 37.64 65.0772 37.67C65.8872 37.71 66.4372 38.14 66.6372 38.82C66.8672 39.58 66.6372 40.31 65.9472 40.76C65.6372 40.96 65.6372 41.1 65.8072 41.37C66.1072 41.85 66.3772 42.35 66.6772 42.86L66.6672 42.85ZM64.2072 38.65C63.8472 38.58 63.4972 38.64 63.5272 39.33C63.5472 39.89 63.6372 40.18 64.2672 40.1C64.8072 40.04 65.4772 40.17 65.5072 39.38C65.5272 38.62 64.8972 38.66 64.2072 38.65Z" fill="black"/>
<path d="M26.8894 42.8502C25.9894 43.1102 25.4594 42.8502 25.1894 42.0602C25.1094 41.8202 24.9194 41.6102 24.8194 41.3702C24.6494 40.9702 24.3194 41.0602 24.0194 41.1002C23.6994 41.1402 23.8194 41.4302 23.7994 41.6202C23.7794 41.8602 23.7794 42.1002 23.7994 42.3302C23.8294 42.7502 23.7594 42.9702 23.2294 42.9702C22.6894 42.9702 22.6794 42.7202 22.6894 42.3102C22.7094 40.9302 22.7094 39.5402 22.6894 38.1602C22.6894 37.7602 22.7894 37.6102 23.1994 37.6302C23.8394 37.6602 24.4894 37.6302 25.1294 37.6402C26.0294 37.6602 26.6094 38.0602 26.8394 38.7902C27.0894 39.5702 26.8794 40.2402 26.1194 40.7602C25.8294 40.9602 25.8794 41.0902 26.0194 41.3302C26.3094 41.8102 26.5894 42.3102 26.8894 42.8402V42.8502ZM24.6394 38.6502C23.7994 38.6502 23.8194 38.6502 23.7894 39.3602C23.7594 39.8802 23.8594 40.1402 24.4794 40.1002C25.3894 40.0502 25.8194 39.8602 25.7694 39.3402C25.6994 38.6502 25.1594 38.6502 24.6494 38.6502H24.6394Z" fill="black"/>
<path d="M33.5192 42.93C32.8592 42.93 32.1692 43.23 31.9792 42.3C31.9292 42.06 31.6992 42.08 31.5092 42.08C31.0592 42.08 30.5992 42.1 30.1492 42.08C29.7992 42.06 29.5792 42.15 29.4592 42.53C29.3392 42.91 28.5592 43.13 28.2092 42.95C28.0092 42.84 28.1192 42.71 28.1692 42.6C28.7592 41.07 29.3592 39.54 29.9292 38C30.0492 37.68 30.2692 37.62 30.5492 37.67C30.8992 37.74 31.3792 37.43 31.5692 37.91C32.2292 39.56 32.8592 41.23 33.5092 42.94L33.5192 42.93ZM30.7792 38.79C30.5592 39.38 30.3992 39.8 30.2492 40.21C30.0426 40.7767 30.2326 41.06 30.8192 41.06C30.8892 41.06 30.9592 41.06 31.0292 41.06C31.4592 41.1 31.5992 40.96 31.4192 40.53C31.2092 40.03 31.0392 39.51 30.7792 38.8V38.79Z" fill="black"/>
<path d="M47.645 40.2803C47.645 39.5903 47.655 38.8903 47.645 38.2003C47.635 37.8103 47.755 37.6403 48.175 37.6603C49.085 37.6903 49.995 37.6803 50.895 37.6603C51.295 37.6603 51.445 37.7703 51.445 38.1903C51.445 38.5903 51.275 38.6703 50.925 38.6603C50.375 38.6403 49.825 38.6803 49.275 38.6503C48.835 38.6303 48.765 38.8503 48.765 39.2103C48.765 39.5603 48.795 39.8103 49.255 39.7903C49.805 39.7603 50.355 39.7903 50.905 39.7803C51.255 39.7703 51.365 39.9103 51.355 40.2403C51.355 40.5603 51.325 40.8003 50.895 40.7703C50.415 40.7403 49.935 40.7703 49.465 40.7703C49.045 40.7603 48.755 40.7703 48.745 41.3503C48.745 41.9803 49.055 41.9803 49.495 41.9603C49.975 41.9403 50.455 41.9703 50.925 41.9603C51.295 41.9403 51.435 42.0803 51.425 42.4503C51.425 42.7903 51.365 42.9803 50.955 42.9803C50.005 42.9603 49.045 42.9603 48.085 42.9803C47.735 42.9803 47.625 42.8503 47.625 42.5203C47.635 41.7803 47.625 41.0403 47.625 40.3003L47.645 40.2803Z" fill="black"/>
<path d="M80.0156 39.64C80.0156 40.05 80.0156 40.45 80.0156 40.86C79.9856 42.23 79.1656 43.03 77.7356 43.09C76.2856 43.15 75.3256 42.39 75.2356 41.02C75.1756 40.07 75.2256 39.11 75.1956 38.16C75.1856 37.71 75.4156 37.66 75.7756 37.67C76.1156 37.67 76.3856 37.6801 76.3656 38.1501C76.3456 38.9901 76.3456 39.82 76.3656 40.66C76.3756 41.6 76.8056 42.0701 77.6056 42.0801C78.4056 42.0801 78.8456 41.61 78.8656 40.67C78.8856 39.83 78.8956 39 78.8656 38.16C78.8456 37.69 79.0956 37.67 79.4456 37.68C79.7856 37.68 80.0656 37.68 80.0356 38.16C80.0056 38.66 80.0356 39.16 80.0356 39.66L80.0156 39.64Z" fill="black"/>
<path d="M20.8473 39.5904C20.8473 40.0204 20.8573 40.4504 20.8473 40.8804C20.7973 42.2804 19.9373 43.0804 18.4773 43.0904C16.9973 43.1004 16.0872 42.2804 16.0572 40.8604C16.0372 39.9804 16.0772 39.0904 16.0472 38.2104C16.0372 37.7504 16.2272 37.6604 16.6372 37.6504C17.0972 37.6504 17.2073 37.8204 17.1973 38.2404C17.1773 39.0704 17.1773 39.9104 17.1973 40.7504C17.2173 41.5904 17.6273 42.0304 18.3973 42.0504C19.1973 42.0804 19.6673 41.6404 19.6973 40.7804C19.7273 39.9904 19.7073 39.2004 19.6973 38.4204C19.6973 38.0004 19.6373 37.6504 20.2873 37.6504C20.9673 37.6504 20.8473 38.0604 20.8473 38.4504C20.8473 38.8304 20.8473 39.2104 20.8473 39.6004V39.5904Z" fill="black"/>
<path d="M12.3554 37.5801C12.8954 37.6101 13.3954 37.6701 13.8354 37.9501C14.0354 38.0801 14.4854 38.1301 14.1954 38.5501C13.9954 38.8501 13.8454 39.2601 13.3354 38.8801C12.9354 38.5901 12.4454 38.5501 11.9554 38.6101C11.6954 38.6401 11.4954 38.7801 11.4554 39.0501C11.4254 39.3101 11.6254 39.4301 11.8354 39.5001C12.3154 39.6501 12.8054 39.7601 13.2754 39.9201C14.1054 40.2001 14.4854 40.7001 14.4654 41.4201C14.4454 42.1801 14.0054 42.7001 13.1854 42.9501C12.2254 43.2401 11.3454 43.0301 10.5154 42.5301C10.2254 42.3601 10.0854 42.1801 10.3554 41.8601C10.5654 41.6001 10.6754 41.2901 11.1054 41.6401C11.5854 42.0301 12.1754 42.1701 12.7954 42.0101C13.0554 41.9401 13.2954 41.8001 13.3054 41.4901C13.3054 41.2001 13.0754 41.0801 12.8454 41.0101C12.4354 40.8801 12.0154 40.7901 11.6054 40.6701C10.6854 40.3801 10.2454 39.8501 10.2954 39.1101C10.3554 38.3401 10.9854 37.7401 11.8854 37.6201C12.0554 37.6001 12.2154 37.5901 12.3454 37.5801H12.3554Z" fill="black"/>
<path d="M83.4089 37.6603C83.7889 37.6603 84.1789 37.6303 84.5489 37.6603C85.4689 37.7503 86.0289 38.3603 86.0789 39.2603C86.1289 40.1803 85.5789 40.8803 84.6589 41.0303C84.2589 41.0903 83.8489 41.0903 83.4489 41.0703C83.0789 41.0503 82.9289 41.1903 82.9589 41.5603C82.9789 41.8203 82.9389 42.0903 82.9589 42.3503C83.0089 42.8103 82.8489 42.9703 82.3689 42.9703C81.8789 42.9703 81.8389 42.7403 81.8489 42.3603C81.8589 41.0503 81.8889 39.7303 81.8389 38.4203C81.8089 37.7903 81.9989 37.5503 82.6289 37.6403C82.8889 37.6803 83.1489 37.6403 83.4189 37.6403C83.4189 37.6403 83.4189 37.6403 83.4189 37.6503L83.4089 37.6603ZM83.7189 40.0803C83.9189 40.0803 84.1089 40.1103 84.2889 40.0803C84.6789 40.0103 84.9289 39.7803 84.9189 39.3503C84.9089 38.9203 84.6389 38.7203 84.2389 38.6803C84.0789 38.6603 83.9089 38.6803 83.7389 38.6603C83.1689 38.5803 82.9489 38.7603 82.9589 39.3803C82.9689 39.9603 83.0989 40.2403 83.7089 40.0903L83.7189 40.0803Z" fill="black"/>
<path d="M43.9593 37.5703C44.6793 37.5803 45.3293 37.7903 45.8093 38.3603C45.9393 38.5103 46.3093 38.7003 45.9993 38.9103C45.7393 39.0903 45.4593 39.4903 45.0193 39.0803C44.4093 38.5003 43.7493 38.4403 43.1293 38.7903C42.4893 39.1603 42.1893 39.9103 42.3593 40.7103C42.5193 41.4503 43.0393 41.9303 43.7793 42.0103C44.2693 42.0603 44.6893 41.9103 44.9993 41.5403C45.3993 41.0603 45.7293 41.4903 45.9793 41.6703C46.2993 41.9003 45.9093 42.1103 45.7693 42.2703C44.9693 43.1603 43.6193 43.3003 42.4793 42.6603C41.4293 42.0603 40.9293 40.8203 41.2393 39.5703C41.5393 38.3603 42.6193 37.5703 43.9693 37.5703H43.9593Z" fill="black"/>
<path d="M2.06625 40.3C2.06625 41.04 2.04625 41.78 2.06625 42.52C2.08625 43.01 1.77625 42.96 1.45625 42.97C1.14625 42.97 0.90625 42.98 0.90625 42.54C0.92625 41.06 0.92625 39.58 0.90625 38.11C0.90625 37.61 1.19625 37.68 1.50625 37.66C1.87625 37.64 2.07625 37.72 2.05625 38.16C2.02625 38.87 2.05625 39.59 2.05625 40.3H2.06625Z" fill="black"/>
</g>
<defs>
<clipPath id="clip0_11161_16989">
<rect width="86.08" height="43.09" fill="white"/>
</clipPath>
</defs>
</svg>
