<svg width="50" height="51" viewBox="0 0 50 51" fill="none" xmlns="http://www.w3.org/2000/svg">
<circle cx="25" cy="25.25" r="25" fill="#F1FAFE"/>
<mask id="path-2-inside-1_19637_25726" fill="white">
<path d="M19.1974 35.8391C19.2852 35.9275 19.4041 35.9772 19.528 35.9772C19.6519 35.9772 19.7708 35.9275 19.8586 35.8391L23.9266 31.7235C25.1701 32.1295 26.4938 32.2176 27.7792 31.98C29.0646 31.7423 30.2719 31.1862 31.2931 30.3613L37.1694 36.8751C37.2108 36.921 37.2608 36.9582 37.3165 36.9845C37.3722 37.0109 37.4324 37.0259 37.4938 37.0287C37.5552 37.0315 37.6166 37.022 37.6743 37.0008C37.7321 36.9796 37.7852 36.9471 37.8306 36.9052C37.8759 36.8632 37.9127 36.8127 37.9387 36.7563C37.9648 36.7 37.9796 36.6391 37.9824 36.577C37.9851 36.5148 37.9758 36.4528 37.9548 36.3943C37.9339 36.3359 37.9018 36.2822 37.8603 36.2362L31.9923 29.7325C33.3818 28.3234 34.2042 26.4422 34.2999 24.4541C34.3957 22.466 33.7579 20.5128 32.5105 18.9736L37.0644 14.3655V16.5395C37.0644 16.665 37.1137 16.7854 37.2014 16.8742C37.2892 16.9629 37.4081 17.0128 37.5322 17.0128C37.6563 17.0128 37.7753 16.9629 37.863 16.8742C37.9507 16.7854 38 16.665 38 16.5395V13.2233C37.9994 13.1299 37.9718 13.0388 37.9205 12.9612C37.8693 12.8836 37.7966 12.823 37.7116 12.7868C37.6553 12.763 37.5949 12.7505 37.5339 12.75H34.2593C34.1353 12.75 34.0163 12.7999 33.9285 12.8886C33.8408 12.9774 33.7915 13.0978 33.7915 13.2233C33.7915 13.3488 33.8408 13.4692 33.9285 13.5579C34.0163 13.6467 34.1353 13.6965 34.2593 13.6965H36.4082L31.8749 18.2804C31.0454 17.468 30.0508 16.8482 28.9605 16.4642C27.8701 16.0801 26.7101 15.9411 25.5613 16.0568C24.4124 16.1725 23.3022 16.5401 22.3081 17.134C21.3139 17.7279 20.4596 18.5339 19.8047 19.4958C19.1497 20.4577 18.7098 21.5525 18.5156 22.7039C18.3214 23.8553 18.3775 25.0357 18.6801 26.163C18.9826 27.2902 19.5244 28.3372 20.2676 29.2311C21.0108 30.1249 21.9376 30.8442 22.9836 31.3388L19.5288 34.8348L16.2064 31.4709C16.163 31.4269 16.1115 31.392 16.0547 31.3682C15.998 31.3444 15.9372 31.3322 15.8758 31.3322C15.8144 31.3322 15.7535 31.3444 15.6968 31.3682C15.6401 31.392 15.5886 31.4269 15.5452 31.4709L10.1482 36.9311C10.1024 36.9745 10.0657 37.0267 10.0402 37.0847C10.0148 37.1428 10.0011 37.2054 10.0001 37.2688C9.99902 37.3323 10.0106 37.3953 10.0341 37.4542C10.0577 37.513 10.0926 37.5665 10.137 37.6114C10.1814 37.6563 10.2342 37.6917 10.2924 37.7155C10.3505 37.7393 10.4129 37.751 10.4756 37.7499C10.5383 37.7489 10.6002 37.7351 10.6576 37.7093C10.7149 37.6836 10.7665 37.6464 10.8094 37.6L15.8758 32.4752L19.1974 35.8391ZM19.3388 24.0633C19.3388 22.6591 19.7503 21.2865 20.5214 20.1189C21.2925 18.9514 22.3884 18.0414 23.6707 17.504C24.953 16.9666 26.364 16.8259 27.7252 17.0998C29.0865 17.3737 30.337 18.0498 31.3184 19.0427C32.2999 20.0355 32.9683 21.3005 33.2392 22.6777C33.5101 24.0549 33.3712 25.4824 32.8402 26.7798C32.3092 28.0771 31.4098 29.186 30.2559 29.9663C29.1019 30.7465 27.7452 31.1631 26.3573 31.1632C24.4965 31.1615 22.7125 30.4129 21.3967 29.0818C20.0808 27.7507 19.3407 25.9459 19.3388 24.0633ZM28.7607 25.4455L24.496 21.1351L20.8347 24.8401C20.7461 24.924 20.6287 24.9698 20.5073 24.9677C20.386 24.9657 20.2702 24.916 20.1843 24.8292C20.0985 24.7423 20.0494 24.6252 20.0474 24.5024C20.0454 24.3796 20.0906 24.2609 20.1735 24.1712L24.1654 20.1308C24.2534 20.0426 24.3722 19.9931 24.496 19.9931C24.6199 19.9931 24.7387 20.0426 24.8266 20.1308L29.0872 24.4413L31.4517 22.049C31.5404 21.9651 31.6578 21.9194 31.7791 21.9214C31.9005 21.9235 32.0163 21.9732 32.1021 22.06C32.1879 22.1468 32.237 22.264 32.239 22.3867C32.2411 22.5095 32.1958 22.6283 32.1129 22.7179L29.4169 25.4455C29.3291 25.534 29.2102 25.5836 29.0863 25.5836C28.9624 25.5836 28.8436 25.534 28.7557 25.4455"/>
</mask>
<path d="M19.1974 35.8391C19.2852 35.9275 19.4041 35.9772 19.528 35.9772C19.6519 35.9772 19.7708 35.9275 19.8586 35.8391L23.9266 31.7235C25.1701 32.1295 26.4938 32.2176 27.7792 31.98C29.0646 31.7423 30.2719 31.1862 31.2931 30.3613L37.1694 36.8751C37.2108 36.921 37.2608 36.9582 37.3165 36.9845C37.3722 37.0109 37.4324 37.0259 37.4938 37.0287C37.5552 37.0315 37.6166 37.022 37.6743 37.0008C37.7321 36.9796 37.7852 36.9471 37.8306 36.9052C37.8759 36.8632 37.9127 36.8127 37.9387 36.7563C37.9648 36.7 37.9796 36.6391 37.9824 36.577C37.9851 36.5148 37.9758 36.4528 37.9548 36.3943C37.9339 36.3359 37.9018 36.2822 37.8603 36.2362L31.9923 29.7325C33.3818 28.3234 34.2042 26.4422 34.2999 24.4541C34.3957 22.466 33.7579 20.5128 32.5105 18.9736L37.0644 14.3655V16.5395C37.0644 16.665 37.1137 16.7854 37.2014 16.8742C37.2892 16.9629 37.4081 17.0128 37.5322 17.0128C37.6563 17.0128 37.7753 16.9629 37.863 16.8742C37.9507 16.7854 38 16.665 38 16.5395V13.2233C37.9994 13.1299 37.9718 13.0388 37.9205 12.9612C37.8693 12.8836 37.7966 12.823 37.7116 12.7868C37.6553 12.763 37.5949 12.7505 37.5339 12.75H34.2593C34.1353 12.75 34.0163 12.7999 33.9285 12.8886C33.8408 12.9774 33.7915 13.0978 33.7915 13.2233C33.7915 13.3488 33.8408 13.4692 33.9285 13.5579C34.0163 13.6467 34.1353 13.6965 34.2593 13.6965H36.4082L31.8749 18.2804C31.0454 17.468 30.0508 16.8482 28.9605 16.4642C27.8701 16.0801 26.7101 15.9411 25.5613 16.0568C24.4124 16.1725 23.3022 16.5401 22.3081 17.134C21.3139 17.7279 20.4596 18.5339 19.8047 19.4958C19.1497 20.4577 18.7098 21.5525 18.5156 22.7039C18.3214 23.8553 18.3775 25.0357 18.6801 26.163C18.9826 27.2902 19.5244 28.3372 20.2676 29.2311C21.0108 30.1249 21.9376 30.8442 22.9836 31.3388L19.5288 34.8348L16.2064 31.4709C16.163 31.4269 16.1115 31.392 16.0547 31.3682C15.998 31.3444 15.9372 31.3322 15.8758 31.3322C15.8144 31.3322 15.7535 31.3444 15.6968 31.3682C15.6401 31.392 15.5886 31.4269 15.5452 31.4709L10.1482 36.9311C10.1024 36.9745 10.0657 37.0267 10.0402 37.0847C10.0148 37.1428 10.0011 37.2054 10.0001 37.2688C9.99902 37.3323 10.0106 37.3953 10.0341 37.4542C10.0577 37.513 10.0926 37.5665 10.137 37.6114C10.1814 37.6563 10.2342 37.6917 10.2924 37.7155C10.3505 37.7393 10.4129 37.751 10.4756 37.7499C10.5383 37.7489 10.6002 37.7351 10.6576 37.7093C10.7149 37.6836 10.7665 37.6464 10.8094 37.6L15.8758 32.4752L19.1974 35.8391ZM19.3388 24.0633C19.3388 22.6591 19.7503 21.2865 20.5214 20.1189C21.2925 18.9514 22.3884 18.0414 23.6707 17.504C24.953 16.9666 26.364 16.8259 27.7252 17.0998C29.0865 17.3737 30.337 18.0498 31.3184 19.0427C32.2999 20.0355 32.9683 21.3005 33.2392 22.6777C33.5101 24.0549 33.3712 25.4824 32.8402 26.7798C32.3092 28.0771 31.4098 29.186 30.2559 29.9663C29.1019 30.7465 27.7452 31.1631 26.3573 31.1632C24.4965 31.1615 22.7125 30.4129 21.3967 29.0818C20.0808 27.7507 19.3407 25.9459 19.3388 24.0633ZM28.7607 25.4455L24.496 21.1351L20.8347 24.8401C20.7461 24.924 20.6287 24.9698 20.5073 24.9677C20.386 24.9657 20.2702 24.916 20.1843 24.8292C20.0985 24.7423 20.0494 24.6252 20.0474 24.5024C20.0454 24.3796 20.0906 24.2609 20.1735 24.1712L24.1654 20.1308C24.2534 20.0426 24.3722 19.9931 24.496 19.9931C24.6199 19.9931 24.7387 20.0426 24.8266 20.1308L29.0872 24.4413L31.4517 22.049C31.5404 21.9651 31.6578 21.9194 31.7791 21.9214C31.9005 21.9235 32.0163 21.9732 32.1021 22.06C32.1879 22.1468 32.237 22.264 32.239 22.3867C32.2411 22.5095 32.1958 22.6283 32.1129 22.7179L29.4169 25.4455C29.3291 25.534 29.2102 25.5836 29.0863 25.5836C28.9624 25.5836 28.8436 25.534 28.7557 25.4455" fill="#253E66"/>
<path d="M19.1974 35.8391L19.0551 35.9796L19.0555 35.98L19.1974 35.8391ZM19.8586 35.8391L20.0005 35.98L20.0009 35.9797L19.8586 35.8391ZM23.9266 31.7235L23.9887 31.5333L23.8712 31.495L23.7843 31.5829L23.9266 31.7235ZM31.2931 30.3613L31.4416 30.2274L31.3147 30.0868L31.1674 30.2058L31.2931 30.3613ZM37.1694 36.8751L37.0209 37.0091L37.021 37.0091L37.1694 36.8751ZM37.8603 36.2362L37.7118 36.3702L37.7119 36.3703L37.8603 36.2362ZM31.9923 29.7325L31.8499 29.5921L31.7174 29.7265L31.8438 29.8665L31.9923 29.7325ZM32.5105 18.9736L32.3682 18.833L32.2423 18.9604L32.3551 19.0995L32.5105 18.9736ZM37.0644 14.3655H37.2644V13.8786L36.9222 14.2249L37.0644 14.3655ZM37.0644 16.5395H36.8644H37.0644ZM38 16.5395H38.2H38ZM38 13.2233H38.2L38.2 13.2221L38 13.2233ZM37.7116 12.7868L37.7899 12.6028L37.7895 12.6026L37.7116 12.7868ZM37.5339 12.75L37.5354 12.55H37.5339V12.75ZM34.2593 12.75V12.55V12.75ZM33.7915 13.2233H33.9915H33.7915ZM34.2593 13.6965V13.8965V13.6965ZM36.4082 13.6965L36.5504 13.8372L36.8873 13.4965H36.4082V13.6965ZM31.8749 18.2804L31.735 18.4233L31.8772 18.5626L32.0171 18.421L31.8749 18.2804ZM22.9836 31.3388L23.1258 31.4794L23.3242 31.2787L23.0691 31.158L22.9836 31.3388ZM19.5288 34.8348L19.3866 34.9754L19.5288 35.1194L19.6711 34.9754L19.5288 34.8348ZM16.2064 31.4709L16.064 31.6114L16.0641 31.6115L16.2064 31.4709ZM15.5452 31.4709L15.6874 31.6115L15.6876 31.6114L15.5452 31.4709ZM10.1482 36.9311L10.2858 37.0764L10.2905 37.0717L10.1482 36.9311ZM10.8094 37.6L10.6671 37.4594L10.6626 37.4643L10.8094 37.6ZM15.8758 32.4752L16.0181 32.3346L15.8759 32.1906L15.7335 32.3346L15.8758 32.4752ZM19.3388 24.0633H19.1388L19.1388 24.0635L19.3388 24.0633ZM26.3573 31.1632L26.3571 31.3632H26.3573L26.3573 31.1632ZM24.496 21.1351L24.6382 20.9944L24.4959 20.8506L24.3538 20.9945L24.496 21.1351ZM20.8347 24.8401L20.9722 24.9855L20.977 24.9807L20.8347 24.8401ZM20.1735 24.1712L20.0312 24.0306L20.0267 24.0354L20.1735 24.1712ZM24.1654 20.1308L24.0238 19.9897L24.0232 19.9903L24.1654 20.1308ZM24.8266 20.1308L24.9689 19.9902L24.9683 19.9897L24.8266 20.1308ZM29.0872 24.4413L28.9449 24.5819L29.0872 24.7258L29.2294 24.5819L29.0872 24.4413ZM31.4517 22.049L31.3142 21.9037L31.3095 21.9084L31.4517 22.049ZM32.1129 22.7179L32.2553 22.8586L32.2598 22.8537L32.1129 22.7179ZM29.4169 25.4455L29.5589 25.5864L29.5592 25.5861L29.4169 25.4455ZM19.0555 35.98C19.1806 36.106 19.3505 36.1772 19.528 36.1772V35.7772C19.4577 35.7772 19.3899 35.749 19.3393 35.6981L19.0555 35.98ZM19.528 36.1772C19.7056 36.1772 19.8754 36.106 20.0005 35.98L19.7167 35.6981C19.6662 35.749 19.5983 35.7772 19.528 35.7772V36.1772ZM20.0009 35.9797L24.0688 31.8641L23.7843 31.5829L19.7164 35.6985L20.0009 35.9797ZM23.8645 31.9136C25.1398 32.33 26.4972 32.4204 27.8156 32.1766L27.7428 31.7833C26.4903 32.0149 25.2005 31.929 23.9887 31.5333L23.8645 31.9136ZM27.8156 32.1766C29.1339 31.9329 30.3718 31.3626 31.4187 30.5169L31.1674 30.2058C30.172 31.0098 28.9954 31.5517 27.7428 31.7833L27.8156 32.1766ZM31.1446 30.4953L37.0209 37.0091L37.3179 36.7411L31.4416 30.2274L31.1446 30.4953ZM37.021 37.0091C37.08 37.0745 37.1513 37.1276 37.2309 37.1653L37.4021 36.8038C37.3703 36.7887 37.3417 36.7674 37.3178 36.741L37.021 37.0091ZM37.2309 37.1653C37.3105 37.203 37.3968 37.2245 37.4847 37.2285L37.5029 36.8289C37.4681 36.8273 37.4338 36.8188 37.4021 36.8038L37.2309 37.1653ZM37.4847 37.2285C37.5727 37.2325 37.6605 37.2189 37.7432 37.1886L37.6055 36.813C37.5726 36.8251 37.5377 36.8305 37.5029 36.8289L37.4847 37.2285ZM37.7432 37.1886C37.8259 37.1583 37.9017 37.1118 37.9663 37.052L37.6948 36.7583C37.6687 36.7824 37.6384 36.801 37.6055 36.813L37.7432 37.1886ZM37.9663 37.052C38.031 36.9922 38.0833 36.9203 38.1203 36.8403L37.7572 36.6724C37.7421 36.7051 37.7209 36.7342 37.6948 36.7583L37.9663 37.052ZM38.1203 36.8403C38.1573 36.7603 38.1783 36.6739 38.1822 36.5858L37.7826 36.5681C37.781 36.6043 37.7723 36.6397 37.7572 36.6724L38.1203 36.8403ZM38.1822 36.5858C38.1861 36.4978 38.1728 36.4098 38.1431 36.3269L37.7666 36.4618C37.7787 36.4957 37.7842 36.5319 37.7826 36.5681L38.1822 36.5858ZM38.1431 36.3269C38.1134 36.2439 38.0678 36.1676 38.0087 36.1022L37.7119 36.3703C37.7358 36.3967 37.7544 36.4278 37.7666 36.4618L38.1431 36.3269ZM38.0088 36.1023L32.1408 29.5986L31.8438 29.8665L37.7118 36.3702L38.0088 36.1023ZM32.1347 29.873C33.5589 28.4285 34.4016 26.5006 34.4997 24.4637L34.1002 24.4444C34.0068 26.3837 33.2046 28.2182 31.8499 29.5921L32.1347 29.873ZM34.4997 24.4637C34.5978 22.4267 33.9444 20.4252 32.6658 18.8477L32.3551 19.0995C33.5715 20.6003 34.1936 22.5052 34.1002 24.4444L34.4997 24.4637ZM32.6527 19.1142L37.2067 14.5061L36.9222 14.2249L32.3682 18.833L32.6527 19.1142ZM36.8644 14.3655V16.5395H37.2644V14.3655H36.8644ZM36.8644 16.5395C36.8644 16.7173 36.9342 16.8883 37.0592 17.0148L37.3437 16.7336C37.2932 16.6825 37.2644 16.6127 37.2644 16.5395H36.8644ZM37.0592 17.0148C37.1842 17.1413 37.3543 17.2128 37.5322 17.2128V16.8128C37.4619 16.8128 37.3941 16.7846 37.3437 16.7336L37.0592 17.0148ZM37.5322 17.2128C37.7101 17.2128 37.8802 17.1413 38.0052 17.0148L37.7207 16.7336C37.6703 16.7846 37.6025 16.8128 37.5322 16.8128V17.2128ZM38.0052 17.0148C38.1302 16.8883 38.2 16.7173 38.2 16.5395H37.8C37.8 16.6127 37.7712 16.6825 37.7207 16.7336L38.0052 17.0148ZM38.2 16.5395V13.2233H37.8V16.5395H38.2ZM38.2 13.2221C38.1992 13.0901 38.1601 12.961 38.0874 12.851L37.7537 13.0715C37.7835 13.1166 37.7997 13.1698 37.8 13.2245L38.2 13.2221ZM38.0874 12.851C38.0146 12.7408 37.9113 12.6544 37.7899 12.6028L37.6332 12.9708C37.6819 12.9915 37.7239 13.0264 37.7537 13.0715L38.0874 12.851ZM37.7895 12.6026C37.7091 12.5686 37.6227 12.5507 37.5354 12.55L37.5324 12.95C37.5671 12.9503 37.6014 12.9574 37.6336 12.971L37.7895 12.6026ZM37.5339 12.55H34.2593V12.95H37.5339V12.55ZM34.2593 12.55C34.0815 12.55 33.9114 12.6215 33.7863 12.748L34.0708 13.0292C34.1212 12.9782 34.1891 12.95 34.2593 12.95V12.55ZM33.7863 12.748C33.6613 12.8745 33.5915 13.0455 33.5915 13.2233H33.9915C33.9915 13.15 34.0203 13.0803 34.0708 13.0292L33.7863 12.748ZM33.5915 13.2233C33.5915 13.4011 33.6613 13.5721 33.7863 13.6985L34.0708 13.4173C34.0203 13.3663 33.9915 13.2965 33.9915 13.2233H33.5915ZM33.7863 13.6985C33.9114 13.825 34.0815 13.8965 34.2593 13.8965V13.4965C34.1891 13.4965 34.1212 13.4683 34.0708 13.4173L33.7863 13.6985ZM34.2593 13.8965H36.4082V13.4965H34.2593V13.8965ZM36.266 13.5559L31.7327 18.1398L32.0171 18.421L36.5504 13.8372L36.266 13.5559ZM32.0149 18.1375C31.1646 17.3047 30.145 16.6693 29.0269 16.2755L28.894 16.6528C29.9567 17.0271 30.9262 17.6312 31.735 18.4233L32.0149 18.1375ZM29.0269 16.2755C27.9089 15.8817 26.7194 15.7392 25.5412 15.8578L25.5813 16.2558C26.7009 16.1431 27.8314 16.2785 28.894 16.6528L29.0269 16.2755ZM25.5412 15.8578C24.3631 15.9765 23.2248 16.3534 22.2055 16.9623L22.4106 17.3057C23.3797 16.7268 24.4617 16.3686 25.5813 16.2558L25.5412 15.8578ZM22.2055 16.9623C21.1863 17.5712 20.3106 18.3974 19.6393 19.3832L19.97 19.6084C20.6087 18.6704 21.4416 17.8846 22.4106 17.3057L22.2055 16.9623ZM19.6393 19.3832C18.9681 20.3691 18.5174 21.4909 18.3184 22.6706L18.7128 22.7372C18.9022 21.6141 19.3313 20.5464 19.97 19.6084L19.6393 19.3832ZM18.3184 22.6706C18.1194 23.8504 18.1769 25.0598 18.4869 26.2148L18.8732 26.1111C18.5781 25.0117 18.5234 23.8603 18.7128 22.7372L18.3184 22.6706ZM18.4869 26.2148C18.7969 27.3698 19.3521 28.4428 20.1138 29.3589L20.4214 29.1032C19.6967 28.2316 19.1684 27.2106 18.8732 26.1111L18.4869 26.2148ZM20.1138 29.3589C20.8756 30.2751 21.8257 31.0125 22.8981 31.5196L23.0691 31.158C22.0496 30.6759 21.1461 29.9748 20.4214 29.1032L20.1138 29.3589ZM22.8413 31.1982L19.3866 34.6943L19.6711 34.9754L23.1258 31.4794L22.8413 31.1982ZM19.6711 34.6943L16.3487 31.3304L16.0641 31.6115L19.3866 34.9754L19.6711 34.6943ZM16.3488 31.3305C16.2869 31.2678 16.2133 31.2179 16.1322 31.1838L15.9773 31.5526C16.0096 31.5662 16.0391 31.5861 16.064 31.6114L16.3488 31.3305ZM16.1322 31.1838C16.051 31.1497 15.9638 31.1322 15.8758 31.1322V31.5322C15.9106 31.5322 15.9451 31.5391 15.9773 31.5526L16.1322 31.1838ZM15.8758 31.1322C15.7877 31.1322 15.7006 31.1497 15.6194 31.1838L15.7742 31.5526C15.8065 31.5391 15.841 31.5322 15.8758 31.5322V31.1322ZM15.6194 31.1838C15.5382 31.2179 15.4646 31.2678 15.4028 31.3305L15.6876 31.6114C15.7125 31.5861 15.742 31.5662 15.7742 31.5526L15.6194 31.1838ZM15.4029 31.3303L10.006 36.7905L10.2905 37.0717L15.6874 31.6115L15.4029 31.3303ZM10.0107 36.7858C9.94543 36.8477 9.89321 36.922 9.85707 37.0044L10.2234 37.1651C10.2381 37.1314 10.2594 37.1013 10.2857 37.0764L10.0107 36.7858ZM9.85707 37.0044C9.82093 37.0868 9.80157 37.1756 9.80009 37.2655L10.2 37.2721C10.2006 37.2352 10.2086 37.1987 10.2234 37.1651L9.85707 37.0044ZM9.80009 37.2655C9.79861 37.3555 9.81503 37.4449 9.84842 37.5284L10.2198 37.3799C10.2062 37.3458 10.1994 37.3091 10.2 37.2721L9.80009 37.2655ZM9.84842 37.5284C9.88182 37.612 9.93155 37.688 9.99477 37.752L10.2793 37.4708C10.2537 37.445 10.2335 37.4141 10.2198 37.3799L9.84842 37.5284ZM9.99477 37.752C10.058 37.8159 10.1334 37.8665 10.2166 37.9006L10.3681 37.5304C10.335 37.5168 10.3048 37.4966 10.2793 37.4708L9.99477 37.752ZM10.2166 37.9006C10.2999 37.9346 10.3891 37.9514 10.479 37.9499L10.4722 37.55C10.4366 37.5506 10.4012 37.5439 10.3681 37.5304L10.2166 37.9006ZM10.479 37.9499C10.5689 37.9484 10.6575 37.9286 10.7395 37.8918L10.5756 37.5269C10.543 37.5415 10.5078 37.5494 10.4722 37.55L10.479 37.9499ZM10.7395 37.8918C10.8215 37.8549 10.8952 37.8019 10.9563 37.7358L10.6626 37.4643C10.6379 37.4909 10.6083 37.5122 10.5756 37.5269L10.7395 37.8918ZM10.9516 37.7406L16.018 32.6158L15.7335 32.3346L10.6672 37.4594L10.9516 37.7406ZM15.7335 32.6157L19.0551 35.9796L19.3397 35.6985L16.0181 32.3346L15.7335 32.6157ZM19.5388 24.0633C19.5388 22.6982 19.9389 21.3639 20.6883 20.2292L20.3545 20.0087C19.5617 21.2091 19.1388 22.6201 19.1388 24.0633H19.5388ZM20.6883 20.2292C21.4377 19.0945 22.5026 18.2104 23.748 17.6884L23.5934 17.3195C22.2743 17.8723 21.1473 18.8083 20.3545 20.0087L20.6883 20.2292ZM23.748 17.6884C24.9935 17.1665 26.3638 17.0299 27.6858 17.2959L27.7647 16.9037C26.3641 16.622 24.9125 16.7667 23.5934 17.3195L23.748 17.6884ZM27.6858 17.2959C29.0078 17.5619 30.2225 18.2185 31.1762 19.1833L31.4607 18.9021C30.4514 17.8811 29.1652 17.1855 27.7647 16.9037L27.6858 17.2959ZM31.1762 19.1833C32.1299 20.148 32.7796 21.3775 33.043 22.7163L33.4354 22.6391C33.157 21.2236 32.4699 19.923 31.4607 18.9021L31.1762 19.1833ZM33.043 22.7163C33.3063 24.0552 33.1713 25.4429 32.6551 26.704L33.0253 26.8555C33.5712 25.5219 33.7139 24.0546 33.4354 22.6391L33.043 22.7163ZM32.6551 26.704C32.1389 27.9651 31.2649 29.0426 30.1439 29.8006L30.3679 30.132C31.5548 29.3295 32.4794 28.1892 33.0253 26.8555L32.6551 26.704ZM30.1439 29.8006C29.0229 30.5586 27.7051 30.9631 26.3573 30.9632L26.3573 31.3632C27.7853 31.3631 29.181 30.9345 30.3679 30.132L30.1439 29.8006ZM26.3575 30.9632C24.5505 30.9615 22.8174 30.2346 21.5389 28.9412L21.2544 29.2224C22.6075 30.5912 24.4426 31.3614 26.3571 31.3632L26.3575 30.9632ZM21.5389 28.9412C20.2603 27.6478 19.5407 25.8934 19.5388 24.0631L19.1388 24.0635C19.1408 25.9983 19.9014 27.8537 21.2544 29.2224L21.5389 28.9412ZM28.9029 25.3049L24.6382 20.9944L24.3539 21.2757L28.6185 25.5862L28.9029 25.3049ZM24.3538 20.9945L20.6924 24.6996L20.977 24.9807L24.6383 21.2757L24.3538 20.9945ZM20.6972 24.6949C20.6463 24.743 20.5794 24.7689 20.5107 24.7677L20.504 25.1677C20.6779 25.1706 20.8458 25.105 20.9722 24.9854L20.6972 24.6949ZM20.5107 24.7677C20.442 24.7666 20.3759 24.7385 20.3266 24.6886L20.0421 24.9698C20.1644 25.0935 20.33 25.1648 20.504 25.1677L20.5107 24.7677ZM20.3266 24.6886C20.2772 24.6386 20.2486 24.5707 20.2474 24.4991L19.8474 24.5057C19.8503 24.6796 19.9199 24.8461 20.0421 24.9698L20.3266 24.6886ZM20.2474 24.4991C20.2462 24.4275 20.2726 24.3586 20.3204 24.307L20.0267 24.0354C19.9086 24.1631 19.8446 24.3318 19.8474 24.5057L20.2474 24.4991ZM20.3158 24.3118L24.3077 20.2714L24.0232 19.9903L20.0312 24.0306L20.3158 24.3118ZM24.3071 20.272C24.3578 20.2212 24.4257 20.1931 24.496 20.1931V19.7931C24.3187 19.7931 24.149 19.864 24.0238 19.9897L24.3071 20.272ZM24.496 20.1931C24.5664 20.1931 24.6343 20.2212 24.685 20.272L24.9683 19.9897C24.8431 19.864 24.6734 19.7931 24.496 19.7931V20.1931ZM24.6844 20.2714L28.9449 24.5819L29.2294 24.3007L24.9689 19.9902L24.6844 20.2714ZM29.2294 24.5819L31.594 22.1896L31.3095 21.9084L28.9449 24.3007L29.2294 24.5819ZM31.5892 22.1943C31.6401 22.1461 31.707 22.1202 31.7757 22.1214L31.7825 21.7215C31.6085 21.7185 31.4407 21.7841 31.3143 21.9037L31.5892 22.1943ZM31.7757 22.1214C31.8445 22.1226 31.9105 22.1507 31.9599 22.2006L32.2443 21.9194C32.122 21.7956 31.9564 21.7244 31.7825 21.7215L31.7757 22.1214ZM31.9599 22.2006C32.0092 22.2505 32.0379 22.3184 32.0391 22.39L32.439 22.3834C32.4361 22.2095 32.3666 22.0431 32.2443 21.9194L31.9599 22.2006ZM32.0391 22.39C32.0402 22.4617 32.0138 22.5305 31.9661 22.5822L32.2598 22.8537C32.3778 22.726 32.4419 22.5574 32.439 22.3834L32.0391 22.39ZM31.9707 22.5773L29.2747 25.3049L29.5592 25.5861L32.2552 22.8585L31.9707 22.5773ZM29.275 25.3046C29.2245 25.3555 29.1566 25.3836 29.0863 25.3836V25.7836C29.2639 25.7836 29.4337 25.7124 29.5589 25.5864L29.275 25.3046ZM29.0863 25.3836C29.0161 25.3836 28.9482 25.3555 28.8977 25.3046L28.6138 25.5864C28.7389 25.7124 28.9088 25.7836 29.0863 25.7836V25.3836Z" fill="#F1FAFE" mask="url(#path-2-inside-1_19637_25726)"/>
</svg>
