<svg width="121" height="28" viewBox="0 0 121 28" fill="none" xmlns="http://www.w3.org/2000/svg">
<path d="M56.6002 28.3424C48.6311 28.3181 43.2235 21.5702 45.4424 14.4256C46.931 9.64085 51.7756 6.54941 57.4046 6.79324C60.2154 6.85126 62.8973 7.97813 64.8998 9.94256C66.9023 11.907 68.0734 14.5599 68.1728 17.3568C68.2786 23.5379 63.1954 28.3613 56.6038 28.3424M61.1139 17.6951C61.1441 17.0724 61.0478 16.45 60.8307 15.8652C60.6137 15.2804 60.2803 14.7452 59.8507 14.2917C59.421 13.8381 58.9038 13.4754 58.3301 13.2254C57.7564 12.9754 57.1379 12.8432 56.5116 12.8367C55.9104 12.8317 55.3146 12.9489 54.7605 13.1812C54.2064 13.4134 53.7058 13.7559 53.2893 14.1875C52.8728 14.6191 52.5493 15.1308 52.3384 15.6912C52.1275 16.2517 52.0338 16.8491 52.063 17.4468C52.0576 20.2009 53.9484 22.2855 56.4673 22.3053C57.0807 22.3227 57.6913 22.2156 58.2618 21.9904C58.8322 21.7653 59.3506 21.4268 59.7854 20.9957C60.2202 20.5646 60.5622 20.0499 60.7906 19.4829C61.019 18.9159 61.129 18.3085 61.1139 17.6978" fill="#203642"/>
<path d="M7.25089 18.6927C8.3147 22.8315 12.4217 23.4873 16.7456 20.3419L20.7975 23.5998C19.8198 24.8528 18.5814 25.8802 17.1671 26.6116C15.7528 27.3429 14.1962 27.7608 12.6043 27.8366C7.41539 28.264 2.91432 25.8455 1.00996 21.5736C0.0220097 19.3865 -0.261118 16.9485 0.199495 14.5946C0.660109 12.2408 1.84185 10.0868 3.58225 8.42874C6.89388 5.45696 10.8201 4.99271 14.9208 6.35128C18.8018 7.63788 20.7252 10.6465 21.3696 14.5045C21.591 15.8271 21.6254 17.1794 21.7609 18.6927H7.25089ZM7.18943 14.9274H14.5737C14.3595 12.5881 12.9631 11.1162 10.981 11.0514C8.99889 10.9866 7.47956 12.5063 7.18491 14.9274" fill="#B73E18"/>
<path d="M103.613 16.1735C103.613 13.8019 102.701 12.5576 100.54 12.5261C98.1967 12.6027 95.859 12.8 93.5362 13.1172C93.1476 11.8576 92.6658 10.2894 92.1009 8.45843C93.588 7.92468 95.1249 7.5401 96.6888 7.31039C99.428 7.08111 102.184 7.15141 104.908 7.52002C108.594 8.14982 110.687 10.8535 110.873 14.9616C111.07 19.1903 110.917 23.4406 110.917 27.7826H103.805C103.73 27.1753 103.664 26.6382 103.624 26.2657C102.03 27.0451 100.372 27.6863 98.6681 28.1821C93.2687 29.2941 89.1635 24.9962 90.6394 19.9559C90.9308 18.9485 91.4943 18.0399 92.2685 17.3292C93.0427 16.6185 93.9979 16.1329 95.0302 15.9252C97.8624 15.2352 100.829 15.3211 103.617 16.1735M101.032 18.8952C98.9709 18.8556 97.6468 19.6069 97.4281 20.9879C97.2872 21.4816 97.327 22.009 97.5404 22.4761C97.7537 22.9433 98.1268 23.3198 98.5931 23.5386C99.816 24.1441 101.919 23.9948 102.704 22.8926C103.302 21.9409 103.643 20.8515 103.693 19.7301C103.711 19.5151 102.165 19.1732 101.336 18.8988C101.235 18.8833 101.132 18.8833 101.031 18.8988" fill="#203642"/>
<path d="M31.0766 21.4081H44.2923V27.7826H23.7031V1.30029H31.0775L31.0766 21.4081Z" fill="#203642"/>
<path d="M89.5753 11.4194L84.8863 14.8878C81.8566 12.401 79.5835 12.1968 77.7569 14.2031C76.9345 15.1806 76.4944 16.4208 76.5176 17.6956C76.5409 18.9703 77.0259 20.1938 77.8834 21.1409C79.7091 22.9952 82.1639 22.7109 84.9721 20.2655C86.5213 21.3604 88.0876 22.4689 89.6458 23.5728C87.906 27.0349 82.8671 29.1115 78.5242 28.1974C73.1663 27.0691 69.6522 23.132 69.4371 18.0162C69.3493 15.6685 70.0397 13.3573 71.4017 11.4387C72.7637 9.52019 74.7218 8.10084 76.9742 7.39946C82.0681 5.86994 87.1214 7.42735 89.5771 11.423" fill="#203642"/>
<path d="M120.999 27.8708C118.852 27.8708 116.763 27.8762 114.672 27.8708C113.588 27.8708 113.833 27.053 113.832 26.4421C113.819 21.4792 113.817 16.5161 113.824 11.5526V0.197266H120.998L120.999 27.8708Z" fill="#203642"/>
</svg>
