<svg xmlns="http://www.w3.org/2000/svg" width="156.863" height="78.943" viewBox="0 0 156.863 78.943">
  <g id="Layer_1" data-name="Layer 1" transform="translate(0.432 0.432)">
    <g id="Group_17690" data-name="Group 17690">
      <g id="Group_17685" data-name="Group 17685">
        <rect id="Rectangle_10890" data-name="Rectangle 10890" width="155.862" height="77.943" transform="translate(0.069 0.069)" fill="#fff" stroke="#cacaca" stroke-width="1"/>
      </g>
      <path id="Path_192603" data-name="Path 192603" d="M593.5.5l18.753,38.268L593.5,77.035h50.551V.5Z" transform="translate(-488.765 0.244)" fill="#ef4e37"/>
      <g id="Group_17686" data-name="Group 17686" transform="translate(129.507 28.913)">
        <path id="Path_192604" data-name="Path 192604" d="M879.551,178.374H876.32c.088-.508.4-.791,1.035-1.113l.6-.3c1.064-.546,1.631-1.162,1.631-2.168a1.753,1.753,0,0,0-.732-1.493,2.806,2.806,0,0,0-1.738-.537,2.693,2.693,0,0,0-1.474.42,2.5,2.5,0,0,0-.976,1.064l.937.937a1.7,1.7,0,0,1,1.581-1.094c.586,0,.947.3.947.723,0,.351-.176.644-.849.987l-.381.186a4.135,4.135,0,0,0-1.738,1.445,3.881,3.881,0,0,0-.5,2.06v.224h4.891Z" transform="translate(-860.738 -171.987)" fill="#fff"/>
        <path id="Path_192605" data-name="Path 192605" d="M856.758,234.5h-5.352l-2.675,4.634h5.351l2.677,4.635,2.675-4.635Z" transform="translate(-838.377 -225.23)" fill="#fff"/>
        <path id="Path_192606" data-name="Path 192606" d="M784.314,184.134a6.179,6.179,0,0,1,0-12.359l2.115-4.427a10.815,10.815,0,1,0,4.254,19.347l-2.342-4.057a6.152,6.152,0,0,1-4.026,1.5Z" transform="translate(-773.5 -167.14)" fill="#fff"/>
      </g>
      <g id="Group_17687" data-name="Group 17687" transform="translate(28.151 24.862)">
        <path id="Path_192607" data-name="Path 192607" d="M158.925,157.708a2.005,2.005,0,0,1-.815-.791,2.325,2.325,0,0,1-.29-1.174v-2.227a2.3,2.3,0,0,1,.29-1.17,2.01,2.01,0,0,1,.815-.786,2.517,2.517,0,0,1,1.207-.281,2.555,2.555,0,0,1,1.217.281,2.019,2.019,0,0,1,.815.786,2.316,2.316,0,0,1,.29,1.17v2.227a2.324,2.324,0,0,1-.29,1.174,2.014,2.014,0,0,1-.815.791,2.54,2.54,0,0,1-1.217.281A2.5,2.5,0,0,1,158.925,157.708Zm2.236-.889a1.406,1.406,0,0,0,.394-1.039v-2.274a1.431,1.431,0,0,0-.394-1.053,1.526,1.526,0,0,0-2.055,0,1.444,1.444,0,0,0-.388,1.053v2.274a1.416,1.416,0,0,0,.388,1.039,1.538,1.538,0,0,0,2.055,0Z" transform="translate(-157.82 -151.195)"/>
        <path id="Path_192608" data-name="Path 192608" d="M199.274,169.489,197.75,164.9l-.01-.037c0-.044.028-.066.084-.066h.786a.11.11,0,0,1,.113.074l1.029,3.388a.029.029,0,0,0,.027.019.028.028,0,0,0,.028-.019l1.02-3.388a.11.11,0,0,1,.113-.074l.786.01q.1,0,.074.1l-1.517,4.576a.11.11,0,0,1-.113.074h-.786a.11.11,0,0,1-.113-.074Z" transform="translate(-192.246 -162.854)"/>
        <path id="Path_192609" data-name="Path 192609" d="M235.563,166.984a.083.083,0,0,1-.094.094h-2.985a.033.033,0,0,0-.037.037,1.635,1.635,0,0,0,.056.487,1,1,0,0,0,.417.585,1.389,1.389,0,0,0,.791.211,1.2,1.2,0,0,0,1.067-.571c.032-.062.072-.072.121-.028l.534.355a.088.088,0,0,1,.028.121,1.816,1.816,0,0,1-.745.665,2.387,2.387,0,0,1-1.09.244,2.078,2.078,0,0,1-1.151-.3,1.818,1.818,0,0,1-.7-.852,3.547,3.547,0,0,1-.224-1.338,3.959,3.959,0,0,1,.1-1.039,1.787,1.787,0,0,1,.674-1.02,2.006,2.006,0,0,1,1.226-.374,1.915,1.915,0,0,1,1.413.472,2.275,2.275,0,0,1,.571,1.39,7.341,7.341,0,0,1,.028.862Zm-2.677-1.745a.992.992,0,0,0-.355.538,2.173,2.173,0,0,0-.084.524.033.033,0,0,0,.037.037h2.143a.033.033,0,0,0,.037-.037,2.722,2.722,0,0,0-.056-.458,1.059,1.059,0,0,0-.37-.585,1.074,1.074,0,0,0-.688-.22,1.051,1.051,0,0,0-.665.2Z" transform="translate(-221.403 -162.388)"/>
        <path id="Path_192610" data-name="Path 192610" d="M271.56,164.6a.087.087,0,0,1,.047.113l-.15.7c-.007.056-.044.074-.113.056a.972.972,0,0,0-.374-.066l-.131.01a1.05,1.05,0,0,0-.725.3,1.008,1.008,0,0,0-.285.745V169.2a.083.083,0,0,1-.094.094h-.712a.083.083,0,0,1-.094-.094V164.62a.083.083,0,0,1,.094-.094h.712a.083.083,0,0,1,.094.094v.5c0,.019,0,.03.014.033s.017,0,.023-.014a1.305,1.305,0,0,1,1.151-.655,1.212,1.212,0,0,1,.542.121Z" transform="translate(-253.639 -162.578)"/>
        <path id="Path_192611" data-name="Path 192611" d="M294.747,164.444a1.538,1.538,0,0,1,.655.562,1.5,1.5,0,0,1,.23.819v3.163a.083.083,0,0,1-.094.094h-.712a.083.083,0,0,1-.094-.094v-.337c0-.032-.015-.037-.047-.019a1.623,1.623,0,0,1-.595.388,2.142,2.142,0,0,1-.782.136,1.818,1.818,0,0,1-1.146-.351,1.258,1.258,0,0,1-.454-1.062,1.412,1.412,0,0,1,.511-1.146,2.2,2.2,0,0,1,1.427-.417H294.7a.033.033,0,0,0,.037-.037v-.253a.852.852,0,0,0-.238-.641,1.013,1.013,0,0,0-.725-.23,1.2,1.2,0,0,0-.641.154.637.637,0,0,0-.3.417c-.019.062-.056.091-.113.084l-.758-.1c-.062-.012-.091-.037-.084-.074a1.275,1.275,0,0,1,.589-.9,2.24,2.24,0,0,1,1.291-.351,2.32,2.32,0,0,1,1,.2Zm-.378,3.692a.789.789,0,0,0,.365-.665v-.552a.033.033,0,0,0-.037-.037h-.879a1.581,1.581,0,0,0-.879.215.677.677,0,0,0-.328.6.6.6,0,0,0,.248.524,1.094,1.094,0,0,0,.651.178,1.439,1.439,0,0,0,.862-.261Z" transform="translate(-273.284 -162.371)"/>
        <path id="Path_192612" data-name="Path 192612" d="M329.04,158.277v-6.364a.083.083,0,0,1,.094-.094h.712a.083.083,0,0,1,.094.094v6.364a.083.083,0,0,1-.094.094h-.712A.083.083,0,0,1,329.04,158.277Z" transform="translate(-305.476 -151.66)"/>
        <path id="Path_192613" data-name="Path 192613" d="M345.02,158.277v-6.364a.083.083,0,0,1,.094-.094h.712a.083.083,0,0,1,.094.094v6.364a.083.083,0,0,1-.094.094h-.712A.083.083,0,0,1,345.02,158.277Z" transform="translate(-319.257 -151.66)"/>
        <path id="Path_192614" data-name="Path 192614" d="M379.051,158.3l-1.31-2.8a.037.037,0,0,0-.037-.028h-1.347a.033.033,0,0,0-.037.037v2.761a.083.083,0,0,1-.094.094h-.711a.083.083,0,0,1-.094-.094v-6.364a.083.083,0,0,1,.094-.094h2.517a2.019,2.019,0,0,1,.987.234,1.642,1.642,0,0,1,.659.655,1.977,1.977,0,0,1,.234.973,1.8,1.8,0,0,1-.341,1.109,1.679,1.679,0,0,1-.95.612c-.025.012-.032.028-.019.047l1.357,2.808a.112.112,0,0,1,.01.047q0,.066-.074.066h-.739A.1.1,0,0,1,379.051,158.3Zm-2.733-5.671v2.1a.033.033,0,0,0,.037.037h1.563a1.084,1.084,0,0,0,.8-.295,1.048,1.048,0,0,0,.3-.782,1.031,1.031,0,0,0-1.1-1.1h-1.563a.033.033,0,0,0-.037.037Z" transform="translate(-345.473 -151.66)"/>
        <path id="Path_192615" data-name="Path 192615" d="M417.147,164.444a1.538,1.538,0,0,1,.655.562,1.5,1.5,0,0,1,.23.819v3.163a.083.083,0,0,1-.094.094h-.712a.083.083,0,0,1-.094-.094v-.337c0-.032-.015-.037-.047-.019a1.622,1.622,0,0,1-.595.388,2.142,2.142,0,0,1-.782.136,1.818,1.818,0,0,1-1.146-.351,1.258,1.258,0,0,1-.454-1.062,1.412,1.412,0,0,1,.511-1.146,2.2,2.2,0,0,1,1.427-.417H417.1a.033.033,0,0,0,.037-.037v-.253a.851.851,0,0,0-.238-.641,1.013,1.013,0,0,0-.725-.23,1.2,1.2,0,0,0-.641.154.637.637,0,0,0-.3.417c-.019.062-.056.091-.113.084l-.758-.1c-.062-.012-.091-.037-.084-.074a1.275,1.275,0,0,1,.589-.9,2.24,2.24,0,0,1,1.291-.351,2.32,2.32,0,0,1,1,.2Zm-.378,3.692a.789.789,0,0,0,.365-.665v-.552a.033.033,0,0,0-.037-.037h-.879a1.581,1.581,0,0,0-.879.215.677.677,0,0,0-.328.6.6.6,0,0,0,.248.524,1.094,1.094,0,0,0,.651.178,1.439,1.439,0,0,0,.862-.261Z" transform="translate(-378.838 -162.371)"/>
        <path id="Path_192616" data-name="Path 192616" d="M450.982,157.822h-1.01a.033.033,0,0,0-.037.037v2.48a.633.633,0,0,0,.729.739h.271a.083.083,0,0,1,.094.094v.581a.083.083,0,0,1-.094.094c-.2.012-.343.019-.431.019a1.84,1.84,0,0,1-1.072-.257,1.094,1.094,0,0,1-.361-.95v-2.8a.033.033,0,0,0-.037-.037h-.571a.083.083,0,0,1-.094-.094v-.552a.083.083,0,0,1,.094-.094h.571a.033.033,0,0,0,.037-.037v-1.1a.083.083,0,0,1,.094-.094h.674a.083.083,0,0,1,.094.094v1.1a.033.033,0,0,0,.037.037h1.01a.083.083,0,0,1,.094.094v.552a.083.083,0,0,1-.094.094Z" transform="translate(-408.383 -155.136)"/>
        <path id="Path_192617" data-name="Path 192617" d="M475.818,151.689a.636.636,0,1,1,.431.168A.582.582,0,0,1,475.818,151.689Zm-.037,5.578V152.7a.083.083,0,0,1,.094-.094h.712a.083.083,0,0,1,.094.094v4.566a.083.083,0,0,1-.094.094h-.712A.083.083,0,0,1,475.781,157.267Z" transform="translate(-431.909 -150.66)"/>
        <path id="Path_192618" data-name="Path 192618" d="M496.723,164.775a1.613,1.613,0,0,1,.449,1.2v3.088a.083.083,0,0,1-.094.094h-.712a.083.083,0,0,1-.094-.094v-2.911A1.068,1.068,0,0,0,496,165.4a1.041,1.041,0,0,0-1.442,0,1.033,1.033,0,0,0-.281.749v2.92a.083.083,0,0,1-.094.094h-.712a.083.083,0,0,1-.094-.094V164.49a.083.083,0,0,1,.094-.094h.712a.083.083,0,0,1,.094.094v.337a.029.029,0,0,0,.014.028c.01.007.016,0,.023-.01a1.419,1.419,0,0,1,1.189-.515,1.637,1.637,0,0,1,1.217.445Z" transform="translate(-447.199 -162.449)"/>
        <path id="Path_192619" data-name="Path 192619" d="M532.213,164.344h.711a.083.083,0,0,1,.094.094v4.426a1.9,1.9,0,0,1-.641,1.618,2.772,2.772,0,0,1-1.718.487c-.1,0-.256-.007-.468-.019a.094.094,0,0,1-.094-.1l.028-.645a.1.1,0,0,1,.028-.066.078.078,0,0,1,.074-.019c.087.005.215.01.384.01a1.8,1.8,0,0,0,1.15-.295,1.23,1.23,0,0,0,.355-1v-.168a.029.029,0,0,0-.014-.028c-.01-.006-.021,0-.033.01a1.431,1.431,0,0,1-1.151.458,1.98,1.98,0,0,1-1.1-.318,1.637,1.637,0,0,1-.678-.936,4.206,4.206,0,0,1-.121-1.142,3.961,3.961,0,0,1,.14-1.2,1.762,1.762,0,0,1,.632-.9,1.736,1.736,0,0,1,1.072-.341,1.574,1.574,0,0,1,1.207.468c.012.012.023.017.033.014s.014-.011.014-.023v-.29a.083.083,0,0,1,.094-.094Zm-.107,2.92c.01-.113.014-.3.014-.561s0-.447-.014-.557a2.089,2.089,0,0,0-.051-.314,1.039,1.039,0,0,0-1.647-.566,1.21,1.21,0,0,0-.374.566,2.708,2.708,0,0,0-.1.87,2.747,2.747,0,0,0,.094.879,1.049,1.049,0,0,0,.37.566,1.038,1.038,0,0,0,.669.22,1.015,1.015,0,0,0,.669-.22,1,1,0,0,0,.332-.566,3.094,3.094,0,0,0,.043-.318Z" transform="translate(-477.934 -162.397)"/>
      </g>
      <g id="Group_17689" data-name="Group 17689" transform="translate(12.072 40.116)">
        <path id="Path_192620" data-name="Path 192620" d="M100.863,257.191l-4.18,2.623,1.2-4.785L94.1,251.863l4.924-.333,1.839-4.58,1.839,4.58,4.924.333-3.787,3.165,1.2,4.785Z" transform="translate(-93.222 -245.747)" fill="#f04d35"/>
        <path id="Path_192621" data-name="Path 192621" d="M205.036,256.3l-4.225,2.652,1.218-4.837-3.829-3.2,4.976-.339,1.859-4.628,1.859,4.628,4.976.339-3.829,3.2,1.217,4.837Z" transform="translate(-182.995 -244.885)" fill="#f04d35"/>
        <path id="Path_192622" data-name="Path 192622" d="M313.58,257.08l-4.136,2.6,1.192-4.734-3.746-3.131,4.871-.33,1.819-4.531,1.819,4.531,4.87.33-3.746,3.131,1.192,4.734Z" transform="translate(-276.727 -245.747)" fill="#f04d35"/>
        <path id="Path_192623" data-name="Path 192623" d="M419.3,255.3l-4.224,2.652,1.217-4.837-3.829-3.2,4.976-.339,1.859-4.628,1.859,4.628,4.976.339-3.829,3.2,1.218,4.837Z" transform="translate(-367.768 -244.022)" fill="#f04d35"/>
        <g id="Group_17688" data-name="Group 17688">
          <path id="Path_192624" data-name="Path 192624" d="M100.083,254.774l-4.722-2.964-4.722,2.964L92,249.367l-4.279-3.575,5.563-.377,2.078-5.175,2.078,5.175,5.563.377-4.279,3.575,1.36,5.407Zm-10.607-8.412,3.295,2.754-1.047,4.165L95.361,251,99,253.281l-1.047-4.165,3.3-2.754-4.284-.29-1.6-3.986-1.6,3.986-4.284.29Z" transform="translate(-87.72 -239.961)" fill="#f04d35"/>
          <path id="Path_192625" data-name="Path 192625" d="M194.766,253.921l1.374-5.458-4.32-3.608,5.616-.381,2.1-5.223,2.1,5.223,5.616.381-4.32,3.608,1.373,5.458-4.767-2.993Zm4.767-3.805,3.681,2.311-1.061-4.215,3.336-2.787-4.337-.295-1.62-4.034-1.62,4.034-4.338.295,3.336,2.787-1.061,4.215,3.681-2.311Z" transform="translate(-177.493 -239.107)" fill="#f04d35"/>
          <path id="Path_192626" data-name="Path 192626" d="M312.747,254.645l-4.678-2.937-4.678,2.937,1.347-5.356-4.239-3.541,5.51-.373,2.057-5.125,2.059,5.125,5.51.373-4.239,3.541,1.347,5.356Zm-4.678-3.749,3.592,2.256-1.035-4.114,3.255-2.719-4.232-.286-1.581-3.936-1.58,3.936-4.232.286,3.255,2.719-1.035,4.114,3.592-2.256Z" transform="translate(-271.216 -239.969)" fill="#f04d35"/>
          <path id="Path_192627" data-name="Path 192627" d="M418.561,252.921l-4.767-2.993-4.767,2.993,1.373-5.458-4.32-3.608,5.616-.381,2.1-5.223,2.1,5.223,5.616.381-4.32,3.608Zm-10.724-8.5,3.336,2.787-1.061,4.215,3.681-2.311,3.681,2.311-1.061-4.215,3.336-2.787-4.337-.295-1.62-4.034-1.62,4.034Z" transform="translate(-362.266 -238.245)" fill="#f04d35"/>
          <path id="Path_192628" data-name="Path 192628" d="M522.988,253.161l-4.858-3.05-4.858,3.05,1.4-5.563-4.4-3.677,5.722-.388,2.137-5.323,2.137,5.323,5.722.388-4.4,3.677ZM518.13,249.3l3.772,2.368-1.087-4.32,3.419-2.856-4.444-.3-1.66-4.133-1.66,4.133-4.444.3,3.419,2.856-1.087,4.32Z" transform="translate(-452.117 -238.21)" fill="#f04d35"/>
        </g>
        <path id="Path_192629" data-name="Path 192629" d="M523.632,255.492V244.92l-1.9,4.729-5.082.344,3.91,3.267-1.243,4.941Z" transform="translate(-457.619 -243.997)" fill="#f04d35"/>
      </g>
    </g>
  </g>
</svg>
