<svg xmlns="http://www.w3.org/2000/svg" width="136" height="33" fill="none" xmlns:v="https://vecta.io/nano"><mask id="A" fill="#fff"><path d="M130.23 13.102l.009-2c-.011-.214.032-.428.127-.627s.24-.379.425-.528a1.88 1.88 0 0 1 .647-.334c.242-.072.5-.1.756-.082h.278c3.205-.061 3.497.176 3.497 2.831v17.221c0 1.808-.533 2.212-2.876 2.221-2.289.008-2.842-.424-2.866-2.237v-1.107c-.866.327-1.167.976-1.74 1.389-2.089 1.497-4.765 2.3-7.518 2.258s-5.39-.928-7.411-2.489c-1.463-1.147-2.628-2.531-3.426-4.067s-1.211-3.193-1.214-4.867a10.57 10.57 0 0 1 1.197-4.87c.793-1.538 1.954-2.925 3.412-4.075 1.166-.896 2.546-1.577 4.049-1.997a13.36 13.36 0 0 1 4.674-.441c1.578.129 3.105.536 4.481 1.192s2.571 1.548 3.505 2.617"/></mask><g fill="#00c389"><path d="M130.23 13.102l.009-2c-.011-.214.032-.428.127-.627s.24-.379.425-.528a1.88 1.88 0 0 1 .647-.334c.242-.072.5-.1.756-.082h.278c3.205-.061 3.497.176 3.497 2.831v17.221c0 1.808-.533 2.212-2.876 2.221-2.289.008-2.842-.424-2.866-2.237v-1.107c-.866.327-1.167.976-1.74 1.389-2.089 1.497-4.765 2.3-7.518 2.258s-5.39-.928-7.411-2.489c-1.463-1.147-2.628-2.531-3.426-4.067s-1.211-3.193-1.214-4.867a10.57 10.57 0 0 1 1.197-4.87c.793-1.538 1.954-2.925 3.412-4.075 1.166-.896 2.546-1.577 4.049-1.997a13.36 13.36 0 0 1 4.674-.441c1.578.129 3.105.536 4.481 1.192s2.571 1.548 3.505 2.617"/><path d="M130.239 11.102l4.975.502.039-.388-.021-.389-4.993.275zm1.955-1.571l-.348 4.988.173.012h.175v-5zm.278 0v5h.048l.047-.001-.095-4.999zm.621 22.273l.018 5h.002l-.02-5zm-2.866-2.237h-5v.033.033l5-.066zm0-1.107h5v-7.23l-6.765 2.551 1.765 4.678zm-1.74 1.389l2.912 4.064.01-.008-2.922-4.057zm-14.929-.231l-3.086 3.934.015.012.015.012 3.056-3.958zm-.031-17.88l-3.047-3.964-.025.019-.024.019 3.096 3.926zm21.703 1.363l-.017-1.194.001-.305-9.949-1.003c-.089.875-.035 2.161-.035 2.502h10zm.002-2.275c.036.648-.099 1.268-.354 1.803l-9.024-4.308a6.28 6.28 0 0 0-.607 3.056l9.985-.55zm-.354 1.803a3.48 3.48 0 0 1-.955 1.216l-6.265-7.795c-.725.583-1.362 1.344-1.804 2.271l9.024 4.308zm-.955 1.216c-.354.284-.722.461-1.063.562l-2.844-9.587c-.824.245-1.634.649-2.358 1.231l6.265 7.795zm-1.063.562c-.341.101-.683.136-1.014.112l.696-9.976c-.843-.059-1.701.031-2.526.276l2.844 9.587zm-.666.125h.278v-10h-.278v10zm.373-.001l1.231.011c.14.016-.658-.029-1.521-.727-1.005-.813-1.259-1.804-1.31-2.06-.022-.113-.016-.138-.009-.006l.011.613h10c0-.643-.007-1.605-.189-2.534-.205-1.045-.733-2.589-2.212-3.786-1.336-1.082-2.809-1.34-3.625-1.434-.852-.098-1.782-.09-2.567-.075l.191 9.998zm-1.598-2.169v.034.034.034.034.034.034.034.034.034.034.034.034.034.034.034.034.034.034.034.034.034.034.034.034.034.034.034.034.034.034.034.034.034.034.034.034.034.034.034.034.034.034.034.034.034.034.034.034.034.034.034.034.034.034.034.034.034.034.034.034.034.034.034.034.034.034.034.034.034.034.034.034.034.034.034.034.034.034.034.034.034.034.034.034.034.034.034.034.034.034.034.034.034.034.034.034.034.034.034.034.034.034.034.034.034.034.034.034.034.034.034.034.034.034.034.034.034.034.034.034.034.034.034.034.034.034.034.034.034.034.034.034.034.034.034.034.034.034.034.034.034.034.034.034.034.034.034.034.034.034.034.034.034.034.034.034.034.034.034.034.034.034.034.034.034.034.034.034.034.034.034.034.034.034.034.034.034.034.034.034.034.034.034.034.034.034.034.034.034.034.034.034.034.034.034.034.034.034.034.034.034.034.034.034.034.034.034.034.034.034.034.034.034.034.034.034.034.034.034.034.034.034.034.034.034.034.034.034.034.034.034.034.034.034.034.034.034.034.034.034.034.034.034.034.034.034.034.034.034.034.034.034.034.034.034.034.034.034.034.034.034.034.034.034.034.034.034.034.034.034.034.034.034.034.034.034.034.034.034.034.034.034.034.034.034.034.034.034.034.034.034.034.034.034.034.034.034.034.034.034.034.034.034.034.034.034.034.034.034.034.034.034.034.034.034.034.034.034.034.034.034.034.034.034.034.034.034.034.034.034.034.034.034.034.034.034.034.034.034.034.034.034.034.034.034V24v.034.034.034.034.034.034.034.034.034.034.034.034.034.034.034.034.034.034.034.034.034.034.034.034.034.034.034.034.034.034.034.034.034.034.034.034.034.034.034.034.034.034.034.034.034.034.034.034.034.034.034.034.034.034.034.034.034.034.034.034.034.034.034.034.034.034.034.034.034.034.034.034.034.034.034.034.034.034.034.034.034.034.034.034.034.034.034.034.034.034.034.034.034.034.034.034.034.034.034.034.034.034.034.034.034.034.034.034.034.034.034.034.034.034.034.034.034.034.034.034.034.034.034.034.034.034.034.034.034.034.034.034.034.034.034.034.034.034.034.034.034.034.034.034.034.034.034.034.034.034.034.034.034.034.034.034.034.034.034.034.034.034.034.034.034.034h10v-.034-.034-.034-.034-.034-.034-.034-.034-.034-.034-.034-.034-.034-.034-.034-.034-.034-.034-.034-.034-.034-.034-.034-.034-.034-.034-.034-.034-.034-.034-.034-.034-.034-.034-.034-.034-.034-.034-.034-.034-.034-.034-.034-.034-.034-.034-.034-.034-.034-.034-.034-.034-.034-.034-.034-.034-.034-.034-.034-.034-.034-.034-.034-.034-.034-.034-.034-.034-.034-.034-.034-.034-.034-.034-.034-.034-.034-.034-.034-.034-.034-.034-.034-.034-.034-.034-.034-.034-.034-.034-.034-.034-.034-.034-.034-.034-.034-.034-.034-.034-.034-.034-.034-.034-.034-.034-.034-.034-.034-.034-.034-.034-.034-.034-.034-.034-.034-.034-.034-.034-.034-.034-.034-.034-.034-.034-.034-.034-.034-.034-.034-.034-.034-.034-.034-.034-.034-.034-.034-.034-.034-.034-.034-.034-.034-.034-.034-.034-.034-.034-.034-.034-.034-.034-.034-.034-.034-.034-.034-.034-.034-.034-.034-.034-.034V24v-.034-.034-.034-.034-.034-.034-.034-.034-.034-.034-.034-.034-.034-.034-.034-.034-.034-.034-.034-.034-.034-.034-.034-.034-.034-.034-.034-.034-.034-.034-.034-.034-.034-.034-.034-.034-.034-.034-.034-.034-.034-.034-.034-.034-.034-.034-.034-.034-.034-.034-.034-.034-.034-.034-.034-.034-.034-.034-.034-.034-.034-.034-.034-.034-.034-.034-.034-.034-.034-.034-.034-.034-.034-.034-.034-.034-.034-.034-.034-.034-.034-.034-.034-.034-.034-.034-.034-.034-.034-.034-.034-.034-.034-.034-.034-.034-.034-.034-.034-.034-.034-.034-.034-.034-.034-.034-.034-.034-.034-.034-.034-.034-.034-.034-.034-.034-.034-.034-.034-.034-.034-.034-.034-.034-.034-.034-.034-.034-.034-.034-.034-.034-.034-.034-.034-.034-.034-.034-.034-.034-.034-.034-.034-.034-.034-.034-.034-.034-.034-.034-.034-.034-.034-.034-.034-.034-.034-.034-.034-.034-.034-.034-.034-.034-.034-.034-.034-.034-.034-.034-.034-.034-.034-.034-.034-.034-.034-.034-.034-.034-.034-.034-.034-.034-.034-.034-.034-.034-.034-.034-.034-.034-.034-.034-.034-.034-.034-.034-.034-.034-.034-.034-.034-.034-.034-.034-.034-.034-.034-.034-.034-.034-.034-.034-.034-.034-.034-.034-.034-.034-.034-.034-.034-.034-.034-.034-.034-.034-.034-.034-.034-.034-.034-.034-.034-.034-.034-.034-.034-.034-.034-.034-.034-.034-.034-.034-.034-.034-.034-.034-.034-.034-.034-.034-.034-.034-.034-.034-.034-.034-.034-.034-.034-.034-.034-.034-.034-.034-.034-.034-.034-.034-.034-.034-.034-.034-.034-.034-.034-.034-.034-.034-.034-.034-.034-.034-.034-.034-.034-.034-.034-.034-.034-.034-.034-.034-.034-.034-.034-.034-.034-.034-.034-.034-.034-.034-.034-.034-.034-.034-.034-.034-.034-.034-.034-.034-.034-.034-.034-.034-.034-.034-.034-.034-.034-.034-.034-.034-.034-.034-.034-.034-.034-.034-.034-.034-.034-.034-.034-.034-.034-.034-.034-.034-.034-.034h-10zm0 17.221c0 .28-.03.081.087-.313.155-.523.535-1.273 1.304-1.864.666-.513 1.252-.614 1.296-.622s-.09.018-.583.02l.04 10c.679-.003 1.489-.031 2.293-.174s1.962-.459 3.054-1.3c2.476-1.906 2.509-4.758 2.509-5.747h-10zm2.107-2.779c-.463.002-.573-.024-.503-.011.078.014.66.124 1.314.634.738.576 1.103 1.293 1.254 1.784.116.375.089.56.085.29l-9.999.132c.014 1.031.103 3.801 2.507 5.677 1.081.844 2.232 1.174 3.059 1.323.818.148 1.636.173 2.318.171l-.035-10zm2.151 2.763v-.022-.022-.022-.022-.022-.022-.022-.022-.022-.02-.02-.022-.02-.02-.02-.02-.02-.02-.021-.021-.021-.021-.021-.021-.021-.021-.021-.021-.022-.022-.022-.022-.022-.022-.02-.02-.02-.021-.021-.021-.021-.021-.021-.021-.021-.022-.022-.022-.022-.022-.02-.02l-10-.005v.02.02.022.022.022.022.022.022.021.021.021.021.021.021.021.02.02.02.02.022.022.022.022.022.021.021.021.021.021.021.021.021.021.021.02.021.02.02.02.02.02.02.022.022.022.022.022.022.022.022.022.022l10 .006zm-6.765-5.785c-1.361.514-2.24 1.295-2.749 1.803l-.275.284-.12.125c-.037.038.061-.068.246-.201l5.845 8.113a8.01 8.01 0 0 0 1.03-.892l.245-.254.097-.101c.021-.021-.06.063-.209.169-.162.116-.36.227-.581.31l-3.529-9.357zm-2.888 2.003c-1.154.827-2.764 1.35-4.527 1.323l-.155 9.999c3.743.058 7.484-1.027 10.507-3.193l-5.825-8.128zm-4.527 1.323c-1.764-.027-3.335-.599-4.434-1.447l-6.111 7.915c2.944 2.273 6.648 3.473 10.39 3.53l.155-9.999zm-4.404-1.424c-.942-.739-1.629-1.58-2.074-2.437l-8.875 4.609c1.151 2.216 2.796 4.143 4.778 5.697l6.171-7.869zm-2.074-2.437c-.442-.852-.65-1.724-.651-2.571l-10 .017c.004 2.501.623 4.942 1.776 7.163l8.875-4.609zm-.651-2.571c-.001-.848.203-1.719.642-2.571l-8.889-4.58c-1.147 2.225-1.757 4.668-1.753 7.169l10-.017zm.642-2.571c.442-.857 1.125-1.699 2.064-2.44l-6.193-7.852c-1.978 1.56-3.617 3.492-4.76 5.711l8.889 4.58zm2.015-2.402c.628-.483 1.422-.887 2.347-1.146l-2.692-9.631c-2.081.582-4.047 1.539-5.75 2.849l6.095 7.927zm2.347-1.146a8.36 8.36 0 0 1 2.919-.273l.818-9.966a18.36 18.36 0 0 0-6.429.609l2.692 9.631zm2.919-.273c.996.082 1.93.337 2.738.722l4.305-9.026a17.88 17.88 0 0 0-6.225-1.662l-.818 9.966zm2.738.722c.807.385 1.44.876 1.893 1.395l7.529-6.582c-1.416-1.619-3.172-2.911-5.117-3.839l-4.305 9.026z" mask="url(#A)"/><path d="M.596 15.831c.13-3.759 1.973-7.335 5.153-9.999 2.895-2.535 6.743-4.167 10.904-4.624 4.361-.597 8.836.038 12.716 1.803a7.04 7.04 0 0 1 .598.289c1.74.997 1.807 1.36.489 2.689-.264.267-.591.489-.845.761-.903.965-1.846.972-3.127.387-2.194-1.102-4.729-1.638-7.287-1.544s-5.026.817-7.094 2.077c-2.677 1.556-4.571 3.882-5.316 6.533s-.289 5.437 1.281 7.823c.92 1.384.858 1.7-.543 2.756-.342.257-.7.503-1.029.772-1.544 1.257-1.841 1.236-3.012-.233C1.293 22.51.278 19.174.596 15.831zm82.233-3.716c.933-.946 2.116-1.698 3.456-2.197a11.13 11.13 0 0 1 4.268-.679 9.07 9.07 0 0 1 1.096.099c2.474.388 2.891.881 2.557 2.993-.377 2.379-.377 2.379-3.105 1.836a7.75 7.75 0 0 0-3.111-.163 7.17 7.17 0 0 0-2.844 1.064c-.83.542-1.491 1.244-1.924 2.046a4.65 4.65 0 0 0-.562 2.558c.209 3.301.05 6.619.042 9.93 0 1.772-.583 2.197-2.923 2.192-2.256 0-2.82-.427-2.822-2.149v-17.9c0-1.723.479-2.188 2.285-2.222 2.943-.057 3.335.189 3.467 2.174a2.6 2.6 0 0 0 .12.417zm-25.202-3.06c2.669-.053 5.309.465 7.67 1.505 1.371.653 1.462 1.219.374 2.157-.256.221-.55.417-.778.656a2.37 2.37 0 0 1-.702.612 2.84 2.84 0 0 1-.932.337 3.06 3.06 0 0 1-1.015.009 2.89 2.89 0 0 1-.94-.32 9.48 9.48 0 0 0-4.735-.533c-1.607.227-3.092.857-4.259 1.806-2.919 2.009-3.429 4.596-2.668 7.499a6.76 6.76 0 0 0 .502 1.2c.181.294.236.63.156.954a1.43 1.43 0 0 1-.594.825l-1.598 1.279c-1.24.976-1.957.911-2.791-.371-1.145-1.668-1.781-3.546-1.852-5.468s.427-3.829 1.448-5.552 2.534-3.211 4.407-4.332 4.047-1.84 6.331-2.094l1.978-.165m14.602 11.577a9.8 9.8 0 0 1-.961 4.479c-.676 1.425-1.687 2.722-2.974 3.815s-2.823 1.96-4.518 2.549-3.514.889-5.351.882c-2.684.039-5.337-.478-7.724-1.503-1.27-.572-1.385-1.248-.387-2.099.525-.593 1.268-1.027 2.116-1.235a4.8 4.8 0 0 1 2.58.085 9.91 9.91 0 0 0 5.117.33c1.705-.341 3.238-1.121 4.382-2.229 1.154-1.064 1.914-2.384 2.189-3.8s.054-2.869-.638-4.183c-.241-.326-.317-.719-.211-1.092s.384-.696.774-.898a8.52 8.52 0 0 0 1.358-1.149c.813-.756 1.526-.753 2.205.085 1.465 1.74 2.184 3.839 2.042 5.962zm32.111.019v9.119c0 1.521-.538 1.971-2.396 2.02a13.97 13.97 0 0 1-1.522-.024c-1.526-.127-2.035-.545-2.04-1.849V11.336c0-1.343.602-1.776 2.203-1.812h.139c3.431-.041 3.613.107 3.613 2.933v8.196m-65.398 8.489c.053.564-.462.871-.877 1.223-2.899 2.455-2.876 2.44-5.788.057l-10.178-8.266c-1.552-1.265-1.526-1.669.048-2.869l1.58-1.292a1.42 1.42 0 0 1 .492-.32c.19-.075.398-.115.609-.116a1.69 1.69 0 0 1 .61.11 1.44 1.44 0 0 1 .497.316l4.587 3.836a88.44 88.44 0 0 0 7.425 6.02c.494.368 1.031.655.992 1.301"/><path d="M39.152 16.86c-.077 1.668-.436 3.318-1.067 4.901-.513 1.2-1.366 1.352-2.504.496-.034-.025-.062-.059-.098-.081-2.005-1.314-3.279-2.748-2.716-5.158.357-2.131-.277-4.295-1.774-6.048a1.34 1.34 0 0 1-.32-.507 1.18 1.18 0 0 1-.049-.572c.031-.191.109-.375.229-.54a1.54 1.54 0 0 1 .469-.418l1.788-1.452c1.061-.851 1.695-.8 2.59.196 2.261 2.69 3.468 5.898 3.451 9.183zM19.818 32.294c-3.789.02-7.512-.833-10.759-2.464-1.694-.9-1.598-1.157-.31-2.378 1.679-1.6 3.133-2 5.511-.767 2.378 1.089 5.159 1.398 7.796.867 1.049-.043 2.091.165 3.004.599s1.659 1.075 2.15 1.849c.305.784-.198 1.2-1.094 1.439-2.048.507-4.163.794-6.297.855zm85.297-29.121c-.055.81-.479 1.573-1.186 2.13s-1.642.869-2.615.87c-.974-.013-1.906-.331-2.612-.891s-1.135-1.32-1.202-2.13c.034-.836.452-1.629 1.166-2.215S100.338.015 101.34 0c1.002.011 1.959.349 2.665.943s1.105 1.394 1.11 2.23z"/></g><path d="M130.22 20.713c.12 1.073-.082 2.154-.587 3.146s-1.298 1.863-2.308 2.535-2.203 1.125-3.474 1.316-2.579.116-3.806-.219c-1.516-.483-2.833-1.32-3.792-2.412s-1.52-2.392-1.615-3.743c-.175-1.368.13-2.749.875-3.976s1.901-2.248 3.327-2.939c2.288-1.24 6.527-.748 8.902 1.037 1.917 1.448 2.48 2.623 2.478 5.254" fill="#fff"/></svg>