<svg width="40" height="32" viewBox="0 0 40 32" fill="none" xmlns="http://www.w3.org/2000/svg">
<g clip-path="url(#clip0_7832_46595)">
<path d="M19.5665 31.9998C21.1614 31.9998 23.3277 31.5958 25.0971 30.5004L38.4912 22.2032C38.9277 21.9935 39.2213 21.5196 39.2213 20.9835C39.2213 20.4475 38.8562 19.8959 38.3643 19.655C37.5867 19.22 36.3488 19.4297 35.1427 20.2144C34.7777 20.4785 34.2778 20.7116 33.9207 20.7815C27.4538 22.5373 26.1922 22.0867 26.1842 22.0789L26.089 22.312L25.7002 22.6849C26.1366 23.1122 28.5726 23.0423 34.1032 21.5351C34.5555 21.4496 35.1586 21.1777 35.6029 20.8514C36.6503 20.1678 37.5629 20.0979 37.9913 20.3465C38.2532 20.4708 38.4278 20.7893 38.4278 20.9913C38.4278 21.2321 38.3087 21.4341 38.1024 21.5351L24.6766 29.8478C22.0184 31.4948 18.6223 31.3472 17.9795 30.9976L17.8923 30.951H17.7494L16.6465 30.6558C15.5118 30.3528 14.512 30.0809 13.6233 29.809C10.7112 28.8612 8.59257 28.1697 4.61719 28.7213L4.72828 29.4904C8.52115 28.9622 10.4573 29.5914 13.3852 30.547C14.2898 30.8189 15.2976 31.0908 16.4402 31.4016L17.6939 31.7279C18.0827 31.8988 18.7572 32.0076 19.5745 32.0076L19.5665 31.9998Z" fill="#253E66"/>
<path d="M20.8495 26.0957C22.4444 26.0957 24.1583 25.7228 26.142 24.8216C26.9673 24.472 27.4037 23.866 27.2767 23.2367C27.1498 22.6307 26.761 22.2501 26.142 22.1258C24.9915 22.0325 24.071 22.0325 23.3331 22.0325H23.2299C20.3178 21.9471 19.2308 21.9082 15.6442 19.2591L12.1846 16.8041C10.9943 16.3147 9.6216 16.3147 8.33615 16.8041L0.21875 19.9505H2.28976H2.32943V19.663L2.43259 19.9272L8.62974 17.5188C9.70888 17.1148 10.8436 17.1071 11.8434 17.4955L15.176 19.8728C18.961 22.6696 20.2861 22.7084 23.2061 22.7939H23.3252C24.0631 22.7939 24.9597 22.7939 26.0389 22.8871C26.2928 22.9415 26.4436 23.0891 26.4991 23.3766C26.5467 23.6174 26.2769 23.9126 25.8246 24.0991C20.8653 26.352 17.8025 25.1401 13.6843 23.0425L13.3193 23.7339C15.9298 25.0702 18.223 26.0879 20.8574 26.0879L20.8495 26.0957Z" fill="#253E66"/>
<path d="M25.3398 19.329C30.7831 19.329 35.2108 14.9939 35.2108 9.66448C35.2108 4.33503 30.7831 0 25.3398 0C19.8964 0 15.4688 4.33503 15.4688 9.66448C15.4688 14.9939 19.8964 19.329 25.3398 19.329ZM25.3398 0.776888C30.3467 0.776888 34.4173 4.76232 34.4173 9.66448C34.4173 14.5666 30.3467 18.5521 25.3398 18.5521C20.3328 18.5521 16.2622 14.5666 16.2622 9.66448C16.2622 4.76232 20.3328 0.776888 25.3398 0.776888Z" fill="#253E66"/>
<path d="M25.4406 13.891C24.3853 13.891 23.322 13.4249 22.719 12.9355C22.5444 12.7956 22.5206 12.5392 22.6634 12.3683C22.8062 12.1974 23.0681 12.1741 23.2427 12.3139C23.7426 12.7102 24.6709 13.1141 25.5676 13.0831C26.9165 13.0209 27.2022 12.2751 27.2657 11.9566C27.3847 11.3506 27.2419 10.6203 25.3057 9.84344C24.2742 9.43169 23.0919 8.78688 23.076 7.51278C23.0602 6.61936 23.7743 5.57833 25.1232 5.41518C26.1072 5.29088 27.2657 5.64048 27.7735 6.02893C27.9481 6.16877 27.9798 6.41737 27.8449 6.59605C27.7021 6.76697 27.4482 6.79804 27.2657 6.66597C26.9879 6.44844 26.0675 6.12215 25.2264 6.21538C24.3536 6.32414 23.8854 6.96119 23.8933 7.49724C23.8933 7.94784 24.1076 8.48389 25.6152 9.09763C26.8213 9.58707 28.3924 10.4261 28.0671 12.1042C27.9084 12.9199 27.1784 13.8133 25.5993 13.8833C25.5438 13.8833 25.4882 13.8833 25.4406 13.8833V13.891Z" fill="#253E66"/>
<path d="M25.4204 15.7168C25.1903 15.7168 25.0078 15.5381 25.0078 15.3128V13.6037C25.0078 13.3784 25.1903 13.1997 25.4204 13.1997C25.6505 13.1997 25.833 13.3784 25.833 13.6037V15.3128C25.833 15.5381 25.6505 15.7168 25.4204 15.7168Z" fill="#253E66"/>
<path d="M25.4204 6.10656C25.1903 6.10656 25.0078 5.92787 25.0078 5.70258V4.00896C25.0078 3.78366 25.1903 3.60498 25.4204 3.60498C25.6505 3.60498 25.833 3.78366 25.833 4.00896V5.70258C25.833 5.92787 25.6505 6.10656 25.4204 6.10656Z" fill="#253E66"/>
</g>
<defs>
<clipPath id="clip0_7832_46595">
<rect width="39" height="32" fill="white" transform="translate(0.21875)"/>
</clipPath>
</defs>
</svg>
