<svg width="41" height="33" viewBox="0 0 41 33" fill="none" xmlns="http://www.w3.org/2000/svg">
<path d="M11.7161 23.5626H5.23164C4.1679 23.5613 3.14809 23.1382 2.39583 22.3861C1.64358 21.634 1.22028 20.6142 1.21875 19.5505C1.23757 18.4921 1.66639 17.4823 2.41491 16.7338C3.16344 15.9853 4.17323 15.5564 5.23164 15.5376H6.05496C5.88505 14.7066 5.88071 13.8502 6.04222 13.0175C6.20372 12.1848 6.52789 11.3921 6.99615 10.6848C7.46442 9.97758 8.06759 9.36963 8.77114 8.8958C9.47468 8.42197 10.2648 8.09156 11.0962 7.9235C11.5362 7.83405 11.9856 7.79948 12.4341 7.82058C12.8144 7.80368 13.1952 7.8383 13.5662 7.9235C14.268 5.76958 15.5925 3.87202 17.3724 2.47062C18.5199 1.53989 19.8422 0.848474 21.2613 0.437194C22.6804 0.0259134 24.1675 -0.0968998 25.6348 0.0760038C27.1022 0.248907 28.52 0.714024 29.8046 1.4439C31.0893 2.17377 32.2147 3.15361 33.1144 4.32557C34.6504 6.295 35.4833 8.72169 35.4806 11.2193V11.528C37.0626 11.8296 38.4603 12.7466 39.367 14.0776C40.2737 15.4086 40.6153 17.045 40.3168 18.6276C40.0315 20.0255 39.2708 21.2815 38.1642 22.1821C37.0576 23.0826 35.6732 23.5722 34.2464 23.5675H31.2627" stroke="#253E66"/>
<path d="M16.9569 26.2377C18.2979 27.4234 20.0049 28.1133 21.7932 28.1922C25.7945 28.4985 29.0985 24.8989 29.0985 20.8869C29.1274 19.9138 28.9616 18.9447 28.6108 18.0366C28.26 17.1285 27.7313 16.2997 27.0556 15.5988C26.38 14.8979 25.5712 14.339 24.6766 13.9551C23.782 13.5711 22.8197 13.3698 21.8462 13.363C20.8727 13.3561 19.9077 13.5439 19.0078 13.9152C18.1078 14.2865 17.2912 14.8339 16.6058 15.5252C15.9204 16.2165 15.38 17.0378 15.0164 17.9409C14.6529 18.844 14.4734 19.8106 14.4886 20.784C14.5041 21.8137 14.7314 22.8293 15.1563 23.7674C15.5812 24.7055 16.1947 25.5461 16.9586 26.2368L11.1953 32.0001" stroke="#253E66"/>
<path d="M21.7939 15.5376C20.4041 15.5434 19.0729 16.0981 18.0902 17.0809C17.1074 18.0636 16.5527 19.3948 16.5469 20.7847" stroke="#253E66"/>
</svg>
