<svg width="27" height="27" viewBox="0 0 27 27" fill="none" xmlns="http://www.w3.org/2000/svg">
<path d="M18.2414 10.5444V8.69698C18.2414 8.18674 17.8279 7.77327 17.3177 7.77327H17.1288C16.7382 7.77327 16.3963 7.52519 16.2602 7.15864C16.1987 6.99208 16.1306 6.82845 16.0567 6.66834C15.8931 6.31235 15.9588 5.89477 16.2356 5.61795L16.3693 5.48424C16.73 5.12355 16.73 4.53883 16.3693 4.17814L15.0632 2.87205C14.7025 2.51136 14.1178 2.51136 13.7571 2.87205L13.6234 3.00577C13.3466 3.28259 12.9284 3.34827 12.573 3.18464C12.4129 3.11075 12.2493 3.04271 12.0827 2.98113C11.7168 2.84507 11.4681 2.50315 11.4681 2.11256V1.92371C11.4681 1.41347 11.0546 1 10.5444 1H8.69698C8.18674 1 7.77327 1.41347 7.77327 1.92371V2.11256C7.77327 2.50315 7.52519 2.84507 7.15864 2.98113C6.99208 3.04271 6.82845 3.11075 6.66834 3.18464C6.31235 3.34827 5.89477 3.28259 5.61795 3.00577L5.48424 2.87205C5.12355 2.51136 4.53883 2.51136 4.17814 2.87205L2.87205 4.17814C2.51136 4.53883 2.51136 5.12355 2.87205 5.48424L3.00577 5.61795C3.28259 5.89477 3.34827 6.31294 3.18464 6.66834C3.11075 6.82845 3.04271 6.99208 2.98113 7.15864C2.84507 7.52461 2.50315 7.77327 2.11256 7.77327H1.92371C1.41347 7.77327 1 8.18674 1 8.69698V10.5444C1 11.0546 1.41347 11.4681 1.92371 11.4681H2.11256C2.50315 11.4681 2.84507 11.7162 2.98113 12.0827C3.04271 12.2493 3.11075 12.4129 3.18464 12.573C3.34827 12.929 3.28259 13.3466 3.00577 13.6234L2.87205 13.7571C2.51136 14.1178 2.51136 14.7026 2.87205 15.0632L4.17814 16.3693C4.53883 16.73 5.12355 16.73 5.48424 16.3693L5.61795 16.2356C5.89477 15.9588 6.31293 15.8931 6.66834 16.0567C6.82845 16.1306 6.99208 16.1987 7.15864 16.2602C7.5246 16.3963 7.77327 16.7382 7.77327 17.1288V17.3177C7.77327 17.8279 8.18674 18.2414 8.69698 18.2414H10.5444C11.0546 18.2414 11.4681 17.8279 11.4681 17.3177V17.1288C11.4681 16.7382 11.7162 16.3963 12.0827 16.2602C12.2493 16.1987 12.4129 16.1306 12.573 16.0567C12.929 15.8931 13.3466 15.9588 13.6234 16.2356L13.7571 16.3693C14.1178 16.73 14.7025 16.73 15.0632 16.3693L16.3693 15.0632C16.73 14.7026 16.73 14.1178 16.3693 13.7571L16.2356 13.6234C15.9588 13.3466 15.8931 12.9284 16.0567 12.573C16.1306 12.4129 16.1987 12.2493 16.2602 12.0827C16.3963 11.7168 16.7382 11.4681 17.1288 11.4681H17.3177C17.8279 11.4681 18.2414 11.0546 18.2414 10.5444Z" stroke="#D64794" stroke-width="0.8" stroke-linecap="round" stroke-linejoin="round"/>
<path d="M9.62015 13.0689C11.5246 13.0689 13.0684 11.5251 13.0684 9.62064C13.0684 7.71621 11.5246 6.17236 9.62015 6.17236C7.71572 6.17236 6.17188 7.71621 6.17188 9.62064C6.17188 11.5251 7.71572 13.0689 9.62015 13.0689Z" stroke="#D64794" stroke-width="0.8" stroke-linecap="round" stroke-linejoin="round"/>
<path d="M19.9837 11.3452C20.0258 11.4462 20.051 11.5555 20.051 11.6691V11.8332C20.051 12.1781 20.2698 12.4767 20.5895 12.5987C20.7367 12.6534 20.8797 12.7123 21.0185 12.7754C21.334 12.9184 21.7 12.8637 21.9439 12.6198L22.0617 12.502C22.3772 12.1865 22.8904 12.1865 23.2059 12.502L24.3542 13.6503C24.6697 13.9658 24.6697 14.479 24.3542 14.7945L24.2364 14.9123C23.9925 15.1562 23.9378 15.5222 24.0808 15.8377C24.1439 15.9765 24.2028 16.1195 24.2575 16.2667C24.3794 16.5864 24.6781 16.8052 25.023 16.8052H25.1871C25.6372 16.8052 25.9989 17.1711 25.9989 17.617V19.2407C25.9989 19.6865 25.6372 20.0525 25.1871 20.0525H25.023C24.6781 20.0525 24.3794 20.2712 24.2575 20.5909C24.2028 20.7382 24.1439 20.8812 24.0808 21.02C23.9378 21.3355 23.9925 21.7014 24.2364 21.9454L24.3542 22.0632C24.6697 22.3787 24.6697 22.8918 24.3542 23.2073L23.2059 24.3557C22.8904 24.6712 22.3772 24.6712 22.0617 24.3557L21.9439 24.2379C21.7 23.9939 21.334 23.9392 21.0185 24.0823C20.8797 24.1454 20.7367 24.2042 20.5895 24.2589C20.2698 24.3809 20.051 24.6796 20.051 25.0245V25.1885C20.051 25.6386 19.6851 26.0004 19.2392 26.0004H17.6155C17.1696 26.0004 16.8037 25.6386 16.8037 25.1885V25.0245C16.8037 24.6796 16.585 24.3809 16.2653 24.2589C16.118 24.2042 15.975 24.1454 15.8362 24.0823C15.5207 23.9392 15.1548 23.9939 14.9108 24.2379L14.793 24.3557C14.4775 24.6712 13.9644 24.6712 13.6489 24.3557L12.5005 23.2073C12.185 22.8918 12.185 22.3787 12.5005 22.0632L12.6183 21.9454C12.8623 21.7014 12.917 21.3355 12.7739 21.02C12.7108 20.8812 12.6519 20.7382 12.5973 20.5909C12.4753 20.2712 12.1766 20.0525 11.8317 20.0525H11.6676C11.5541 20.0525 11.4447 20.0273 11.3438 19.9852" stroke="#D64794" stroke-width="0.8" stroke-linecap="round" stroke-linejoin="round"/>
<path d="M18.2236 14.793H18.2452C20.1503 14.793 21.6934 16.3361 21.6934 18.2412C21.6934 20.1464 20.1503 21.6895 18.2452 21.6895C16.34 21.6895 14.7969 20.1464 14.7969 18.2412V18.2197" stroke="#D64794" stroke-width="0.8" stroke-linecap="round" stroke-linejoin="round"/>
</svg>
