<svg width="148" height="26" viewBox="0 0 148 26" fill="none" xmlns="http://www.w3.org/2000/svg">
<g clip-path="url(#clip0_7896_50744)">
<path d="M92.8308 14.1826C94.0852 15.3328 94.8394 16.8312 95.7495 18.2081C96.1348 18.7913 95.897 19.4636 95.3068 19.82C94.6181 20.2331 93.7244 20.0873 93.2735 19.4474C92.552 18.4106 91.7814 17.3982 91.1747 16.2966C90.4696 15.0169 89.5186 14.4418 88.0346 14.62C87.2312 14.7172 87.223 14.6362 87.223 15.4219C87.223 16.491 87.223 17.5602 87.223 18.6212C87.223 19.496 86.7065 20.0387 85.8784 20.0387C85.0094 20.0387 84.3125 19.4312 84.3125 18.6131C84.3125 14.9359 84.3125 11.2505 84.3125 7.57325C84.3125 6.90908 84.7962 6.3421 85.4767 6.334C87.6411 6.334 89.8137 6.16391 91.9699 6.4069C94.1344 6.64989 95.2986 7.79195 95.5281 9.80067C95.7413 11.615 95.028 13.324 92.9948 14.1097C92.9374 14.134 92.88 14.1583 92.8308 14.1826ZM89.2808 8.61001C88.6331 8.61001 88.092 8.62621 87.5591 8.61001C87.2804 8.60192 87.2066 8.68291 87.2066 8.9583C87.223 9.96266 87.2312 10.967 87.2066 11.9714C87.2066 12.3035 87.3214 12.3602 87.6247 12.3521C88.4528 12.3359 89.2726 12.3521 90.1007 12.3521C90.6172 12.3521 91.1337 12.3116 91.6256 12.1334C92.4373 11.8337 92.8062 11.1452 92.7078 10.1652C92.6258 9.33089 92.1667 8.8692 91.2895 8.71531C90.5844 8.59382 89.8711 8.64241 89.2808 8.62621V8.61001Z" fill="#EC4359"/>
<path d="M132.739 14.1906C133.904 15.1463 134.494 16.4909 135.347 17.6492C135.412 17.7382 135.47 17.8354 135.527 17.9326C136.011 18.6778 135.937 19.3663 135.322 19.7875C134.633 20.2573 133.674 20.1196 133.207 19.4473C132.494 18.4267 131.805 17.3819 131.116 16.3451C130.367 15.2111 129.302 14.6415 127.919 14.6361C127.405 14.6361 127.148 14.8818 127.148 15.3731C127.148 16.4747 127.148 17.5682 127.148 18.6697C127.148 19.4878 126.648 20.0224 125.869 20.0386C125.016 20.0629 124.344 19.4635 124.336 18.6535C124.336 14.9439 124.336 11.2342 124.336 7.52454C124.336 6.87656 124.779 6.34198 125.426 6.34198C127.607 6.34198 129.796 6.18809 131.969 6.42298C134.01 6.64167 135.199 7.83233 135.47 9.78435C135.74 11.7121 134.838 13.3077 133.059 14.0772C132.961 14.1177 132.862 14.1582 132.748 14.2068L132.739 14.1906ZM129.214 8.6099C128.566 8.6099 128.033 8.618 127.501 8.6099C127.238 8.6018 127.132 8.6585 127.14 8.94198C127.156 9.96255 127.156 10.975 127.14 11.9956C127.14 12.2548 127.197 12.352 127.484 12.352C128.484 12.3277 129.485 12.3439 130.485 12.3277C130.854 12.3277 131.223 12.2548 131.567 12.1171C132.362 11.8012 132.756 11.1046 132.649 10.1974C132.543 9.30647 132.116 8.86909 131.223 8.70709C130.518 8.5856 129.804 8.6342 129.214 8.618V8.6099Z" fill="#EC4359"/>
<path d="M46.3189 13.0406C46.3189 14.8711 46.3189 16.7016 46.3189 18.5402C46.3189 19.4636 45.7942 20.0144 44.9252 20.0225C44.0315 20.0225 43.4085 19.4231 43.4085 18.5159C43.4085 17.2281 43.4003 15.9321 43.4085 14.6443C43.4085 14.3446 43.3511 14.2312 43.0149 14.2393C41.1375 14.2555 39.26 14.2555 37.3825 14.2393C37.0628 14.2393 36.9808 14.3284 36.9808 14.6362C36.9972 15.9402 36.989 17.2524 36.9808 18.5564C36.9808 19.4717 36.4807 20.0063 35.628 20.0225C34.7344 20.0306 34.0703 19.415 34.0703 18.5483C34.0703 14.8873 34.0703 11.2181 34.0703 7.55706C34.0703 6.6742 34.7016 6.09912 35.6362 6.10722C36.4971 6.11532 36.9808 6.6175 36.9808 7.50847C36.9808 8.81252 36.989 10.1247 36.9808 11.4287C36.9808 11.7446 37.03 11.8661 37.3907 11.8661C39.2682 11.8499 41.1457 11.8499 43.0231 11.8661C43.3183 11.8661 43.4085 11.7932 43.4003 11.4935C43.3839 10.1571 43.3839 8.81251 43.4003 7.47607C43.4003 6.76329 43.9332 6.21251 44.6546 6.12342C45.4581 6.01812 46.0648 6.35021 46.2534 7.03058C46.3025 7.20878 46.3107 7.41127 46.3107 7.59756C46.3107 9.41189 46.3107 11.2343 46.3107 13.0487L46.3189 13.0406Z" fill="#EC4359"/>
<path d="M73.1371 13.0323C73.1371 11.2504 73.1371 9.46845 73.1371 7.67842C73.1371 6.77935 73.6208 6.30957 74.5555 6.30957C76.9166 6.30957 79.2778 6.30957 81.639 6.30957C82.4671 6.30957 82.9344 6.70646 82.9426 7.39493C82.9508 8.1401 82.4261 8.68278 81.6308 8.69088C79.9337 8.70708 78.2366 8.70708 76.5313 8.69088C76.1214 8.69088 76.0148 8.78808 76.0312 9.18496C76.064 9.91393 76.0722 10.651 76.0312 11.38C76.0066 11.8012 76.1624 11.866 76.5477 11.8579C78.0972 11.8336 79.655 11.8498 81.2045 11.8498C82.0817 11.8498 82.5326 12.2223 82.549 12.9432C82.5654 13.7046 82.0243 14.2311 81.1963 14.2392C79.6304 14.2473 78.0562 14.2554 76.4903 14.2392C76.1296 14.2392 76.023 14.3202 76.0312 14.6846C76.064 15.5108 76.064 16.3451 76.0312 17.1713C76.0148 17.5519 76.146 17.6086 76.4985 17.6086C78.1792 17.5924 79.8599 17.6005 81.5488 17.6086C82.4671 17.6086 82.9508 18.0055 82.9426 18.7669C82.9426 19.5202 82.4015 19.998 81.5324 19.998C79.2368 19.998 76.9412 19.998 74.6374 19.998C73.711 19.998 73.1371 19.4149 73.1289 18.4915C73.1289 16.6772 73.1289 14.8628 73.1289 13.0404L73.1371 13.0323Z" fill="#EC4359"/>
<path d="M116.146 6.09086C116.769 6.10706 117.318 6.35815 117.629 7.01423C119.368 10.6834 121.122 14.3525 122.86 18.0298C123.237 18.8236 122.983 19.5282 122.237 19.8684C121.475 20.2167 120.737 19.9332 120.351 19.1476C120.048 18.5158 119.745 17.884 119.466 17.236C119.359 16.993 119.228 16.912 118.958 16.912C117.08 16.9282 115.203 16.9282 113.325 16.912C113.03 16.912 112.891 17.0092 112.784 17.2603C112.505 17.9002 112.21 18.5401 111.899 19.1719C111.546 19.9008 110.751 20.1843 110.021 19.8603C109.267 19.5282 109.005 18.8155 109.382 18.0217C111.112 14.3606 112.842 10.6996 114.571 7.03853C114.867 6.40675 115.375 6.10706 116.137 6.08276L116.146 6.09086ZM118.244 14.5145C117.539 12.9594 116.859 11.4448 116.129 9.83292C115.399 11.4448 114.719 12.9594 114.014 14.5145H118.236H118.244Z" fill="#EC4359"/>
<path d="M137.535 13.0647C137.535 11.2828 137.535 9.50085 137.535 7.71082C137.535 6.77125 138.002 6.30957 138.97 6.30957C141.315 6.30957 143.659 6.30957 146.004 6.30957C146.84 6.30957 147.308 6.69836 147.332 7.37873C147.349 8.1401 146.8 8.69088 145.988 8.69898C144.258 8.70708 142.528 8.71518 140.798 8.69898C140.429 8.69898 140.339 8.79617 140.347 9.15256C140.372 9.89773 140.372 10.651 140.347 11.3962C140.331 11.7526 140.413 11.8822 140.815 11.8741C142.38 11.8498 143.955 11.866 145.521 11.866C146.472 11.866 146.947 12.2385 146.955 12.9756C146.955 13.7532 146.381 14.2473 145.471 14.2554C143.922 14.2554 142.364 14.2635 140.815 14.2554C140.47 14.2554 140.331 14.3121 140.347 14.6927C140.38 15.5351 140.372 16.3775 140.347 17.228C140.347 17.5438 140.437 17.6248 140.749 17.6248C142.512 17.6086 144.274 17.6248 146.037 17.6248C146.791 17.6248 147.267 18.0622 147.291 18.775C147.316 19.4797 146.849 20.0061 146.103 20.0061C143.692 20.0304 141.282 20.0223 138.872 20.0061C138.084 20.0061 137.543 19.3906 137.535 18.5887C137.535 16.7582 137.535 14.9276 137.535 13.0971V13.0647Z" fill="#EC4359"/>
<path d="M64.9058 6.30957C65.8158 6.36627 66.9308 6.24477 68.054 6.38247C70.5218 6.69026 71.6286 8.72328 71.5466 10.6591C71.44 13.251 69.7429 14.8061 67.0948 14.8223C66.029 14.8223 64.955 14.8304 63.8892 14.8223C63.5858 14.8223 63.5038 14.9033 63.512 15.1949C63.5284 16.3289 63.5202 17.4547 63.512 18.5887C63.512 19.4959 62.9627 20.0547 62.0937 20.0466C61.2083 20.0385 60.6016 19.4392 60.6016 18.5644C60.6016 14.9114 60.6016 11.2666 60.6016 7.61362C60.6016 6.78745 61.0853 6.32577 61.9379 6.31767C62.8644 6.31767 63.7826 6.31767 64.9058 6.31767V6.30957ZM63.512 10.5376C63.512 11.0965 63.512 11.6554 63.512 12.2061C63.512 12.36 63.4792 12.5301 63.7416 12.522C64.8894 12.4815 66.0372 12.6192 67.1768 12.441C68.2508 12.2709 68.7509 11.6311 68.7427 10.5376C68.7427 9.47655 68.2344 8.85287 67.1768 8.68278C66.0372 8.50459 64.8894 8.63418 63.7416 8.60178C63.4792 8.59368 63.512 8.75568 63.512 8.91767C63.512 9.46035 63.512 10.003 63.512 10.5376Z" fill="#EC4359"/>
<path d="M100.191 13.0566C100.175 13.6479 100.216 14.2392 100.355 14.8143C100.913 17.1389 102.593 17.8274 104.692 17.552C105.274 17.4791 105.807 17.228 106.307 16.9364C106.512 16.8149 106.717 16.6772 106.922 16.5557C107.644 16.1345 108.226 16.1993 108.603 16.7177C109.004 17.2766 108.898 18.1027 108.34 18.5725C107.299 19.4473 106.069 19.8928 104.717 20.0386C101.896 20.3302 99.1088 19.3339 97.8299 16.5071C97.2232 15.1545 97.051 13.7289 97.174 12.2629C97.2806 10.9102 97.6331 9.62238 98.4611 8.52082C100.019 6.4554 102.2 5.86412 104.684 6.08281C106.037 6.20431 107.258 6.67409 108.316 7.52456C108.75 7.87284 108.882 8.32643 108.816 8.84481C108.709 9.63048 108.045 10.0193 107.291 9.75197C106.963 9.63858 106.709 9.41988 106.422 9.23359C105.291 8.48842 104.044 8.35073 102.749 8.65041C101.618 8.9096 100.913 9.66287 100.527 10.7239C100.248 11.4853 100.175 12.271 100.183 13.0728L100.191 13.0566Z" fill="#EC4359"/>
<path d="M53.5433 11.1127C54.6911 9.70334 55.8061 8.33449 56.9211 6.97375C57.0195 6.85225 57.1261 6.72266 57.2327 6.60926C57.7574 6.01798 58.5034 5.93699 59.0855 6.40677C59.6922 6.90085 59.7824 7.64602 59.2659 8.2697C58.2247 9.53325 57.2245 10.8292 56.0931 12.0037C55.1502 12.9837 54.7157 14.0124 54.8551 15.365C54.9617 16.4342 54.8797 17.5276 54.8797 18.613C54.8797 19.4797 54.3632 20.0223 53.5351 20.0385C52.6251 20.0547 51.9692 19.4473 51.9692 18.5806C51.9692 17.0012 51.9692 15.4298 51.9692 13.8504C51.9692 13.5993 51.9036 13.4049 51.7396 13.2024C50.4197 11.6149 49.1079 10.0192 47.8043 8.41549C47.2632 7.75132 47.337 6.91705 47.9601 6.41487C48.5832 5.92079 49.3621 6.02608 49.9114 6.69836C50.9936 8.01051 52.0676 9.32266 53.1416 10.6348C53.2646 10.7806 53.3875 10.9264 53.5515 11.1208L53.5433 11.1127Z" fill="#EC4359"/>
<path d="M9.42647 16.1668C9.03294 15.7213 8.61481 15.3082 8.16389 14.9275C8.1147 14.8708 8.06551 14.806 8.01632 14.7493C7.22925 13.9475 7.18006 13.4696 7.79495 12.5543C8.72139 11.9792 9.16411 12.0359 10.0905 12.8378C10.894 13.6397 11.7057 14.4334 12.4927 15.2434C12.7141 15.4702 12.8207 15.373 12.9846 15.2029C13.7963 14.3767 14.6243 13.5587 15.4442 12.7406C15.8705 12.3599 16.305 11.9954 16.6412 11.5256C16.7314 11.4041 16.8707 11.3232 16.9937 11.2179C17.5758 10.6995 18.1497 10.173 18.6416 9.56552C18.9614 9.39543 19.1663 9.10384 19.4205 8.86085C20.3469 7.96988 21.3144 8.09138 21.9538 9.19293C22.1014 9.71941 21.9702 10.1892 21.6505 10.6266C20.7487 11.4608 19.8714 12.3194 19.027 13.2104C18.576 13.5992 18.1333 13.996 17.748 14.4496C17.1987 14.9275 16.6822 15.4378 16.1903 15.9805C15.5754 16.5232 14.9933 17.0982 14.4358 17.6976C14.2308 17.892 14.0177 18.0864 13.8209 18.2889C13.1404 18.9774 12.2796 18.9774 11.5909 18.2808C11.4269 18.1107 11.2465 17.9568 11.0744 17.7948C10.5579 17.2197 10.0004 16.6851 9.42647 16.1668Z" fill="white"/>
<path d="M27.9452 7.08713C27.8222 6.27716 27.6582 5.49149 27.2073 4.78681C26.8711 3.80675 26.2644 3.01298 25.5184 2.31641C24.387 1.10956 22.9768 0.429183 21.3535 0.105195C20.9682 0.0241982 20.5583 0.113295 20.1893 -0.072998H19.8942C19.7794 0.0970954 19.599 0.00799884 19.4515 0.0241982C17.5412 0.210491 15.9015 0.947562 14.5651 2.32451C14.3028 2.6809 14.0486 2.6404 13.8027 2.30021C13.7781 2.26781 13.7289 2.24351 13.6879 2.21921C11.0233 -0.639976 5.86646 -0.656176 3.07075 2.19491C2.27549 2.89959 1.6606 3.72576 1.23428 4.69772C0.832546 5.45099 0.561994 6.25286 0.47181 7.10333C0.291442 7.8647 0.299641 8.62607 0.373428 9.39554C0.373428 9.98682 0.463612 10.5619 0.64398 11.1208C0.684972 11.5906 0.832546 12.036 1.02931 12.4572C1.29167 13.3725 1.6606 14.2392 2.18531 15.041C2.42307 15.5675 2.72641 16.0454 3.07075 16.5071C3.3577 17.0173 3.71024 17.479 4.08737 17.9245C4.45631 18.4267 4.83344 18.9208 5.28436 19.3501C5.6369 19.8603 6.09602 20.2734 6.54694 20.6865C6.95686 21.1482 7.39139 21.5613 7.8833 21.942C8.25223 22.3226 8.66216 22.6709 9.10488 22.9706C10.3347 23.9993 11.6464 24.9064 13.0894 25.6273C13.8682 26.0161 14.5979 26.0323 15.344 25.603C16.6639 24.8497 17.9839 24.0965 19.1235 23.084C19.6482 22.8005 19.968 22.2821 20.4599 21.9663C20.9682 21.6018 21.3535 21.1158 21.8044 20.6946C22.2636 20.3868 22.5177 19.9008 22.9112 19.5363C23.3868 19.0747 23.8131 18.5725 24.182 18.0217C24.7067 17.4304 25.1658 16.7825 25.5512 16.094C25.8791 15.689 26.1087 15.2354 26.3218 14.7656C26.6334 14.3201 26.8383 13.8261 27.0187 13.3158C27.3713 12.522 27.6746 11.7201 27.7894 10.8535C27.9779 10.3189 28.0189 9.76002 28.0435 9.19305C28.0927 8.48837 28.1009 7.7837 27.9452 7.08713ZM21.6487 10.6267C21.7798 10.6672 21.911 10.6915 22.0504 10.7077C21.9192 10.6915 21.7798 10.6672 21.6487 10.6267C20.7468 11.461 19.8696 12.3195 19.0251 13.2105C18.5742 13.5993 18.1315 13.9962 17.7462 14.4497C17.1969 14.9276 16.6803 15.4379 16.1884 15.9806C15.5735 16.5233 14.9914 17.0983 14.4339 17.6977C14.229 17.8921 14.0158 18.0865 13.8191 18.289C13.1386 18.9775 12.2777 18.9775 11.589 18.2809C11.4251 18.1108 11.2447 17.9569 11.0725 17.7949C10.556 17.2198 9.99853 16.6853 9.42463 16.1669C9.0311 15.7214 8.61297 15.3083 8.16205 14.9276C8.11286 14.8709 8.06367 14.8061 8.01448 14.7494C7.22742 13.9476 7.17822 13.4697 7.79312 12.5544C8.71955 11.9793 9.16227 12.036 10.0887 12.8379C10.8922 13.6398 11.7038 14.4335 12.4909 15.2435C12.7122 15.4703 12.8188 15.3731 12.9828 15.203C13.7945 14.3768 14.6225 13.5588 15.4424 12.7407C15.8687 12.36 16.3032 11.9955 16.6394 11.5258C16.7295 11.4043 16.8689 11.3233 16.9919 11.218C17.574 10.6996 18.1479 10.1731 18.6398 9.56563C18.9595 9.39554 19.1645 9.10395 19.4187 8.86096C20.3451 7.96999 21.3125 8.09149 21.952 9.19305C22.0996 9.71953 21.9684 10.1893 21.6487 10.6267Z" fill="url(#paint0_linear_7896_50744)"/>
</g>
<defs>
<linearGradient id="paint0_linear_7896_50744" x1="14.2044" y1="25.9189" x2="14.2044" y2="-0.0810984" gradientUnits="userSpaceOnUse">
<stop stop-color="#EB3432"/>
<stop offset="1" stop-color="#EB3F88"/>
</linearGradient>
<clipPath id="clip0_7896_50744">
<rect width="147" height="26" fill="white" transform="translate(0.332031)"/>
</clipPath>
</defs>
</svg>
