<svg width="51" height="51" viewBox="0 0 51 51" fill="none" xmlns="http://www.w3.org/2000/svg">
<circle cx="25.0781" cy="25.8398" r="25" fill="#F1FAFE"/>
<path d="M26.2812 36.07C28.9438 35.5594 31.1557 33.7824 32.2674 31.3906" stroke="#1D3E69" stroke-width="0.5" stroke-linecap="round" stroke-linejoin="round"/>
<path d="M33.7202 24.0514V24.058C33.7075 24.0453 33.6883 24.0322 33.669 24.0261C33.4897 23.9364 33.2849 23.8852 33.067 23.8852C32.8172 23.8852 32.5801 23.9556 32.3754 24.0773H32.3688C32.343 19.8752 28.91 16.3587 24.7014 16.3587C20.4928 16.3587 17.0336 19.8559 17.0275 24.0768C16.8223 23.9552 16.5856 23.8848 16.3358 23.8848C16.1052 23.8848 15.8874 23.9425 15.6953 24.0449C15.6949 19.0807 19.7307 15.0195 24.7014 15.0195C29.6721 15.0195 33.7206 19.0868 33.7206 24.0514H33.7202Z" stroke="#1D3E69" stroke-width="0.5" stroke-linecap="round" stroke-linejoin="round"/>
<path d="M16.3324 31.6539C15.579 31.6539 14.9688 31.0431 14.9688 30.2902V25.2504C14.9688 24.497 15.5795 23.8867 16.3324 23.8867C17.0857 23.8867 17.696 24.4975 17.696 25.2504V30.2902C17.696 31.0436 17.0853 31.6539 16.3324 31.6539Z" stroke="#1D3E69" stroke-width="0.5" stroke-linecap="round" stroke-linejoin="round"/>
<path d="M14.9655 25.9922H14.9703V29.5481H14.9655C14.1049 29.5481 13.4062 28.8494 13.4062 27.9889V27.5514C13.4062 26.6909 14.1049 25.9922 14.9655 25.9922Z" stroke="#1D3E69" stroke-width="0.5" stroke-linecap="round" stroke-linejoin="round"/>
<path d="M33.0668 31.6539C33.8201 31.6539 34.4304 31.0431 34.4304 30.2902V25.2504C34.4304 24.497 33.8197 23.8867 33.0668 23.8867C32.3134 23.8867 31.7031 24.4975 31.7031 25.2504V30.2902C31.7031 31.0436 32.3139 31.6539 33.0668 31.6539Z" stroke="#1D3E69" stroke-width="0.5" stroke-linecap="round" stroke-linejoin="round"/>
<path d="M34.4408 29.5469H34.436V25.991H34.4408C35.3013 25.991 36 26.6896 36 27.5502V27.9877C36 28.8482 35.3013 29.5469 34.4408 29.5469Z" stroke="#1D3E69" stroke-width="0.5" stroke-linecap="round" stroke-linejoin="round"/>
<path d="M25.4994 35.418H23.9074C23.4666 35.418 23.1094 35.7752 23.1094 36.2159V36.2177C23.1094 36.6584 23.4666 37.0157 23.9074 37.0157H25.4994C25.9401 37.0157 26.2973 36.6584 26.2973 36.2177V36.2159C26.2973 35.7752 25.9401 35.418 25.4994 35.418Z" stroke="#1D3E69" stroke-width="0.5" stroke-linecap="round" stroke-linejoin="round"/>
<path d="M24.7031 24.2695V31.4098" stroke="#1D3E69" stroke-width="0.5" stroke-linecap="round" stroke-linejoin="round"/>
<path d="M23.4062 25.1289V30.5524" stroke="#1D3E69" stroke-width="0.5" stroke-linecap="round" stroke-linejoin="round"/>
<path d="M22.1094 25.9844V29.6916" stroke="#1D3E69" stroke-width="0.5" stroke-linecap="round" stroke-linejoin="round"/>
<path d="M20.8125 26.8438V28.8348" stroke="#1D3E69" stroke-width="0.5" stroke-linecap="round" stroke-linejoin="round"/>
<path d="M26.0078 25.1289V30.5524" stroke="#1D3E69" stroke-width="0.5" stroke-linecap="round" stroke-linejoin="round"/>
<path d="M27.3047 25.9844V29.6916" stroke="#1D3E69" stroke-width="0.5" stroke-linecap="round" stroke-linejoin="round"/>
<path d="M28.6016 26.8438V28.8348" stroke="#1D3E69" stroke-width="0.5" stroke-linecap="round" stroke-linejoin="round"/>
</svg>
