<svg xmlns="http://www.w3.org/2000/svg" xmlns:xlink="http://www.w3.org/1999/xlink" width="113.479" height="33.904" viewBox="0 0 113.479 33.904">
  <defs>
    <clipPath id="clip-path">
      <rect id="Rectangle_10007" data-name="Rectangle 10007" width="113.479" height="33.904" fill="none"/>
    </clipPath>
  </defs>
  <g id="Group_15354" data-name="Group 15354" transform="translate(-170 84)">
    <g id="Group_15353" data-name="Group 15353" transform="translate(170 -84)" clip-path="url(#clip-path)">
      <path id="Path_92865" data-name="Path 92865" d="M20.779,16.6c0-4.868-.041-9.738.053-14.6.012-.639.758-1.824,1.131-1.812,5.406.177,10.94-.124,16.178.959,7.915,1.637,12.122,8.588,11.582,17.426A15.3,15.3,0,0,1,36.388,32.72c-4.65.574-9.395.371-14.1.555-1.623.065-1.521-1-1.516-2.068q.011-7.3,0-14.6M30.508,29.29c.959,0,1.918.031,2.877,0,6.481-.247,10.932-4.524,11.688-11.889.484-4.72-1.71-10.836-8.4-12.611-2.79-.741-5.846-.458-8.775-.727-1.976-.182-2.679.586-2.647,2.57.09,5.822,0,11.647.036,17.469.034,6.164-.618,5.084,5.217,5.193" transform="translate(29.533 0.264)" fill="#2279bc"/>
      <path id="Path_92866" data-name="Path 92866" d="M62.19,24.3l2.868,2.56c-2.851,5.253-11.545,8.281-18.472,6.556A16.309,16.309,0,0,1,34.055,17.837C33.979,9.186,38.792,2.569,46.646.523c6.832-1.78,15.2,1.133,18.285,6.534l-2.911,2.5C54.043,3.327,46.954,3.005,42.107,8.491A12.971,12.971,0,0,0,42.357,25.9c4.282,4.352,12.555,5.747,19.833-1.6" transform="translate(48.421 0)" fill="#2279bc"/>
      <rect id="Rectangle_10006" data-name="Rectangle 10006" width="4.209" height="32.899" transform="translate(40.918 0.538)" fill="#2279bc"/>
      <path id="Path_92867" data-name="Path 92867" d="M21.061,9.822c-2.4,0-4.8.107-7.193-.024C9.68,9.567,5.5,9.221,1.318,8.833.85,8.79.438,8.16,0,7.8A5.835,5.835,0,0,1,1.279,6.38c.429-.24,1.09-.077,1.649-.077,5.437,0,10.877-.126,16.309.034,4.667.138,9.322.564,13.977.966.492.044.92.782,1.383,1.2-.513.438-1.017,1.24-1.543,1.255-4,.1-7.995.056-11.993.056Z" transform="translate(0 8.885)" fill="#2279bc"/>
      <path id="Path_92868" data-name="Path 92868" d="M32.762,6.832c-3.333.022-6.186.947-9.007-.63a5.93,5.93,0,0,0-2.742-.523C15.1,5.636,9.178,5.658,3.261,5.658H.8c.08-1.824.734-2.55,2.344-2.545,8.716.034,17.433.058,26.149-.012,2.359-.019,2.5,1.737,3.463,3.732" transform="translate(1.145 4.408)" fill="#2279bc"/>
      <path id="Path_92869" data-name="Path 92869" d="M.587,9.584c3.1.153,6.045-1.022,8.925.668a4.883,4.883,0,0,0,2.32.3c5.982.022,11.964.007,17.946.017.763,0,1.523.068,2.369.109-.228,2.03-1.3,2.451-2.972,2.439-8.215-.061-16.433-.111-24.648.024-2.371.041-3.587-.758-3.94-3.553" transform="translate(0.835 13.264)" fill="#2279bc"/>
      <path id="Path_92870" data-name="Path 92870" d="M2.794,12.387c3.185.339,6.188-.046,9.395,1.119,2.957,1.07,6.612.228,10.177.228-4.328,3.815-16.614,2.911-19.571-1.347" transform="translate(3.973 17.613)" fill="#2279bc"/>
      <path id="Path_92871" data-name="Path 92871" d="M3.539,2.269c4.481-3.4,15.2-2.746,19.906,1.492-3.325-.431-6.118.756-8.886-.94a7.438,7.438,0,0,0-3.463-.53c-2.444-.073-4.89-.022-7.556-.022" transform="translate(5.032 0.133)" fill="#2279bc"/>
    </g>
  </g>
</svg>
