<svg width="50" height="50" viewBox="0 0 50 50" fill="none" xmlns="http://www.w3.org/2000/svg">
<circle cx="25" cy="25" r="25" fill="#F1FAFE"/>
<g clip-path="url(#clip0_6937_57754)">
<path d="M25.5054 29.3171H25.483C22.8234 29.302 20.6644 27.1376 20.6719 24.4814C20.6794 21.8404 22.8459 19.6836 25.4979 19.6836C28.1799 19.6987 30.3389 21.8631 30.3314 24.5193C30.3314 25.8058 29.816 27.0166 28.9046 27.9247C27.9931 28.8252 26.7904 29.3171 25.5129 29.3171H25.5054ZM25.5129 20.4404C23.2567 20.4404 21.4264 22.2566 21.419 24.4814C21.4115 26.7214 23.2343 28.5528 25.483 28.5604H25.5054C26.5887 28.5604 27.6121 28.1441 28.3816 27.3798C29.1511 26.6155 29.5844 25.6014 29.5844 24.5193C29.5919 22.2793 27.769 20.4479 25.5203 20.4404H25.5129Z" fill="#253E66"/>
<path d="M24.5101 35C24.3159 35 24.1515 34.8411 24.1366 34.6443L24.0021 32.2303C23.143 32.0714 22.3212 31.7686 21.5592 31.3297L19.6841 32.9795C19.5347 33.1081 19.318 33.1005 19.1761 32.9643L17.3831 31.1632C17.2412 31.0195 17.2337 30.7924 17.3682 30.6411L18.937 28.893C18.444 28.1741 18.0854 27.387 17.8538 26.547L15.3511 26.3881C15.1569 26.373 15 26.2065 15 26.0022V23.467C15.0075 23.2627 15.1644 23.1038 15.3661 23.0886L17.7193 22.96C17.8762 22.1049 18.1825 21.2951 18.6158 20.5384L16.9648 18.6692C16.8303 18.5178 16.8378 18.2908 16.9797 18.147L18.7876 16.3611C18.9296 16.2249 19.1462 16.2173 19.2956 16.3459L21.0587 17.92C21.7834 17.4281 22.5752 17.0649 23.4194 16.8378L23.5763 14.3557C23.5912 14.1589 23.7556 14 23.9498 14L26.4973 14.0151C26.6916 14.0151 26.8559 14.1741 26.8709 14.3708L26.9979 16.7092C27.857 16.8681 28.6788 17.1708 29.4408 17.6097L31.3234 15.96C31.4728 15.8314 31.6894 15.8389 31.8314 15.9751L33.6243 17.7762C33.7663 17.92 33.7737 18.147 33.6393 18.2984L32.0704 20.0465C32.556 20.7578 32.9221 21.5524 33.1537 22.3924L35.6563 22.5514C35.8506 22.5665 36.0075 22.733 36.0075 22.9297V25.4649C36 25.6692 35.8431 25.8281 35.6414 25.8432L33.2882 25.9719C33.206 26.3957 33.0864 26.8195 32.937 27.2281C32.7876 27.6368 32.6009 28.0227 32.3917 28.4011L34.0427 30.2703C34.1772 30.4216 34.1697 30.6486 34.0277 30.7924L32.2198 32.5784C32.0779 32.7146 31.8613 32.7222 31.7118 32.5935L29.9488 31.0195C29.2241 31.5114 28.4322 31.8746 27.588 32.1016L27.4312 34.5838C27.4162 34.7805 27.2593 34.9319 27.0651 34.9395L24.5176 35H24.5101ZM21.5144 30.4822C21.5816 30.4822 21.6489 30.4973 21.7086 30.5351C22.5454 31.0497 23.4493 31.3827 24.413 31.5265C24.5923 31.5492 24.7193 31.7005 24.7343 31.8822L24.8613 34.2357L26.699 34.1903L26.8485 31.7762C26.8559 31.6097 26.9755 31.4659 27.1398 31.4281C28.0886 31.2087 28.9626 30.8076 29.7471 30.2249C29.889 30.1189 30.0832 30.1265 30.2102 30.2476L31.9285 31.7838L33.2284 30.4973L32.3319 29.4832L31.6297 28.6886C31.5176 28.56 31.5027 28.3784 31.5923 28.2346C31.8388 27.8335 32.0555 27.4022 32.2198 26.9557C32.3917 26.5016 32.5112 26.0324 32.5784 25.5481C32.6083 25.3741 32.7503 25.2378 32.9296 25.2303L35.2305 25.1092V23.2854L32.8175 23.1341C32.6531 23.1265 32.5187 23.0054 32.4739 22.8465C32.2497 21.9081 31.8463 21.0378 31.2785 20.2584C31.174 20.1146 31.174 19.9027 31.2935 19.7665L32.825 18.0638L31.5325 16.7622L29.7097 18.3589C29.5902 18.4649 29.4109 18.48 29.2689 18.3968C28.4322 17.8822 27.5283 17.5492 26.5646 17.4054C26.3853 17.3827 26.2583 17.2314 26.2433 17.0497L26.1163 14.7643H24.2711L24.1217 17.1632C24.1142 17.3297 23.9947 17.4735 23.8303 17.5114C22.8815 17.7308 22 18.1395 21.2231 18.7146C21.0811 18.8205 20.8869 18.813 20.7599 18.6919L19.0416 17.1557L17.7417 18.4422L19.3404 20.2508C19.4525 20.3795 19.4674 20.5611 19.3778 20.7049C18.8623 21.5373 18.5261 22.4378 18.3917 23.3914C18.3618 23.573 18.2199 23.7016 18.0406 23.7168L15.7396 23.8378V25.6616L18.1526 25.813C18.317 25.8205 18.4514 25.9416 18.4963 26.1005C18.7204 27.0465 19.1238 27.9168 19.699 28.6962C19.8036 28.84 19.7962 29.0443 19.6766 29.1805L18.1451 30.8832L19.4376 32.1849L21.2604 30.5881C21.3276 30.5276 21.4173 30.4973 21.5069 30.4973L21.5144 30.4822Z" fill="#253E66"/>
</g>
<defs>
<clipPath id="clip0_6937_57754">
<rect width="21" height="21" fill="white" transform="translate(15 14)"/>
</clipPath>
</defs>
</svg>
