<svg width="50" height="50" viewBox="0 0 50 50" fill="none" xmlns="http://www.w3.org/2000/svg">
<circle cx="25" cy="25" r="25" fill="#F1FAFE"/>
<g clip-path="url(#clip0_6937_57767)">
<path d="M20.4325 25.0811C20.4258 24.9864 20.4258 24.895 20.4258 24.7968C20.4359 22.1902 22.5601 20.0914 25.1725 20.1016C27.7816 20.1151 29.8923 22.2342 29.8822 24.8408C29.8721 27.4033 27.8186 29.4784 25.2634 29.536" stroke="#253E66" stroke-width="0.6" stroke-linecap="round" stroke-linejoin="round"/>
<path d="M14.4141 25.0819V23.9073C14.4174 23.826 14.4814 23.7583 14.5656 23.7515L17.1073 23.6128C17.1813 23.6094 17.2419 23.5552 17.252 23.4807C17.417 22.4753 17.7738 21.5343 18.2788 20.6914C18.3125 20.6338 18.3091 20.5594 18.262 20.5086L16.4845 18.4978C16.4306 18.4369 16.434 18.3421 16.4912 18.2845L18.2014 16.5954C18.2586 16.5378 18.3529 16.5344 18.4168 16.5886L20.3155 18.2845C20.3694 18.3319 20.4502 18.3353 20.5108 18.2947C21.3154 17.7226 22.2243 17.2995 23.2107 17.0524C23.278 17.0354 23.3252 16.9779 23.3285 16.9136L23.4968 14.2393C23.5036 14.1581 23.5709 14.0938 23.6517 14.0938L26.0587 14.1039C26.1429 14.1039 26.2102 14.1682 26.2136 14.2495L26.355 16.7883C26.3584 16.8594 26.4122 16.9203 26.4863 16.9339C27.4929 17.0998 28.4389 17.4586 29.2805 17.963C29.3377 17.9968 29.4118 17.9934 29.4656 17.946L31.4788 16.1756C31.5394 16.1214 31.6337 16.1248 31.6942 16.1824L33.391 17.8885C33.4482 17.946 33.4516 18.0408 33.3977 18.1018L31.6976 19.9974C31.6505 20.0516 31.6437 20.1328 31.6875 20.1904C32.2632 20.9927 32.6874 21.9033 32.9331 22.8849C32.9499 22.9493 33.0072 23 33.0745 23.0034L35.7542 23.1727C35.835 23.1795 35.9024 23.2472 35.899 23.3284L35.8889 25.7318C35.8889 25.8131 35.8249 25.8808 35.7408 25.8876L33.1991 26.0264C33.125 26.0297 33.0644 26.0839 33.0543 26.1584C32.9735 26.6594 32.8422 27.1468 32.6705 27.6106C32.4955 28.0777 32.28 28.5246 32.0275 28.9443C31.9939 29.0019 31.9972 29.0764 32.0444 29.1271L33.8219 31.1379C33.8757 31.1988 33.8724 31.2936 33.8151 31.3512L32.105 33.0404C32.0477 33.0979 31.9535 33.1013 31.8895 33.0471L29.9908 31.3512C29.9369 31.3038 29.8561 31.297 29.7955 31.341C28.991 31.9131 28.0786 32.3362 27.0956 32.5834C27.0283 32.6003 26.9812 32.6578 26.9778 32.7222L26.8095 35.3998C26.8061 35.481 26.7388 35.542 26.658 35.5454L25.2643 35.5792" stroke="#253E66" stroke-width="0.6" stroke-linecap="round" stroke-linejoin="round"/>
<path d="M14.1016 35.8993L25.1537 24.8672" stroke="#253E66" stroke-width="0.6" stroke-linecap="round" stroke-linejoin="round"/>
<path d="M22.5 24.8672H24.9979C25.0855 24.8672 25.1528 24.9383 25.1528 25.0229V27.4907" stroke="#253E66" stroke-width="0.6" stroke-linecap="round" stroke-linejoin="round"/>
<path d="M18.7439 25.957L14.1016 30.5913" stroke="#253E66" stroke-width="0.6" stroke-linecap="round" stroke-linejoin="round"/>
<path d="M16.0898 25.957H18.5878C18.6753 25.957 18.7426 26.0281 18.7426 26.1127V28.5805" stroke="#253E66" stroke-width="0.6" stroke-linecap="round" stroke-linejoin="round"/>
<path d="M23.8254 31.9648L20.1055 35.6783" stroke="#253E66" stroke-width="0.6" stroke-linecap="round" stroke-linejoin="round"/>
<path d="M21.1758 31.9648H23.6737C23.7612 31.9648 23.8286 32.0359 23.8286 32.1206V34.5883" stroke="#253E66" stroke-width="0.6" stroke-linecap="round" stroke-linejoin="round"/>
</g>
<defs>
<clipPath id="clip0_6937_57767">
<rect width="22" height="22" fill="white" transform="translate(14 14)"/>
</clipPath>
</defs>
</svg>
