<svg width="28" height="30" viewBox="0 0 28 30" fill="none" xmlns="http://www.w3.org/2000/svg">
<path d="M21 3.26196H7C4.2 3.26196 2 5.46196 2 8.26196V22.262C2 25.062 4.2 27.262 7 27.262H21C23.8 27.262 26 25.062 26 22.262V8.26196C26 5.46196 23.8 3.26196 21 3.26196ZM10 22.262H7V11.262H10V22.262ZM8.5 9.96196C7.5 9.96196 6.7 9.16196 6.7 8.16196C6.7 7.16196 7.5 6.36196 8.5 6.36196C9.5 6.36196 10.2 7.26196 10.2 8.26196C10.2 9.26196 9.5 9.96196 8.5 9.96196ZM22 22.262H19V16.662C19 13.262 15 13.562 15 16.662V22.262H12V11.262H15V13.062C16.4 10.462 22 10.262 22 15.562V22.262Z" fill="#0A66C2"/>
</svg>
