<svg id="Group_15368" data-name="Group 15368" xmlns="http://www.w3.org/2000/svg" xmlns:xlink="http://www.w3.org/1999/xlink" width="254.368" height="37" viewBox="0 0 254.368 37">
  <defs>
    <clipPath id="clip-path">
      <rect id="Rectangle_10014" data-name="Rectangle 10014" width="254.368" height="37" fill="none"/>
    </clipPath>
  </defs>
  <g id="Group_15367" data-name="Group 15367" transform="translate(0 0)" clip-path="url(#clip-path)">
    <path id="Path_92879" data-name="Path 92879" d="M26.356,8.407H24.522V5.98H33.3a5.928,5.928,0,0,1,6.241,6.239A6,6,0,0,1,33.3,18.544H29.179v7.369H26.356Zm6.494,7.708a3.561,3.561,0,0,0,3.785-3.9A3.488,3.488,0,0,0,32.88,8.407h-3.7v7.708Z" transform="translate(36.257 8.842)" fill="#737373"/>
    <path id="Path_92880" data-name="Path 92880" d="M32.859,11.324a.553.553,0,0,0-.622-.622H31.082V8.36h2.6c1.244,0,1.837.508,1.837,1.666v.9a8.235,8.235,0,0,1-.057.989h.057a4.91,4.91,0,0,1,4.518-3.728,5.476,5.476,0,0,1,.734.057v2.712a4.08,4.08,0,0,0-.82-.084,4.333,4.333,0,0,0-4.008,3.358,8.659,8.659,0,0,0-.34,2.57v5.844H32.859Z" transform="translate(45.957 12.108)" fill="#737373"/>
    <path id="Path_92881" data-name="Path 92881" d="M43.1,8.12a7.486,7.486,0,1,1,0,14.966,7.485,7.485,0,1,1,0-14.966m0,12.594a4.935,4.935,0,0,0,4.913-5.138,4.9,4.9,0,1,0-9.8,0A4.931,4.931,0,0,0,43.1,20.714" transform="translate(52.371 12.006)" fill="#737373"/>
    <path id="Path_92882" data-name="Path 92882" d="M43.228,11.165a.805.805,0,0,0-.875-.565h-.283V8.258h1.41c1.272,0,1.752.31,2.174,1.44l3.078,8.216a17.225,17.225,0,0,1,.508,1.864H49.3a17.221,17.221,0,0,1,.508-1.864L52.855,9.7a1.888,1.888,0,0,1,2.176-1.44h1.326V10.6h-.283a.853.853,0,0,0-.932.565L50.8,22.544H47.633Z" transform="translate(62.205 12.21)" fill="#737373"/>
    <path id="Path_92883" data-name="Path 92883" d="M50.069,14.592a.554.554,0,0,0-.622-.622H48.289V11.628h2.682c1.271,0,1.807.535,1.807,1.807v9.513a.553.553,0,0,0,.622.622h1.157v2.342H51.875c-1.271,0-1.807-.535-1.807-1.807Zm.057-8.613h2.456v2.85H50.126Z" transform="translate(71.398 8.84)" fill="#737373"/>
    <path id="Path_92884" data-name="Path 92884" d="M58,11.288a4.777,4.777,0,0,1,4.407,2.2h.055a8.372,8.372,0,0,1-.055-.959V8.943a.552.552,0,0,0-.622-.62H60.626V5.979h2.709c1.271,0,1.807.538,1.807,1.807V22.95a.554.554,0,0,0,.622.62h1.158v2.345H64.3c-1.242,0-1.75-.565-1.75-1.527,0-.421.027-.734.027-.734h-.057a5.052,5.052,0,0,1-4.687,2.6c-3.867,0-6.3-3.049-6.3-7.48,0-4.548,2.682-7.483,6.464-7.483m4.491,7.453c0-2.541-1.329-5.081-4.065-5.081-2.233,0-4.095,1.861-4.095,5.111,0,3.106,1.666,5.108,4.035,5.108,2.119,0,4.124-1.495,4.124-5.138" transform="translate(76.198 8.84)" fill="#737373"/>
    <path id="Path_92885" data-name="Path 92885" d="M65.583,8.12c4.01,0,6.157,2.994,6.157,6.692,0,.367-.084,1.13-.084,1.13H61.239a4.785,4.785,0,0,0,4.913,4.771,6.56,6.56,0,0,0,4.176-1.666L71.515,21a8.357,8.357,0,0,1-5.5,2.089,7.284,7.284,0,0,1-7.6-7.483c0-4.546,3.106-7.483,7.17-7.483m3.334,5.817c-.084-2.372-1.581-3.641-3.358-3.641a4.117,4.117,0,0,0-4.211,3.641Z" transform="translate(86.367 12.006)" fill="#737373"/>
    <path id="Path_92886" data-name="Path 92886" d="M66.317,11.324A.553.553,0,0,0,65.7,10.7H64.54V8.36h2.6c1.244,0,1.837.508,1.837,1.666v.9a8.231,8.231,0,0,1-.057.989h.057A4.91,4.91,0,0,1,73.49,8.189a5.476,5.476,0,0,1,.734.057v2.712a4.08,4.08,0,0,0-.82-.084A4.333,4.333,0,0,0,69.4,14.232a8.658,8.658,0,0,0-.34,2.57v5.844H66.317Z" transform="translate(95.427 12.108)" fill="#737373"/>
    <path id="Path_92887" data-name="Path 92887" d="M74.027,9.028a.551.551,0,0,0-.62-.62H72.193V5.979h2.85c1.271,0,1.807.535,1.807,1.807V22.863a.566.566,0,0,0,.622.62H82.98a.564.564,0,0,0,.62-.62V21.591h2.568V24.1c0,1.272-.535,1.807-1.807,1.807H75.834c-1.269,0-1.807-.535-1.807-1.807Z" transform="translate(106.742 8.84)" fill="#737373"/>
    <path id="Path_92888" data-name="Path 92888" d="M85.434,8.12c4.008,0,6.154,2.994,6.154,6.692,0,.367-.084,1.13-.084,1.13H81.086A4.784,4.784,0,0,0,86,20.714a6.56,6.56,0,0,0,4.176-1.666L91.362,21a8.357,8.357,0,0,1-5.5,2.089A7.281,7.281,0,0,1,78.263,15.6c0-4.546,3.1-7.483,7.171-7.483m3.331,5.817c-.084-2.372-1.581-3.641-3.358-3.641A4.115,4.115,0,0,0,81.2,13.937Z" transform="translate(115.717 12.006)" fill="#737373"/>
    <path id="Path_92889" data-name="Path 92889" d="M86.166,11.425a.553.553,0,0,0-.622-.622H84.389V8.461h2.625c1.214,0,1.807.535,1.807,1.581v.535a6.005,6.005,0,0,1-.057.82h.057a5.809,5.809,0,0,1,5.364-3.277c3.388,0,4.913,1.837,4.913,5.478v6.184a.552.552,0,0,0,.622.62h1.158v2.345H98.167c-1.272,0-1.807-.538-1.807-1.807V14.221c0-2.005-.4-3.586-2.684-3.586a4.632,4.632,0,0,0-4.518,3.5,5.89,5.89,0,0,0-.253,1.918v6.692H86.166Z" transform="translate(124.774 12.007)" fill="#737373"/>
    <path id="Path_92890" data-name="Path 92890" d="M92.985,18.737a6.06,6.06,0,0,0,4.32,2.117c1.326,0,2.486-.592,2.486-1.834,0-2.57-7.8-2.288-7.8-6.888,0-2.739,2.4-4.01,5.309-4.01,1.723,0,4.687.592,4.687,2.766v1.356H99.536v-.706c0-.848-1.271-1.214-2.146-1.214-1.609,0-2.655.565-2.655,1.7,0,2.712,7.793,2.117,7.793,6.888,0,2.543-2.258,4.179-5.25,4.179a7.346,7.346,0,0,1-5.7-2.511Z" transform="translate(135.399 12.007)" fill="#737373"/>
    <path id="Path_92891" data-name="Path 92891" d="M98.961,8.734H96.433V7.822h6.157v.912h-2.543V16.14H98.961Z" transform="translate(142.582 11.565)" fill="#737373"/>
    <path id="Path_92892" data-name="Path 92892" d="M106.433,12.486c-.062-1.16-.136-2.555-.124-3.591h-.037c-.283.974-.63,2.013-1.048,3.16l-1.47,4.035h-.813L101.6,12.126c-.394-1.172-.729-2.246-.962-3.232h-.025c-.025,1.036-.087,2.431-.161,3.678l-.223,3.567H99.2l.58-8.318h1.371l1.418,4.023c.347,1.024.63,1.938.84,2.8h.037c.211-.838.506-1.752.875-2.8L105.8,7.821h1.371l.518,8.318h-1.048Z" transform="translate(146.675 11.564)" fill="#737373"/>
    <path id="Path_92893" data-name="Path 92893" d="M10.11,15H1.48v5.027H4.043V31.85H1.48v5.027H12.626V31.85H10.11ZM1.351,10.217l2.935,2.06L6.462,9.362l2.171,2.915,2.937-2.06L9.441,7.178l3.48-1.1L11.892,2.64,8.308,3.708V0H4.61V3.708L1.029,2.64,0,6.077l3.48,1.1Z" transform="translate(0 0)" fill="#2a4a7b"/>
    <path id="Path_92894" data-name="Path 92894" d="M15.025,14.506c-2.035-.714-3.282-1.214-3.282-2.122,0-1.086.972-1.735,2.6-1.735a7.3,7.3,0,0,1,1.247.121l.349,2.36H20.28V6.865a16.493,16.493,0,0,0-5.924-.907c-5.039,0-8.293,2.674-8.293,6.814,0,4.37,3.651,5.589,6.315,6.481,2.018.694,3.254,1.143,3.254,2.161,0,.476,0,1.926-2.521,1.926a8.711,8.711,0,0,1-2.042-.221l-.307-2.36H6.321v6.248A17.774,17.774,0,0,0,13.095,28.2c4.942,0,8.266-2.942,8.266-7.317,0-4.142-3.661-5.431-6.33-6.37M34.953,11a9.894,9.894,0,0,1,1.928.206l.369,2.484H41.6V6.907a19.363,19.363,0,0,0-6.417-.925c-7.113,0-11.882,4.635-11.882,11.543,0,6.556,4.164,10.628,10.839,10.628a16.968,16.968,0,0,0,7.448-1.388V15.78H33.825v3.9l2.541.377v2.868a8.486,8.486,0,0,1-1.733.171c-3.584,0-5.554-2.1-5.554-5.9,0-3.876,2.2-6.189,5.9-6.189" transform="translate(8.965 8.797)" fill="#2a4a7b"/>
  </g>
</svg>
