<svg width="50" height="51" viewBox="0 0 50 51" fill="none" xmlns="http://www.w3.org/2000/svg">
<circle cx="25" cy="25.75" r="25" fill="#F1FAFE"/>
<path d="M35.7212 32.2719H33.3378V31.5773H35.7212C37.9144 31.5773 39.7641 30.0713 40.232 27.9073C40.6852 25.4728 39.0842 23.1114 36.6496 22.6508L36.3645 22.5996V22.0659C36.3645 20.1358 35.7212 18.2569 34.5514 16.7728C33.1477 14.9524 31.1299 13.7973 28.8782 13.5195C26.5899 13.2344 24.3162 13.8924 22.4666 15.3545C21.1433 16.3707 20.1052 17.8549 19.5422 19.551L19.4399 19.858L19.1255 19.7776C18.8404 19.7045 18.6284 19.7045 18.3067 19.7045C17.9192 19.7045 17.6122 19.7045 17.3197 19.7776C14.7025 20.3186 13.0137 22.8628 13.5473 25.4508L13.6351 25.8675H12.5531C11.0324 25.8675 9.69453 27.2054 9.69453 28.7261C9.69453 30.2467 10.9739 31.5846 12.5531 31.5846H17.7292V32.2792H12.5531C10.5938 32.2792 9 30.6854 9 28.7261C9 26.7668 10.6303 25.173 12.5531 25.173H12.8016C12.4434 22.3583 14.3296 19.6826 17.1735 19.0977C17.5318 19.01 17.89 19.01 18.314 19.01C18.548 19.01 18.7527 19.01 18.9866 19.0392C19.6154 17.3358 20.6901 15.8371 22.0426 14.8062C24.0238 13.2198 26.4876 12.5179 28.9586 12.8177C31.4004 13.1174 33.5791 14.3676 35.0924 16.3342C36.3499 17.928 37.0444 19.9458 37.0517 22.022C39.7056 22.6727 41.4163 25.3119 40.9119 28.0389C40.3782 30.5319 38.2434 32.2645 35.7212 32.2645V32.2719Z" fill="#1D3E69"/>
<path d="M17.5601 38.9102L17.0703 38.4204L21.4276 34.0631C20.2652 32.8568 19.5999 31.285 19.5999 29.7058C19.5999 26.2478 22.3707 23.4404 25.7848 23.4404C29.199 23.4404 31.9698 26.2917 31.9698 29.7862C31.9698 31.5555 31.2241 33.2662 29.9228 34.4652C28.7531 35.5472 27.269 36.0809 25.7629 35.9639C23.7817 35.8031 22.8605 35.189 21.9613 34.5164L17.5748 38.9029L17.5601 38.9102ZM22.1367 33.7926L22.2025 33.8438C23.1529 34.5602 23.906 35.1232 25.7995 35.2767C27.1154 35.379 28.4094 34.9112 29.433 33.9607C30.5954 32.8861 31.2607 31.3654 31.2607 29.7862C31.2607 26.6718 28.7969 24.135 25.7702 24.135C22.7435 24.135 20.2871 26.6353 20.2871 29.7058C20.2871 31.2046 20.9597 32.6887 22.1367 33.7926Z" fill="#1D3E69"/>
<path d="M21.9328 29.6982H21.2383C21.2383 27.1979 23.278 25.1582 25.7783 25.1582V25.8527C23.6582 25.8527 21.9328 27.5781 21.9328 29.6982Z" fill="#1D3E69"/>
</svg>
