<svg width="54" height="40" viewBox="0 0 54 40" fill="none" xmlns="http://www.w3.org/2000/svg">
<path d="M40.2267 9.58477C39.3751 9.58477 38.5395 9.69526 37.7333 9.90815C36.3487 5.28384 32.0742 1.90723 27.0338 1.90723C21.1257 1.90723 16.2728 6.54771 15.8898 12.3955C15.5175 12.3443 15.1426 12.32 14.7649 12.32C10.1049 12.32 6.3125 16.1359 6.3125 20.8249C6.3125 25.5139 10.1049 29.3297 14.7649 29.3297H40.2267C45.6367 29.3297 50.037 24.9021 50.037 19.4586C50.037 14.0151 45.6367 9.58747 40.2267 9.58747V9.58477Z" fill="white" stroke="url(#paint0_linear_25637_48350)" stroke-width="2.45" stroke-miterlimit="10"/>
<path d="M42.4893 39.0845C42.1974 39.0845 41.9055 39.0495 41.6162 38.9902L37.2748 38.9659L34.1199 38.9471H34.0288L32.2532 38.9363L31.2355 38.9282L27.0601 38.8986H26.5272L23.7311 38.8743L22.8741 38.8689L17.4507 38.815C17.357 38.815 17.2632 38.7935 17.1802 38.7584C17.0945 38.7908 17.0034 38.8096 16.907 38.8096L16.5053 38.8043L15.9696 38.7989L14.5261 38.78L11.1381 38.7423L7.2092 38.6857C6.92799 38.7423 6.64945 38.7719 6.37627 38.7719L5.46032 38.7611C4.37029 38.7504 3.37667 38.3246 2.59464 37.5323C1.97597 36.9071 1.51532 36.0771 1.22607 35.0611C0.987707 34.2446 0.867188 33.3122 0.867188 32.299V29.6203C0.867188 28.5747 0.99842 27.6477 1.25821 26.8716C1.64119 25.7236 2.28932 24.8936 3.19188 24.4031C3.70877 24.1175 4.27923 23.972 4.88719 23.972C5.41747 23.972 5.95847 24.0878 6.49412 24.3169C6.76194 24.4328 7.03244 24.546 7.30026 24.6537C7.44756 24.7157 7.5895 24.7831 7.73681 24.8612L7.86804 24.9313L7.94303 25.0607C9.36784 27.4806 11.9818 28.9843 14.7644 28.9843H16.6633C16.1196 28.3295 15.8036 27.4914 15.8036 26.6021V26.3623C15.8036 24.3142 17.4587 22.6461 19.4968 22.6461H36.849C38.8844 22.6461 40.5423 24.3115 40.5423 26.3623V26.6021C40.5423 27.4887 40.2262 28.3268 39.6825 28.9843H40.2235C43.7668 28.9843 47.053 26.9039 48.593 23.6809L48.6733 23.5111L48.842 23.4303C49.0483 23.3333 49.2572 23.2309 49.4634 23.1312L51.4131 22.1718C51.5765 22.091 51.7533 22.0479 51.938 22.0479C52.5862 22.0479 53.1191 22.5706 53.1245 23.2147V28.855L53.0281 28.9574C52.9933 29.014 52.9504 29.0652 52.8995 29.111V32.0052C52.9665 32.0618 53.0227 32.1292 53.0656 32.2127L53.1245 32.3286V37.0769C53.1245 38.1198 52.2809 38.9659 51.2471 38.9659H46.4986L46.4102 38.9552C46.0942 38.9228 45.7835 38.8016 45.4675 38.5887C45.1836 38.7423 44.8863 38.8635 44.581 38.9444C44.2275 39.0414 43.8552 39.0899 43.4776 39.0899L42.4866 39.0818L42.4893 39.0845Z" fill="url(#paint1_linear_25637_48350)"/>
<path d="M52.4842 28.7555C52.5378 28.7339 52.5779 28.6962 52.5967 28.645V23.2203C52.594 22.7406 52.0771 22.4388 51.6486 22.649L49.6988 23.6084C49.4899 23.7108 49.281 23.8132 49.0721 23.9129C47.4893 27.2275 44.1174 29.5181 40.226 29.5181H38.1236C39.2377 29.0249 40.0144 27.9066 40.0144 26.605V26.3652C40.0144 24.6081 38.5976 23.1826 36.8515 23.1826H19.4993C17.7531 23.1826 16.3363 24.6081 16.3363 26.3652V26.605C16.3363 27.9066 17.113 29.0276 18.2271 29.5181H14.7642C11.6709 29.5181 8.95785 27.8365 7.48483 25.333C7.35628 25.2657 7.22772 25.2037 7.09649 25.1498C6.82599 25.0393 6.55281 24.9261 6.28231 24.8076C5.81095 24.6054 5.34226 24.503 4.88161 24.503C4.36739 24.503 3.87996 24.627 3.43805 24.8695C2.65869 25.2926 2.09359 26.0229 1.75613 27.0389C1.51509 27.7611 1.3919 28.6288 1.39457 29.6178V32.2965C1.39457 33.2585 1.50706 34.1397 1.72935 34.9158C1.99449 35.8455 2.4123 36.5974 2.96401 37.1579C3.64695 37.8478 4.50934 38.2197 5.46278 38.2305L6.37337 38.2412C6.63316 38.2412 6.88759 38.2116 7.13666 38.1577C7.15006 38.1577 7.16345 38.1577 7.17684 38.155L11.6655 38.217L14.5285 38.252L15.9721 38.2709L16.9014 38.2817C16.9952 38.2817 17.0782 38.2224 17.1103 38.1334L17.1746 37.9421L17.2523 38.1469C17.2844 38.2305 17.3648 38.2844 17.4531 38.287L22.8765 38.3409C23.4122 38.3409 23.9478 38.3463 24.4835 38.3517L26.5296 38.3679C27.4215 38.3733 28.3133 38.3787 29.2078 38.3868L31.2379 38.4002C31.7521 38.4002 32.2663 38.4056 32.7832 38.4083L34.0286 38.4164H34.1223L37.2773 38.4353H37.9067L41.5919 38.4595V38.4407C41.8838 38.5107 42.1838 38.5511 42.4918 38.5538L43.4774 38.5619C43.8095 38.5619 44.1335 38.5188 44.4442 38.4326C44.7709 38.3436 45.0843 38.2089 45.3735 38.031C45.4485 37.9852 45.5449 37.9906 45.6172 38.0445C45.869 38.2385 46.1502 38.3948 46.4662 38.4272L46.5278 38.4326H51.2469C51.9941 38.4326 52.5967 37.8235 52.5967 37.0744V32.4555C52.5779 32.4177 52.5351 32.3908 52.4895 32.3962H52.4815C52.4199 32.3962 52.3717 32.3477 52.3717 32.2857V28.9306C52.3717 28.8552 52.4146 28.7797 52.4842 28.7528V28.7555Z" fill="url(#paint2_linear_25637_48350)"/>
<path d="M18.5977 25.249H20.8688V25.5778H18.9646V26.8497H20.6867V27.1785H18.9646V28.728H18.6003V25.2517L18.5977 25.249Z" fill="white"/>
<path d="M21.5391 25.249H21.9033V28.7253H21.5391V25.249Z" fill="white"/>
<path d="M23.6384 25.567H22.543V25.249H25.1007V25.567H24.0053V28.7253H23.641V25.567H23.6384Z" fill="white"/>
<path d="M25.6953 25.249H26.0408L27.9557 28.1433V25.249H28.3119V28.7253H27.9664L26.0515 25.85V28.7253H25.6953V25.249Z" fill="white"/>
<path d="M29.2315 28.6364C29.1752 28.5798 29.1484 28.499 29.1484 28.3966V25.249H31.4678V25.567H29.5127V26.7878H31.3178V27.1058H29.5127V28.4074H31.4678V28.7253H29.4698C29.3681 28.7253 29.2877 28.6957 29.2341 28.6391L29.2315 28.6364Z" fill="white"/>
<path d="M32.5185 28.6363C32.3658 28.5528 32.2506 28.4315 32.1649 28.2779C32.0792 28.1243 32.0391 27.9465 32.0391 27.7443H32.3953C32.3953 27.9491 32.4542 28.1162 32.5747 28.2429C32.6952 28.3695 32.8532 28.4342 33.0514 28.4342H33.6005C33.7933 28.4342 33.9513 28.3911 34.0692 28.3022C34.187 28.2132 34.2459 28.1001 34.2459 27.9572V27.6392C34.2459 27.5261 34.2031 27.4317 34.1147 27.3509C34.0263 27.2701 33.9085 27.2189 33.7558 27.1973L32.8666 27.0491C32.6176 27.006 32.422 26.917 32.2855 26.7796C32.1489 26.6422 32.0792 26.4724 32.0792 26.2676V25.9981C32.0792 25.7556 32.1676 25.5642 32.3471 25.4187C32.5265 25.2759 32.7649 25.2031 33.0595 25.2031H33.6165C33.8951 25.2031 34.1227 25.2894 34.2914 25.4591C34.4628 25.6289 34.5486 25.8526 34.5486 26.1328H34.1923C34.1923 25.9496 34.1388 25.8041 34.0343 25.6963C33.9299 25.5858 33.7879 25.5319 33.6139 25.5319H33.0568C32.8693 25.5319 32.7193 25.575 32.6068 25.6586C32.4944 25.7421 32.4381 25.8553 32.4381 25.9981V26.2676C32.4381 26.3835 32.481 26.4805 32.564 26.5613C32.647 26.6422 32.7649 26.6934 32.9122 26.7203L33.796 26.8739C34.0531 26.9197 34.2513 27.0087 34.3932 27.1407C34.5352 27.2727 34.6048 27.4371 34.6048 27.6392V27.9572C34.6048 28.1998 34.5137 28.3938 34.3289 28.542C34.1441 28.6902 33.9031 28.763 33.6031 28.763H33.0354C32.8372 28.763 32.6631 28.7199 32.5131 28.6363H32.5185Z" fill="white"/>
<path d="M35.663 28.6363C35.5103 28.5528 35.3952 28.4315 35.3095 28.2779C35.2238 28.1243 35.1836 27.9465 35.1836 27.7443H35.5398C35.5398 27.9491 35.5987 28.1162 35.7192 28.2429C35.8398 28.3695 35.9978 28.4342 36.196 28.4342H36.745C36.9378 28.4342 37.0958 28.3911 37.2137 28.3022C37.3315 28.2132 37.3904 28.1001 37.3904 27.9572V27.6392C37.3904 27.5261 37.3476 27.4317 37.2592 27.3509C37.1708 27.2701 37.053 27.2189 36.9003 27.1973L36.0112 27.0491C35.7621 27.006 35.5666 26.917 35.43 26.7796C35.2934 26.6422 35.2238 26.4724 35.2238 26.2676V25.9981C35.2238 25.7556 35.3121 25.5642 35.4916 25.4187C35.671 25.2759 35.9094 25.2031 36.204 25.2031H36.7611C37.0396 25.2031 37.2672 25.2894 37.436 25.4591C37.6074 25.6289 37.6931 25.8526 37.6931 26.1328H37.3369C37.3369 25.9496 37.2833 25.8041 37.1789 25.6963C37.0744 25.5858 36.9325 25.5319 36.7584 25.5319H36.2013C36.0138 25.5319 35.8639 25.575 35.7514 25.6586C35.6389 25.7421 35.5826 25.8553 35.5826 25.9981V26.2676C35.5826 26.3835 35.6255 26.4805 35.7085 26.5613C35.7915 26.6422 35.9094 26.6934 36.0567 26.7203L36.9405 26.8739C37.1976 26.9197 37.3958 27.0087 37.5377 27.1407C37.6797 27.2727 37.7493 27.4371 37.7493 27.6392V27.9572C37.7493 28.1998 37.6583 28.3938 37.4735 28.542C37.2887 28.6902 37.0476 28.763 36.7477 28.763H36.1799C35.9817 28.763 35.8076 28.7199 35.6576 28.6363H35.663Z" fill="white"/>
<path d="M15.3383 20.7109C15.0115 20.525 14.7598 20.2636 14.5803 19.9241C14.4009 19.5845 14.3125 19.1938 14.3125 18.7491V17.2023C14.3125 16.7603 14.4036 16.3669 14.583 16.0273C14.7651 15.6878 15.0195 15.4264 15.3516 15.2405C15.6837 15.0545 16.0667 14.9629 16.5006 14.9629H17.3871C17.8049 14.9629 18.1718 15.0518 18.4905 15.2324C18.8092 15.4129 19.0556 15.6635 19.2297 15.9842C19.4065 16.3076 19.4922 16.6822 19.4922 17.108H18.3539C18.3539 16.7711 18.2655 16.5016 18.0861 16.2968C17.9067 16.092 17.6737 15.9896 17.3844 15.9896H16.4979C16.1846 15.9896 15.9355 16.1055 15.7453 16.3399C15.5552 16.5717 15.4615 16.8762 15.4615 17.2535V18.7006C15.4615 19.0752 15.5525 19.3797 15.7373 19.6142C15.9221 19.8459 16.1631 19.9645 16.4658 19.9645H17.3683C17.6629 19.9645 17.904 19.8486 18.0915 19.6195C18.2789 19.3905 18.3727 19.086 18.3727 18.7114H19.5109C19.5109 19.1668 19.4225 19.5656 19.2431 19.9106C19.0637 20.2555 18.8146 20.5223 18.4905 20.7109C18.1665 20.8996 17.7942 20.9939 17.371 20.9939H16.4685C16.0399 20.9939 15.6623 20.9023 15.3356 20.7163L15.3383 20.7109Z" fill="#0D1B3F"/>
<path d="M20.4567 20.7056C20.3094 20.5627 20.2344 20.3741 20.2344 20.137V15.0303H21.3887V19.9106H24.565V20.9212H21.0459C20.7995 20.9212 20.604 20.8484 20.4567 20.7056Z" fill="#0D1B3F"/>
<path d="M25.8316 20.7056C25.4941 20.5169 25.2316 20.2528 25.0468 19.916C24.8594 19.5764 24.7656 19.183 24.7656 18.7329V17.2185C24.7656 16.7711 24.8594 16.375 25.0468 16.0354C25.2343 15.6959 25.4968 15.4318 25.8316 15.2458C26.169 15.0572 26.5573 14.9629 26.9993 14.9629H27.8857C28.325 14.9629 28.716 15.0572 29.0534 15.2458C29.3909 15.4345 29.6534 15.6986 29.8382 16.0354C30.0256 16.375 30.1194 16.7684 30.1194 17.2185V18.7329C30.1194 19.183 30.0256 19.5764 29.8382 19.916C29.6507 20.2555 29.3882 20.5196 29.0534 20.7056C28.716 20.8942 28.3276 20.9885 27.8857 20.9885H26.9993C26.56 20.9885 26.169 20.8942 25.8316 20.7056ZM27.8831 19.9618C28.2071 19.9618 28.4669 19.8432 28.6651 19.6088C28.8633 19.3743 28.9624 19.0644 28.9624 18.6844V17.2697C28.9624 16.887 28.8633 16.5798 28.6651 16.3453C28.4669 16.1109 28.2071 15.9923 27.8831 15.9923H26.9966C26.6725 15.9923 26.4127 16.1109 26.2145 16.3453C26.0164 16.5798 25.9173 16.8897 25.9173 17.2697V18.6844C25.9173 19.0671 26.0164 19.3743 26.2145 19.6088C26.4127 19.8432 26.6725 19.9618 26.9966 19.9618H27.8831Z" fill="#0D1B3F"/>
<path d="M31.9414 20.7217C31.628 20.5439 31.387 20.296 31.2129 19.978C31.0388 19.66 30.9531 19.2881 30.9531 18.8677V15.0303H32.1074V18.8327C32.1074 19.1695 32.1931 19.4417 32.3619 19.6492C32.5306 19.8567 32.7529 19.9591 33.0261 19.9591H33.9126C34.1911 19.9591 34.4161 19.8567 34.5901 19.6492C34.7642 19.4417 34.8499 19.1695 34.8499 18.8327V15.0303H36.0042V18.8677C36.0042 19.2881 35.9185 19.6573 35.7445 19.978C35.5704 20.2986 35.3266 20.5466 35.0079 20.7217C34.6892 20.8996 34.325 20.9858 33.9126 20.9858H33.0261C32.6136 20.9858 32.2521 20.8969 31.9387 20.7217H31.9414Z" fill="#0D1B3F"/>
<path d="M37.2328 20.7031C37.0828 20.5576 37.0078 20.3663 37.0078 20.1318V15.0332H39.8012C40.2458 15.0332 40.6395 15.1167 40.9769 15.2865C41.3144 15.4536 41.5768 15.6934 41.7616 16.0006C41.9491 16.3105 42.0429 16.6663 42.0429 17.0678V18.717C42.0429 19.4419 41.8554 19.989 41.4831 20.3609C41.1108 20.7328 40.5591 20.9214 39.836 20.9214H37.822C37.5836 20.9214 37.3881 20.8486 37.2355 20.7031H37.2328ZM39.8012 19.8947C40.1574 19.8947 40.4279 19.7923 40.6127 19.5848C40.7975 19.3773 40.8885 19.0727 40.8885 18.6685V17.1217C40.8885 16.801 40.7868 16.545 40.5805 16.351C40.3743 16.1569 40.1038 16.0599 39.769 16.0599H38.1648V19.8974H39.8039L39.8012 19.8947Z" fill="#0D1B3F"/>
<path d="M7.30015 33.0669C7.66171 33.1235 8.02595 33.1774 8.38751 33.2286C8.39286 33.8619 8.30984 34.4089 8.14111 34.8832C7.97238 35.3575 7.73402 35.7267 7.42603 35.9908C7.11803 36.2549 6.75915 36.3923 6.35206 36.3896C6.06282 36.3869 5.77357 36.3842 5.48432 36.3788C5.07188 36.3734 4.71032 36.2225 4.39697 35.9045C4.08362 35.5892 3.84258 35.1311 3.67117 34.5356C3.49977 33.94 3.41406 33.2474 3.41406 32.4794V29.8008C3.41406 29.0327 3.49977 28.3833 3.67117 27.8686C3.84258 27.3539 4.08629 27.0116 4.39965 26.8418C4.713 26.6694 5.07456 26.6855 5.48968 26.8607C5.77089 26.982 6.04943 27.0979 6.33064 27.2137C6.72701 27.3781 7.07786 27.653 7.38318 28.0249C7.68581 28.3995 7.92418 28.8387 8.09558 29.3453C8.26699 29.852 8.35269 30.3963 8.35805 30.9919C7.99649 30.9056 7.63493 30.814 7.27069 30.7224C7.27069 30.2319 7.17963 29.8115 7.00823 29.4558C6.83682 29.1001 6.61185 28.871 6.33599 28.7767C6.05478 28.6797 5.77357 28.5827 5.49236 28.483C5.19508 28.3779 4.95671 28.4749 4.77995 28.7929C4.60051 29.1109 4.51213 29.5852 4.51213 30.205C4.51213 31 4.51213 31.7949 4.51481 32.5926C4.51481 33.2124 4.60319 33.7298 4.78263 34.1286C4.95939 34.5275 5.1924 34.7323 5.48164 34.7565C5.77089 34.7808 6.05746 34.8024 6.34671 34.8266C6.6306 34.8482 6.86092 34.6919 7.03769 34.3712C7.21445 34.0478 7.30283 33.6166 7.30015 33.0696V33.0669ZM12.753 29.5016C12.7637 30.4475 12.7717 31.3934 12.7825 32.3393C11.9094 32.1938 11.0389 32.0348 10.1685 31.8623C10.1605 30.814 10.1498 29.763 10.1417 28.7121C9.77482 28.5908 9.40791 28.4668 9.03831 28.3375C9.05706 31 9.07581 33.6624 9.09723 36.3222C9.46683 36.3276 9.83642 36.333 10.2033 36.3384C10.1953 35.282 10.1846 34.2257 10.1766 33.1666C11.047 33.2906 11.9174 33.4064 12.7905 33.5142C12.8012 34.4682 12.8092 35.4195 12.82 36.3734C13.1895 36.3788 13.5591 36.3815 13.9261 36.3869C13.902 34.1879 13.8805 31.989 13.8564 29.79C13.4868 29.6957 13.1172 29.5987 12.7476 29.4989L12.753 29.5016ZM17.8095 31.132C18.4951 33.0049 19.1807 34.7673 19.861 36.4543C19.4753 36.4516 19.0897 36.4462 18.704 36.4435C18.5353 36.0015 18.3692 35.5542 18.2005 35.1015C17.4988 35.0691 16.7971 35.0314 16.0954 34.991C15.9347 35.4572 15.774 35.9288 15.6133 36.4112C15.2277 36.4058 14.842 36.4031 14.459 36.3977C15.1687 34.2499 15.8812 32.2692 16.5936 30.4125C16.7596 30.4448 16.9257 30.4772 17.0917 30.5095C17.4399 30.5742 17.6782 30.7844 17.8068 31.1347L17.8095 31.132ZM17.8952 34.1259C17.6381 33.4118 17.3836 32.6842 17.1265 31.9378C17.1265 31.9378 17.1212 31.9378 17.1185 31.9378C16.8748 32.6115 16.6284 33.2986 16.3847 34.0047C16.8882 34.0478 17.3917 34.0909 17.8952 34.1286V34.1259ZM21.4438 35.5515C21.4331 34.0774 21.4224 32.6061 21.4117 31.132C21.0394 31.0943 20.6698 31.0512 20.2975 31.0053C20.3109 32.5818 20.3243 34.1556 20.3377 35.7321C20.3377 35.9503 20.4127 36.1282 20.5546 36.2603C20.6966 36.3923 20.8867 36.4597 21.1224 36.4624C22.2499 36.4731 23.3748 36.4812 24.5023 36.492C24.5023 36.1983 24.5023 35.9045 24.4996 35.6108C23.4819 35.5973 22.4642 35.5758 21.4465 35.5515H21.4438ZM26.1682 35.6297C26.1682 34.2203 26.1682 32.8082 26.1655 31.3988C25.7932 31.3961 25.421 31.388 25.0487 31.3772C25.0514 32.8567 25.0567 34.3388 25.0594 35.8183C25.0594 36.0231 25.1317 36.1875 25.2736 36.3141C25.4156 36.4381 25.6031 36.5028 25.8388 36.5055C26.9663 36.5136 28.0911 36.5216 29.2187 36.5297C29.2187 36.2333 29.2187 35.9369 29.2213 35.6404C28.2036 35.6431 27.1859 35.6404 26.1682 35.6324V35.6297ZM29.7838 35.8291C29.7838 36.0366 29.8534 36.2064 29.998 36.3384C30.1426 36.4677 30.3301 36.5351 30.5578 36.5378C31.7281 36.5459 32.8958 36.554 34.0662 36.5594C34.0689 36.2333 34.0716 35.9072 34.0743 35.5785C33.0137 35.6 31.9531 35.6162 30.8925 35.6243C30.8952 35.1742 30.8979 34.7215 30.9006 34.2715C31.8835 34.2391 32.8637 34.196 33.8466 34.1394C33.8493 33.816 33.852 33.49 33.8546 33.1666C32.8717 33.2474 31.8888 33.3121 30.9059 33.3606C30.9059 32.951 30.9113 32.5387 30.914 32.1291C31.9799 32.0563 33.0458 31.9539 34.1091 31.8246C34.1118 31.4985 34.1144 31.1724 34.1171 30.8437C32.6816 31.0565 31.2407 31.2075 29.8025 31.2991C29.7945 32.8082 29.7891 34.3173 29.7811 35.8264L29.7838 35.8291ZM38.5281 34.4736C37.6443 33.0426 36.7578 31.7518 35.8687 30.5553C35.5392 30.6146 35.2071 30.6739 34.8777 30.7278C34.859 32.6734 34.8402 34.6191 34.8215 36.5648C35.183 36.5648 35.5446 36.5702 35.9062 36.5702C35.9196 35.2012 35.9329 33.8349 35.949 32.4659C36.8355 33.7217 37.722 35.0772 38.6031 36.5863C38.9325 36.5863 39.262 36.589 39.5914 36.5917C39.6155 34.2984 39.6396 32.0051 39.6637 29.7118C39.3021 29.8062 38.9406 29.8951 38.579 29.9813C38.563 31.4769 38.5469 32.9753 38.5308 34.4709L38.5281 34.4736ZM42.8749 33.6382C43.3945 33.5762 43.9113 33.5115 44.4309 33.4415C44.4309 33.5304 44.4309 33.6166 44.4309 33.7056C44.4282 34.1448 44.3345 34.5248 44.1551 34.8293C43.9729 35.1338 43.748 35.2901 43.4748 35.3036C43.1588 35.3198 42.8427 35.3359 42.5294 35.3494C42.2348 35.3629 41.9991 35.2227 41.8223 34.9371C41.6456 34.6514 41.5599 34.2769 41.5652 33.8026C41.5706 33.1935 41.5759 32.5845 41.584 31.9755C41.5893 31.5012 41.6831 31.0997 41.8679 30.7601C42.0527 30.4206 42.2937 30.205 42.5937 30.1268C42.8936 30.046 43.1909 29.9651 43.4909 29.8789C43.7694 29.8008 43.9917 29.8627 44.1604 30.0756C44.3291 30.2885 44.4122 30.6146 44.4095 31.0458C44.7711 30.9595 45.1353 30.8706 45.4968 30.779C45.4995 30.1753 45.4192 29.666 45.2558 29.2645C45.0924 28.863 44.8594 28.5962 44.5568 28.4614C44.2542 28.3267 43.906 28.3375 43.5043 28.4749C43.207 28.5773 42.907 28.677 42.6071 28.774C42.1919 28.9088 41.8223 29.1432 41.501 29.4693C41.1796 29.7927 40.9305 30.1807 40.7537 30.6362C40.5743 31.0916 40.4832 31.5793 40.4779 32.1129C40.4725 32.7354 40.4645 33.3579 40.4591 33.9831C40.4538 34.5194 40.5368 34.9829 40.7055 35.3898C40.8743 35.7967 41.118 36.1147 41.4313 36.3465C41.7447 36.5782 42.1089 36.7022 42.5187 36.7049C42.8347 36.7076 43.1507 36.7103 43.4668 36.713C43.8631 36.7157 44.2167 36.5971 44.53 36.3384C44.8407 36.0797 45.0844 35.7078 45.2585 35.2254C45.4326 34.7431 45.521 34.1879 45.5263 33.5762C45.529 32.9807 45.5343 32.3851 45.537 31.7895C44.6586 31.9728 43.7774 32.1399 42.8963 32.2989C42.8936 32.7489 42.8883 33.1962 42.8856 33.6463L42.8749 33.6382ZM50.5855 27.5129V25.6211C49.1794 26.3137 47.768 26.9416 46.3512 27.5102C46.3378 30.143 46.3217 32.7785 46.3083 35.4114C46.3083 35.7752 46.378 36.0689 46.5199 36.2953C46.6619 36.5216 46.8493 36.6402 47.0797 36.6402C48.2501 36.6483 49.4178 36.6564 50.5881 36.6618V34.77C49.5329 34.8509 48.475 34.929 47.4171 34.9991C47.4198 34.1852 47.4252 33.3741 47.4278 32.563C48.4027 32.3905 49.3776 32.2072 50.3498 32.0132C50.3498 31.388 50.3498 30.7655 50.3498 30.1403C49.3803 30.4179 48.4081 30.6793 47.4332 30.9218C47.4359 30.1834 47.4386 29.4423 47.4439 28.704C48.4938 28.3375 49.5436 27.9413 50.5881 27.5182L50.5855 27.5129Z" fill="white"/>
<path d="M24.8126 7.55982C24.8126 7.66492 24.8233 7.74846 24.8447 7.81044C24.8661 7.87242 24.8956 7.93979 24.9358 8.01255C24.9492 8.03411 24.9545 8.05836 24.9545 8.07723C24.9545 8.10417 24.9384 8.13382 24.9009 8.16077L24.7242 8.27934C24.7001 8.29551 24.6733 8.30359 24.6519 8.30359C24.6251 8.30359 24.5956 8.29012 24.5688 8.26317C24.5287 8.22005 24.4965 8.17693 24.4671 8.13112C24.4403 8.08262 24.4108 8.02872 24.3814 7.96404C24.1618 8.22275 23.8859 8.35479 23.5565 8.35479C23.3208 8.35479 23.1333 8.28742 22.9941 8.15268C22.8575 8.01794 22.7852 7.83739 22.7852 7.61102C22.7852 7.37118 22.8682 7.17716 23.0396 7.02894C23.211 6.88073 23.4386 6.80797 23.7279 6.80797C23.8243 6.80797 23.9207 6.81605 24.0252 6.82952C24.1296 6.843 24.2367 6.86725 24.3492 6.8915V6.684C24.3492 6.46842 24.3037 6.3202 24.218 6.23127C24.1269 6.14504 23.977 6.10192 23.76 6.10192C23.6609 6.10192 23.5618 6.1127 23.4574 6.13965C23.3529 6.1666 23.2512 6.19624 23.1548 6.23666C23.1092 6.25553 23.0771 6.269 23.0557 6.27439C23.0369 6.27978 23.0208 6.28247 23.0101 6.28247C22.97 6.28247 22.9512 6.25553 22.9512 6.19624V6.0588C22.9512 6.01299 22.9566 5.98065 22.97 5.9591C22.9833 5.93754 23.0101 5.91867 23.0476 5.89981C23.1467 5.84861 23.2646 5.80549 23.4011 5.77315C23.5377 5.73543 23.685 5.71926 23.8404 5.71926C24.1752 5.71926 24.4189 5.79471 24.5769 5.94832C24.7322 6.10192 24.8099 6.33368 24.8099 6.64358V7.55982H24.8152H24.8126ZM23.6716 7.9883C23.7654 7.9883 23.8591 7.97213 23.9609 7.9371C24.0627 7.90206 24.151 7.84008 24.2287 7.75654C24.2742 7.70265 24.3064 7.64336 24.3251 7.57599C24.3439 7.50862 24.3519 7.42508 24.3519 7.33076V7.21219C24.2716 7.19332 24.1832 7.17446 24.0948 7.16368C24.0064 7.1529 23.918 7.14751 23.8297 7.14751C23.6422 7.14751 23.5029 7.18524 23.4119 7.2607C23.3181 7.33615 23.2753 7.44394 23.2753 7.58677C23.2753 7.71881 23.3101 7.81852 23.3797 7.88589C23.4467 7.95596 23.5458 7.99099 23.6743 7.99099L23.6716 7.9883ZM25.9267 8.29281C25.8758 8.29281 25.8437 8.28473 25.8196 8.26586C25.7981 8.24969 25.7767 8.20927 25.7607 8.15538L25.1018 5.97257C25.0857 5.91598 25.0777 5.87825 25.0777 5.85939C25.0777 5.81358 25.0991 5.78932 25.1447 5.78932H25.4205C25.4741 5.78932 25.5116 5.79741 25.5303 5.81627C25.5518 5.83244 25.5705 5.87286 25.5866 5.92676L26.0579 7.79696L26.4972 5.92676C26.5106 5.87017 26.5293 5.83244 26.5507 5.81627C26.5722 5.8001 26.6123 5.78932 26.6632 5.78932H26.8882C26.9417 5.78932 26.9792 5.79741 27.0007 5.81627C27.0221 5.83244 27.0435 5.87286 27.0542 5.92676L27.4988 7.81852L27.9836 5.92676C27.9996 5.87017 28.0211 5.83244 28.0398 5.81627C28.0612 5.8001 28.0987 5.78932 28.1496 5.78932H28.4094C28.4549 5.78932 28.479 5.81088 28.479 5.85939C28.479 5.87286 28.4764 5.88634 28.4737 5.9052C28.471 5.92137 28.4657 5.94562 28.4549 5.97526L27.7773 8.15807C27.7613 8.21466 27.7399 8.25239 27.7184 8.26856C27.697 8.28473 27.6595 8.29551 27.6113 8.29551H27.3703C27.3167 8.29551 27.2792 8.28742 27.2578 8.26856C27.2363 8.24969 27.2149 8.21197 27.2042 8.15538L26.7703 6.33368L26.3391 8.15268C26.3258 8.20927 26.307 8.247 26.2856 8.26586C26.2642 8.28473 26.224 8.29281 26.1731 8.29281H25.9321H25.9267ZM29.5343 8.36827C29.387 8.36827 29.2423 8.3521 29.1031 8.31707C28.9638 8.28203 28.854 8.247 28.779 8.20388C28.7335 8.17963 28.704 8.14999 28.6933 8.12573C28.6826 8.10148 28.6772 8.07184 28.6772 8.04758V7.90476C28.6772 7.84547 28.6987 7.81852 28.7415 7.81852C28.7576 7.81852 28.7763 7.82122 28.7924 7.82661C28.8085 7.832 28.8352 7.84278 28.862 7.85356C28.9584 7.89667 29.0602 7.92901 29.17 7.95326C29.2825 7.97482 29.3923 7.9883 29.5048 7.9883C29.6816 7.9883 29.8181 7.95596 29.9146 7.89398C30.011 7.832 30.0619 7.74037 30.0619 7.6245C30.0619 7.54635 30.0378 7.48167 29.9869 7.42777C29.936 7.37388 29.8396 7.32537 29.703 7.27956L29.2959 7.1529C29.0897 7.08823 28.9397 6.99121 28.846 6.86456C28.7522 6.74059 28.7067 6.60316 28.7067 6.45494C28.7067 6.33637 28.7308 6.23127 28.7817 6.14234C28.8326 6.05072 28.8995 5.97257 28.9825 5.91059C29.0656 5.84591 29.162 5.79741 29.2745 5.76237C29.387 5.72734 29.5048 5.71387 29.628 5.71387C29.6896 5.71387 29.7539 5.71656 29.8155 5.72465C29.8797 5.73273 29.9387 5.74351 29.9976 5.75698C30.0538 5.77046 30.1074 5.78393 30.1583 5.8028C30.2092 5.81897 30.2493 5.83783 30.2761 5.854C30.3163 5.87556 30.3431 5.89981 30.3591 5.92406C30.3752 5.94562 30.3833 5.97796 30.3833 6.01838V6.15043C30.3833 6.20971 30.3618 6.24205 30.319 6.24205C30.2975 6.24205 30.2601 6.23127 30.2118 6.20702C30.0512 6.13426 29.8717 6.09653 29.6735 6.09653C29.5128 6.09653 29.387 6.12079 29.3013 6.17468C29.2155 6.22858 29.17 6.30942 29.17 6.4253C29.17 6.50345 29.1968 6.57352 29.253 6.62472C29.3093 6.67861 29.4137 6.73251 29.561 6.78102L29.9601 6.90767C30.161 6.97235 30.3083 7.06397 30.394 7.17985C30.4797 7.29573 30.5225 7.42777 30.5225 7.57599C30.5225 7.69726 30.4984 7.80774 30.4502 7.90476C30.3993 8.00177 30.3324 8.08531 30.244 8.15268C30.1583 8.22275 30.0538 8.27395 29.9333 8.31168C29.8074 8.3521 29.6762 8.37096 29.5316 8.37096L29.5343 8.36827Z" fill="#252F3E"/>
<path fill-rule="evenodd" clip-rule="evenodd" d="M30.0657 9.74585C29.1417 10.433 27.8 10.7968 26.6456 10.7968C25.028 10.7968 23.5711 10.1959 22.4703 9.19611C22.3846 9.11796 22.4623 9.01017 22.5667 9.07215C23.7558 9.76741 25.2262 10.1878 26.7447 10.1878C27.7705 10.1878 28.8953 9.97222 29.9318 9.53296C30.0871 9.4629 30.2184 9.63536 30.0657 9.74855V9.74585Z" fill="#FF9900"/>
<path fill-rule="evenodd" clip-rule="evenodd" d="M30.4516 9.30347C30.3338 9.14987 29.6723 9.23071 29.3696 9.26574C29.2786 9.27652 29.2652 9.19837 29.3482 9.13909C29.8758 8.7672 30.7435 8.8723 30.8453 8.99896C30.9471 9.12561 30.8185 9.99874 30.3231 10.4164C30.2481 10.4811 30.1731 10.4488 30.2079 10.3625C30.3204 10.0823 30.5695 9.45169 30.4516 9.30347Z" fill="#FF9900"/>
<path d="M6.67198 21.9183C6.63716 21.6111 6.62109 21.2958 6.62109 20.9886C6.62645 16.1784 10.4483 12.4865 15.1512 12.4865C15.4887 12.4865 15.8288 12.5053 16.1609 12.5457C16.3644 9.91559 17.4277 7.4148 19.2998 5.52842C21.1986 3.61241 23.5715 2.42399 26.4747 2.25422L27.0023 2.23535C23.6492 2.93601 21.6887 4.21335 19.8916 6.20213C18.0972 8.18821 17.0152 10.6567 16.8492 13.1548L16.8412 13.2814L16.7153 13.2653C16.6698 13.2599 16.6055 13.2545 16.5305 13.2545C16.2948 13.2545 15.9573 13.2841 15.6601 13.3111C15.4003 13.3353 15.1566 13.3569 15.0039 13.3569C13.0247 13.3569 11.0857 14.3055 9.54035 16.0274C8.09411 17.6416 7.03086 19.97 6.80589 22.5462L6.6693 21.9156L6.67198 21.9183Z" fill="#D2E0FF"/>
<defs>
<linearGradient id="paint0_linear_25637_48350" x1="5.98308" y1="15.6185" x2="50.3664" y2="15.6185" gradientUnits="userSpaceOnUse">
<stop stop-color="#3C7ABD"/>
<stop offset="1" stop-color="#ED0082"/>
</linearGradient>
<linearGradient id="paint1_linear_25637_48350" x1="0.867188" y1="30.5716" x2="53.1272" y2="30.5716" gradientUnits="userSpaceOnUse">
<stop stop-color="#3C7ABD"/>
<stop offset="1" stop-color="#ED0082"/>
</linearGradient>
<linearGradient id="paint2_linear_25637_48350" x1="1.39725" y1="30.5718" x2="52.5967" y2="30.5718" gradientUnits="userSpaceOnUse">
<stop stop-color="#3C7ABD"/>
<stop offset="1" stop-color="#ED0082"/>
</linearGradient>
</defs>
</svg>
