<svg width="50" height="50" viewBox="0 0 50 50" fill="none" xmlns="http://www.w3.org/2000/svg">
<circle cx="25" cy="25" r="25" fill="#F1FAFE"/>
<g clip-path="url(#clip0_8390_88465)">
<path d="M27.7324 26.3805H26.0134C25.7305 26.3805 25.4749 26.121 25.4749 25.8338V25.2374C25.0887 25.1215 24.7188 24.9724 24.338 24.7626L23.8865 25.2209C23.7396 25.37 23.5927 25.4031 23.4948 25.4031C23.3969 25.4031 23.25 25.37 23.1032 25.2209L21.9119 24.0115C21.6725 23.7686 21.6725 23.4593 21.9119 23.2164L22.3634 22.758C22.1621 22.3715 22.0098 21.996 21.8956 21.6039H21.3081C21.0252 21.6039 20.7695 21.3444 20.7695 21.0572V19.3122C20.7695 19.0251 21.0252 18.7656 21.3081 18.7656H21.8956C22.0098 18.3735 22.1621 17.998 22.3634 17.6114L21.9119 17.1531C21.6725 16.9101 21.6725 16.6009 21.9119 16.3579L23.1032 15.1486C23.25 14.9995 23.3969 14.9664 23.4948 14.9664C23.5927 14.9664 23.7396 14.9995 23.8865 15.1486L24.338 15.6069C24.7188 15.4026 25.0887 15.248 25.4749 15.132V14.5467C25.4749 14.2595 25.7305 14 26.0134 14H27.7324C28.0152 14 28.2709 14.2595 28.2709 14.5467V15.1431C28.6571 15.259 29.027 15.4081 29.4078 15.618L29.8593 15.1596C30.0062 15.0105 30.1639 15.0105 30.2509 15.0105C30.338 15.0105 30.4957 15.0105 30.6426 15.1596L31.8339 16.369C31.9808 16.5181 31.9808 16.6782 31.9808 16.7666C31.9808 16.8549 31.9808 17.0151 31.8339 17.1642L31.3824 17.6225C31.5837 18.009 31.736 18.3845 31.8502 18.7766H32.4377C32.7206 18.7766 32.9762 19.0361 32.9762 19.3233V21.0683C32.9762 21.3554 32.7206 21.615 32.4377 21.615H31.8502C31.736 22.007 31.5891 22.3825 31.3824 22.7691L31.8339 23.2274C32.0732 23.4704 32.0732 23.7796 31.8339 24.0226L30.6426 25.2319C30.4033 25.4749 30.0986 25.4749 29.8593 25.2319L29.4078 24.7736C29.027 24.9779 28.6571 25.1325 28.2709 25.2485V25.8449C28.2709 26.132 28.0152 26.3916 27.7324 26.3916V26.3805ZM24.2455 24.0778L24.425 24.1827C24.8928 24.4533 25.3334 24.6411 25.8121 24.757L26.0189 24.8067V25.8283H27.716L27.7269 24.8067L27.9336 24.757C28.4123 24.6355 28.8529 24.4533 29.3208 24.1827L29.5003 24.0778L30.2401 24.8288L31.4422 23.6195L30.697 22.8519L30.8004 22.6697C31.0669 22.1948 31.2519 21.7475 31.3661 21.2615L31.415 21.0517H32.4214V19.3122L31.415 19.3178L31.3661 19.1079C31.2464 18.622 31.0669 18.1747 30.8004 17.6998L30.697 17.5176L31.4422 16.7666L30.2509 15.5462L29.4948 16.2972L29.3153 16.1923C28.8475 15.9217 28.4069 15.7339 27.9282 15.618L27.7215 15.5683V14.5467H26.008L26.0134 15.5683L25.8067 15.618C25.328 15.7395 24.8874 15.9217 24.4196 16.1923L24.2401 16.2972L23.4948 15.5462L22.2927 16.7555L23.0379 17.5231L22.9345 17.7053C22.668 18.1802 22.4885 18.6275 22.3688 19.1135L22.3198 19.3233H21.3135V21.0628L22.3198 21.0572L22.3688 21.2671C22.4885 21.753 22.668 22.2003 22.9345 22.6752L23.0379 22.8574L22.2927 23.6084L23.4839 24.8288L24.2401 24.0778H24.2455Z" fill="#253E66"/>
<path d="M24.2729 36.0014C23.6963 36.0014 23.2285 35.9186 22.962 35.786H22.8967C21.9719 35.5431 21.1288 35.2946 20.1605 34.9633L19.9103 34.8859C18.1424 34.3282 16.8695 33.9251 14.5902 34.2343L14.5195 33.6877C16.9184 33.3563 18.2457 33.776 20.0735 34.3558L20.3237 34.4331C21.2702 34.7534 22.0916 34.9964 22.9892 35.2283H23.098L23.1632 35.2725C23.5494 35.5155 25.7689 35.648 27.5096 34.5325L36.1805 28.9552C36.4198 28.8282 36.4524 28.7012 36.4524 28.5852C36.4524 28.3975 36.36 28.2373 36.2077 28.16C35.8867 27.9447 35.3155 28.0772 34.69 28.4803C34.331 28.6957 34.0427 28.8448 33.6728 28.9221C31.165 29.6123 29.2992 29.8995 28.4343 29.7338L28.4561 29.1816L28.5377 29.1927C28.9021 29.2645 30.1206 29.3252 33.5476 28.3864C33.8577 28.3202 34.097 28.2042 34.4071 28.0109C35.2394 27.4753 36.0009 27.3538 36.4851 27.6796C36.7951 27.8342 37.0019 28.1877 37.0019 28.5797C37.0019 28.8393 36.9094 29.2037 36.4524 29.4301L27.8033 34.9909C26.661 35.7253 25.2956 35.9904 24.2675 35.9904L24.2729 36.0014Z" fill="#253E66"/>
<path d="M25.049 31.8529C23.3354 31.8529 21.8613 31.1571 20.1859 30.2404L20.4415 29.7545C23.0635 31.1792 25.0218 32.002 28.2747 30.4889C28.3781 30.4503 28.7643 30.3067 28.7153 30.0527C28.6718 29.887 28.5521 29.7379 28.4542 29.7379C27.7144 29.6717 27.1324 29.6717 26.6646 29.6717C24.7008 29.6717 23.8903 29.5778 21.4098 27.7389L19.2502 26.143C18.5975 25.8504 17.8305 25.8559 17.1831 26.1541L13.2013 27.7665L13 27.253L16.971 25.6405C17.7543 25.2761 18.7063 25.2761 19.5005 25.6405L19.5494 25.6681L21.7362 27.2806C24.097 29.0311 24.7552 29.1084 26.6754 29.1084C27.1541 29.1084 27.7471 29.1084 28.4869 29.1747C28.8785 29.1747 29.1668 29.5612 29.2539 29.9201C29.3463 30.384 29.0417 30.7982 28.4814 30.9859C27.1922 31.5878 26.0825 31.8363 25.0544 31.8363L25.049 31.8529Z" fill="#253E66"/>
<path d="M26.8662 23.4856C25.0766 23.4856 23.6133 22.0057 23.6133 20.1834C23.6133 18.3611 25.0711 16.8867 26.8662 16.8867C28.6613 16.8867 30.1192 18.3666 30.1192 20.1834C30.1192 22.0002 28.6613 23.4856 26.8662 23.4856ZM26.8662 17.4389C25.3757 17.4389 24.1573 18.6704 24.1573 20.1834C24.1573 21.6965 25.3703 22.9334 26.8662 22.9334C28.3621 22.9334 29.5752 21.702 29.5752 20.1834C29.5752 18.6648 28.3621 17.4389 26.8662 17.4389Z" fill="#253E66"/>
</g>
<defs>
<clipPath id="clip0_8390_88465">
<rect width="24" height="22" fill="white" transform="translate(13 14)"/>
</clipPath>
</defs>
</svg>
