<svg width="134" height="18" viewBox="0 0 134 18" fill="none" xmlns="http://www.w3.org/2000/svg">
<g clip-path="url(#clip0_7896_50810)">
<mask id="mask0_7896_50810" style="mask-type:luminance" maskUnits="userSpaceOnUse" x="0" y="4" width="134" height="14">
<path d="M133.525 4.6084H0.46875V17.9261H133.525V4.6084Z" fill="white"/>
</mask>
<g mask="url(#mask0_7896_50810)">
<path d="M0.46875 17.3393C0.69682 16.9584 0.605935 16.5213 0.661838 16.1197C0.867616 14.6086 1.0998 13.0994 1.26751 11.5853C1.4047 10.3418 1.61047 9.10355 1.72399 7.85483C1.80905 6.91338 1.99836 5.98076 2.12663 5.04226C2.15681 4.81941 2.24152 4.73139 2.48228 4.73564C3.08556 4.74644 3.68986 4.752 4.29279 4.73302C4.5603 4.72452 4.63575 4.86883 4.72595 5.05371C5.44388 6.51535 6.16616 7.97557 6.89279 9.43438C7.407 10.4708 7.92293 11.5065 8.44058 12.5415C8.50471 12.6697 8.57982 12.7928 8.69197 12.9934C9.18789 11.9963 9.65227 11.0722 10.1081 10.1445C10.9412 8.44854 11.7722 6.75172 12.6011 5.05404C12.6889 4.8757 12.789 4.72517 13.0565 4.73302C13.6766 4.75168 14.298 4.74546 14.9188 4.73564C15.1565 4.73171 15.2618 4.8096 15.2714 5.03997C15.3345 6.56749 15.6761 8.06589 15.8054 9.58851C15.9014 10.7197 16.1744 11.8376 16.2769 12.9688C16.3654 13.9463 16.5462 14.9116 16.6257 15.889C16.6638 16.358 16.7667 16.8223 16.8459 17.2876C16.8926 17.5599 16.7907 17.6591 16.4889 17.6519C15.7652 17.6342 15.0402 17.6417 14.3162 17.6489C14.082 17.6512 13.9564 17.6162 13.9105 17.3462C13.739 16.3318 13.6361 15.3115 13.5144 14.2925C13.3947 13.3039 13.24 12.3193 13.133 11.3294C13.0967 10.9154 13.0326 10.5041 12.9409 10.098C12.5877 10.7819 12.2677 11.3961 11.9525 12.0123C11.2985 13.2915 10.6376 14.567 10.0028 15.8547C9.96196 15.9672 9.88057 16.0621 9.77313 16.1226C9.6657 16.1831 9.53922 16.2052 9.41631 16.1849C8.98604 16.1557 8.5541 16.1569 8.12402 16.1885C7.94342 16.2168 7.7582 16.1805 7.60397 16.0865C7.44975 15.9924 7.33741 15.8473 7.28857 15.679C6.41367 13.9119 5.50825 12.1602 4.61174 10.4036C4.59369 10.3402 4.56097 10.2814 4.51599 10.2315C4.471 10.1817 4.41489 10.1421 4.35177 10.1157C4.26398 10.7701 4.17789 11.4102 4.09318 12.0503C3.9608 13.0513 3.78966 14.05 3.71112 15.0549C3.65693 15.7474 3.50054 16.427 3.47756 17.1191C3.46453 17.4958 3.34141 17.6705 2.90379 17.6558C2.12903 17.6289 1.35222 17.6538 0.57644 17.6558L0.46875 17.6329V17.3384" fill="#5DCC5D"/>
<path d="M73.5572 17.9268C72.9652 17.7481 72.3383 17.7079 71.7628 17.4451C70.3909 16.8178 69.5277 15.8462 69.3126 14.3989C69.2595 14.0389 69.3209 13.8236 69.8089 13.855C70.4805 13.8917 71.1536 13.8917 71.8252 13.855C71.9316 13.8371 72.0412 13.8599 72.1302 13.9184C72.2192 13.977 72.2805 14.0666 72.3009 14.1679C72.3777 14.4851 72.5568 14.7714 72.8131 14.9864C73.0693 15.2014 73.3897 15.3343 73.7293 15.3665C74.6056 15.4745 75.5103 15.4447 76.0577 14.6227C76.4895 13.9745 76.2498 13.2323 75.1955 12.8449C74.1412 12.4574 73.006 12.3013 71.9648 11.8632C70.3505 11.1858 69.2746 9.98942 69.433 8.21647C69.6145 6.18534 70.9328 5.12969 72.969 4.7321C74.2874 4.44392 75.671 4.63307 76.8516 5.26287C77.4289 5.55392 77.9109 5.99136 78.2443 6.52699C78.5777 7.06262 78.7497 7.67567 78.7414 8.29861C78.7482 8.54992 78.6604 8.59868 78.4248 8.59508C77.7351 8.58461 77.0451 8.58199 76.3554 8.59508C76.2955 8.60631 76.2339 8.606 76.1741 8.59418C76.1144 8.58236 76.0577 8.55926 76.0074 8.52625C75.9572 8.49323 75.9143 8.45096 75.8815 8.40192C75.8486 8.35288 75.8263 8.29806 75.8159 8.24069C75.3889 7.09537 73.6498 6.73869 72.7553 7.58164C72.6157 7.69154 72.5064 7.83239 72.437 7.99187C72.3675 8.15136 72.3401 8.32464 72.357 8.49658C72.3739 8.66852 72.4347 8.8339 72.534 8.97827C72.6333 9.12264 72.7682 9.24162 72.9268 9.32481C73.5925 9.7561 74.3854 9.86867 75.1296 10.0971C76.2912 10.4534 77.4453 10.8023 78.3014 11.6973C78.8215 12.2252 79.1239 12.915 79.1526 13.6391C79.2064 14.6695 79.0305 15.6024 78.2489 16.4022C77.4592 17.1973 76.402 17.7025 75.2617 17.8296C75.106 17.8522 74.9156 17.736 74.799 17.9258L73.5572 17.9268Z" fill="#21405E"/>
<path d="M23.9688 17.9262C23.9688 17.8994 23.9688 17.8725 23.9688 17.8457L24.902 17.8526C24.902 17.8771 24.902 17.9017 24.902 17.9259L23.9688 17.9262Z" fill="#FAFDFA"/>
<path d="M0.46875 17.6329L0.575754 17.6571L0.46875 17.7307V17.6326" fill="#D6F2D7"/>
<path d="M92.8648 10.1937C92.0211 11.8298 91.1352 13.4467 90.3495 15.1067C89.8536 16.1539 89.9153 16.1189 88.7431 16.203C87.8311 16.2684 87.3599 15.9984 86.9919 15.1885C86.2854 13.6306 85.4321 12.1319 84.6392 10.6089C84.5829 10.5013 84.5586 10.3723 84.4077 10.2895C84.121 10.6878 84.2019 11.157 84.1395 11.5752C83.9186 13.0962 83.8058 14.6316 83.5791 16.1519C83.5259 16.5089 83.4865 16.8816 83.433 17.2387C83.374 17.6313 83.2296 17.6641 82.8952 17.6555C82.2402 17.6372 81.5837 17.6362 80.9287 17.6555C80.6121 17.665 80.4437 17.6097 80.4928 17.2655C80.5857 16.6166 80.6547 15.9644 80.7401 15.3145C80.8274 14.65 80.9188 13.9861 81.0144 13.3227C81.1547 12.3586 81.2373 11.3887 81.4057 10.427C81.5573 9.56079 81.6331 8.68282 81.7381 7.80911C81.8451 6.91969 81.9391 6.02864 82.0574 5.14052C82.0917 4.89117 82.2038 4.70236 82.5588 4.73312C82.9879 4.77986 83.4212 4.77898 83.85 4.7305C84.4451 4.64869 84.6779 4.94124 84.8923 5.39151C85.5933 6.86406 86.3293 8.3209 87.0499 9.78494C87.4957 10.6888 87.9316 11.5962 88.3847 12.4964C88.4461 12.6178 88.4742 12.8181 88.6498 12.8236C88.8391 12.8302 88.8281 12.6253 88.8875 12.5062C90.0965 10.0701 91.3016 7.63229 92.5026 5.19288C92.5517 5.03957 92.6574 4.90843 92.8 4.82372C92.9426 4.73901 93.1126 4.70647 93.2784 4.73214C93.7952 4.76021 94.3133 4.76218 94.8303 4.73803C95.0728 4.73247 95.1733 4.76912 95.2076 5.04432C95.42 6.67721 95.6282 8.31054 95.8321 9.9443C95.995 11.2601 96.1833 12.5736 96.3404 13.8907C96.48 15.0629 96.6655 16.2301 96.8408 17.3983C96.8716 17.6055 96.7897 17.6523 96.5942 17.651C95.7659 17.6457 94.938 17.648 94.1098 17.649C93.9561 17.649 93.8625 17.6202 93.8453 17.4379C93.7524 16.4654 93.6564 15.4925 93.5367 14.5229C93.418 13.574 93.2314 12.6296 93.1471 11.676C93.1035 11.1852 93.0126 10.7048 92.9958 10.2143L92.8652 10.1927" fill="#21405E"/>
<path d="M35.8343 10.6827C35.8343 12.8336 35.8258 14.9849 35.8467 17.1358C35.8505 17.5406 35.7352 17.6773 35.298 17.6551C34.6271 17.6224 33.9525 17.6371 33.28 17.6505C33.0056 17.6561 32.8821 17.5972 32.8828 17.3023C32.892 13.2285 32.892 9.15457 32.8828 5.08052C32.8828 4.78405 33.0104 4.72613 33.2841 4.73463C33.7659 4.7703 34.25 4.76767 34.7314 4.72678C35.383 4.6417 35.6917 4.92116 35.9925 5.43262C37.2775 7.62999 38.6099 9.80282 39.9276 11.9828C39.9986 12.0839 40.0761 12.1807 40.1598 12.2724C40.2723 12.1376 40.2202 11.9904 40.2205 11.8598C40.2246 9.64345 40.2342 7.42743 40.2133 5.21141C40.2095 4.81873 40.3323 4.71304 40.7336 4.73071C41.4222 4.76081 42.1137 4.75034 42.8034 4.73365C43.0952 4.72645 43.1923 4.8135 43.1916 5.09361C43.184 9.1513 43.184 13.209 43.1916 17.2667C43.1916 17.5677 43.0911 17.6623 42.7763 17.6528C42.1212 17.6335 41.4651 17.6371 40.8097 17.6528C40.7104 17.6613 40.6108 17.6396 40.5251 17.591C40.4394 17.5423 40.3719 17.4692 40.3323 17.3819C39.0146 15.1914 37.6917 13.0037 36.3635 10.8189C36.3131 10.7358 36.2473 10.6611 36.1886 10.5826C36.1849 10.4517 36.1903 10.314 35.9945 10.2999C35.9712 10.2115 35.9966 10.0708 35.8834 10.059C35.7345 10.044 35.7743 10.188 35.775 10.2695C35.775 10.4085 35.7298 10.5568 35.8323 10.6841" fill="#5DCC5D"/>
<path d="M24.9005 17.8526L23.9673 17.8457C21.5073 17.7148 19.7489 16.5417 18.4717 14.6035C18.0505 13.8794 17.7354 13.1036 17.5351 12.2978C17.4236 11.9438 17.5677 11.4689 17.5419 11.0543C17.4493 9.56804 18.1116 8.33437 18.9656 7.16648C19.8946 5.90806 21.3021 5.04579 22.888 4.76361C24.2628 4.48835 25.6915 4.59638 27.0036 5.07481C28.7383 5.68411 29.8742 6.8399 30.7285 8.35793C31.2159 9.22379 31.3095 10.1391 31.4 11.0527C31.4623 11.9863 31.3017 12.9212 30.9305 13.7871C30.656 14.4414 30.2563 15.0413 29.7517 15.5561C29.1649 16.2501 28.4276 16.8147 27.5904 17.2111C26.7533 17.6076 25.8361 17.8264 24.9019 17.8526M28.4211 11.2876C28.4481 10.7784 28.3656 10.2694 28.1784 9.7918C27.9912 9.31425 27.7034 8.87837 27.3328 8.51109C26.9621 8.14381 26.5165 7.85292 26.0234 7.65638C25.5304 7.45984 25.0003 7.36182 24.466 7.36838C23.9313 7.36258 23.4009 7.45988 22.9066 7.65444C22.4123 7.84899 21.9643 8.13681 21.5894 8.50061C21.2145 8.86441 20.9205 9.29671 20.725 9.77158C20.5295 10.2464 20.4365 10.7541 20.4516 11.2641C20.4407 11.7715 20.5361 12.276 20.7324 12.7477C20.9287 13.2195 21.2219 13.649 21.5947 14.0111C21.9675 14.3731 22.4124 14.6604 22.9033 14.8561C23.3941 15.0517 23.921 15.1518 24.453 15.1503C24.982 15.1548 25.5066 15.0574 25.9952 14.864C26.4839 14.6705 26.9266 14.385 27.297 14.0245C27.6673 13.664 27.9576 13.2359 28.1505 12.7659C28.3434 12.2959 28.435 11.7935 28.4197 11.289" fill="#5DCC5D"/>
<path d="M122.068 17.648C121.005 17.648 119.938 17.648 118.869 17.648C118.804 17.651 118.74 17.6355 118.685 17.6034C118.63 17.5713 118.587 17.5241 118.56 17.4681C117.708 16.2138 116.836 14.9719 115.969 13.7271C115.875 13.6161 115.79 13.4978 115.716 13.3734C115.592 13.1038 115.356 13.2425 115.181 13.2481C114.976 13.254 115.062 13.4503 115.061 13.5612C115.054 14.7825 115.043 16.004 115.065 17.2262C115.072 17.5744 114.959 17.6687 114.602 17.6559C113.896 17.631 113.188 17.6405 112.482 17.6526C112.216 17.6572 112.081 17.6199 112.082 17.3146C112.092 13.2434 112.092 9.17205 112.082 5.10062C112.082 4.83032 112.156 4.73346 112.457 4.73542C114.181 4.74753 115.906 4.7027 117.629 4.75506C118.799 4.79105 119.963 5.02012 120.837 5.83493C122.105 7.01624 122.45 8.47439 122.067 10.0978C121.923 10.784 121.585 11.4192 121.088 11.9336C120.591 12.448 119.955 12.8218 119.25 13.0138C118.799 13.1551 118.96 13.2755 119.115 13.483C120.088 14.7943 121.062 16.1057 122.036 17.417C122.068 17.4462 122.09 17.4851 122.096 17.5273C122.102 17.5694 122.093 17.6124 122.07 17.649M115.055 8.97636C115.055 9.48161 115.067 9.98719 115.05 10.4918C115.042 10.729 115.128 10.7981 115.373 10.7932C116.046 10.7794 116.72 10.7735 117.392 10.7932C117.723 10.8183 118.053 10.7385 118.331 10.566C118.609 10.3936 118.82 10.1382 118.931 9.8396C119.428 8.77413 119.015 7.06925 117.115 7.18247C116.548 7.2152 115.977 7.19883 115.408 7.18247C115.141 7.17495 115.04 7.24955 115.05 7.5097C115.068 7.99794 115.055 8.48748 115.055 8.97604" fill="#21405E"/>
<path d="M102.756 4.75241C103.687 4.74881 104.618 4.75437 105.548 4.73539C105.654 4.7178 105.763 4.73989 105.853 4.79705C105.942 4.85422 106.005 4.94207 106.028 5.04233C107.242 8.19948 108.463 11.354 109.692 14.5059C110.092 15.5305 110.516 16.5465 110.961 17.6473C109.945 17.6473 108.975 17.6614 108.006 17.6388C107.713 17.632 107.713 17.3218 107.633 17.1326C107.312 16.376 106.997 15.6159 106.721 14.8439C106.646 14.6345 106.55 14.6149 106.363 14.6149C105.001 14.6191 103.64 14.625 102.278 14.61C102.181 14.598 102.083 14.6221 102.004 14.6772C101.925 14.7323 101.871 14.8143 101.854 14.9061C101.545 15.7105 101.198 16.5024 100.907 17.3126C100.82 17.558 100.725 17.6559 100.454 17.6523C99.6265 17.6408 98.7989 17.6437 97.9714 17.6506C97.7128 17.6526 97.661 17.6179 97.7656 17.3522C98.4292 15.6833 99.0572 14.0046 99.7112 12.3337C100.473 10.388 101.251 8.44752 102.02 6.50408C102.24 5.94779 102.455 5.38626 102.671 4.82702L102.755 4.75142M104.353 7.96518L104.244 7.95634C103.953 8.90368 103.651 9.84808 103.375 10.799C103.226 11.1676 103.114 11.5492 103.042 11.9384C103.025 12.1328 103.061 12.2042 103.27 12.2028C103.992 12.1976 104.715 12.1999 105.437 12.2028C105.633 12.2028 105.721 12.1518 105.652 11.9411C105.214 10.6171 104.784 9.29047 104.352 7.96485" fill="#21405E"/>
<path d="M45.954 11.1713C45.954 9.20072 45.964 7.22979 45.9454 5.2592C45.9417 4.87502 46.0164 4.72515 46.4722 4.72908C49.0241 4.75089 51.5761 4.75089 54.1282 4.72908C54.5528 4.72581 54.6564 4.85572 54.6337 5.22713C54.6 5.73121 54.6 6.23683 54.6337 6.74091C54.6622 7.12704 54.5024 7.19543 54.1333 7.19118C52.5471 7.17351 50.9602 7.19707 49.3744 7.17449C48.9741 7.16893 48.8767 7.28837 48.8918 7.64571C48.9203 8.32864 48.9162 9.01387 48.8918 9.69713C48.8812 10.0132 48.9772 10.1144 49.3212 10.1098C50.6831 10.0921 52.0457 10.1137 53.4076 10.095C53.7729 10.0901 53.9372 10.1517 53.908 10.5414C53.8739 11.0617 53.8732 11.5835 53.906 12.1039C53.9241 12.4348 53.7969 12.5195 53.4649 12.5162C52.1201 12.5022 50.7747 12.5274 49.4303 12.5005C48.994 12.4917 48.8654 12.6141 48.8894 13.0189C48.9221 13.6208 48.9221 14.2239 48.8894 14.8259C48.8719 15.1819 48.9669 15.3167 49.3696 15.2918C51.0035 15.191 52.6408 15.2405 54.2763 15.2146C54.702 15.2077 54.8529 15.3082 54.8227 15.7218C54.7934 16.2424 54.7921 16.764 54.8189 17.2847C54.8282 17.5514 54.7534 17.6531 54.4485 17.6522C51.7414 17.6421 49.0342 17.6421 46.3268 17.6522C45.9125 17.6545 45.9496 17.4293 45.9496 17.1793C45.9507 15.176 45.9507 13.1727 45.9496 11.1694" fill="#5DCC5D"/>
<path d="M126.891 12.4509C126.891 10.9034 126.866 9.35556 126.906 7.80906C126.919 7.31494 126.755 7.22004 126.276 7.24065C125.398 7.27861 124.517 7.24065 123.638 7.258C123.317 7.26487 123.173 7.20171 123.189 6.86237C123.216 6.27728 123.207 5.68957 123.191 5.1035C123.184 4.83909 123.255 4.73438 123.563 4.73536C126.753 4.74539 129.944 4.74539 133.134 4.73536C133.477 4.73536 133.531 4.85643 133.523 5.13524C133.504 5.70462 133.5 6.27597 133.523 6.84503C133.536 7.15819 133.449 7.27043 133.097 7.26094C132.166 7.23771 131.234 7.2701 130.304 7.24458C129.937 7.23444 129.848 7.33621 129.849 7.67686C129.863 10.8366 129.849 13.9967 129.869 17.1565C129.871 17.5711 129.747 17.68 129.324 17.6594C128.653 17.6267 127.978 17.6313 127.307 17.6594C126.951 17.6738 126.88 17.5495 126.883 17.2422C126.898 15.6463 126.89 14.0497 126.89 12.4535" fill="#21405E"/>
<path d="M69.5505 4.72516C69.1582 5.06679 68.8581 5.36817 68.5158 5.6185C67.3271 6.54175 66.3545 7.6925 65.6606 8.99653C64.9126 10.3807 64.4261 11.8797 64.2233 13.425C64.0695 14.6946 63.997 15.972 64.0062 17.25C63.9935 17.5808 63.8803 17.6626 63.5531 17.6535C62.8295 17.6338 62.1044 17.6381 61.3805 17.6535C61.1109 17.6587 61.0135 17.5779 61.0289 17.32C61.0756 15.7595 61.2059 14.2022 61.4192 12.6543C61.603 11.5617 61.9374 10.5185 62.2303 9.45662C62.4859 8.72933 62.8283 8.03254 63.251 7.38C63.5049 6.85409 63.8066 6.35041 64.1526 5.87473C64.6252 5.29193 65.0635 4.64695 66.055 4.71011C67.1817 4.7821 68.3186 4.72679 69.5505 4.72679" fill="#5DCC5D"/>
<path d="M60.4303 11.6677C59.7064 8.88684 57.9275 6.46087 55.4375 4.85899C55.6416 4.73389 55.8877 4.68712 56.1265 4.72809C57.2123 4.72155 58.2985 4.72809 59.3846 4.72253C59.6206 4.72253 59.8151 4.73562 59.9289 4.98432C60.0634 5.27654 60.4434 5.30108 60.6605 5.55469C60.9691 5.9166 61.0521 6.37277 61.3495 6.72651C61.5162 6.92514 61.7391 7.03836 61.8609 7.3296C62.1092 7.92287 61.6681 8.30835 61.4801 8.69874C61.1116 9.50162 60.8227 10.3357 60.6173 11.19C60.5867 11.3061 60.5301 11.4161 60.4307 11.6684" fill="#5DCC5D"/>
<path d="M35.8324 10.6837C35.7295 10.5564 35.7765 10.4082 35.7752 10.2691C35.7752 10.1876 35.7347 10.0437 35.8835 10.0587C35.9967 10.0702 35.9717 10.2112 35.9947 10.2996L35.9782 10.4923C35.9727 10.5856 35.9638 10.6762 35.8324 10.6837Z" fill="#ADE5AE"/>
<path d="M35.9766 10.4924C35.982 10.4269 35.9875 10.3626 35.993 10.2993C36.1889 10.3134 36.1837 10.4502 36.1871 10.582L35.9766 10.4924Z" fill="#5DCC5F"/>
<path d="M102.757 4.75141L102.674 4.827C102.655 4.75599 102.681 4.72883 102.757 4.75141Z" fill="#597086"/>
<path d="M59.5625 4.72949C59.5625 4.72949 61.1237 5.22525 61.9341 7.74953L61.4485 8.19423L59.5625 4.72949Z" fill="#5DCC5D"/>
</g>
</g>
<defs>
<clipPath id="clip0_7896_50810">
<rect width="133" height="18" fill="white" transform="translate(0.523438)"/>
</clipPath>
</defs>
</svg>
