<svg width="76" height="36" viewBox="0 0 76 36" fill="none" xmlns="http://www.w3.org/2000/svg">
<g clip-path="url(#clip0_25718_47790)">
<path opacity="0.2" d="M29.875 14.3936L60.0776 40.8816H-0.327639L29.875 14.3936Z" fill="white"/>
<path d="M7.39912 6.5C7.39231 7.28724 7.51141 14.3105 13.8164 14.3105C13.8164 14.3105 7.39912 14.5547 7.39912 22.5C7.39912 14.4636 0.985237 14.3105 0.985237 14.3105C7.04185 14.3105 7.38211 7.2836 7.39912 6.5Z" fill="#F860B1"/>
<path d="M51.7897 3.5C51.7829 4.28724 51.902 11.3105 58.207 11.3105C58.207 11.3105 51.7897 11.5547 51.7897 19.5C51.7897 11.4636 45.3759 11.3105 45.3759 11.3105C51.4325 11.3105 51.7727 4.2836 51.7897 3.5Z" fill="#F7CB9D"/>
<path opacity="0.3" d="M60.1193 22.7725L80.192 40.3764H40.0467L60.1193 22.7725Z" fill="white"/>
</g>
<defs>
<clipPath id="clip0_25718_47790">
<rect width="76" height="36" fill="white"/>
</clipPath>
</defs>
</svg>
