<svg width="513" height="256" viewBox="0 0 513 256" fill="none" xmlns="http://www.w3.org/2000/svg">
<mask id="mask0_26349_103847" style="mask-type:alpha" maskUnits="userSpaceOnUse" x="0" y="0" width="513" height="256">
<path d="M513 0H0V255.811H513V0Z" fill="#D9D9D9"/>
</mask>
<g mask="url(#mask0_26349_103847)">
<path d="M617.393 389.787C610.133 413.056 588.698 427.488 566.1 419.989C542.702 412.226 535.774 390.415 543.034 367.145C543.034 367.145 567.784 294.439 569.86 287.786C577.875 261.961 575.62 233.907 563.588 209.773C551.556 185.638 530.73 167.393 505.673 159.037C501.405 157.604 497.041 156.492 492.616 155.711C492.335 153.836 492.189 152.113 491.978 150.154C487.441 117.033 473.017 86.1755 450.705 61.8566C428.392 37.5377 399.296 20.961 367.446 14.4228C335.596 7.88467 302.569 11.7087 272.941 25.3652C243.312 39.0217 218.549 61.8346 202.081 90.6437C198.494 89.0496 194.838 87.6405 191.113 86.4163C114.872 61.1541 61.0003 107.082 43.6071 163.777C26.214 220.472 42.0002 286.804 120.466 312.84C135.116 318.117 150.639 320.329 166.124 319.348C181.609 318.366 196.746 314.21 210.646 307.124L192.202 269.918C173.566 279.154 152.212 280.753 132.461 274.392C80.3411 257.098 71.837 212.855 82.7813 176.775C93.7256 140.696 127.861 108.578 178.906 125.516C181.522 126.313 184.079 127.304 186.556 128.482C200.731 134.64 212.741 145.117 220.972 158.505C221.773 150.76 223.325 143.117 225.606 135.692C228.028 127.962 231.189 120.499 235.04 113.412C246.843 91.8021 264.838 74.478 286.568 63.8063C308.298 53.1345 332.702 49.6355 356.448 53.7871C380.194 57.9388 402.123 69.5386 419.241 87.0022C436.358 104.466 447.828 126.942 452.085 151.359C452.384 153.157 452.63 155.021 452.824 156.951C454.464 169.239 454.214 181.715 452.081 193.92C451.732 196.037 451.333 198.139 450.884 200.223C451.469 199.881 452.079 199.586 452.709 199.34C465.083 194.224 478.772 193.541 491.576 197.402L493.497 198.04C506.832 202.419 518.258 211.474 525.788 223.629C533.317 235.785 536.473 250.27 534.705 264.566L506.383 355.35C491.577 402.808 508.927 439.055 544.44 450.838C553.9 454.098 563.929 455.224 573.845 454.139C583.761 453.054 593.332 449.783 601.909 444.55L597.783 466.097L630.535 476.964L678.341 323.728L641.927 311.646L617.393 389.787Z" fill="#53A3DF" fill-opacity="0.03"/>
</g>
</svg>
