<svg width="50" height="50" viewBox="0 0 50 50" fill="none" xmlns="http://www.w3.org/2000/svg">
<circle cx="25" cy="25" r="25" fill="#F1FAFE"/>
<g clip-path="url(#clip0_6919_50373)">
<path d="M24.4441 22.1636C23.7431 22.1636 23.1657 22.7433 23.1657 23.4472V24.9793C23.1657 26.2629 24.1967 27.2981 25.4752 27.2981C26.7536 27.2981 27.7847 26.2629 27.7847 24.9793V23.4472C27.7847 22.7433 27.2073 22.1636 26.5062 22.1636H24.4441ZM27.2485 23.4472V24.9793C27.2485 25.9731 26.4649 26.7598 25.4752 26.7598C24.4854 26.7598 23.7018 25.9731 23.7018 24.9793V23.4472C23.7018 23.0331 24.0317 22.7019 24.4441 22.7019H26.5062C26.9186 22.7019 27.2485 23.0331 27.2485 23.4472ZM35.6616 31.8944H33.8883V21.9151C33.8883 21.9151 33.7646 21.6667 33.6408 21.6667C33.5171 21.6667 33.3934 21.7909 33.3934 21.9151V31.8944H30.3416V31.1077C30.3416 29.5756 29.1044 28.3333 27.5784 28.3333H23.4131C21.8872 28.3333 20.65 29.5756 20.65 31.1077V31.8944H17.5982V21.3768C17.5982 20.9627 17.9281 20.6315 18.3405 20.6315H24.9803C24.9803 20.6315 25.2277 20.5072 25.2277 20.383C25.2277 20.2588 25.104 20.1346 24.9803 20.1346H18.2993C17.5982 20.1346 17.0208 20.7143 17.0208 21.4182V31.9358H15.2474C15.2474 31.9358 15 32.06 15 32.1843V33.1781C15 34.2132 15.8248 35.0414 16.8558 35.0414H34.0945C35.1255 35.0414 35.9503 34.2132 35.9503 33.1781V32.1843C35.9503 32.1843 35.8266 31.9358 35.7029 31.9358L35.6616 31.8944ZM21.1449 31.1077C21.1449 29.8654 22.1759 28.8302 23.4131 28.8302H27.5784C28.8157 28.8302 29.8467 29.8654 29.8467 31.1077V31.8944H28.6507C28.6507 31.8944 28.4445 31.8944 28.3208 31.9358V31.1077C28.3208 31.1077 28.1971 30.8592 28.0733 30.8592C27.9496 30.8592 27.8259 30.9834 27.8259 31.1077V32.1429C27.8259 32.1429 27.8259 32.1843 27.8259 32.2257C27.7434 32.3085 27.6609 32.4327 27.5784 32.5569C27.4547 32.8054 27.2485 32.9296 26.9598 32.9296H24.0317C23.7843 32.9296 23.5368 32.8054 23.4544 32.5569C23.4131 32.4327 23.2894 32.3085 23.2069 32.2257C23.2069 32.2257 23.2069 32.1843 23.2069 32.1429V31.1077C23.2069 31.1077 23.0832 30.8592 22.9595 30.8592C22.8358 30.8592 22.712 30.9834 22.712 31.1077V31.9358C22.712 31.9358 22.5058 31.8944 22.3821 31.8944H21.1861V31.1077H21.1449ZM35.4142 33.1366C35.4142 33.882 34.8368 34.4617 34.0945 34.4617H16.8558C16.1135 34.4617 15.5361 33.882 15.5361 33.1366V32.4327H22.3821C22.6295 32.4327 22.877 32.5569 22.9595 32.8054C23.1657 33.2195 23.5781 33.4679 24.0317 33.4679H26.9598C27.4135 33.4679 27.8259 33.2195 28.0321 32.8054C28.1558 32.5569 28.362 32.4327 28.6095 32.4327H35.4554V33.1366H35.4142ZM26.9598 20.6315H28.4033V21.9151C28.4033 21.9151 28.4445 22.1222 28.527 22.1636C28.527 22.1636 28.6095 22.1636 28.6507 22.1636C28.6919 22.1636 28.7744 22.1636 28.8157 22.1222L30.7952 20.6315H33.146C33.5584 20.6315 33.8883 20.3002 33.8883 19.8861V15.7453C33.8883 15.3313 33.5584 15 33.146 15H26.9598C26.5474 15 26.2175 15.3313 26.2175 15.7453V19.8861C26.2175 20.3002 26.5474 20.6315 26.9598 20.6315ZM26.7536 15.7453C26.7536 15.7453 26.8361 15.4969 27.0011 15.4969H33.1872C33.1872 15.4969 33.4346 15.5797 33.4346 15.7453V19.8861C33.4346 19.8861 33.3522 20.1346 33.1872 20.1346H30.754C30.754 20.1346 30.6303 20.1346 30.589 20.176L28.9394 21.4182V20.383C28.9394 20.383 28.8157 20.1346 28.6919 20.1346H27.0011C27.0011 20.1346 26.7536 20.0518 26.7536 19.8861V15.7453ZM29.8055 17.8157C29.8055 17.8157 29.9292 17.5673 30.0529 17.5673C30.0529 17.5673 30.3003 17.6915 30.3003 17.8157C30.3003 17.94 30.1766 18.0642 30.0529 18.0642C29.9292 18.0642 29.8055 17.94 29.8055 17.8157ZM28.2795 17.8157C28.2795 17.8157 28.4033 17.5673 28.527 17.5673C28.527 17.5673 28.7744 17.6915 28.7744 17.8157C28.7744 17.94 28.6507 18.0642 28.527 18.0642C28.4033 18.0642 28.2795 17.94 28.2795 17.8157ZM31.3314 17.8157C31.3314 17.8157 31.4551 17.5673 31.5788 17.5673C31.5788 17.5673 31.8263 17.6915 31.8263 17.8157C31.8263 17.94 31.7025 18.0642 31.5788 18.0642C31.4551 18.0642 31.3314 17.94 31.3314 17.8157Z" fill="#253E66"/>
</g>
<defs>
<clipPath id="clip0_6919_50373">
<rect width="20.9091" height="20" fill="white" transform="translate(15 15)"/>
</clipPath>
</defs>
</svg>
