<svg width="50" height="50" viewBox="0 0 50 50" fill="none" xmlns="http://www.w3.org/2000/svg">
<circle cx="25" cy="25" r="25" fill="#F1FAFE"/>
<g clip-path="url(#clip0_6919_47657)">
<path d="M29.9761 35H17.9608C17.8393 35 17.7422 34.9004 17.7422 34.7759C17.7422 34.6515 17.8393 34.5519 17.9608 34.5519H29.9761C31.4029 34.5519 32.5625 33.3631 32.5625 31.9004V14.4481H19.9218V19.5892C19.9218 19.7137 19.8247 19.8133 19.7033 19.8133C19.5818 19.8133 19.4847 19.7137 19.4847 19.5892V14.2241C19.4847 14.0996 19.5818 14 19.7033 14H32.7811C32.9025 14 32.9997 14.0996 32.9997 14.2241V31.9066C32.9997 33.6183 31.6458 35.0062 29.9761 35.0062V35Z" fill="#253E66"/>
<path d="M17.9611 35.0005C16.8804 35.0005 16 34.098 16 32.9901V19.5834C16 19.459 16.0971 19.3594 16.2186 19.3594H19.7036C19.825 19.3594 19.9221 19.459 19.9221 19.5834V32.9901C19.9221 34.098 19.0418 35.0005 17.9611 35.0005ZM16.4371 19.8075V32.9901C16.4371 33.8552 17.1232 34.5523 17.9611 34.5523C18.7989 34.5523 19.485 33.849 19.485 32.9901V19.8075H16.4371Z" fill="#253E66"/>
<path d="M31.0397 19.364H21.4529C21.3315 19.364 21.2344 19.2644 21.2344 19.1399V16.0092C21.2344 15.8847 21.3315 15.7852 21.4529 15.7852H31.0397C31.1612 15.7852 31.2583 15.8847 31.2583 16.0092V19.1399C31.2583 19.2644 31.1612 19.364 31.0397 19.364ZM21.6654 18.9159H30.8212V16.2333H21.6654V18.9159Z" fill="#253E66"/>
<path d="M25.8044 24.7239H21.4451C21.3237 24.7239 21.2266 24.6243 21.2266 24.4998V20.9272C21.2266 20.8027 21.3237 20.7031 21.4451 20.7031H25.8044C25.9258 20.7031 26.023 20.8027 26.023 20.9272V24.4998C26.023 24.6243 25.9258 24.7239 25.8044 24.7239ZM21.6637 24.2757H25.5858V21.145H21.6637V24.2757Z" fill="#253E66"/>
<path d="M31.0395 21.1513H27.5545C27.4331 21.1513 27.3359 21.0517 27.3359 20.9272C27.3359 20.8027 27.4331 20.7031 27.5545 20.7031H31.0395C31.1609 20.7031 31.2581 20.8027 31.2581 20.9272C31.2581 21.0517 31.1609 21.1513 31.0395 21.1513Z" fill="#253E66"/>
<path d="M31.0395 22.9364H27.5545C27.4331 22.9364 27.3359 22.8368 27.3359 22.7123C27.3359 22.5879 27.4331 22.4883 27.5545 22.4883H31.0395C31.1609 22.4883 31.2581 22.5879 31.2581 22.7123C31.2581 22.8368 31.1609 22.9364 31.0395 22.9364Z" fill="#253E66"/>
<path d="M31.0395 24.7255H27.5545C27.4331 24.7255 27.3359 24.6259 27.3359 24.5014C27.3359 24.3769 27.4331 24.2773 27.5545 24.2773H31.0395C31.1609 24.2773 31.2581 24.3769 31.2581 24.5014C31.2581 24.6259 31.1609 24.7255 31.0395 24.7255Z" fill="#253E66"/>
<path d="M31.0397 26.5106H21.4529C21.3315 26.5106 21.2344 26.411 21.2344 26.2866C21.2344 26.1621 21.3315 26.0625 21.4529 26.0625H31.0397C31.1612 26.0625 31.2583 26.1621 31.2583 26.2866C31.2583 26.411 31.1612 26.5106 31.0397 26.5106Z" fill="#253E66"/>
<path d="M31.0388 31.8762H26.6795C26.5581 31.8762 26.4609 31.7766 26.4609 31.6521V28.0795C26.4609 27.9551 26.5581 27.8555 26.6795 27.8555H31.0388C31.1602 27.8555 31.2574 27.9551 31.2574 28.0795V31.6521C31.2574 31.7766 31.1602 31.8762 31.0388 31.8762ZM26.8981 31.4281H30.8202V28.2974H26.8981V31.4281Z" fill="#253E66"/>
<path d="M24.9379 28.2958H21.4529C21.3315 28.2958 21.2344 28.1962 21.2344 28.0717C21.2344 27.9472 21.3315 27.8477 21.4529 27.8477H24.9379C25.0594 27.8477 25.1565 27.9472 25.1565 28.0717C25.1565 28.1962 25.0594 28.2958 24.9379 28.2958Z" fill="#253E66"/>
<path d="M24.9379 30.0888H21.4529C21.3315 30.0888 21.2344 29.9892 21.2344 29.8647C21.2344 29.7402 21.3315 29.6406 21.4529 29.6406H24.9379C25.0594 29.6406 25.1565 29.7402 25.1565 29.8647C25.1565 29.9892 25.0594 30.0888 24.9379 30.0888Z" fill="#253E66"/>
<path d="M24.9379 31.8739H21.4529C21.3315 31.8739 21.2344 31.7743 21.2344 31.6498C21.2344 31.5254 21.3315 31.4258 21.4529 31.4258H24.9379C25.0594 31.4258 25.1565 31.5254 25.1565 31.6498C25.1565 31.7743 25.0594 31.8739 24.9379 31.8739Z" fill="#253E66"/>
</g>
<defs>
<clipPath id="clip0_6919_47657">
<rect width="17" height="21" fill="white" transform="translate(16 14)"/>
</clipPath>
</defs>
</svg>
