<svg width="116" height="29" viewBox="0 0 116 29" fill="none" xmlns="http://www.w3.org/2000/svg">
<g clip-path="url(#clip0_7896_50837)">
<mask id="mask0_7896_50837" style="mask-type:luminance" maskUnits="userSpaceOnUse" x="0" y="0" width="116" height="29">
<path d="M115.762 0H0.761719V29H115.762V0Z" fill="white"/>
</mask>
<g mask="url(#mask0_7896_50837)">
<path d="M27.8047 11.8606H35.5761C37.4131 11.7594 39.2172 12.3743 40.6043 13.5744C41.078 14.0659 41.4491 14.6456 41.6963 15.28C41.9435 15.9145 42.0618 16.5913 42.0446 17.2714V17.3185C42.0784 18.5279 41.683 19.7106 40.9275 20.6598C40.172 21.6089 39.1044 22.2641 37.9116 22.5108L42.6168 28.9999H38.9834L34.7011 23.0269H30.8658V28.9999H27.8047V11.8606ZM35.348 20.3591C37.5381 20.3591 38.933 19.2236 38.933 17.4939V17.4438C38.933 15.6078 37.5886 14.6036 35.3228 14.6036H30.8618V20.3591H35.348Z" fill="#003057"/>
<path d="M54.4409 11.7424H57.279L64.9495 29.0109H61.7198L59.9536 24.873H51.7027L49.9103 29.013H46.7734L54.4409 11.7424ZM58.8292 22.1981L55.8266 15.3402L52.82 22.1981H58.8292Z" fill="#003057"/>
<path d="M69.9336 11.8606H76.4303C81.9077 11.8606 85.6914 15.5586 85.6914 20.3791V20.4272C85.6914 25.2517 81.9077 28.9978 76.4303 28.9978H69.9336V11.8606ZM72.9957 14.6026V26.2609H76.4273C80.0869 26.2609 82.4769 23.8366 82.4769 20.4823V20.4322C82.5032 19.6447 82.3634 18.8603 82.0665 18.1296C81.7696 17.3988 81.3221 16.7377 80.7527 16.1888C80.1834 15.6399 79.5047 15.2152 78.7604 14.942C78.016 14.6689 77.2223 14.5532 76.4303 14.6026H72.9957Z" fill="#003057"/>
<path d="M94.109 11.8616H91.0469V29.0038H94.109V11.8616Z" fill="#003057"/>
<path d="M115.537 11.8616L109.464 20.2378L115.786 29.0038H112.176L107.573 22.4666L102.99 29.0038H99.4805L105.779 20.2849L99.7298 11.8616H103.338L107.671 18.0811L112.028 11.8616H115.537Z" fill="#003057"/>
<path d="M13.519 25.396C13.2447 25.3959 12.9743 25.3317 12.7297 25.2085C12.4857 25.0854 12.2747 24.9064 12.1141 24.6864L5.24291 15.3221H0.761719V11.9147H6.13006C6.40429 11.9149 6.67464 11.9791 6.91931 12.1021C7.16332 12.2243 7.3744 12.4026 7.53497 12.6222L13.1506 20.2708L21.7173 1.01799C21.8538 0.713315 22.0774 0.455108 22.3602 0.27538C22.6413 0.094687 22.9691 -0.00137702 23.3039 -0.00122051H34.0234V3.40618H24.4353L15.1086 24.3727C14.9853 24.6498 14.7898 24.8892 14.5424 25.0662C14.2938 25.2449 14.002 25.3549 13.6966 25.3849C13.635 25.3849 13.5745 25.3849 13.5119 25.3849" fill="#00C388"/>
</g>
</g>
<defs>
<clipPath id="clip0_7896_50837">
<rect width="115" height="29" fill="white" transform="translate(0.761719)"/>
</clipPath>
</defs>
</svg>
