<svg width="41" height="51" viewBox="0 0 41 51" fill="none" xmlns="http://www.w3.org/2000/svg">
<path d="M25.6544 31.4701C24.0959 31.4701 22.5374 30.7507 21.5783 30.0314C21.3385 29.7916 21.3385 29.5519 21.5783 29.3121C21.818 29.0723 22.0578 29.0723 22.2976 29.3121C23.0169 29.9115 24.4555 30.511 25.8941 30.511C27.3328 30.511 28.2919 29.7916 28.5317 28.7127C28.7714 27.7536 28.5317 26.5547 25.5345 25.3559C23.976 24.7564 22.2976 23.7973 22.2976 21.8792C22.2976 20.5604 23.3765 19.0019 25.2947 18.7621C26.7334 18.5224 28.4118 19.1218 29.251 19.7212C29.4907 19.961 29.4907 20.2008 29.251 20.4405C29.0112 20.6803 28.7714 20.6803 28.5317 20.4405C28.0521 20.0809 26.7334 19.6013 25.4146 19.7212C24.0959 19.8411 23.3766 20.9201 23.3766 21.7593C23.3766 22.4786 23.7362 23.3178 26.014 24.2769C27.9322 25.1161 30.0902 26.315 29.6106 28.8326C29.3708 30.0314 28.2919 31.3502 26.014 31.4701C26.014 31.4701 25.8942 31.4701 25.7743 31.4701H25.6544Z" fill="#D64794"/>
<path d="M25.6514 34.3495C25.4116 34.3495 25.1719 34.1097 25.1719 33.87V31.2325C25.1719 30.9927 25.4116 30.7529 25.6514 30.7529C25.8912 30.7529 26.131 30.9927 26.131 31.2325V33.87C26.131 34.1097 25.8912 34.3495 25.6514 34.3495Z" fill="#D64794"/>
<path d="M25.6514 19.6024C25.4116 19.6024 25.1719 19.3627 25.1719 19.1229V16.4854C25.1719 16.2456 25.4116 16.0059 25.6514 16.0059C25.8912 16.0059 26.131 16.2456 26.131 16.4854V19.1229C26.131 19.3627 25.8912 19.6024 25.6514 19.6024Z" fill="#D64794"/>
<path d="M21.9388 50.532C21.819 50.532 21.5792 50.532 21.4593 50.532C21.4593 50.532 21.3394 50.532 21.2195 50.532C20.9797 50.4122 20.8599 50.1724 20.74 49.9326C20.74 49.8127 20.74 49.5729 20.74 49.4531V45.9764C20.2604 45.9764 19.9008 45.7366 19.5411 45.6167C18.582 45.2571 17.6229 44.8974 16.544 44.4179C15.9445 44.1781 15.465 43.9383 14.9855 43.5787L12.5877 45.9764C12.5877 45.9764 12.5877 45.9764 12.348 46.0963C12.348 46.0963 12.2281 46.0963 12.1082 46.2161C11.7485 46.336 11.269 46.2161 10.9093 46.0963C10.9093 46.0963 10.7894 46.0963 10.6696 45.9764L4.91503 40.3417C4.67525 40.102 4.4355 39.6224 4.55538 39.2628C4.55538 39.023 4.67525 38.7832 4.91503 38.6633L7.31274 36.2656C6.95309 35.5463 6.59344 34.9469 6.23378 34.3474C5.63435 33.1486 5.27468 31.8298 4.91503 30.631H1.55823C1.43835 30.631 1.19857 30.631 1.07868 30.631C0.599136 30.3912 0.359375 30.0315 0.359375 29.4321V21.3998C0.359375 21.2799 0.359375 21.0401 0.359375 20.9202C0.359375 20.9202 0.359375 20.8003 0.359375 20.6804C0.479261 20.4407 0.719033 20.3208 0.958805 20.2009C1.07869 20.2009 1.31846 20.2009 1.43834 20.2009H4.91503C4.91503 19.7214 5.1548 19.3617 5.27469 19.002C5.51446 18.4026 5.63435 17.9231 5.87412 17.3236C6.23377 16.3645 6.71333 15.4055 7.19287 14.5663L4.79515 12.1685C4.67526 12.0487 4.55538 11.9288 4.55538 11.8089C4.4355 11.5691 4.4355 11.0896 4.55538 10.8498C4.55538 10.7299 4.67526 10.61 4.79515 10.4901L10.5497 4.61572C10.5497 4.61572 10.6696 4.61573 10.7894 4.49584C11.1491 4.37595 11.6286 4.37595 11.9883 4.49584C11.9883 4.49584 12.1082 4.49584 12.1082 4.61572L14.5059 7.01344C15.2252 6.65378 15.8247 6.29413 16.4241 5.93447C17.6229 5.33504 18.9417 4.97538 20.1406 4.61572V1.25892C20.1406 1.13903 20.1406 0.899263 20.1406 0.779377C20.3803 0.299833 20.74 0.0600586 21.3394 0.0600586H29.3718C30.0911 0.0600586 30.5706 0.539602 30.6905 1.25892V5.09527C30.6905 5.33504 30.4507 5.57481 30.211 5.57481C29.9712 5.57481 29.7314 5.33504 29.7314 5.09527V1.25892C29.7314 1.25892 29.7314 1.01915 29.4916 1.01915H21.4593C21.4593 1.01915 21.3394 1.01915 21.2195 1.13903V5.09527C21.2195 5.33504 21.0996 5.57481 20.8599 5.57481H20.6201C19.3013 5.93447 18.1025 6.41401 16.9036 6.89356C16.1843 7.25322 15.5849 7.61287 14.7457 8.09242C14.5059 8.2123 14.2661 8.09242 14.1463 8.09242L11.3889 5.33504C11.3889 5.33504 11.269 5.33504 11.1491 5.33504L5.51446 11.0896C5.51446 11.0896 5.51446 11.2095 5.51446 11.3293L8.27184 14.0867C8.39172 14.2066 8.51161 14.5663 8.27184 14.6861C7.67241 15.7651 7.31275 16.7242 6.83321 17.6833C6.59344 18.1628 6.47355 18.7623 6.23378 19.2418C6.11389 19.7214 5.99401 20.2009 5.75424 20.8003C5.75424 21.0401 5.51446 21.16 5.27469 21.16H1.43834L0.838911 20.9202L1.31845 21.16V29.1923C1.31845 29.1923 1.31846 29.3122 1.43834 29.4321H5.39458C5.63435 29.4321 5.87412 29.552 5.87412 29.7918V30.0315C6.23377 31.3503 6.71333 32.5491 7.19287 33.748C7.55253 34.4673 7.91219 35.0667 8.39173 35.9059C8.51161 36.1457 8.39173 36.3855 8.39173 36.5054L5.63435 39.2628C5.63435 39.3826 5.63435 39.5025 5.63435 39.5025L11.3889 45.1372C11.3889 45.1372 11.5088 45.1372 11.6286 45.1372L14.386 42.3798C14.5059 42.2599 14.8656 42.14 14.9855 42.3798C15.5849 42.7394 16.0644 42.9792 16.7837 43.3389C17.7428 43.8184 18.582 44.1781 19.5411 44.4179C20.0207 44.5377 20.5002 44.6576 21.0996 44.8974C21.3394 44.8974 21.4593 45.1372 21.4593 45.3769V49.2133V49.3332H29.6115C29.6115 49.3332 29.7314 49.3332 29.8513 49.3332V45.3769C29.8513 45.1372 30.0911 44.8974 30.3309 44.8974C30.5706 44.8974 30.8104 45.1372 30.8104 45.3769V49.2133C30.8104 49.3332 30.8104 49.5729 30.8104 49.6928C30.5706 50.1724 30.211 50.4122 29.6115 50.532H21.5792H21.9388Z" fill="#D64794"/>
<path d="M20.1405 37.9441C20.1405 37.9441 20.0206 37.9441 19.9007 37.9441C18.582 37.2248 17.2633 36.3856 16.1843 35.3066C13.4269 32.5493 11.9883 28.9527 11.9883 25.1163C11.9883 21.28 13.4269 17.6834 16.1843 14.926C16.1843 14.926 16.4241 14.8062 16.544 14.8062C16.6638 14.8062 16.7837 14.8062 16.9036 14.926L17.7428 15.7652L18.7019 11.4493L14.386 12.4084L15.2252 13.2476C15.465 13.4874 15.465 13.8471 15.2252 13.967C14.9854 14.0868 14.6258 14.2067 14.5059 13.967L12.9474 12.4084C12.8275 12.2885 12.7076 12.0488 12.8275 11.9289C12.8275 11.6891 13.0673 11.5692 13.1871 11.5692L19.3013 10.2505C19.4212 10.2505 19.661 10.2505 19.7809 10.3704C19.9008 10.4903 20.0206 10.73 19.9007 10.8499L18.582 16.9641C18.582 17.2039 18.3422 17.3238 18.2223 17.3238C17.9826 17.3238 17.8627 17.3238 17.7428 17.2039L16.6638 16.1249C14.386 18.6425 13.1871 21.7595 13.1871 25.1163C13.1871 28.4732 14.6258 31.9498 17.0235 34.4675C17.9826 35.4265 19.1814 36.2657 20.3803 36.9851C20.6201 37.1049 20.74 37.4646 20.6201 37.7044C20.6201 37.9441 20.3803 37.9441 20.1405 37.9441Z" fill="#D64794"/>
<path d="M33.2068 39.9814C33.0869 39.9814 32.9671 39.9814 32.8472 39.8615C32.7273 39.7416 32.6074 39.5019 32.7273 39.382L34.046 33.2678C34.046 33.028 34.2858 32.9081 34.4057 32.9081C34.6455 32.9081 34.7653 32.9081 34.8852 33.028L35.9642 34.107C38.242 31.5894 39.4409 28.4724 39.4409 25.1156C39.4409 21.7587 38.0023 18.2821 35.6045 15.7644C33.2068 13.2468 33.4466 13.9662 32.2477 13.2468C32.008 13.127 31.8881 12.7673 32.008 12.5275C32.1279 12.2878 32.4875 12.1679 32.7273 12.2878C34.046 13.0071 35.3648 13.8463 36.4437 14.9252C39.2011 17.6826 40.6398 21.2792 40.6398 25.1156C40.6398 28.9519 39.2011 32.5485 36.4437 35.3058C36.4437 35.3058 36.204 35.4257 36.0841 35.4257C35.9642 35.4257 35.8443 35.4257 35.7244 35.3058L34.8852 34.4667L33.9262 38.7825L38.242 37.8235L37.4028 36.9843C37.1631 36.7445 37.1631 36.3848 37.4028 36.2649C37.6426 36.1451 38.0023 36.0252 38.1222 36.2649L39.6807 37.8235C39.8005 37.9433 39.9204 38.1831 39.8006 38.303C39.8006 38.5428 39.5608 38.6627 39.4409 38.6627L33.3267 39.9814H33.2068Z" fill="#D64794"/>
</svg>
