<svg width="50" height="50" viewBox="0 0 50 50" fill="none" xmlns="http://www.w3.org/2000/svg">
<circle cx="25" cy="25" r="25" fill="#F1FAFE"/>
<g clip-path="url(#clip0_15881_38050)">
<path d="M21.7334 33.3454C21.6269 33.3454 21.5393 33.2579 21.537 33.1488L21.5093 32.0486C21.5093 32.0486 21.5093 32.0452 21.5093 32.043C21.5093 32.002 21.4982 31.9634 21.4783 31.9282C21.4783 31.9282 21.4783 31.927 21.4772 31.9259L19.8479 29.0881C19.7558 28.9324 19.707 28.7551 19.707 28.5732L19.7348 24.3489C19.7348 23.9693 19.9699 23.6897 20.3071 23.6693L20.5156 23.6568C21.0757 23.625 21.5792 24.0261 21.6868 24.591C21.6868 24.591 21.6868 24.5932 21.6868 24.5944L21.7389 24.8956L21.8709 20.6019C21.8764 19.962 22.2979 19.4984 22.8746 19.4984C23.1009 19.4984 23.3027 19.5688 23.4669 19.7029V19.5006C23.4758 18.8608 23.9272 18.3789 24.5194 18.3789C25.1117 18.3789 25.5842 18.8653 25.5975 19.487L25.6607 25.1797C25.6618 25.2911 25.5742 25.382 25.4655 25.3842H25.4633C25.3557 25.3842 25.2681 25.2956 25.2658 25.1842L25.2026 19.4938C25.1938 19.0892 24.8998 18.7824 24.5183 18.7824C24.1368 18.7824 23.8662 19.0858 23.8617 19.504L23.8162 25.3467C23.8162 25.4581 23.7275 25.5468 23.6188 25.5468H23.6177C23.509 25.5468 23.4214 25.4547 23.4225 25.3433L23.4558 20.6189C23.458 20.3882 23.3904 20.1893 23.265 20.0586C23.1641 19.9541 23.0321 19.9007 22.8746 19.9007C22.4587 19.9007 22.2668 20.2655 22.2646 20.6053C22.2646 20.6064 22.2646 20.6087 22.2646 20.6098L22.0217 28.4891C22.0184 28.5983 21.9308 28.6846 21.8254 28.6846C21.8254 28.6846 21.8232 28.6846 21.8221 28.6846C21.7145 28.6824 21.628 28.5926 21.628 28.4823V26.5526L21.2986 24.6648C21.2287 24.2978 20.9004 24.0364 20.5366 24.058L20.3281 24.0705C20.1418 24.0807 20.1274 24.2853 20.1274 24.3478L20.0997 28.5721C20.0997 28.6789 20.1285 28.7846 20.1839 28.8778C20.1839 28.8778 20.1839 28.879 20.1851 28.8801L21.8143 31.7179C21.8709 31.8145 21.9019 31.9248 21.9019 32.0384L21.9297 33.1363C21.933 33.2476 21.8465 33.3408 21.7378 33.3431C21.7356 33.3431 21.7345 33.3431 21.7322 33.3431L21.7334 33.3454Z" fill="#00173D"/>
<path d="M27.2094 25.5396C27.1007 25.5396 27.012 25.4487 27.012 25.3373V24.6895L26.8389 20.3686C26.8389 20.3686 26.8389 20.3663 26.8389 20.3652C26.8312 20.031 26.5605 19.7628 26.2356 19.7628C26.2334 19.7628 26.2323 19.7628 26.23 19.7628C26.067 19.764 25.9162 19.831 25.803 19.9504C25.6899 20.0697 25.63 20.2277 25.6333 20.3936C25.6333 20.3936 25.6333 20.3959 25.6333 20.397L25.6611 25.1816C25.6611 25.293 25.5746 25.3839 25.4648 25.3851H25.4636C25.355 25.3851 25.2673 25.2953 25.2662 25.1839L25.2385 20.4015C25.233 20.1265 25.3328 19.8674 25.5191 19.6696C25.7065 19.4719 25.9572 19.3616 26.2256 19.3594C26.2289 19.3594 26.2323 19.3594 26.2356 19.3594C26.7724 19.3594 27.2182 19.8037 27.2327 20.3538L27.4057 24.677C27.4057 24.677 27.4057 24.6827 27.4057 24.685V25.3362C27.4057 25.4476 27.317 25.5385 27.2083 25.5385L27.2094 25.5396Z" fill="#00173D"/>
<path d="M27.8462 33.3472C27.7375 33.3472 27.6488 33.2562 27.6488 33.1449V33.0858C27.6488 32.3527 27.7786 32.1118 27.9937 31.714C28.0702 31.5731 28.1556 31.4129 28.2555 31.1969C28.698 30.2389 28.8877 29.1751 28.8045 28.1193L28.3719 21.7402C28.352 21.4379 28.1035 21.2003 27.8085 21.2003C27.6832 21.2003 27.5601 21.2583 27.4614 21.3628C27.356 21.4754 27.2961 21.6277 27.3005 21.7708C27.305 21.8822 27.2196 21.9754 27.1109 21.98C27.0022 21.9834 26.9112 21.897 26.9068 21.7856C26.8979 21.531 26.9966 21.2753 27.1774 21.0833C27.3516 20.8992 27.5756 20.7969 27.8085 20.7969C28.3109 20.7969 28.7313 21.1992 28.7657 21.7118L29.1982 28.0886C29.2869 29.2126 29.084 30.348 28.6115 31.3697C28.5061 31.597 28.413 31.7697 28.3386 31.9084C28.1357 32.2845 28.0436 32.4562 28.0436 33.0846V33.1437C28.0436 33.2551 27.9549 33.346 27.8462 33.346V33.3472Z" fill="#00173D"/>
<path d="M28.3136 34.9996C28.2049 34.9996 28.1162 34.9087 28.1162 34.7973V33.346H21.4261V34.7973C21.4261 34.9087 21.3374 34.9996 21.2287 34.9996C21.12 34.9996 21.0312 34.9087 21.0312 34.7973V33.1437C21.0312 33.0323 21.12 32.9414 21.2287 32.9414H28.3125C28.4212 32.9414 28.5099 33.0323 28.5099 33.1437V34.7973C28.5099 34.9087 28.4212 34.9996 28.3125 34.9996H28.3136Z" fill="#00173D"/>
<path d="M29.8973 29.897L29.0155 29.8914C28.9068 29.8914 28.8192 29.7993 28.8203 29.6879C28.8214 29.5765 28.9102 29.4868 29.0189 29.4879L29.8995 29.4936C30.0015 29.4936 30.1013 29.4652 30.1901 29.4118L32.3961 27.7468C32.3961 27.7468 32.406 27.74 32.4105 27.7366C32.5048 27.6775 32.6134 27.6456 32.7244 27.6456L33.7957 27.6172C33.9044 27.615 33.9954 27.7025 33.9976 27.8138C34.0009 27.9252 33.9144 28.0184 33.8057 28.0207L32.7321 28.0491C32.6933 28.0491 32.6556 28.0582 32.6212 28.0775L30.4152 29.7425C30.4152 29.7425 30.4052 29.7493 30.4008 29.7527C30.2488 29.847 30.0747 29.897 29.8973 29.897Z" fill="#00173D"/>
<path d="M33.8015 21.7568H33.7438C33.0284 21.7568 32.7933 21.6238 32.4051 21.4033C32.2676 21.3249 32.1112 21.2374 31.9005 21.1351C30.9222 20.6601 30.4586 20.4896 29.4527 20.5725L27.1125 20.7396C27.0038 20.7464 26.9095 20.6635 26.9029 20.5521C26.8951 20.4407 26.9772 20.3441 27.0859 20.3362L29.4238 20.1691C30.513 20.0793 31.0664 20.2827 32.069 20.7703C32.2909 20.8783 32.4594 20.9737 32.5959 21.0499C32.963 21.2578 33.1305 21.3522 33.7438 21.3522H33.8015C33.9101 21.3522 33.9989 21.4431 33.9989 21.5545C33.9989 21.6658 33.9101 21.7568 33.8015 21.7568Z" fill="#00173D"/>
<path d="M33.8029 28.5345C33.6942 28.5345 33.6055 28.4435 33.6055 28.3322V21.0734C33.6055 20.962 33.6942 20.8711 33.8029 20.8711C33.9116 20.8711 34.0003 20.962 34.0003 21.0734V28.3322C34.0003 28.4435 33.9116 28.5345 33.8029 28.5345Z" fill="#00173D"/>
<path d="M29.2238 20.5869C29.1573 20.5869 29.093 20.5528 29.0553 20.4903L27.7376 18.2787C27.68 18.1809 27.6489 18.0707 27.6489 17.957L27.6212 16.8592C27.6179 16.7478 27.7044 16.6546 27.8131 16.6523C27.8153 16.6523 27.8164 16.6523 27.8186 16.6523C27.9251 16.6523 28.0127 16.7399 28.0149 16.849L28.0426 17.9491C28.0426 17.9491 28.0426 17.9525 28.0426 17.9548C28.0426 17.9957 28.0537 18.0343 28.0737 18.0696L29.3913 20.28C29.4479 20.3755 29.419 20.4994 29.3259 20.5573C29.2937 20.5778 29.2582 20.5869 29.2238 20.5869Z" fill="#00173D"/>
<path d="M20.5846 20.238C20.5724 20.238 20.5591 20.2368 20.5457 20.2346C20.4393 20.213 20.3694 20.1073 20.3905 19.997C20.4958 19.4504 20.7421 18.9174 20.9406 18.4889C21.0681 18.2116 21.1768 18.0343 21.2633 17.8911C21.4375 17.6059 21.5084 17.4877 21.5084 16.9137V16.8546C21.5084 16.7433 21.5972 16.6523 21.7059 16.6523C21.8146 16.6523 21.9033 16.7433 21.9033 16.8546V16.9137C21.9033 17.574 21.8046 17.7661 21.5983 18.1048C21.5162 18.2389 21.4153 18.406 21.2966 18.6617C21.1081 19.0697 20.8729 19.5777 20.7775 20.0755C20.7587 20.1721 20.6766 20.238 20.5846 20.238Z" fill="#00173D"/>
<path d="M28.3203 17.0571H21.2365C21.1278 17.0571 21.0391 16.9661 21.0391 16.8548V15.2023C21.0391 15.0909 21.1278 15 21.2365 15C21.3452 15 21.4339 15.0909 21.4339 15.2023V16.6536H28.124V15.2023C28.124 15.0909 28.2127 15 28.3214 15C28.4301 15 28.5188 15.0909 28.5188 15.2023V16.8559C28.5188 16.9093 28.4978 16.9605 28.4612 16.9991C28.4246 17.0366 28.3747 17.0582 28.3214 17.0582L28.3203 17.0571Z" fill="#00173D"/>
<path d="M22.0217 22.289C22.0217 22.289 22.0173 22.289 22.0151 22.289L19.1791 22.197C19.0715 22.1936 18.9861 22.1027 18.9883 21.9924C18.9905 21.8822 19.0782 21.7935 19.1857 21.7935H21.069L21.994 21.6242C22.1016 21.6049 22.2036 21.6776 22.2225 21.7879C22.2336 21.8526 22.2136 21.9151 22.1737 21.9606C22.2025 21.997 22.2191 22.0436 22.218 22.0947C22.2147 22.2038 22.1271 22.2902 22.0217 22.2902V22.289Z" fill="#00173D"/>
<path d="M15.1964 22.104C15.0899 22.104 15.0023 22.0165 15.0001 21.9074C14.9968 21.796 15.0833 21.7028 15.192 21.7006L16.2656 21.6722C16.3044 21.6722 16.3421 21.6631 16.3765 21.6437L18.5814 19.9788C18.5814 19.9788 18.5914 19.972 18.5958 19.9686C18.7477 19.8742 18.9219 19.8242 19.0993 19.8242L22.1649 19.8447C22.2736 19.8447 22.3612 19.9367 22.3601 20.0481C22.3601 20.1595 22.2714 20.2481 22.1627 20.2481H22.1616L19.0982 20.2277C18.9962 20.2277 18.8953 20.2561 18.8076 20.3095L16.6016 21.9745C16.6016 21.9745 16.5917 21.9813 16.5872 21.9847C16.4929 22.0438 16.3843 22.0756 16.2733 22.0756L15.2019 22.104C15.2019 22.104 15.1986 22.104 15.1964 22.104Z" fill="#00173D"/>
<path d="M19.107 29.5691C18.3051 29.5691 17.7783 29.36 16.9287 28.9474C16.7069 28.8394 16.5383 28.744 16.403 28.6678C16.0359 28.4599 15.8684 28.3655 15.2551 28.3655H15.1974C15.0887 28.3655 15 28.2746 15 28.1632C15 28.0519 15.0887 27.9609 15.1974 27.9609H15.2551C15.9705 27.9609 16.2056 28.0939 16.5938 28.3144C16.7313 28.3928 16.8877 28.4803 17.0984 28.5826C18.0766 29.0577 18.5402 29.2281 19.5462 29.1452L20.1385 29.1031C20.2472 29.0952 20.3414 29.1793 20.3481 29.2906C20.3558 29.402 20.2738 29.4986 20.1651 29.5054L19.5739 29.5475C19.4065 29.5611 19.2523 29.5679 19.107 29.5679V29.5691Z" fill="#00173D"/>
<path d="M15.1974 28.847C15.0887 28.847 15 28.756 15 28.6447V21.3859C15 21.2745 15.0887 21.1836 15.1974 21.1836C15.3061 21.1836 15.3948 21.2745 15.3948 21.3859V28.6447C15.3948 28.756 15.3061 28.847 15.1974 28.847Z" fill="#00173D"/>
</g>
<defs>
<clipPath id="clip0_15881_38050">
<rect width="19" height="20" fill="white" transform="translate(15 15)"/>
</clipPath>
</defs>
</svg>
