<svg width="50" height="51" viewBox="0 0 50 51" fill="none" xmlns="http://www.w3.org/2000/svg">
<circle cx="25" cy="25.75" r="25" fill="#F1FAFE"/>
<g clip-path="url(#clip0_19637_25822)">
<path d="M27.1644 29.1409C26.3451 29.1409 25.5259 28.7719 25.0631 28.3905C24.9443 28.2967 24.9255 28.1216 25.0256 28.0027C25.1257 27.8839 25.2945 27.8651 25.4133 27.9652C25.8073 28.2904 26.5578 28.6156 27.2644 28.5906C28.0149 28.5531 28.5277 28.2028 28.634 27.6525C28.7278 27.146 28.6215 26.5456 27.0768 25.914C26.2826 25.5888 25.3758 25.0822 25.3571 24.0942C25.3445 23.4 25.8886 22.5933 26.9205 22.4682C27.6584 22.3744 28.5715 22.6433 28.9592 22.9497C29.078 23.0435 29.0968 23.2186 29.003 23.3375C28.9092 23.4563 28.7341 23.475 28.6152 23.3812C28.3901 23.2061 27.6584 22.9372 26.9893 23.0123C26.2764 23.0998 25.9011 23.6314 25.9074 24.0816C25.9074 24.4569 26.0825 24.9009 27.2832 25.4012C28.2901 25.8139 29.4157 26.4581 29.1718 27.7526C29.053 28.3842 28.4964 29.0846 27.2832 29.1409C27.2394 29.1409 27.2019 29.1409 27.1581 29.1409H27.1644Z" fill="#253E66"/>
<path d="M27.1384 30.5982C26.9884 30.5982 26.8633 30.4731 26.8633 30.323V28.9597C26.8633 28.8096 26.9884 28.6846 27.1384 28.6846C27.2885 28.6846 27.4136 28.8096 27.4136 28.9597V30.323C27.4136 30.4731 27.2885 30.5982 27.1384 30.5982Z" fill="#253E66"/>
<path d="M27.1384 22.9246C26.9884 22.9246 26.8633 22.7995 26.8633 22.6494V21.2986C26.8633 21.1485 26.9884 21.0234 27.1384 21.0234C27.2885 21.0234 27.4136 21.1485 27.4136 21.2986V22.6494C27.4136 22.7995 27.2885 22.9246 27.1384 22.9246Z" fill="#253E66"/>
<path d="M25.2192 39.0471C25.1316 39.0471 25.0503 39.0283 24.969 38.997C24.9315 38.9783 24.8877 38.9595 24.8565 38.9345C24.7501 38.8657 24.6688 38.7656 24.6188 38.6468C24.5876 38.5718 24.5688 38.478 24.5688 38.3967V36.6144C24.3499 36.5581 24.1435 36.508 23.9247 36.433C23.3931 36.2641 22.9053 36.0703 22.3862 35.8201C22.0861 35.6763 21.8484 35.545 21.5983 35.3949L20.3413 36.6581C20.3413 36.6581 20.2787 36.7144 20.2475 36.7394C20.2225 36.7582 20.1787 36.7832 20.1286 36.802C19.9285 36.8895 19.6909 36.8645 19.5095 36.7394C19.4783 36.7207 19.447 36.6894 19.4157 36.6644L16.4452 33.7126C16.2889 33.5563 16.2263 33.3437 16.2638 33.1248C16.2889 32.9934 16.3514 32.8809 16.4452 32.7808L17.7022 31.5176C17.4896 31.1611 17.327 30.8609 17.1644 30.517C16.8705 29.8916 16.6328 29.235 16.464 28.5658H14.6691C14.5816 28.5658 14.494 28.5533 14.419 28.522C14.1751 28.422 14.0125 28.1843 14.0125 27.9154L14 23.7192C14 23.6316 14.0188 23.5503 14.05 23.469C14.0625 23.4315 14.0876 23.394 14.1126 23.3565C14.1876 23.2439 14.2877 23.1626 14.4065 23.1126C14.4815 23.0813 14.5691 23.0625 14.6566 23.0625H16.439C16.4952 22.8437 16.5453 22.6373 16.6203 22.4184C16.7141 22.1182 16.8204 21.8243 16.9392 21.5304C17.1456 21.0363 17.3833 20.5548 17.6584 20.092L16.3952 18.835C16.3326 18.7725 16.2826 18.7037 16.2513 18.6224C16.1825 18.4661 16.1825 18.2784 16.2513 18.1158C16.2889 18.0345 16.3326 17.9658 16.3952 17.9032L19.422 14.8702C19.472 14.8326 19.5158 14.8076 19.5533 14.7889C19.7597 14.7013 19.9973 14.7263 20.1787 14.8514C20.2162 14.8764 20.2412 14.9014 20.2725 14.9264L21.542 16.1834C21.8985 15.9708 22.1986 15.8082 22.5488 15.6456C23.1742 15.3517 23.8309 15.1141 24.5 14.9452V13.1691C24.5 13.0816 24.5125 12.994 24.5438 12.919C24.6438 12.6751 24.8815 12.5125 25.1504 12.5125L29.3404 12.5C29.7031 12.5 29.997 12.7939 29.997 13.1566V15.1578C30.0033 15.3079 29.8782 15.433 29.7281 15.433C29.578 15.433 29.4529 15.3079 29.4529 15.1578V13.1566C29.4467 13.1004 29.4029 13.0566 29.3404 13.0566L25.1504 13.0691C25.1066 13.0691 25.0691 13.0941 25.0503 13.1316V15.1703C25.0503 15.2954 24.9628 15.408 24.8377 15.4392L24.7376 15.4643C24.0622 15.6269 23.4056 15.8645 22.774 16.1584C22.3862 16.3398 22.061 16.5211 21.6358 16.7775C21.5295 16.8463 21.3856 16.8276 21.2981 16.74L19.8785 15.3329C19.8347 15.3017 19.7972 15.2954 19.7659 15.3079L19.7159 15.3454L16.7829 18.3035C16.7516 18.3597 16.7516 18.391 16.7579 18.416L18.1962 19.8606C18.2838 19.9482 18.3026 20.092 18.24 20.1983L18.1837 20.2859C17.9023 20.7549 17.6522 21.2427 17.4458 21.7493C17.3332 22.0307 17.2332 22.3058 17.1394 22.5935C17.0518 22.8749 16.9893 23.1188 16.9205 23.4065C16.8892 23.5316 16.7829 23.6191 16.6516 23.6191H14.6566L14.344 23.5191L14.5753 23.6691C14.5753 23.6691 14.5566 23.7254 14.5566 23.7317L14.5691 27.9217C14.5691 27.9655 14.5941 28.003 14.6316 28.0155H16.6703C16.7954 28.0155 16.908 28.103 16.9392 28.2281L16.9643 28.3282C17.1269 29.0036 17.3645 29.6602 17.6584 30.2918C17.8398 30.6733 18.0211 31.0048 18.2775 31.43C18.3463 31.5363 18.3276 31.6802 18.24 31.7677L16.8329 33.1873C16.7954 33.2749 16.8079 33.3061 16.8329 33.3312L19.8035 36.2829C19.8472 36.3142 19.891 36.3204 19.916 36.3079L21.3544 34.8696C21.4419 34.782 21.5858 34.7633 21.6921 34.8258C21.9985 35.0071 22.2674 35.1635 22.6239 35.3386C23.1179 35.5762 23.587 35.7638 24.0873 35.9202C24.3687 36.0077 24.6126 36.0703 24.9002 36.1391C25.0253 36.1703 25.1129 36.2767 25.1129 36.408V38.4092L25.1629 38.4967H29.4092C29.4592 38.4967 29.4967 38.4655 29.5092 38.4404V36.4017C29.5092 36.2516 29.6593 36.1266 29.7844 36.1266C29.9345 36.1266 30.0596 36.2516 30.0596 36.4017V38.4029C30.0658 38.4905 30.0471 38.5718 30.0158 38.6531C29.9157 38.897 29.6781 39.0596 29.4092 39.0596L25.2192 39.0721V39.0471Z" fill="#253E66"/>
<path d="M24.2627 32.4805C24.2189 32.4805 24.1751 32.468 24.1376 32.4492C23.4309 32.0927 22.7868 31.6237 22.224 31.0609C20.8106 29.6475 20.0352 27.7714 20.0352 25.7702C20.0352 23.769 20.8106 21.8929 22.224 20.4796C22.274 20.4295 22.349 20.3983 22.4178 20.3983C22.4929 20.3983 22.5617 20.4295 22.6117 20.4796L23.0244 20.8923L23.531 18.641L21.2796 19.1475L21.7174 19.5853C21.8237 19.6916 21.8237 19.8667 21.7174 19.9793C21.6111 20.0918 21.436 20.0856 21.3234 19.9793L20.5292 19.1851C20.4604 19.1163 20.4291 19.0099 20.4604 18.9099C20.4917 18.8098 20.5667 18.741 20.6668 18.716L23.8374 18.0031C23.9312 17.9843 24.025 18.0094 24.0938 18.0781C24.1626 18.1469 24.1876 18.2407 24.1689 18.3345L23.4559 21.5052C23.4309 21.6052 23.3621 21.6803 23.2621 21.7116C23.162 21.7366 23.062 21.7116 22.9869 21.6428L22.4178 21.0737C21.2296 22.3557 20.5792 24.0129 20.5792 25.7702C20.5792 27.6213 21.2984 29.3599 22.6117 30.6669C23.1307 31.1859 23.7311 31.6237 24.3815 31.9489C24.5191 32.0177 24.5691 32.1865 24.5003 32.3179C24.4503 32.4117 24.3565 32.468 24.2564 32.468L24.2627 32.4805Z" fill="#253E66"/>
<path d="M31.1349 33.5498C31.0599 33.5498 30.9911 33.5186 30.9411 33.4685C30.8723 33.3998 30.8473 33.306 30.866 33.2121L31.579 30.0415C31.604 29.9414 31.6728 29.8664 31.7728 29.8351C31.8666 29.8101 31.9729 29.8351 32.048 29.9039L32.6171 30.473C33.8053 29.191 34.4557 27.5338 34.4557 25.7702C34.4557 23.9191 33.7365 22.1806 32.4232 20.8736C31.9041 20.3545 31.3038 19.9167 30.6534 19.5915C30.5158 19.5227 30.4658 19.3539 30.5346 19.2226C30.6034 19.085 30.766 19.0287 30.9036 19.1037C31.6102 19.4602 32.2544 19.9292 32.8172 20.4921C34.2305 21.9054 35.006 23.7815 35.006 25.7827C35.006 27.7839 34.2305 29.66 32.8172 31.0734C32.7672 31.1234 32.6921 31.1547 32.6233 31.1547C32.5483 31.1547 32.4795 31.1234 32.4295 31.0734L32.0167 30.6606L31.5102 32.912L33.7615 32.4054L33.3237 31.9677C33.2174 31.8613 33.2174 31.6862 33.3237 31.5737C33.4301 31.4611 33.6052 31.4674 33.7177 31.5737L34.5119 32.3679C34.5807 32.4367 34.612 32.543 34.5807 32.6431C34.5495 32.7431 34.4744 32.8119 34.3744 32.8369L31.2037 33.5498C31.2037 33.5498 31.1662 33.5561 31.1412 33.5561L31.1349 33.5498Z" fill="#253E66"/>
</g>
<defs>
<clipPath id="clip0_19637_25822">
<rect width="21" height="26.5471" fill="white" transform="translate(14 12.5)"/>
</clipPath>
</defs>
</svg>
