<svg width="53" height="53" viewBox="0 0 53 53" fill="none" xmlns="http://www.w3.org/2000/svg">
<path d="M38.7839 50.4562H34.8442L34.4861 46.7553C34.4861 46.7553 34.4861 46.7553 34.4861 46.6359C33.2922 46.3971 32.2178 45.9196 31.1433 45.3227C31.1433 45.3227 31.1433 45.3227 31.0239 45.3227L28.1587 47.591L25.4129 44.8451L27.6812 41.9799C27.6812 41.9799 27.6812 41.9799 27.6812 41.8605C27.0843 40.9055 26.6067 39.831 26.3679 38.6372H26.1292L22.7864 38.1596V34.22L26.4873 33.7424C26.7261 32.5486 27.2036 31.4741 27.8006 30.5191C27.8006 30.5191 27.8006 30.5191 27.8006 30.3997L25.5323 27.5345L28.2781 24.7887L31.1433 27.0569C31.1433 27.0569 31.1433 27.0569 31.2627 27.0569C32.3371 26.3406 33.4116 25.9825 34.6054 25.7437C34.6054 25.7437 34.6054 25.7437 34.6054 25.6243L34.9636 21.9234H38.9032L39.2614 25.6243C39.2614 25.6243 39.2614 25.6243 39.2614 25.7437C40.4553 25.9825 41.5297 26.46 42.6042 27.0569C42.6042 27.0569 42.6042 27.0569 42.7235 27.0569L45.5887 24.7887L48.3346 27.5345L46.0663 30.3997C46.0663 30.3997 46.0663 30.3997 46.0663 30.5191C46.6632 31.5935 47.1407 32.5486 47.3795 33.7424C47.3795 33.7424 47.3795 33.7424 47.4989 33.7424L51.1998 34.1006V38.0403L47.4989 38.3984C47.2601 39.5923 46.7826 40.6667 46.1857 41.7412V41.8605L48.454 44.7257L45.7081 47.4716L42.9623 45.2033H42.8429C41.7685 45.9196 40.694 46.3971 39.5002 46.6359C39.5002 46.6359 39.5002 46.6359 39.5002 46.7553L39.142 50.4562H38.7839ZM35.9187 49.2623H37.7094L37.9482 46.7553C37.9482 46.1584 38.4257 45.6808 39.0226 45.5614C40.0971 45.3227 41.0522 44.8451 42.0072 44.2482C42.6042 43.8901 43.3204 44.0094 43.6786 44.487L45.35 45.9196L46.6632 44.6064L45.1112 42.6962C44.7531 42.3381 44.6337 41.6218 44.9918 41.1442C45.5887 40.1892 45.9469 39.2341 46.1857 38.1596C46.3051 37.5627 46.7826 37.2046 47.3795 37.0852L50.006 36.8464V35.0557L47.4989 34.8169C46.902 34.8169 46.4244 34.3394 46.3051 33.8618C46.0663 32.9068 45.7081 31.9517 45.1112 31.116C44.7531 30.7578 44.7531 30.0415 45.1112 29.564L45.35 29.3252L46.7826 27.4151L45.5887 26.2213L43.5592 27.7732C43.2011 28.1314 42.4848 28.2508 42.0072 27.8926C41.0522 27.2957 40.0971 26.9376 39.0226 26.6988C38.4257 26.5794 37.9482 25.9825 37.9482 25.3856V25.1468L37.7094 22.8785H35.9187L35.6799 25.3856C35.6799 25.9825 35.2023 26.46 34.6054 26.5794C33.6504 26.8182 32.6953 27.1763 31.7402 27.7732C31.2627 28.1314 30.5464 28.1314 30.0689 27.7732L29.8301 27.5345L28.0393 26.1019L26.7261 27.4151L28.3975 29.4446C28.7556 29.9222 28.7556 30.5191 28.3975 30.9966C27.8006 31.8323 27.4424 32.7874 27.2036 33.8618C27.0843 34.3394 26.6067 34.8169 26.1292 34.8169H25.8904L23.5027 35.175V36.9658L26.2486 37.324C26.7261 37.324 27.2037 37.8015 27.323 38.279C27.5618 39.2341 27.92 40.1892 28.5169 41.1442C28.7556 41.6218 28.7556 42.2187 28.5169 42.6962L26.8455 44.8451L28.0393 46.039L30.0689 44.3676C30.5464 44.0095 31.1433 44.0095 31.6208 44.3676C32.4565 44.9645 33.4116 45.3227 34.4861 45.5614C35.2024 45.6808 35.5605 46.2777 35.5605 46.8747V47.1134L35.7993 49.3817L35.9187 49.2623ZM1.05859 42.935V41.7412H4.99825V26.6988H12.1613V13.686H19.3243V3.18018H27.6812V9.86567H34.8442V15.8349H42.0072V25.0274H40.8134V17.0287H34.8442V20.849H33.6504V11.0595H27.6812V22.6397H26.4873V4.25463H20.5181V42.8156H1.05859V42.935ZM13.3551 41.7412H19.3243V14.8798H13.3551V41.7412ZM6.19208 41.7412H12.1613V27.8926H6.19208V41.7412Z" fill="#D64794"/>
<path d="M36.8754 41.9799C35.3235 41.9799 33.7715 41.383 32.697 40.1891C31.6226 39.1147 30.9062 37.5627 30.9062 36.0107C30.9062 32.7873 33.5327 30.0415 36.8754 30.0415C40.0988 30.0415 42.8446 32.668 42.8446 36.0107C42.8446 39.2341 40.2182 41.9799 36.8754 41.9799ZM36.8754 31.3547C34.249 31.3547 32.1001 33.5036 32.1001 36.1301C32.1001 37.4433 32.5776 38.6371 33.5327 39.4728C34.4877 40.3085 35.5622 40.9054 36.8754 40.9054C39.5019 40.9054 41.6508 38.7565 41.6508 36.1301C41.6508 33.5036 39.5019 31.3547 36.8754 31.3547Z" fill="#D64794"/>
</svg>
