<svg width="152" height="33" viewBox="0 0 152 33" fill="none" xmlns="http://www.w3.org/2000/svg">
<g clip-path="url(#clip0_7896_50727)">
<mask id="mask0_7896_50727" style="mask-type:luminance" maskUnits="userSpaceOnUse" x="0" y="0" width="152" height="33">
<path d="M151.336 0H0.335938V33H151.336V0Z" fill="white"/>
</mask>
<g mask="url(#mask0_7896_50727)">
<path d="M26.8882 8.58579L21.9931 25.5923H16.483L13.9769 15.6272C13.8046 14.9143 13.7101 14.1849 13.6949 13.4516H13.5952C13.5431 14.1627 13.4329 14.8682 13.2654 15.5612L10.5755 25.5923H5.13463L0.335938 8.58579H5.67954L8.01994 19.6796C8.14384 20.306 8.22646 20.9398 8.26725 21.5771H8.367C8.40433 20.9157 8.50426 20.2594 8.66543 19.6169L11.5862 8.58909H16.5811L19.2051 19.6796C19.3179 20.3169 19.3955 20.96 19.4375 21.6059H19.5538C19.6095 20.9597 19.6981 20.3168 19.8192 19.6796L22.0261 8.58496L26.8882 8.58579Z" fill="#2196F3"/>
<path d="M32.4669 5.43932C31.6671 5.47072 30.8869 5.18763 30.293 4.65062C30.0215 4.40777 29.8054 4.10931 29.6593 3.77551C29.5133 3.44171 29.4406 3.08037 29.4464 2.716C29.4356 2.35201 29.5061 1.99019 29.6525 1.65684C29.7989 1.32348 30.0177 1.02696 30.293 0.7888C30.9159 0.304591 31.6822 0.041748 32.471 0.041748C33.2598 0.041748 34.0261 0.304591 34.649 0.7888C34.922 1.02838 35.1386 1.32539 35.2834 1.65857C35.4282 1.99174 35.4976 2.35284 35.4866 2.716C35.4977 3.08389 35.4285 3.44978 35.2838 3.78817C35.1392 4.12657 34.9225 4.42933 34.649 4.67537C34.0464 5.20061 33.2652 5.4741 32.4669 5.43932ZM35.0563 25.1362H29.8116V8.12965H35.0563V25.1362Z" fill="#2196F3"/>
<path d="M38.6588 24.7294V20.4773C39.4661 20.9728 40.3331 21.3635 41.239 21.6398C42.0268 21.8836 42.8456 22.0123 43.6701 22.0217C44.4219 22.0546 45.172 21.9243 45.8687 21.6398C46.1054 21.5514 46.3094 21.3927 46.4533 21.1849C46.5971 20.9771 46.6739 20.7301 46.6733 20.4773C46.6768 20.3206 46.646 20.1649 46.5829 20.0214C46.5198 19.8778 46.426 19.7499 46.3081 19.6466C46.0288 19.4044 45.7119 19.2093 45.37 19.0691C44.962 18.8936 44.5435 18.7437 44.1169 18.6203C43.663 18.4877 43.2261 18.3384 42.8062 18.1723C42.1909 17.9443 41.5944 17.6685 41.0222 17.3473C40.5389 17.0785 40.1019 16.7336 39.728 16.3259C39.3771 15.9339 39.1065 15.4767 38.9316 14.9804C38.7375 14.3969 38.6449 13.7843 38.6579 13.1695C38.6348 12.3084 38.8506 11.4577 39.2812 10.7118C39.6943 10.0273 40.2628 9.44988 40.9406 9.02633C41.6713 8.57338 42.4736 8.24783 43.3132 8.06356C44.2252 7.8566 45.1578 7.75365 46.093 7.75666C46.8596 7.75787 47.6251 7.81605 48.3831 7.93073C49.1572 8.04712 49.9223 8.21665 50.6732 8.43811V12.4905C50.0064 12.1017 49.2886 11.8082 48.5405 11.6185C47.8114 11.4287 47.0615 11.3311 46.3081 11.3281C45.9822 11.3266 45.6569 11.3573 45.337 11.4197C45.0583 11.4723 44.7877 11.5616 44.5324 11.6853C44.3163 11.7883 44.1284 11.9423 43.985 12.1341C43.8527 12.3145 43.7827 12.5332 43.7855 12.757C43.7793 13.0511 43.8862 13.3363 44.084 13.5539C44.3055 13.7925 44.5701 13.9871 44.8638 14.1273C45.2096 14.2981 45.5679 14.4423 45.9355 14.5588C46.3279 14.6864 46.7178 14.8165 47.1053 14.949C47.7532 15.1716 48.3853 15.4379 48.9972 15.746C49.5281 16.0106 50.0173 16.352 50.449 16.7591C50.8506 17.1431 51.1674 17.6071 51.3789 18.1211C51.6396 18.8431 51.745 19.6121 51.6882 20.3777C51.6314 21.1433 51.4136 21.8882 51.0491 22.5638C50.6147 23.2752 50.0173 23.873 49.3064 24.3078C48.5333 24.7752 47.686 25.1067 46.8011 25.2879C45.833 25.4948 44.8456 25.5977 43.8556 25.5948C42.0874 25.6115 40.3298 25.3192 38.662 24.731" fill="#2196F3"/>
<path d="M71.2971 25.1782H66.0698V15.51C66.0698 13.0185 65.1629 11.7728 63.3493 11.7728C62.9178 11.7602 62.4893 11.8481 62.0976 12.0297C61.7059 12.2112 61.3617 12.4814 61.0922 12.8189C60.4974 13.5735 60.1913 14.5158 60.2291 15.4762V25.1782H54.9844V0H60.2291V10.6953H60.295C60.8289 9.78654 61.5939 9.03564 62.5122 8.51913C63.4304 8.00262 64.4691 7.73896 65.5224 7.755C69.3722 7.755 71.2971 10.0801 71.2971 14.7304V25.1782Z" fill="#2196F3"/>
<path d="M79.1583 23.2015H79.0923V33H73.8477V8.16747H79.0923V10.725H79.1583C79.7259 9.8728 80.4818 9.1627 81.3675 8.64959C82.2532 8.13647 83.245 7.83409 84.2661 7.76583C85.2872 7.69756 86.3104 7.86525 87.2564 8.25591C88.2024 8.64656 89.0459 9.24973 89.7218 10.0188C91.0087 11.8092 91.6441 13.9868 91.5223 16.189C91.644 18.6403 90.9008 21.0565 89.4226 23.015C88.7569 23.8503 87.9052 24.5181 86.9356 24.965C85.9659 25.412 84.9052 25.6257 83.8383 25.589C82.9175 25.6327 82.0013 25.435 81.1805 25.0154C80.3596 24.5957 79.6625 23.9687 79.1583 23.1965M79.0091 16.2211V17.5832C78.9641 18.6217 79.2942 19.6417 79.939 20.4567C80.2327 20.8174 80.6056 21.1054 81.0287 21.2985C81.4517 21.4915 81.9136 21.5843 82.3783 21.5696C82.921 21.5922 83.4605 21.4769 83.9466 21.2344C84.4327 20.9919 84.8495 20.6301 85.1581 20.1828C85.8852 19.0071 86.2308 17.635 86.1473 16.2549C86.1473 13.2651 84.9858 11.7702 82.6627 11.7702C82.16 11.7579 81.6612 11.8616 81.205 12.0734C80.7488 12.2851 80.3474 12.5992 80.0321 12.9912C79.3165 13.9109 78.9543 15.0569 79.0115 16.2211" fill="#2196F3"/>
<path d="M103.02 25.5924C101.805 25.6606 100.588 25.4849 99.4413 25.0756C98.2945 24.6662 97.2411 24.0316 96.3431 23.2089C95.5148 22.3562 94.8714 21.3415 94.4531 20.2284C94.0347 19.1153 93.8505 17.9277 93.912 16.7401C93.8439 15.5242 94.0334 14.3076 94.4682 13.1702C94.9029 12.0328 95.573 11.0002 96.4345 10.1401C98.3076 8.48074 100.757 7.62471 103.255 7.75669C106.077 7.75669 108.29 8.55116 109.893 10.1401C110.705 10.9695 111.337 11.9569 111.751 13.041C112.165 14.1251 112.352 15.2828 112.3 16.4423C112.365 17.6684 112.179 18.8948 111.752 20.0459C111.325 21.197 110.667 22.2485 109.819 23.1355C108.91 23.9814 107.839 24.6351 106.671 25.0574C105.504 25.4797 104.263 25.6619 103.023 25.5932M103.156 11.7753C102.608 11.7473 102.062 11.8485 101.561 12.0706C101.06 12.2927 100.618 12.6296 100.27 13.054C99.5232 14.1074 99.16 15.3857 99.2415 16.6749C99.2415 19.9408 100.558 21.5741 103.191 21.5746C105.703 21.5746 106.958 19.8971 106.958 16.5421C106.958 13.3648 105.691 11.7761 103.157 11.7761" fill="#2196F3"/>
<path d="M131.24 25.1775H126.017V15.7279C126.017 13.0929 125.077 11.7753 123.196 11.7753C122.768 11.7666 122.343 11.8564 121.954 12.0378C121.566 12.2191 121.224 12.4872 120.955 12.8214C120.351 13.5717 120.039 14.5158 120.077 15.4788V25.1775H114.832V8.16678H120.077V10.8571H120.143C120.678 9.886 121.471 9.082 122.435 8.53397C123.399 7.98595 124.495 7.71525 125.602 7.7518C129.364 7.7518 131.245 10.0879 131.245 14.7602L131.24 25.1775Z" fill="#2196F3"/>
<path d="M151.337 25.1782H146.092V22.836H146.026C145.473 23.7215 144.694 24.4437 143.769 24.9282C142.845 25.4128 141.808 25.6423 140.765 25.5931C139.796 25.6284 138.832 25.4445 137.944 25.0549C137.057 24.6654 136.268 24.0803 135.638 23.3434C134.343 21.843 133.696 19.7475 133.696 17.0569C133.575 14.6191 134.336 12.2192 135.84 10.2977C136.518 9.47375 137.376 8.81633 138.348 8.37586C139.319 7.93539 140.379 7.72357 141.445 7.75665C143.636 7.75665 145.163 8.54287 146.026 10.1153H146.092V0H151.336L151.337 25.1782ZM146.192 16.9075V15.6288C146.228 14.6216 145.884 13.6377 145.23 12.8716C144.891 12.504 144.476 12.2157 144.013 12.0271C143.55 11.8384 143.051 11.7542 142.552 11.7804C142.053 11.8065 141.566 11.9424 141.125 12.1784C140.685 12.4143 140.301 12.7445 140.003 13.1455C139.292 14.2663 138.95 15.5815 139.023 16.9067C138.945 18.1314 139.278 19.3472 139.969 20.361C140.289 20.746 140.69 21.0546 141.144 21.2644C141.599 21.4742 142.094 21.5798 142.594 21.5734C143.094 21.5671 143.587 21.449 144.036 21.2279C144.484 21.0067 144.878 20.688 145.188 20.295C145.898 19.3127 146.252 18.1184 146.192 16.9075Z" fill="#2196F3"/>
</g>
</g>
<defs>
<clipPath id="clip0_7896_50727">
<rect width="151" height="33" fill="white" transform="translate(0.335938)"/>
</clipPath>
</defs>
</svg>
