<svg width="28" height="30" viewBox="0 0 28 30" fill="none" xmlns="http://www.w3.org/2000/svg">
<path d="M26.0781 9.52563C25.7969 8.40063 24.9062 7.51001 23.8281 7.22876C21.8125 6.66626 13.8438 6.66626 13.8438 6.66626C13.8438 6.66626 5.82812 6.66626 3.8125 7.22876C2.73438 7.51001 1.84375 8.40063 1.5625 9.52563C1 11.4944 1 15.7132 1 15.7132C1 15.7132 1 19.885 1.5625 21.9007C1.84375 23.0257 2.73438 23.8694 3.8125 24.1507C5.82812 24.6663 13.8438 24.6663 13.8438 24.6663C13.8438 24.6663 21.8125 24.6663 23.8281 24.1507C24.9062 23.8694 25.7969 23.0257 26.0781 21.9007C26.6406 19.885 26.6406 15.7132 26.6406 15.7132C26.6406 15.7132 26.6406 11.4944 26.0781 9.52563ZM11.2188 19.51V11.9163L17.875 15.7132L11.2188 19.51Z" fill="#FF0100"/>
</svg>
