<svg width="92" height="30" viewBox="0 0 92 30" fill="none" xmlns="http://www.w3.org/2000/svg">
<path fill-rule="evenodd" clip-rule="evenodd" d="M58.5425 6.70556C58.5425 6.46667 58.5869 6.23333 58.6756 6.01111C58.7644 5.78889 58.8976 5.58889 59.0696 5.42222C59.2361 5.25556 59.4358 5.12222 59.6578 5.03333C59.8797 4.94444 60.1128 4.9 60.3514 4.9H61.622V2.24444C61.5832 1.96667 61.5998 1.68333 61.683 1.41111C61.7607 1.13889 61.8994 0.888889 62.0825 0.677778C62.2657 0.466667 62.4932 0.294444 62.7484 0.177778C63.0036 0.0611111 63.2811 0 63.5641 0C63.847 0 64.1245 0.0611111 64.3797 0.177778C64.635 0.294444 64.8624 0.466667 65.0456 0.677778C65.2287 0.888889 65.3674 1.13889 65.4451 1.41111C65.5228 1.68333 65.5449 1.96667 65.5061 2.24444V4.9H69.6399C69.8785 4.9 70.1115 4.94444 70.3335 5.03333C70.5554 5.12222 70.7552 5.25556 70.9216 5.42222C71.0881 5.58889 71.2213 5.78889 71.3156 6.01111C71.4044 6.23333 71.4488 6.46667 71.4488 6.70556C71.4488 7.18333 71.2546 7.64444 70.9161 7.98333C70.5776 8.32222 70.1171 8.51111 69.6399 8.51111H65.5061V14.9111C65.5061 18.0333 67.2373 19.6278 69.6399 19.6278C70.1226 19.6278 70.5887 19.8222 70.9272 20.1611C71.2657 20.5056 71.4599 20.9667 71.4599 21.45C71.4599 21.9333 71.2657 22.4 70.9272 22.7389C70.5832 23.0833 70.1226 23.2722 69.6399 23.2722C65.0788 23.2722 61.6165 20.05 61.6165 14.9056V8.50556H60.3458C59.8686 8.50556 59.4081 8.31111 59.0696 7.97778C58.7311 7.63889 58.5369 7.18333 58.5369 6.7L58.5425 6.70556ZM18.3809 14.1222C18.3976 12.3333 18.9136 10.5889 19.8735 9.08333C20.8335 7.57778 22.204 6.38333 23.8131 5.62778C25.4223 4.87778 27.2145 4.6 28.979 4.83333C30.7379 5.06667 32.4025 5.79444 33.762 6.94444C33.9728 7.12778 34.1448 7.35556 34.2669 7.60556C34.389 7.86111 34.4555 8.13333 34.4666 8.41667C34.4666 8.94444 34.2669 9.45555 33.9007 9.83333L28.4962 16.3111C28.3409 16.5167 28.1356 16.6833 27.9025 16.7944C27.6695 16.9056 27.4142 16.9611 27.159 16.95C26.9204 16.9611 26.6874 16.9278 26.4599 16.8444C26.2379 16.7611 26.0326 16.6333 25.8606 16.4667C25.6886 16.3 25.5554 16.1 25.4611 15.8833C25.3723 15.6611 25.3224 15.4278 25.3279 15.1889C25.3168 14.9778 25.3501 14.7611 25.4223 14.5611C25.4944 14.3611 25.6054 14.1778 25.7496 14.0222L30.0055 9.00555C29.3063 8.57778 28.5073 8.35556 27.6861 8.36667C24.6676 8.36667 22.2761 10.9167 22.2761 14.1333C22.2761 17.35 24.6343 19.9 27.6861 19.9C28.3797 19.9056 29.0733 19.7667 29.7114 19.4944C30.3495 19.2222 30.9266 18.8167 31.4038 18.3056C31.4759 18.2444 31.548 18.1833 31.6202 18.1278C32.0751 17.7444 32.4525 17.4278 33.0906 17.4278C33.3403 17.4167 33.5899 17.4556 33.8174 17.55C34.0505 17.6389 34.2613 17.7778 34.4389 17.95C34.6165 18.1278 34.7552 18.3333 34.8495 18.5667C34.9438 18.8 34.9882 19.05 34.9827 19.3C34.9494 19.7778 34.7441 20.2278 34.4167 20.5722C33.5733 21.5278 32.5357 22.2833 31.3705 22.7944C30.2052 23.3056 28.9457 23.55 27.675 23.5167C26.4488 23.5333 25.228 23.3056 24.0906 22.8444C22.9531 22.3778 21.9155 21.6889 21.0499 20.8167C20.1843 19.9444 19.4962 18.9 19.0357 17.7556C18.5751 16.6111 18.3477 15.3833 18.3698 14.1444L18.3809 14.1222ZM10.8513 8.68889H3.04987C2.57268 8.68889 2.11769 8.49444 1.77922 8.15555C1.44075 7.81667 1.25209 7.35556 1.24654 6.87778C1.24654 6.63889 1.29093 6.4 1.37971 6.18333C1.46849 5.96111 1.60166 5.76111 1.76812 5.59444C1.93458 5.42778 2.13433 5.29444 2.35628 5.2C2.57823 5.11111 2.81128 5.06667 3.04987 5.06667H14.7354C14.974 5.06667 15.2071 5.11111 15.429 5.2C15.651 5.28889 15.8452 5.42222 16.0172 5.59444C16.1837 5.76111 16.3168 5.96667 16.4056 6.18333C16.4944 6.40556 16.5388 6.63889 16.5388 6.87778C16.5221 7.36111 16.3168 7.81667 15.9728 8.15555L6.47342 19.5722H14.7354C14.974 19.5722 15.2071 19.6167 15.429 19.7056C15.651 19.7944 15.8452 19.9278 16.0172 20.1C16.1837 20.2667 16.3168 20.4722 16.4056 20.6889C16.4944 20.9111 16.5388 21.1444 16.5388 21.3833C16.5388 21.8611 16.3446 22.3222 16.0061 22.6611C15.6676 23 15.2126 23.1944 14.7354 23.1944H2.63372C2.15098 23.1944 1.69044 22.9944 1.35752 22.6444C1.01904 22.3 0.835938 21.8333 0.835938 21.3444C0.847035 20.8667 1.03569 20.4056 1.36306 20.0611L10.8513 8.68889ZM42.4734 28.3V21.35C44.0936 22.7778 46.1744 23.5611 48.3329 23.5444C53.4155 23.5444 57.2663 19.4 57.2663 14.15C57.2663 8.9 53.4155 4.75556 48.3329 4.75556C46.1689 4.73333 44.0826 5.53333 42.4734 6.98889V6.74444C42.4068 6.27222 42.1738 5.84444 41.8187 5.53333C41.4636 5.22222 41.0086 5.05 40.5314 5.05C40.0542 5.05 39.6047 5.22222 39.2441 5.53333C38.889 5.84444 38.6559 6.27222 38.5893 6.74444V28.3056C38.6559 28.7778 38.889 29.2056 39.2441 29.5167C39.5992 29.8278 40.0542 30 40.5314 30C41.0086 30 41.458 29.8278 41.8187 29.5167C42.1738 29.2056 42.4068 28.7778 42.4734 28.3056V28.3ZM47.9056 8.37222C50.9408 8.37222 53.3433 10.8556 53.3433 14.1556C53.3433 17.4556 50.9408 19.9389 47.9056 19.9389C44.8705 19.9389 42.4679 17.4556 42.4679 14.1556V13.9056C42.5733 10.7556 44.8705 8.37222 47.9056 8.37222ZM74.7391 8.92222C73.7126 10.4611 73.1633 12.2778 73.1633 14.1278C73.1411 15.3667 73.3686 16.5944 73.8292 17.7389C74.2897 18.8833 74.9777 19.9278 75.8489 20.8056C76.72 21.6778 77.7576 22.3722 78.9007 22.8333C80.0437 23.2944 81.2644 23.5222 82.4962 23.5C84.3439 23.5 86.1473 22.95 87.6843 21.9222C89.2213 20.8944 90.4142 19.4278 91.1245 17.7167C91.8292 16.0056 92.0178 14.1167 91.6571 12.3C91.2965 10.4833 90.4087 8.81111 89.1047 7.5C87.8008 6.18889 86.1362 5.29444 84.3273 4.93333C82.5184 4.57222 80.6374 4.75556 78.934 5.46667C77.2305 6.17778 75.7712 7.37778 74.7447 8.91667L74.7391 8.92222ZM82.5018 8.36111C85.598 8.36111 87.9284 10.9444 87.9284 14.1278C87.9284 17.3111 85.6035 19.8944 82.5018 19.8944C79.4001 19.8944 77.0751 17.3111 77.0751 14.1278C77.0751 10.9444 79.4056 8.36111 82.5018 8.36111Z" fill="url(#paint0_linear_16271_38094)"/>
<defs>
<linearGradient id="paint0_linear_16271_38094" x1="44.1214" y1="4.44444" x2="48.6989" y2="31.2092" gradientUnits="userSpaceOnUse">
<stop stop-color="#FF3269"/>
<stop offset="1" stop-color="#FF794D"/>
</linearGradient>
</defs>
</svg>
